M48
;GenerationSoftware,Autodesk,EAGLE,9.4.2*%
;CreationDate,2020-03-03T18:46:08Z*%
FMAT,2
ICI,OFF
METRIC,TZ,000.000
T6C0.500
T5C1.000
T4C1.016
T3C1.100
T2C2.200
T1C3.200
%
G90
M71
T1
X3500Y3500
X76500Y3500
T2
X28500Y5000
X37500Y5000
X58500Y5000
X67500Y5000
X43500Y5000
X52500Y5000
X13500Y5000
X22500Y5000
T3
X30500Y12000
X35500Y12000
X33000Y12000
X18000Y12000
X65500Y12000
X63000Y12000
X60500Y12000
X45500Y12000
X50500Y12000
X48000Y12000
X15500Y12000
X20500Y12000
T4
X75960Y19910
X75960Y22450
X78500Y9750
X78500Y14830
X78500Y17370
X78500Y19910
X78500Y22450
X78500Y12290
X16110Y21230
X18650Y21230
X21190Y21230
X23730Y21230
X26270Y21230
X28810Y21230
X16110Y23770
X18650Y23770
X21190Y23770
X23730Y23770
X26270Y23770
X28810Y23770
X31350Y21230
X33890Y21230
X31350Y23770
X33890Y23770
X73440Y22450
X73440Y19910
X73440Y17370
X73440Y14830
X73440Y12290
X73440Y9750
X6460Y9650
X6460Y12190
X6460Y14730
X6460Y17270
X6460Y19810
X6460Y22350
X4000Y22350
X4000Y19810
X4000Y17270
X4000Y14730
X4000Y12190
X4000Y9650
X1460Y22350
X1460Y19810
X1460Y17270
X1460Y14730
X1460Y12190
X1460Y9650
X75960Y9750
X75960Y12290
X75960Y14830
X75960Y17370
T5
X76000Y26500
X76000Y30000
T6
X49300Y16900
X45000Y21400
X43400Y22600
X38400Y23500
X37800Y19100
X26400Y11300
X23600Y13100
X21500Y14300
X59200Y26800
X50800Y20600
X57100Y30400
X57500Y26700
X54700Y22000
X53700Y30300
X43650Y27150
X54100Y26500
X51000Y21700
X50200Y22600
X50100Y30200
X44000Y24900
X46700Y30200
X48700Y22600
X43200Y30200
X47500Y26900
X1600Y29000
X64900Y28100
M30