G04 EAGLE Gerber RS-274X export*
G75*
%MOMM*%
%FSLAX34Y34*%
%LPD*%
%INTop Copper*%
%IPPOS*%
%AMOC8*
5,1,8,0,0,1.08239X$1,22.5*%
G01*
%ADD10C,5.842000*%
%ADD11P,1.649562X8X22.500000*%
%ADD12C,2.184400*%
%ADD13R,2.550000X2.700000*%
%ADD14P,1.649562X8X202.500000*%
%ADD15C,3.216000*%
%ADD16C,1.650000*%
%ADD17R,1.600000X1.803000*%
%ADD18C,0.804800*%
%ADD19C,0.609600*%
%ADD20C,0.406400*%
%ADD21C,1.016000*%
%ADD22C,1.270000*%
%ADD23C,0.152400*%

G36*
X750369Y2551D02*
X750369Y2551D01*
X750476Y2552D01*
X750569Y2571D01*
X750664Y2581D01*
X750766Y2612D01*
X750870Y2633D01*
X750957Y2671D01*
X751049Y2699D01*
X751142Y2750D01*
X751240Y2791D01*
X751319Y2845D01*
X751403Y2891D01*
X751484Y2959D01*
X751572Y3019D01*
X751639Y3087D01*
X751712Y3148D01*
X751779Y3231D01*
X751853Y3308D01*
X751905Y3388D01*
X751964Y3462D01*
X752013Y3556D01*
X752071Y3646D01*
X752106Y3735D01*
X752150Y3819D01*
X752179Y3921D01*
X752218Y4021D01*
X752235Y4115D01*
X752261Y4206D01*
X752270Y4312D01*
X752289Y4417D01*
X752286Y4513D01*
X752294Y4608D01*
X752282Y4713D01*
X752279Y4820D01*
X752258Y4913D01*
X752247Y5007D01*
X752214Y5109D01*
X752191Y5212D01*
X752152Y5299D01*
X752122Y5390D01*
X752070Y5483D01*
X752027Y5580D01*
X751971Y5658D01*
X751925Y5741D01*
X751855Y5821D01*
X751793Y5908D01*
X751724Y5973D01*
X751661Y6045D01*
X751577Y6111D01*
X751500Y6184D01*
X751403Y6246D01*
X751343Y6292D01*
X751290Y6319D01*
X751221Y6363D01*
X748657Y7734D01*
X746064Y9467D01*
X743652Y11446D01*
X741446Y13652D01*
X739467Y16064D01*
X737734Y18657D01*
X736263Y21409D01*
X735069Y24290D01*
X734164Y27276D01*
X733555Y30336D01*
X733496Y30937D01*
X762968Y30937D01*
X762986Y30939D01*
X763003Y30937D01*
X763186Y30958D01*
X763368Y30977D01*
X763386Y30982D01*
X763403Y30984D01*
X763578Y31041D01*
X763753Y31095D01*
X763769Y31103D01*
X763786Y31109D01*
X763946Y31199D01*
X764107Y31287D01*
X764121Y31298D01*
X764137Y31307D01*
X764276Y31427D01*
X764417Y31544D01*
X764428Y31558D01*
X764441Y31570D01*
X764554Y31715D01*
X764669Y31858D01*
X764677Y31874D01*
X764688Y31888D01*
X764770Y32053D01*
X764855Y32215D01*
X764859Y32232D01*
X764867Y32249D01*
X764915Y32427D01*
X764966Y32602D01*
X764967Y32620D01*
X764972Y32637D01*
X764999Y32968D01*
X764999Y35001D01*
X767032Y35001D01*
X767050Y35003D01*
X767067Y35001D01*
X767250Y35023D01*
X767433Y35041D01*
X767450Y35046D01*
X767467Y35048D01*
X767642Y35105D01*
X767817Y35159D01*
X767833Y35167D01*
X767850Y35173D01*
X768010Y35263D01*
X768172Y35351D01*
X768185Y35362D01*
X768201Y35371D01*
X768340Y35491D01*
X768481Y35608D01*
X768492Y35622D01*
X768505Y35634D01*
X768618Y35779D01*
X768733Y35922D01*
X768741Y35938D01*
X768752Y35952D01*
X768834Y36117D01*
X768919Y36280D01*
X768924Y36297D01*
X768932Y36313D01*
X768979Y36491D01*
X769030Y36666D01*
X769031Y36684D01*
X769036Y36701D01*
X769063Y37032D01*
X769063Y66504D01*
X769664Y66445D01*
X772724Y65836D01*
X775710Y64931D01*
X778591Y63737D01*
X781343Y62266D01*
X783936Y60533D01*
X786348Y58554D01*
X788554Y56348D01*
X790533Y53936D01*
X792266Y51343D01*
X793637Y48779D01*
X793696Y48691D01*
X793747Y48597D01*
X793808Y48524D01*
X793861Y48445D01*
X793936Y48370D01*
X794004Y48288D01*
X794079Y48228D01*
X794146Y48161D01*
X794235Y48102D01*
X794318Y48036D01*
X794403Y47992D01*
X794482Y47939D01*
X794581Y47899D01*
X794675Y47850D01*
X794767Y47824D01*
X794855Y47788D01*
X794960Y47768D01*
X795062Y47739D01*
X795157Y47731D01*
X795251Y47713D01*
X795358Y47715D01*
X795464Y47706D01*
X795558Y47717D01*
X795654Y47718D01*
X795758Y47740D01*
X795863Y47753D01*
X795954Y47782D01*
X796047Y47802D01*
X796145Y47845D01*
X796246Y47878D01*
X796329Y47924D01*
X796417Y47962D01*
X796504Y48023D01*
X796597Y48075D01*
X796669Y48138D01*
X796747Y48192D01*
X796821Y48269D01*
X796902Y48339D01*
X796960Y48414D01*
X797026Y48483D01*
X797083Y48573D01*
X797148Y48657D01*
X797191Y48742D01*
X797242Y48823D01*
X797280Y48922D01*
X797328Y49017D01*
X797352Y49109D01*
X797387Y49198D01*
X797405Y49303D01*
X797432Y49406D01*
X797442Y49520D01*
X797454Y49595D01*
X797453Y49655D01*
X797459Y49737D01*
X797459Y90686D01*
X797458Y90695D01*
X797459Y90704D01*
X797438Y90896D01*
X797419Y91087D01*
X797417Y91095D01*
X797416Y91104D01*
X797358Y91286D01*
X797301Y91472D01*
X797297Y91479D01*
X797294Y91488D01*
X797201Y91656D01*
X797109Y91826D01*
X797104Y91832D01*
X797099Y91840D01*
X796975Y91987D01*
X796852Y92135D01*
X796845Y92140D01*
X796839Y92147D01*
X796689Y92266D01*
X796538Y92387D01*
X796530Y92391D01*
X796523Y92397D01*
X796350Y92485D01*
X796181Y92573D01*
X796172Y92575D01*
X796164Y92579D01*
X795978Y92631D01*
X795794Y92684D01*
X795785Y92685D01*
X795776Y92687D01*
X795583Y92701D01*
X795392Y92717D01*
X795384Y92716D01*
X795375Y92717D01*
X795182Y92692D01*
X794993Y92670D01*
X794984Y92667D01*
X794975Y92666D01*
X794792Y92605D01*
X794610Y92545D01*
X794602Y92541D01*
X794594Y92538D01*
X794427Y92442D01*
X794259Y92347D01*
X794252Y92341D01*
X794245Y92337D01*
X793992Y92122D01*
X789209Y87339D01*
X787539Y87339D01*
X787539Y96992D01*
X787537Y97010D01*
X787539Y97027D01*
X787518Y97210D01*
X787499Y97392D01*
X787494Y97409D01*
X787492Y97427D01*
X787467Y97505D01*
X787506Y97642D01*
X787508Y97660D01*
X787512Y97677D01*
X787539Y98008D01*
X787539Y107661D01*
X789209Y107661D01*
X793992Y102878D01*
X793999Y102872D01*
X794004Y102865D01*
X794154Y102745D01*
X794303Y102623D01*
X794311Y102618D01*
X794318Y102613D01*
X794488Y102524D01*
X794659Y102434D01*
X794668Y102431D01*
X794675Y102427D01*
X794860Y102374D01*
X795045Y102319D01*
X795054Y102318D01*
X795062Y102316D01*
X795254Y102300D01*
X795446Y102283D01*
X795455Y102284D01*
X795464Y102283D01*
X795653Y102305D01*
X795846Y102326D01*
X795855Y102329D01*
X795863Y102330D01*
X796045Y102389D01*
X796230Y102448D01*
X796238Y102452D01*
X796246Y102455D01*
X796415Y102550D01*
X796582Y102643D01*
X796589Y102648D01*
X796597Y102653D01*
X796743Y102779D01*
X796889Y102903D01*
X796895Y102910D01*
X796902Y102916D01*
X797019Y103067D01*
X797139Y103219D01*
X797143Y103227D01*
X797148Y103234D01*
X797234Y103406D01*
X797321Y103578D01*
X797324Y103586D01*
X797328Y103595D01*
X797378Y103781D01*
X797429Y103966D01*
X797430Y103975D01*
X797432Y103983D01*
X797459Y104314D01*
X797459Y116086D01*
X797458Y116095D01*
X797459Y116104D01*
X797438Y116296D01*
X797419Y116487D01*
X797417Y116495D01*
X797416Y116504D01*
X797358Y116686D01*
X797301Y116872D01*
X797297Y116879D01*
X797294Y116888D01*
X797201Y117056D01*
X797109Y117226D01*
X797104Y117232D01*
X797099Y117240D01*
X796975Y117387D01*
X796852Y117535D01*
X796845Y117540D01*
X796839Y117547D01*
X796688Y117666D01*
X796538Y117787D01*
X796530Y117791D01*
X796523Y117797D01*
X796351Y117884D01*
X796181Y117973D01*
X796172Y117975D01*
X796164Y117979D01*
X795978Y118031D01*
X795794Y118084D01*
X795785Y118085D01*
X795776Y118087D01*
X795583Y118101D01*
X795392Y118117D01*
X795384Y118116D01*
X795375Y118117D01*
X795182Y118092D01*
X794993Y118070D01*
X794984Y118067D01*
X794975Y118066D01*
X794792Y118005D01*
X794610Y117945D01*
X794602Y117941D01*
X794594Y117938D01*
X794427Y117842D01*
X794259Y117747D01*
X794252Y117741D01*
X794245Y117737D01*
X793992Y117522D01*
X789209Y112739D01*
X787539Y112739D01*
X787539Y122392D01*
X787538Y122406D01*
X787539Y122420D01*
X787539Y122423D01*
X787539Y122427D01*
X787518Y122610D01*
X787499Y122792D01*
X787494Y122809D01*
X787492Y122827D01*
X787467Y122905D01*
X787506Y123042D01*
X787508Y123060D01*
X787512Y123077D01*
X787539Y123408D01*
X787539Y133061D01*
X789209Y133061D01*
X793992Y128278D01*
X793999Y128272D01*
X794004Y128265D01*
X794154Y128145D01*
X794303Y128023D01*
X794311Y128018D01*
X794318Y128013D01*
X794488Y127924D01*
X794659Y127834D01*
X794668Y127831D01*
X794675Y127827D01*
X794860Y127774D01*
X795045Y127719D01*
X795054Y127718D01*
X795062Y127716D01*
X795254Y127700D01*
X795446Y127683D01*
X795455Y127684D01*
X795464Y127683D01*
X795653Y127705D01*
X795846Y127726D01*
X795855Y127729D01*
X795863Y127730D01*
X796045Y127789D01*
X796230Y127848D01*
X796238Y127852D01*
X796246Y127855D01*
X796415Y127950D01*
X796582Y128043D01*
X796589Y128048D01*
X796597Y128053D01*
X796743Y128179D01*
X796889Y128303D01*
X796895Y128310D01*
X796902Y128316D01*
X797019Y128467D01*
X797139Y128619D01*
X797143Y128627D01*
X797148Y128634D01*
X797234Y128806D01*
X797321Y128978D01*
X797324Y128986D01*
X797328Y128995D01*
X797378Y129181D01*
X797429Y129366D01*
X797430Y129375D01*
X797432Y129383D01*
X797459Y129714D01*
X797459Y141486D01*
X797458Y141495D01*
X797459Y141504D01*
X797438Y141696D01*
X797419Y141887D01*
X797417Y141895D01*
X797416Y141904D01*
X797359Y142084D01*
X797301Y142272D01*
X797297Y142279D01*
X797294Y142288D01*
X797201Y142456D01*
X797109Y142626D01*
X797104Y142632D01*
X797099Y142640D01*
X796975Y142787D01*
X796852Y142935D01*
X796845Y142940D01*
X796839Y142947D01*
X796689Y143066D01*
X796538Y143187D01*
X796530Y143191D01*
X796523Y143197D01*
X796350Y143285D01*
X796181Y143373D01*
X796172Y143375D01*
X796164Y143379D01*
X795978Y143431D01*
X795794Y143484D01*
X795785Y143485D01*
X795776Y143487D01*
X795583Y143501D01*
X795392Y143517D01*
X795384Y143516D01*
X795375Y143517D01*
X795182Y143492D01*
X794993Y143470D01*
X794984Y143467D01*
X794975Y143466D01*
X794792Y143405D01*
X794610Y143345D01*
X794602Y143341D01*
X794594Y143338D01*
X794427Y143242D01*
X794259Y143147D01*
X794252Y143141D01*
X794245Y143137D01*
X793992Y142922D01*
X789209Y138139D01*
X787539Y138139D01*
X787539Y147792D01*
X787537Y147810D01*
X787539Y147827D01*
X787518Y148009D01*
X787499Y148192D01*
X787494Y148209D01*
X787492Y148227D01*
X787467Y148305D01*
X787506Y148442D01*
X787508Y148460D01*
X787512Y148477D01*
X787539Y148808D01*
X787539Y158461D01*
X789209Y158461D01*
X793992Y153678D01*
X793999Y153672D01*
X794004Y153665D01*
X794154Y153545D01*
X794303Y153423D01*
X794311Y153418D01*
X794318Y153413D01*
X794488Y153324D01*
X794659Y153234D01*
X794668Y153231D01*
X794675Y153227D01*
X794860Y153174D01*
X795045Y153119D01*
X795054Y153118D01*
X795062Y153116D01*
X795254Y153100D01*
X795446Y153083D01*
X795455Y153084D01*
X795464Y153083D01*
X795653Y153105D01*
X795846Y153126D01*
X795855Y153129D01*
X795863Y153130D01*
X796045Y153189D01*
X796230Y153248D01*
X796238Y153252D01*
X796246Y153255D01*
X796415Y153350D01*
X796582Y153443D01*
X796589Y153448D01*
X796597Y153453D01*
X796743Y153579D01*
X796889Y153703D01*
X796895Y153710D01*
X796902Y153716D01*
X797019Y153867D01*
X797139Y154019D01*
X797143Y154027D01*
X797148Y154034D01*
X797234Y154206D01*
X797321Y154378D01*
X797324Y154386D01*
X797328Y154395D01*
X797378Y154581D01*
X797429Y154766D01*
X797430Y154775D01*
X797432Y154783D01*
X797459Y155114D01*
X797459Y166886D01*
X797458Y166895D01*
X797459Y166904D01*
X797438Y167096D01*
X797419Y167287D01*
X797417Y167295D01*
X797416Y167304D01*
X797358Y167486D01*
X797301Y167672D01*
X797297Y167679D01*
X797294Y167688D01*
X797201Y167856D01*
X797109Y168026D01*
X797104Y168032D01*
X797099Y168040D01*
X796975Y168187D01*
X796852Y168335D01*
X796845Y168340D01*
X796839Y168347D01*
X796688Y168466D01*
X796538Y168587D01*
X796530Y168591D01*
X796523Y168597D01*
X796350Y168685D01*
X796181Y168773D01*
X796172Y168775D01*
X796164Y168779D01*
X795978Y168831D01*
X795794Y168884D01*
X795785Y168885D01*
X795776Y168887D01*
X795583Y168901D01*
X795392Y168917D01*
X795384Y168916D01*
X795375Y168917D01*
X795182Y168892D01*
X794993Y168870D01*
X794984Y168867D01*
X794975Y168866D01*
X794792Y168805D01*
X794610Y168745D01*
X794602Y168741D01*
X794594Y168738D01*
X794427Y168642D01*
X794259Y168547D01*
X794252Y168541D01*
X794245Y168537D01*
X793992Y168322D01*
X789209Y163539D01*
X787539Y163539D01*
X787539Y173192D01*
X787539Y173198D01*
X787539Y173201D01*
X787538Y173212D01*
X787539Y173227D01*
X787518Y173410D01*
X787499Y173592D01*
X787494Y173609D01*
X787492Y173627D01*
X787467Y173705D01*
X787506Y173842D01*
X787508Y173860D01*
X787512Y173877D01*
X787539Y174208D01*
X787539Y183861D01*
X789209Y183861D01*
X793992Y179078D01*
X793999Y179072D01*
X794004Y179065D01*
X794154Y178945D01*
X794303Y178823D01*
X794311Y178818D01*
X794318Y178813D01*
X794488Y178724D01*
X794659Y178634D01*
X794668Y178631D01*
X794675Y178627D01*
X794860Y178574D01*
X795045Y178519D01*
X795054Y178518D01*
X795062Y178516D01*
X795254Y178500D01*
X795446Y178483D01*
X795455Y178484D01*
X795464Y178483D01*
X795653Y178505D01*
X795846Y178526D01*
X795855Y178529D01*
X795863Y178530D01*
X796045Y178589D01*
X796230Y178648D01*
X796238Y178652D01*
X796246Y178655D01*
X796415Y178750D01*
X796582Y178843D01*
X796589Y178848D01*
X796597Y178853D01*
X796743Y178979D01*
X796889Y179103D01*
X796895Y179110D01*
X796902Y179116D01*
X797019Y179267D01*
X797139Y179419D01*
X797143Y179427D01*
X797148Y179434D01*
X797234Y179606D01*
X797321Y179778D01*
X797324Y179786D01*
X797328Y179795D01*
X797378Y179981D01*
X797429Y180166D01*
X797430Y180175D01*
X797432Y180183D01*
X797459Y180514D01*
X797459Y192286D01*
X797458Y192295D01*
X797459Y192304D01*
X797438Y192496D01*
X797419Y192687D01*
X797417Y192695D01*
X797416Y192704D01*
X797358Y192886D01*
X797301Y193072D01*
X797297Y193079D01*
X797294Y193088D01*
X797201Y193256D01*
X797109Y193426D01*
X797104Y193432D01*
X797099Y193440D01*
X796975Y193587D01*
X796852Y193735D01*
X796845Y193740D01*
X796839Y193747D01*
X796688Y193866D01*
X796538Y193987D01*
X796530Y193991D01*
X796523Y193997D01*
X796350Y194085D01*
X796181Y194173D01*
X796172Y194175D01*
X796164Y194179D01*
X795978Y194231D01*
X795794Y194284D01*
X795785Y194285D01*
X795776Y194287D01*
X795583Y194301D01*
X795392Y194317D01*
X795384Y194316D01*
X795375Y194317D01*
X795182Y194292D01*
X794993Y194270D01*
X794984Y194267D01*
X794975Y194266D01*
X794792Y194205D01*
X794610Y194145D01*
X794602Y194141D01*
X794594Y194138D01*
X794427Y194042D01*
X794259Y193947D01*
X794252Y193941D01*
X794245Y193937D01*
X793992Y193722D01*
X789209Y188939D01*
X787539Y188939D01*
X787539Y198592D01*
X787537Y198610D01*
X787539Y198627D01*
X787518Y198810D01*
X787499Y198992D01*
X787494Y199009D01*
X787492Y199027D01*
X787467Y199105D01*
X787506Y199242D01*
X787508Y199260D01*
X787512Y199277D01*
X787539Y199608D01*
X787539Y209261D01*
X789209Y209261D01*
X793992Y204478D01*
X793999Y204472D01*
X794004Y204465D01*
X794154Y204345D01*
X794303Y204223D01*
X794311Y204218D01*
X794318Y204213D01*
X794488Y204124D01*
X794659Y204034D01*
X794668Y204031D01*
X794675Y204027D01*
X794860Y203974D01*
X795045Y203919D01*
X795054Y203918D01*
X795062Y203916D01*
X795254Y203900D01*
X795446Y203883D01*
X795455Y203884D01*
X795464Y203883D01*
X795653Y203905D01*
X795846Y203926D01*
X795855Y203929D01*
X795863Y203930D01*
X796045Y203989D01*
X796230Y204048D01*
X796238Y204052D01*
X796246Y204055D01*
X796415Y204150D01*
X796582Y204243D01*
X796589Y204248D01*
X796597Y204253D01*
X796743Y204379D01*
X796889Y204503D01*
X796895Y204510D01*
X796902Y204516D01*
X797019Y204667D01*
X797139Y204819D01*
X797143Y204827D01*
X797148Y204834D01*
X797234Y205006D01*
X797321Y205178D01*
X797324Y205186D01*
X797328Y205195D01*
X797378Y205381D01*
X797429Y205566D01*
X797430Y205575D01*
X797432Y205583D01*
X797459Y205914D01*
X797459Y217686D01*
X797458Y217695D01*
X797459Y217704D01*
X797439Y217893D01*
X797419Y218087D01*
X797417Y218095D01*
X797416Y218104D01*
X797358Y218286D01*
X797301Y218472D01*
X797297Y218479D01*
X797294Y218488D01*
X797201Y218656D01*
X797109Y218826D01*
X797104Y218832D01*
X797099Y218840D01*
X796975Y218987D01*
X796852Y219135D01*
X796845Y219140D01*
X796839Y219147D01*
X796688Y219266D01*
X796538Y219387D01*
X796530Y219391D01*
X796523Y219397D01*
X796350Y219485D01*
X796181Y219573D01*
X796172Y219575D01*
X796164Y219579D01*
X795978Y219631D01*
X795794Y219684D01*
X795785Y219685D01*
X795776Y219687D01*
X795583Y219701D01*
X795392Y219717D01*
X795384Y219716D01*
X795375Y219717D01*
X795182Y219692D01*
X794993Y219670D01*
X794984Y219667D01*
X794975Y219666D01*
X794792Y219605D01*
X794610Y219545D01*
X794602Y219541D01*
X794594Y219538D01*
X794427Y219442D01*
X794259Y219347D01*
X794252Y219341D01*
X794245Y219337D01*
X793992Y219122D01*
X789209Y214339D01*
X787539Y214339D01*
X787539Y223992D01*
X787537Y224010D01*
X787539Y224027D01*
X787518Y224210D01*
X787499Y224392D01*
X787494Y224409D01*
X787492Y224427D01*
X787467Y224505D01*
X787506Y224642D01*
X787508Y224660D01*
X787512Y224677D01*
X787539Y225008D01*
X787539Y234661D01*
X789209Y234661D01*
X793992Y229878D01*
X793999Y229872D01*
X794004Y229865D01*
X794154Y229745D01*
X794303Y229623D01*
X794311Y229618D01*
X794318Y229613D01*
X794488Y229524D01*
X794659Y229434D01*
X794668Y229431D01*
X794675Y229427D01*
X794860Y229374D01*
X795045Y229319D01*
X795054Y229318D01*
X795062Y229316D01*
X795254Y229300D01*
X795446Y229283D01*
X795455Y229284D01*
X795464Y229283D01*
X795653Y229305D01*
X795846Y229326D01*
X795855Y229329D01*
X795863Y229330D01*
X796045Y229389D01*
X796230Y229448D01*
X796238Y229452D01*
X796246Y229455D01*
X796415Y229550D01*
X796582Y229643D01*
X796589Y229648D01*
X796597Y229653D01*
X796743Y229779D01*
X796889Y229903D01*
X796895Y229910D01*
X796902Y229916D01*
X797019Y230067D01*
X797139Y230219D01*
X797143Y230227D01*
X797148Y230234D01*
X797234Y230406D01*
X797321Y230578D01*
X797324Y230586D01*
X797328Y230595D01*
X797378Y230781D01*
X797429Y230966D01*
X797430Y230975D01*
X797432Y230983D01*
X797459Y231314D01*
X797459Y315428D01*
X797457Y315446D01*
X797459Y315464D01*
X797438Y315646D01*
X797419Y315829D01*
X797414Y315846D01*
X797412Y315863D01*
X797355Y316038D01*
X797301Y316214D01*
X797293Y316229D01*
X797287Y316246D01*
X797197Y316406D01*
X797109Y316568D01*
X797098Y316581D01*
X797089Y316597D01*
X796969Y316736D01*
X796852Y316877D01*
X796838Y316888D01*
X796826Y316902D01*
X796681Y317014D01*
X796538Y317129D01*
X796522Y317137D01*
X796508Y317148D01*
X796343Y317230D01*
X796181Y317315D01*
X796164Y317320D01*
X796148Y317328D01*
X795969Y317375D01*
X795794Y317426D01*
X795776Y317428D01*
X795759Y317432D01*
X795428Y317459D01*
X761636Y317459D01*
X761594Y317455D01*
X761552Y317458D01*
X761394Y317435D01*
X761235Y317419D01*
X761195Y317407D01*
X761153Y317401D01*
X761003Y317348D01*
X760850Y317301D01*
X760813Y317281D01*
X760773Y317267D01*
X760636Y317185D01*
X760496Y317109D01*
X760464Y317082D01*
X760428Y317061D01*
X760309Y316954D01*
X760187Y316852D01*
X760161Y316819D01*
X760129Y316790D01*
X760035Y316662D01*
X760003Y316623D01*
X759921Y316717D01*
X759822Y316842D01*
X759790Y316870D01*
X759762Y316902D01*
X759636Y316999D01*
X759515Y317102D01*
X759478Y317122D01*
X759444Y317148D01*
X759301Y317219D01*
X759162Y317296D01*
X759122Y317309D01*
X759084Y317328D01*
X758930Y317369D01*
X758778Y317417D01*
X758736Y317421D01*
X758695Y317432D01*
X758421Y317455D01*
X758377Y317459D01*
X758371Y317459D01*
X758364Y317459D01*
X404572Y317459D01*
X404554Y317457D01*
X404536Y317459D01*
X404354Y317438D01*
X404171Y317419D01*
X404154Y317414D01*
X404137Y317412D01*
X403962Y317355D01*
X403786Y317301D01*
X403771Y317293D01*
X403754Y317287D01*
X403594Y317197D01*
X403432Y317109D01*
X403419Y317098D01*
X403403Y317089D01*
X403264Y316969D01*
X403123Y316852D01*
X403112Y316838D01*
X403098Y316826D01*
X402986Y316681D01*
X402871Y316538D01*
X402863Y316522D01*
X402852Y316508D01*
X402770Y316343D01*
X402685Y316181D01*
X402680Y316164D01*
X402672Y316148D01*
X402625Y315969D01*
X402574Y315794D01*
X402572Y315776D01*
X402568Y315759D01*
X402541Y315428D01*
X402541Y263948D01*
X401052Y262459D01*
X98948Y262459D01*
X97459Y263948D01*
X97459Y315428D01*
X97457Y315446D01*
X97459Y315464D01*
X97438Y315646D01*
X97419Y315829D01*
X97414Y315846D01*
X97412Y315863D01*
X97355Y316038D01*
X97301Y316214D01*
X97293Y316229D01*
X97287Y316246D01*
X97197Y316406D01*
X97109Y316568D01*
X97098Y316581D01*
X97089Y316597D01*
X96969Y316736D01*
X96852Y316877D01*
X96838Y316888D01*
X96826Y316902D01*
X96681Y317014D01*
X96538Y317129D01*
X96522Y317137D01*
X96508Y317148D01*
X96343Y317230D01*
X96181Y317315D01*
X96164Y317320D01*
X96148Y317328D01*
X95969Y317375D01*
X95794Y317426D01*
X95776Y317428D01*
X95759Y317432D01*
X95428Y317459D01*
X4572Y317459D01*
X4554Y317457D01*
X4536Y317459D01*
X4354Y317438D01*
X4171Y317419D01*
X4154Y317414D01*
X4137Y317412D01*
X3962Y317355D01*
X3786Y317301D01*
X3771Y317293D01*
X3754Y317287D01*
X3594Y317197D01*
X3432Y317109D01*
X3419Y317098D01*
X3403Y317089D01*
X3264Y316969D01*
X3123Y316852D01*
X3112Y316838D01*
X3098Y316826D01*
X2986Y316681D01*
X2871Y316538D01*
X2863Y316522D01*
X2852Y316508D01*
X2770Y316343D01*
X2685Y316181D01*
X2680Y316164D01*
X2672Y316148D01*
X2625Y315969D01*
X2574Y315794D01*
X2572Y315776D01*
X2568Y315759D01*
X2541Y315428D01*
X2541Y230714D01*
X2542Y230705D01*
X2541Y230696D01*
X2562Y230504D01*
X2581Y230313D01*
X2583Y230305D01*
X2584Y230296D01*
X2642Y230113D01*
X2699Y229928D01*
X2703Y229921D01*
X2706Y229912D01*
X2799Y229744D01*
X2891Y229574D01*
X2896Y229568D01*
X2901Y229560D01*
X3025Y229413D01*
X3148Y229265D01*
X3155Y229260D01*
X3161Y229253D01*
X3312Y229134D01*
X3462Y229013D01*
X3470Y229009D01*
X3477Y229003D01*
X3650Y228915D01*
X3819Y228827D01*
X3828Y228825D01*
X3836Y228821D01*
X4022Y228769D01*
X4206Y228716D01*
X4215Y228715D01*
X4224Y228713D01*
X4417Y228699D01*
X4608Y228683D01*
X4616Y228684D01*
X4625Y228683D01*
X4818Y228708D01*
X5007Y228730D01*
X5016Y228733D01*
X5025Y228734D01*
X5208Y228795D01*
X5390Y228855D01*
X5398Y228859D01*
X5406Y228862D01*
X5573Y228958D01*
X5741Y229053D01*
X5748Y229059D01*
X5755Y229063D01*
X6008Y229278D01*
X10391Y233661D01*
X12061Y233661D01*
X12061Y224008D01*
X12062Y223990D01*
X12061Y223973D01*
X12082Y223790D01*
X12101Y223608D01*
X12106Y223591D01*
X12108Y223573D01*
X12133Y223495D01*
X12094Y223358D01*
X12092Y223340D01*
X12088Y223323D01*
X12061Y222992D01*
X12061Y213339D01*
X10391Y213339D01*
X6008Y217722D01*
X6001Y217728D01*
X5996Y217735D01*
X5846Y217855D01*
X5697Y217977D01*
X5689Y217982D01*
X5682Y217987D01*
X5512Y218076D01*
X5341Y218166D01*
X5332Y218169D01*
X5325Y218173D01*
X5140Y218226D01*
X4955Y218281D01*
X4946Y218282D01*
X4938Y218284D01*
X4746Y218300D01*
X4554Y218317D01*
X4545Y218316D01*
X4536Y218317D01*
X4347Y218295D01*
X4154Y218274D01*
X4145Y218271D01*
X4137Y218270D01*
X3955Y218211D01*
X3770Y218152D01*
X3762Y218148D01*
X3754Y218145D01*
X3585Y218050D01*
X3418Y217957D01*
X3411Y217952D01*
X3403Y217947D01*
X3257Y217821D01*
X3111Y217697D01*
X3105Y217690D01*
X3098Y217684D01*
X2981Y217533D01*
X2861Y217381D01*
X2857Y217373D01*
X2852Y217366D01*
X2766Y217194D01*
X2679Y217022D01*
X2676Y217014D01*
X2672Y217005D01*
X2622Y216820D01*
X2571Y216634D01*
X2570Y216625D01*
X2568Y216617D01*
X2541Y216286D01*
X2541Y205314D01*
X2542Y205305D01*
X2541Y205296D01*
X2562Y205104D01*
X2581Y204913D01*
X2583Y204905D01*
X2584Y204896D01*
X2642Y204713D01*
X2699Y204528D01*
X2703Y204521D01*
X2706Y204512D01*
X2799Y204344D01*
X2891Y204174D01*
X2896Y204168D01*
X2901Y204160D01*
X3025Y204013D01*
X3148Y203865D01*
X3155Y203860D01*
X3161Y203853D01*
X3312Y203734D01*
X3462Y203613D01*
X3470Y203609D01*
X3477Y203603D01*
X3650Y203515D01*
X3819Y203427D01*
X3828Y203425D01*
X3836Y203421D01*
X4022Y203369D01*
X4206Y203316D01*
X4215Y203315D01*
X4224Y203313D01*
X4417Y203299D01*
X4608Y203283D01*
X4616Y203284D01*
X4625Y203283D01*
X4818Y203308D01*
X5007Y203330D01*
X5016Y203333D01*
X5025Y203334D01*
X5208Y203395D01*
X5390Y203455D01*
X5398Y203459D01*
X5406Y203462D01*
X5573Y203558D01*
X5741Y203653D01*
X5748Y203659D01*
X5755Y203663D01*
X6008Y203878D01*
X10391Y208261D01*
X12061Y208261D01*
X12061Y198608D01*
X12062Y198590D01*
X12061Y198573D01*
X12082Y198390D01*
X12101Y198208D01*
X12106Y198191D01*
X12108Y198173D01*
X12133Y198095D01*
X12094Y197958D01*
X12092Y197940D01*
X12088Y197923D01*
X12061Y197592D01*
X12061Y187939D01*
X10391Y187939D01*
X6008Y192322D01*
X6001Y192328D01*
X5996Y192335D01*
X5846Y192455D01*
X5697Y192577D01*
X5689Y192582D01*
X5682Y192587D01*
X5512Y192675D01*
X5341Y192766D01*
X5332Y192769D01*
X5325Y192773D01*
X5140Y192826D01*
X4955Y192881D01*
X4946Y192882D01*
X4938Y192884D01*
X4746Y192900D01*
X4554Y192917D01*
X4545Y192916D01*
X4536Y192917D01*
X4347Y192895D01*
X4154Y192874D01*
X4145Y192871D01*
X4137Y192870D01*
X3955Y192811D01*
X3770Y192752D01*
X3762Y192748D01*
X3754Y192745D01*
X3585Y192650D01*
X3418Y192557D01*
X3411Y192552D01*
X3403Y192547D01*
X3257Y192421D01*
X3111Y192297D01*
X3105Y192290D01*
X3098Y192284D01*
X2981Y192133D01*
X2861Y191981D01*
X2857Y191973D01*
X2852Y191966D01*
X2766Y191794D01*
X2679Y191622D01*
X2676Y191614D01*
X2672Y191605D01*
X2622Y191420D01*
X2571Y191234D01*
X2570Y191225D01*
X2568Y191217D01*
X2541Y190886D01*
X2541Y179914D01*
X2542Y179905D01*
X2541Y179896D01*
X2562Y179704D01*
X2581Y179513D01*
X2583Y179505D01*
X2584Y179496D01*
X2642Y179313D01*
X2699Y179128D01*
X2703Y179121D01*
X2706Y179112D01*
X2799Y178944D01*
X2891Y178774D01*
X2896Y178768D01*
X2901Y178760D01*
X3025Y178613D01*
X3148Y178465D01*
X3155Y178460D01*
X3161Y178453D01*
X3312Y178334D01*
X3462Y178213D01*
X3470Y178209D01*
X3477Y178203D01*
X3650Y178115D01*
X3819Y178027D01*
X3828Y178025D01*
X3836Y178021D01*
X4022Y177969D01*
X4206Y177916D01*
X4215Y177915D01*
X4224Y177913D01*
X4417Y177899D01*
X4608Y177883D01*
X4616Y177884D01*
X4625Y177883D01*
X4818Y177908D01*
X5007Y177930D01*
X5016Y177933D01*
X5025Y177934D01*
X5208Y177995D01*
X5390Y178055D01*
X5398Y178059D01*
X5406Y178062D01*
X5573Y178158D01*
X5741Y178253D01*
X5748Y178259D01*
X5755Y178263D01*
X6008Y178478D01*
X10391Y182861D01*
X12061Y182861D01*
X12061Y173208D01*
X12062Y173190D01*
X12061Y173173D01*
X12082Y172990D01*
X12101Y172808D01*
X12106Y172791D01*
X12108Y172773D01*
X12133Y172695D01*
X12094Y172558D01*
X12092Y172540D01*
X12088Y172523D01*
X12061Y172192D01*
X12061Y162539D01*
X10391Y162539D01*
X6008Y166922D01*
X6001Y166928D01*
X5996Y166935D01*
X5846Y167055D01*
X5697Y167177D01*
X5689Y167182D01*
X5682Y167187D01*
X5512Y167276D01*
X5341Y167366D01*
X5332Y167369D01*
X5325Y167373D01*
X5140Y167426D01*
X4955Y167481D01*
X4946Y167482D01*
X4938Y167484D01*
X4746Y167500D01*
X4554Y167517D01*
X4545Y167516D01*
X4536Y167517D01*
X4347Y167495D01*
X4154Y167474D01*
X4145Y167471D01*
X4137Y167470D01*
X3955Y167411D01*
X3770Y167352D01*
X3762Y167348D01*
X3754Y167345D01*
X3585Y167250D01*
X3418Y167157D01*
X3411Y167152D01*
X3403Y167147D01*
X3257Y167021D01*
X3111Y166897D01*
X3105Y166890D01*
X3098Y166884D01*
X2981Y166733D01*
X2861Y166581D01*
X2857Y166573D01*
X2852Y166566D01*
X2766Y166394D01*
X2679Y166222D01*
X2676Y166214D01*
X2672Y166205D01*
X2622Y166020D01*
X2571Y165834D01*
X2570Y165825D01*
X2568Y165817D01*
X2541Y165486D01*
X2541Y154514D01*
X2542Y154505D01*
X2541Y154496D01*
X2562Y154304D01*
X2581Y154113D01*
X2583Y154105D01*
X2584Y154096D01*
X2642Y153913D01*
X2699Y153728D01*
X2703Y153721D01*
X2706Y153712D01*
X2799Y153544D01*
X2891Y153374D01*
X2896Y153368D01*
X2901Y153360D01*
X3025Y153213D01*
X3148Y153065D01*
X3155Y153060D01*
X3161Y153053D01*
X3312Y152934D01*
X3462Y152813D01*
X3470Y152809D01*
X3477Y152803D01*
X3650Y152715D01*
X3819Y152627D01*
X3828Y152625D01*
X3836Y152621D01*
X4022Y152569D01*
X4206Y152516D01*
X4215Y152515D01*
X4224Y152513D01*
X4417Y152499D01*
X4608Y152483D01*
X4616Y152484D01*
X4625Y152483D01*
X4818Y152508D01*
X5007Y152530D01*
X5016Y152533D01*
X5025Y152534D01*
X5208Y152595D01*
X5390Y152655D01*
X5398Y152659D01*
X5406Y152662D01*
X5573Y152758D01*
X5741Y152853D01*
X5748Y152859D01*
X5755Y152863D01*
X6008Y153078D01*
X10391Y157461D01*
X12061Y157461D01*
X12061Y147808D01*
X12062Y147790D01*
X12061Y147773D01*
X12082Y147590D01*
X12101Y147408D01*
X12106Y147391D01*
X12108Y147373D01*
X12133Y147295D01*
X12094Y147158D01*
X12092Y147140D01*
X12088Y147123D01*
X12061Y146792D01*
X12061Y137139D01*
X10391Y137139D01*
X6008Y141522D01*
X6001Y141528D01*
X5996Y141535D01*
X5846Y141655D01*
X5697Y141777D01*
X5689Y141782D01*
X5682Y141787D01*
X5512Y141876D01*
X5341Y141966D01*
X5332Y141969D01*
X5325Y141973D01*
X5140Y142026D01*
X4955Y142081D01*
X4946Y142082D01*
X4938Y142084D01*
X4746Y142100D01*
X4554Y142117D01*
X4545Y142116D01*
X4536Y142117D01*
X4347Y142095D01*
X4154Y142074D01*
X4145Y142071D01*
X4137Y142070D01*
X3955Y142011D01*
X3770Y141952D01*
X3762Y141948D01*
X3754Y141945D01*
X3585Y141850D01*
X3418Y141757D01*
X3411Y141752D01*
X3403Y141747D01*
X3257Y141621D01*
X3111Y141497D01*
X3105Y141490D01*
X3098Y141484D01*
X2981Y141333D01*
X2861Y141181D01*
X2857Y141173D01*
X2852Y141166D01*
X2766Y140994D01*
X2679Y140822D01*
X2676Y140814D01*
X2672Y140805D01*
X2622Y140620D01*
X2571Y140434D01*
X2570Y140425D01*
X2568Y140417D01*
X2541Y140086D01*
X2541Y129114D01*
X2542Y129105D01*
X2541Y129096D01*
X2562Y128904D01*
X2581Y128713D01*
X2583Y128705D01*
X2584Y128696D01*
X2642Y128513D01*
X2699Y128328D01*
X2703Y128321D01*
X2706Y128312D01*
X2799Y128143D01*
X2891Y127974D01*
X2896Y127968D01*
X2901Y127960D01*
X3026Y127812D01*
X3148Y127665D01*
X3155Y127660D01*
X3161Y127653D01*
X3312Y127534D01*
X3462Y127413D01*
X3470Y127409D01*
X3477Y127403D01*
X3650Y127315D01*
X3819Y127227D01*
X3828Y127225D01*
X3836Y127221D01*
X4022Y127169D01*
X4206Y127116D01*
X4215Y127115D01*
X4224Y127113D01*
X4417Y127099D01*
X4608Y127083D01*
X4616Y127084D01*
X4625Y127083D01*
X4818Y127108D01*
X5007Y127130D01*
X5016Y127133D01*
X5025Y127134D01*
X5208Y127195D01*
X5390Y127255D01*
X5398Y127259D01*
X5406Y127262D01*
X5573Y127358D01*
X5741Y127453D01*
X5748Y127459D01*
X5755Y127463D01*
X6008Y127678D01*
X10391Y132061D01*
X12061Y132061D01*
X12061Y122408D01*
X12062Y122390D01*
X12061Y122373D01*
X12082Y122190D01*
X12101Y122008D01*
X12106Y121991D01*
X12108Y121973D01*
X12133Y121895D01*
X12094Y121758D01*
X12092Y121740D01*
X12088Y121723D01*
X12061Y121392D01*
X12061Y111739D01*
X10391Y111739D01*
X6008Y116122D01*
X6001Y116128D01*
X5996Y116135D01*
X5846Y116255D01*
X5697Y116377D01*
X5689Y116382D01*
X5682Y116387D01*
X5512Y116476D01*
X5341Y116566D01*
X5332Y116569D01*
X5325Y116573D01*
X5140Y116626D01*
X4955Y116681D01*
X4946Y116682D01*
X4938Y116684D01*
X4746Y116700D01*
X4554Y116717D01*
X4545Y116716D01*
X4536Y116717D01*
X4347Y116695D01*
X4154Y116674D01*
X4145Y116671D01*
X4137Y116670D01*
X3955Y116611D01*
X3770Y116552D01*
X3762Y116548D01*
X3754Y116545D01*
X3585Y116450D01*
X3418Y116357D01*
X3411Y116352D01*
X3403Y116347D01*
X3257Y116221D01*
X3111Y116097D01*
X3105Y116090D01*
X3098Y116084D01*
X2981Y115933D01*
X2861Y115781D01*
X2857Y115773D01*
X2852Y115766D01*
X2766Y115594D01*
X2679Y115422D01*
X2676Y115414D01*
X2672Y115405D01*
X2622Y115220D01*
X2571Y115034D01*
X2570Y115025D01*
X2568Y115017D01*
X2541Y114686D01*
X2541Y103714D01*
X2542Y103705D01*
X2541Y103696D01*
X2562Y103504D01*
X2581Y103313D01*
X2583Y103305D01*
X2584Y103296D01*
X2642Y103113D01*
X2699Y102928D01*
X2703Y102921D01*
X2706Y102912D01*
X2799Y102744D01*
X2891Y102574D01*
X2896Y102568D01*
X2901Y102560D01*
X3025Y102413D01*
X3148Y102265D01*
X3155Y102260D01*
X3161Y102253D01*
X3312Y102134D01*
X3462Y102013D01*
X3470Y102009D01*
X3477Y102003D01*
X3650Y101915D01*
X3819Y101827D01*
X3828Y101825D01*
X3836Y101821D01*
X4022Y101769D01*
X4206Y101716D01*
X4215Y101715D01*
X4224Y101713D01*
X4417Y101699D01*
X4608Y101683D01*
X4616Y101684D01*
X4625Y101683D01*
X4818Y101708D01*
X5007Y101730D01*
X5016Y101733D01*
X5025Y101734D01*
X5208Y101795D01*
X5390Y101855D01*
X5398Y101859D01*
X5406Y101862D01*
X5573Y101958D01*
X5741Y102053D01*
X5748Y102059D01*
X5755Y102063D01*
X6008Y102278D01*
X10391Y106661D01*
X12061Y106661D01*
X12061Y97008D01*
X12062Y96990D01*
X12061Y96973D01*
X12082Y96790D01*
X12101Y96608D01*
X12106Y96591D01*
X12108Y96573D01*
X12133Y96495D01*
X12094Y96358D01*
X12092Y96340D01*
X12088Y96323D01*
X12061Y95992D01*
X12061Y86339D01*
X10391Y86339D01*
X6008Y90722D01*
X6001Y90728D01*
X5996Y90735D01*
X5846Y90855D01*
X5697Y90977D01*
X5689Y90982D01*
X5682Y90987D01*
X5512Y91076D01*
X5341Y91166D01*
X5332Y91169D01*
X5325Y91173D01*
X5140Y91226D01*
X4955Y91281D01*
X4946Y91282D01*
X4938Y91284D01*
X4746Y91300D01*
X4554Y91317D01*
X4545Y91316D01*
X4536Y91317D01*
X4347Y91295D01*
X4154Y91274D01*
X4145Y91271D01*
X4137Y91270D01*
X3955Y91211D01*
X3770Y91152D01*
X3762Y91148D01*
X3754Y91145D01*
X3585Y91050D01*
X3418Y90957D01*
X3411Y90952D01*
X3403Y90947D01*
X3257Y90821D01*
X3111Y90697D01*
X3105Y90690D01*
X3098Y90684D01*
X2981Y90533D01*
X2861Y90381D01*
X2857Y90373D01*
X2852Y90366D01*
X2766Y90194D01*
X2679Y90022D01*
X2676Y90014D01*
X2672Y90005D01*
X2622Y89820D01*
X2571Y89634D01*
X2570Y89625D01*
X2568Y89617D01*
X2541Y89286D01*
X2541Y49737D01*
X2551Y49631D01*
X2552Y49524D01*
X2571Y49431D01*
X2581Y49336D01*
X2612Y49234D01*
X2633Y49130D01*
X2671Y49042D01*
X2699Y48951D01*
X2749Y48858D01*
X2791Y48760D01*
X2845Y48681D01*
X2891Y48597D01*
X2959Y48516D01*
X3019Y48428D01*
X3087Y48361D01*
X3148Y48288D01*
X3231Y48221D01*
X3308Y48147D01*
X3388Y48095D01*
X3462Y48036D01*
X3556Y47987D01*
X3646Y47929D01*
X3735Y47894D01*
X3819Y47850D01*
X3921Y47821D01*
X4021Y47782D01*
X4115Y47765D01*
X4206Y47739D01*
X4312Y47730D01*
X4417Y47711D01*
X4513Y47714D01*
X4608Y47706D01*
X4713Y47718D01*
X4820Y47721D01*
X4913Y47742D01*
X5007Y47753D01*
X5109Y47786D01*
X5212Y47809D01*
X5299Y47848D01*
X5390Y47878D01*
X5483Y47930D01*
X5580Y47973D01*
X5658Y48029D01*
X5741Y48075D01*
X5821Y48145D01*
X5908Y48207D01*
X5973Y48276D01*
X6045Y48339D01*
X6111Y48423D01*
X6184Y48500D01*
X6246Y48597D01*
X6292Y48657D01*
X6319Y48710D01*
X6363Y48779D01*
X7734Y51343D01*
X9467Y53936D01*
X11446Y56348D01*
X13652Y58554D01*
X16064Y60533D01*
X18657Y62266D01*
X21409Y63737D01*
X24290Y64931D01*
X27276Y65836D01*
X30336Y66445D01*
X30937Y66504D01*
X30937Y37032D01*
X30939Y37014D01*
X30937Y36997D01*
X30958Y36814D01*
X30977Y36632D01*
X30982Y36614D01*
X30984Y36597D01*
X31041Y36422D01*
X31095Y36247D01*
X31103Y36231D01*
X31109Y36214D01*
X31199Y36054D01*
X31287Y35893D01*
X31298Y35879D01*
X31307Y35863D01*
X31427Y35724D01*
X31544Y35583D01*
X31558Y35572D01*
X31570Y35559D01*
X31715Y35446D01*
X31858Y35331D01*
X31874Y35323D01*
X31888Y35312D01*
X32053Y35230D01*
X32215Y35145D01*
X32232Y35141D01*
X32249Y35133D01*
X32427Y35085D01*
X32602Y35034D01*
X32620Y35033D01*
X32637Y35028D01*
X32968Y35001D01*
X35001Y35001D01*
X35001Y32968D01*
X35003Y32950D01*
X35001Y32932D01*
X35023Y32750D01*
X35041Y32567D01*
X35046Y32550D01*
X35048Y32533D01*
X35105Y32358D01*
X35159Y32182D01*
X35167Y32167D01*
X35173Y32150D01*
X35263Y31990D01*
X35351Y31828D01*
X35362Y31815D01*
X35371Y31799D01*
X35491Y31660D01*
X35608Y31519D01*
X35622Y31508D01*
X35634Y31495D01*
X35779Y31382D01*
X35922Y31267D01*
X35938Y31259D01*
X35952Y31248D01*
X36117Y31166D01*
X36280Y31081D01*
X36297Y31076D01*
X36313Y31068D01*
X36491Y31021D01*
X36666Y30970D01*
X36684Y30968D01*
X36701Y30964D01*
X37032Y30937D01*
X66504Y30937D01*
X66445Y30336D01*
X65836Y27276D01*
X64931Y24290D01*
X63737Y21409D01*
X62266Y18657D01*
X60533Y16064D01*
X58554Y13652D01*
X56348Y11446D01*
X53936Y9467D01*
X51343Y7734D01*
X48779Y6363D01*
X48691Y6304D01*
X48597Y6253D01*
X48524Y6192D01*
X48445Y6139D01*
X48370Y6064D01*
X48288Y5996D01*
X48228Y5921D01*
X48161Y5854D01*
X48102Y5765D01*
X48036Y5682D01*
X47992Y5597D01*
X47939Y5518D01*
X47899Y5419D01*
X47850Y5325D01*
X47824Y5233D01*
X47788Y5145D01*
X47768Y5040D01*
X47739Y4938D01*
X47731Y4843D01*
X47713Y4749D01*
X47715Y4642D01*
X47706Y4536D01*
X47717Y4442D01*
X47718Y4346D01*
X47740Y4242D01*
X47753Y4137D01*
X47782Y4046D01*
X47802Y3953D01*
X47845Y3855D01*
X47878Y3754D01*
X47924Y3671D01*
X47962Y3583D01*
X48023Y3496D01*
X48075Y3403D01*
X48138Y3331D01*
X48192Y3253D01*
X48269Y3179D01*
X48339Y3098D01*
X48414Y3040D01*
X48483Y2974D01*
X48573Y2917D01*
X48657Y2852D01*
X48742Y2809D01*
X48823Y2758D01*
X48922Y2720D01*
X49017Y2672D01*
X49109Y2648D01*
X49198Y2613D01*
X49303Y2595D01*
X49406Y2568D01*
X49520Y2558D01*
X49595Y2546D01*
X49655Y2547D01*
X49737Y2541D01*
X750263Y2541D01*
X750369Y2551D01*
G37*
%LPC*%
G36*
X93434Y10125D02*
X93434Y10125D01*
X90539Y11324D01*
X78324Y23539D01*
X77125Y26434D01*
X77125Y39000D01*
X77120Y39049D01*
X77122Y39114D01*
X76901Y43043D01*
X76901Y43048D01*
X76901Y43053D01*
X76854Y43381D01*
X75105Y51043D01*
X75085Y51102D01*
X75074Y51162D01*
X75004Y51345D01*
X74977Y51425D01*
X74965Y51445D01*
X74955Y51472D01*
X71545Y58552D01*
X71513Y58605D01*
X71488Y58662D01*
X71379Y58825D01*
X71335Y58896D01*
X71319Y58913D01*
X71303Y58938D01*
X66403Y65082D01*
X66360Y65126D01*
X66323Y65176D01*
X66180Y65311D01*
X66122Y65370D01*
X66103Y65383D01*
X66082Y65403D01*
X59938Y70303D01*
X59886Y70337D01*
X59839Y70377D01*
X59670Y70476D01*
X59600Y70522D01*
X59578Y70530D01*
X59552Y70545D01*
X52472Y73955D01*
X52414Y73976D01*
X52359Y74005D01*
X52172Y74064D01*
X52094Y74093D01*
X52071Y74096D01*
X52043Y74105D01*
X44381Y75854D01*
X44377Y75854D01*
X44372Y75856D01*
X44043Y75901D01*
X40114Y76122D01*
X40065Y76120D01*
X40000Y76125D01*
X38434Y76125D01*
X35539Y77324D01*
X33324Y79539D01*
X32125Y82434D01*
X32125Y90601D01*
X32123Y90627D01*
X32125Y90654D01*
X32103Y90828D01*
X32085Y91001D01*
X32078Y91027D01*
X32074Y91054D01*
X32019Y91219D01*
X31967Y91386D01*
X31954Y91410D01*
X31946Y91435D01*
X31859Y91587D01*
X31775Y91740D01*
X31758Y91761D01*
X31745Y91784D01*
X31530Y92037D01*
X30855Y92712D01*
X30855Y100288D01*
X31530Y100963D01*
X31547Y100984D01*
X31568Y101001D01*
X31675Y101139D01*
X31785Y101274D01*
X31798Y101298D01*
X31814Y101319D01*
X31892Y101476D01*
X31974Y101630D01*
X31982Y101656D01*
X31994Y101680D01*
X32039Y101848D01*
X32089Y102016D01*
X32091Y102043D01*
X32098Y102069D01*
X32125Y102399D01*
X32125Y116001D01*
X32123Y116027D01*
X32125Y116054D01*
X32103Y116228D01*
X32085Y116401D01*
X32078Y116427D01*
X32074Y116454D01*
X32019Y116619D01*
X31967Y116786D01*
X31954Y116810D01*
X31946Y116835D01*
X31859Y116987D01*
X31775Y117140D01*
X31758Y117161D01*
X31745Y117184D01*
X31530Y117437D01*
X30855Y118112D01*
X30855Y125688D01*
X31530Y126363D01*
X31547Y126384D01*
X31568Y126401D01*
X31675Y126539D01*
X31785Y126674D01*
X31798Y126698D01*
X31814Y126719D01*
X31892Y126876D01*
X31974Y127030D01*
X31982Y127056D01*
X31994Y127080D01*
X32039Y127249D01*
X32089Y127416D01*
X32091Y127443D01*
X32098Y127469D01*
X32125Y127799D01*
X32125Y141401D01*
X32123Y141427D01*
X32125Y141454D01*
X32103Y141628D01*
X32085Y141801D01*
X32078Y141827D01*
X32074Y141854D01*
X32019Y142019D01*
X31967Y142186D01*
X31954Y142210D01*
X31946Y142235D01*
X31859Y142387D01*
X31775Y142540D01*
X31758Y142561D01*
X31745Y142584D01*
X31530Y142837D01*
X30855Y143512D01*
X30855Y151088D01*
X31530Y151763D01*
X31547Y151784D01*
X31568Y151801D01*
X31675Y151939D01*
X31785Y152074D01*
X31798Y152098D01*
X31814Y152119D01*
X31892Y152276D01*
X31974Y152430D01*
X31982Y152456D01*
X31994Y152480D01*
X32039Y152649D01*
X32089Y152816D01*
X32091Y152843D01*
X32098Y152869D01*
X32125Y153199D01*
X32125Y166801D01*
X32123Y166827D01*
X32125Y166854D01*
X32103Y167028D01*
X32085Y167201D01*
X32078Y167227D01*
X32074Y167254D01*
X32019Y167419D01*
X31967Y167586D01*
X31954Y167610D01*
X31946Y167635D01*
X31859Y167787D01*
X31775Y167940D01*
X31758Y167961D01*
X31745Y167984D01*
X31530Y168237D01*
X30855Y168912D01*
X30855Y176488D01*
X31530Y177163D01*
X31547Y177184D01*
X31568Y177201D01*
X31675Y177339D01*
X31785Y177474D01*
X31798Y177498D01*
X31814Y177519D01*
X31892Y177676D01*
X31974Y177830D01*
X31982Y177856D01*
X31994Y177880D01*
X32039Y178049D01*
X32089Y178216D01*
X32091Y178243D01*
X32098Y178269D01*
X32125Y178599D01*
X32125Y192201D01*
X32123Y192227D01*
X32125Y192254D01*
X32103Y192428D01*
X32085Y192601D01*
X32078Y192627D01*
X32074Y192654D01*
X32019Y192819D01*
X31967Y192986D01*
X31954Y193010D01*
X31946Y193035D01*
X31859Y193187D01*
X31775Y193340D01*
X31758Y193361D01*
X31745Y193384D01*
X31530Y193637D01*
X30855Y194312D01*
X30855Y201888D01*
X31530Y202563D01*
X31547Y202584D01*
X31568Y202601D01*
X31675Y202739D01*
X31785Y202874D01*
X31798Y202898D01*
X31814Y202919D01*
X31892Y203076D01*
X31974Y203230D01*
X31982Y203256D01*
X31994Y203280D01*
X32039Y203449D01*
X32089Y203616D01*
X32091Y203643D01*
X32098Y203669D01*
X32125Y203999D01*
X32125Y217601D01*
X32123Y217627D01*
X32125Y217654D01*
X32103Y217828D01*
X32085Y218001D01*
X32078Y218027D01*
X32074Y218054D01*
X32019Y218219D01*
X31967Y218386D01*
X31954Y218410D01*
X31946Y218435D01*
X31859Y218587D01*
X31775Y218740D01*
X31758Y218761D01*
X31745Y218784D01*
X31530Y219037D01*
X30855Y219712D01*
X30855Y227288D01*
X36212Y232645D01*
X43788Y232645D01*
X49145Y227288D01*
X49145Y219712D01*
X48470Y219037D01*
X48453Y219016D01*
X48432Y218999D01*
X48325Y218861D01*
X48215Y218726D01*
X48202Y218702D01*
X48186Y218681D01*
X48108Y218524D01*
X48026Y218370D01*
X48018Y218344D01*
X48006Y218320D01*
X47961Y218151D01*
X47911Y217984D01*
X47909Y217957D01*
X47902Y217931D01*
X47875Y217601D01*
X47875Y203999D01*
X47877Y203973D01*
X47875Y203946D01*
X47897Y203772D01*
X47915Y203599D01*
X47922Y203573D01*
X47926Y203546D01*
X47981Y203381D01*
X48033Y203214D01*
X48046Y203190D01*
X48054Y203165D01*
X48141Y203013D01*
X48225Y202860D01*
X48242Y202839D01*
X48255Y202816D01*
X48470Y202563D01*
X49145Y201888D01*
X49145Y194312D01*
X48470Y193637D01*
X48453Y193616D01*
X48432Y193599D01*
X48325Y193461D01*
X48215Y193326D01*
X48202Y193302D01*
X48186Y193281D01*
X48108Y193124D01*
X48026Y192970D01*
X48018Y192944D01*
X48006Y192920D01*
X47961Y192751D01*
X47911Y192584D01*
X47909Y192557D01*
X47902Y192531D01*
X47875Y192201D01*
X47875Y178599D01*
X47877Y178573D01*
X47875Y178546D01*
X47897Y178372D01*
X47915Y178199D01*
X47922Y178173D01*
X47926Y178146D01*
X47981Y177981D01*
X48033Y177814D01*
X48046Y177790D01*
X48054Y177765D01*
X48141Y177613D01*
X48225Y177460D01*
X48242Y177439D01*
X48255Y177416D01*
X48470Y177163D01*
X49145Y176488D01*
X49145Y168912D01*
X48470Y168237D01*
X48453Y168216D01*
X48432Y168199D01*
X48325Y168061D01*
X48215Y167926D01*
X48202Y167902D01*
X48186Y167881D01*
X48108Y167724D01*
X48026Y167570D01*
X48018Y167544D01*
X48006Y167520D01*
X47961Y167351D01*
X47911Y167184D01*
X47909Y167157D01*
X47902Y167131D01*
X47875Y166801D01*
X47875Y153199D01*
X47877Y153173D01*
X47875Y153146D01*
X47897Y152972D01*
X47915Y152799D01*
X47922Y152773D01*
X47926Y152746D01*
X47981Y152581D01*
X48033Y152414D01*
X48046Y152390D01*
X48054Y152365D01*
X48141Y152213D01*
X48225Y152060D01*
X48242Y152039D01*
X48255Y152016D01*
X48470Y151763D01*
X49145Y151088D01*
X49145Y143512D01*
X48470Y142837D01*
X48453Y142816D01*
X48432Y142799D01*
X48325Y142661D01*
X48215Y142526D01*
X48202Y142502D01*
X48186Y142481D01*
X48108Y142324D01*
X48026Y142170D01*
X48018Y142144D01*
X48006Y142120D01*
X47961Y141951D01*
X47911Y141784D01*
X47909Y141757D01*
X47902Y141731D01*
X47875Y141401D01*
X47875Y127799D01*
X47877Y127773D01*
X47875Y127746D01*
X47897Y127572D01*
X47915Y127399D01*
X47922Y127373D01*
X47926Y127346D01*
X47981Y127181D01*
X48033Y127014D01*
X48046Y126990D01*
X48054Y126965D01*
X48142Y126813D01*
X48225Y126660D01*
X48242Y126639D01*
X48255Y126616D01*
X48470Y126363D01*
X49145Y125688D01*
X49145Y118112D01*
X48470Y117437D01*
X48453Y117416D01*
X48432Y117399D01*
X48325Y117261D01*
X48215Y117126D01*
X48202Y117102D01*
X48186Y117081D01*
X48108Y116924D01*
X48026Y116770D01*
X48018Y116744D01*
X48006Y116720D01*
X47961Y116551D01*
X47911Y116384D01*
X47909Y116357D01*
X47902Y116331D01*
X47875Y116001D01*
X47875Y102399D01*
X47877Y102373D01*
X47875Y102346D01*
X47897Y102172D01*
X47915Y101999D01*
X47922Y101973D01*
X47926Y101946D01*
X47981Y101781D01*
X48033Y101614D01*
X48046Y101590D01*
X48054Y101565D01*
X48141Y101413D01*
X48225Y101260D01*
X48242Y101239D01*
X48255Y101216D01*
X48470Y100963D01*
X49145Y100288D01*
X49145Y92767D01*
X49164Y92576D01*
X49181Y92383D01*
X49184Y92375D01*
X49185Y92367D01*
X49241Y92181D01*
X49296Y91997D01*
X49300Y91990D01*
X49303Y91982D01*
X49395Y91812D01*
X49485Y91642D01*
X49490Y91635D01*
X49495Y91628D01*
X49617Y91480D01*
X49740Y91330D01*
X49747Y91325D01*
X49752Y91318D01*
X49902Y91198D01*
X50052Y91075D01*
X50059Y91071D01*
X50066Y91066D01*
X50237Y90977D01*
X50408Y90887D01*
X50417Y90884D01*
X50423Y90880D01*
X50472Y90867D01*
X50724Y90787D01*
X52972Y90274D01*
X53016Y90268D01*
X53058Y90256D01*
X53215Y90243D01*
X53371Y90223D01*
X53415Y90227D01*
X53460Y90223D01*
X53616Y90241D01*
X53773Y90253D01*
X53815Y90265D01*
X53859Y90270D01*
X54009Y90319D01*
X54161Y90361D01*
X54200Y90381D01*
X54242Y90395D01*
X54379Y90472D01*
X54520Y90544D01*
X54554Y90571D01*
X54593Y90593D01*
X54712Y90696D01*
X54836Y90793D01*
X54864Y90827D01*
X54898Y90856D01*
X54994Y90980D01*
X55096Y91100D01*
X55117Y91139D01*
X55144Y91174D01*
X55214Y91315D01*
X55291Y91453D01*
X55304Y91495D01*
X55324Y91535D01*
X55365Y91687D01*
X55412Y91837D01*
X55417Y91881D01*
X55428Y91923D01*
X55450Y92186D01*
X55455Y92237D01*
X55455Y92245D01*
X55455Y92254D01*
X55455Y100288D01*
X60812Y105645D01*
X68388Y105645D01*
X73745Y100288D01*
X73745Y92712D01*
X68123Y87091D01*
X68040Y86989D01*
X67950Y86893D01*
X67913Y86833D01*
X67868Y86779D01*
X67807Y86663D01*
X67737Y86551D01*
X67712Y86485D01*
X67680Y86424D01*
X67642Y86297D01*
X67596Y86174D01*
X67585Y86105D01*
X67565Y86038D01*
X67553Y85906D01*
X67532Y85776D01*
X67535Y85706D01*
X67528Y85637D01*
X67543Y85505D01*
X67548Y85374D01*
X67564Y85306D01*
X67572Y85236D01*
X67612Y85111D01*
X67643Y84983D01*
X67672Y84919D01*
X67693Y84853D01*
X67757Y84737D01*
X67813Y84618D01*
X67854Y84561D01*
X67888Y84500D01*
X67973Y84400D01*
X68051Y84294D01*
X68110Y84238D01*
X68149Y84193D01*
X68209Y84146D01*
X68293Y84066D01*
X77625Y76625D01*
X85054Y67309D01*
X90223Y56574D01*
X92875Y44958D01*
X92875Y32103D01*
X92877Y32077D01*
X92875Y32050D01*
X92897Y31876D01*
X92915Y31703D01*
X92922Y31677D01*
X92926Y31650D01*
X92981Y31485D01*
X93033Y31318D01*
X93046Y31294D01*
X93054Y31269D01*
X93141Y31117D01*
X93225Y30964D01*
X93242Y30943D01*
X93255Y30920D01*
X93470Y30667D01*
X97667Y26470D01*
X97688Y26453D01*
X97705Y26432D01*
X97843Y26325D01*
X97978Y26215D01*
X98002Y26202D01*
X98023Y26186D01*
X98180Y26108D01*
X98334Y26026D01*
X98360Y26018D01*
X98384Y26006D01*
X98553Y25961D01*
X98720Y25911D01*
X98747Y25909D01*
X98772Y25902D01*
X99103Y25875D01*
X691897Y25875D01*
X691923Y25877D01*
X691950Y25875D01*
X692124Y25897D01*
X692297Y25915D01*
X692323Y25922D01*
X692350Y25926D01*
X692515Y25981D01*
X692682Y26033D01*
X692706Y26046D01*
X692731Y26054D01*
X692883Y26141D01*
X693036Y26225D01*
X693057Y26242D01*
X693080Y26255D01*
X693333Y26470D01*
X705443Y38579D01*
X705473Y38617D01*
X705509Y38649D01*
X705601Y38772D01*
X705698Y38891D01*
X705720Y38933D01*
X705749Y38972D01*
X705815Y39111D01*
X705886Y39246D01*
X705900Y39293D01*
X705921Y39337D01*
X705958Y39486D01*
X706001Y39632D01*
X706006Y39680D01*
X706017Y39728D01*
X706032Y39969D01*
X706038Y40033D01*
X706036Y40045D01*
X706037Y40059D01*
X705995Y42015D01*
X708491Y54129D01*
X713619Y65384D01*
X721123Y75216D01*
X730626Y83131D01*
X733346Y84513D01*
X733454Y84582D01*
X733566Y84643D01*
X733623Y84690D01*
X733685Y84730D01*
X733777Y84819D01*
X733875Y84900D01*
X733922Y84958D01*
X733975Y85010D01*
X734047Y85115D01*
X734127Y85214D01*
X734162Y85280D01*
X734204Y85341D01*
X734254Y85458D01*
X734313Y85571D01*
X734333Y85643D01*
X734363Y85711D01*
X734389Y85836D01*
X734424Y85958D01*
X734430Y86032D01*
X734446Y86105D01*
X734447Y86232D01*
X734457Y86360D01*
X734449Y86433D01*
X734449Y86508D01*
X734425Y86633D01*
X734410Y86759D01*
X734387Y86830D01*
X734373Y86903D01*
X734325Y87021D01*
X734285Y87142D01*
X734249Y87207D01*
X734221Y87276D01*
X734150Y87382D01*
X734088Y87493D01*
X734039Y87549D01*
X733998Y87611D01*
X733908Y87701D01*
X733824Y87798D01*
X733766Y87843D01*
X733713Y87896D01*
X733607Y87966D01*
X733506Y88044D01*
X733440Y88077D01*
X733378Y88119D01*
X733260Y88167D01*
X733146Y88224D01*
X733074Y88243D01*
X733005Y88271D01*
X732880Y88295D01*
X732757Y88328D01*
X732671Y88335D01*
X732610Y88347D01*
X732536Y88346D01*
X732426Y88355D01*
X730612Y88355D01*
X725255Y93712D01*
X725255Y101288D01*
X730612Y106645D01*
X738188Y106645D01*
X743545Y101288D01*
X743545Y93712D01*
X742725Y92893D01*
X742689Y92849D01*
X742647Y92810D01*
X742562Y92693D01*
X742470Y92581D01*
X742444Y92531D01*
X742410Y92485D01*
X742350Y92354D01*
X742282Y92226D01*
X742265Y92171D01*
X742242Y92119D01*
X742208Y91979D01*
X742167Y91840D01*
X742162Y91783D01*
X742149Y91728D01*
X742144Y91583D01*
X742131Y91439D01*
X742137Y91382D01*
X742135Y91325D01*
X742158Y91183D01*
X742174Y91038D01*
X742191Y90984D01*
X742200Y90928D01*
X742252Y90793D01*
X742295Y90655D01*
X742323Y90605D01*
X742343Y90552D01*
X742420Y90429D01*
X742490Y90302D01*
X742527Y90259D01*
X742557Y90211D01*
X742657Y90106D01*
X742751Y89995D01*
X742795Y89960D01*
X742835Y89919D01*
X742953Y89836D01*
X743067Y89746D01*
X743117Y89720D01*
X743164Y89687D01*
X743296Y89629D01*
X743426Y89563D01*
X743481Y89548D01*
X743533Y89525D01*
X743674Y89494D01*
X743813Y89455D01*
X743870Y89451D01*
X743926Y89439D01*
X744070Y89437D01*
X744215Y89426D01*
X744272Y89433D01*
X744328Y89432D01*
X744536Y89466D01*
X744614Y89476D01*
X744633Y89482D01*
X744656Y89486D01*
X749194Y90624D01*
X749347Y90679D01*
X749502Y90728D01*
X749536Y90747D01*
X749573Y90760D01*
X749712Y90845D01*
X749855Y90923D01*
X749884Y90948D01*
X749918Y90969D01*
X750038Y91079D01*
X750162Y91184D01*
X750186Y91214D01*
X750215Y91241D01*
X750310Y91372D01*
X750411Y91500D01*
X750429Y91534D01*
X750452Y91566D01*
X750520Y91714D01*
X750594Y91859D01*
X750604Y91896D01*
X750620Y91932D01*
X750658Y92090D01*
X750701Y92246D01*
X750704Y92285D01*
X750713Y92323D01*
X750719Y92485D01*
X750731Y92648D01*
X750726Y92687D01*
X750727Y92726D01*
X750701Y92886D01*
X750680Y93047D01*
X750668Y93084D01*
X750662Y93123D01*
X750604Y93275D01*
X750552Y93429D01*
X750533Y93463D01*
X750519Y93499D01*
X750455Y93601D01*
X750455Y101288D01*
X751130Y101963D01*
X751147Y101984D01*
X751168Y102001D01*
X751275Y102139D01*
X751385Y102274D01*
X751398Y102298D01*
X751414Y102319D01*
X751492Y102476D01*
X751574Y102630D01*
X751582Y102656D01*
X751594Y102680D01*
X751639Y102849D01*
X751689Y103016D01*
X751691Y103043D01*
X751698Y103068D01*
X751725Y103399D01*
X751725Y117001D01*
X751723Y117027D01*
X751725Y117054D01*
X751703Y117228D01*
X751685Y117401D01*
X751678Y117427D01*
X751674Y117454D01*
X751618Y117619D01*
X751567Y117786D01*
X751554Y117810D01*
X751546Y117835D01*
X751459Y117986D01*
X751375Y118140D01*
X751358Y118161D01*
X751345Y118184D01*
X751130Y118437D01*
X750455Y119112D01*
X750455Y126688D01*
X751130Y127363D01*
X751147Y127384D01*
X751168Y127401D01*
X751275Y127539D01*
X751385Y127674D01*
X751398Y127698D01*
X751414Y127719D01*
X751492Y127876D01*
X751574Y128030D01*
X751582Y128056D01*
X751594Y128080D01*
X751639Y128249D01*
X751689Y128416D01*
X751691Y128443D01*
X751698Y128468D01*
X751725Y128799D01*
X751725Y142401D01*
X751723Y142427D01*
X751725Y142454D01*
X751703Y142628D01*
X751685Y142801D01*
X751678Y142827D01*
X751674Y142854D01*
X751618Y143019D01*
X751567Y143186D01*
X751554Y143210D01*
X751546Y143235D01*
X751459Y143386D01*
X751375Y143540D01*
X751358Y143561D01*
X751345Y143584D01*
X751130Y143837D01*
X750455Y144512D01*
X750455Y152088D01*
X751130Y152763D01*
X751147Y152784D01*
X751168Y152801D01*
X751275Y152939D01*
X751385Y153074D01*
X751398Y153098D01*
X751414Y153119D01*
X751492Y153276D01*
X751574Y153430D01*
X751582Y153456D01*
X751594Y153480D01*
X751639Y153649D01*
X751689Y153816D01*
X751691Y153843D01*
X751698Y153868D01*
X751725Y154199D01*
X751725Y167801D01*
X751723Y167827D01*
X751725Y167854D01*
X751703Y168028D01*
X751685Y168201D01*
X751678Y168227D01*
X751674Y168254D01*
X751618Y168419D01*
X751567Y168586D01*
X751554Y168610D01*
X751546Y168635D01*
X751459Y168786D01*
X751375Y168940D01*
X751358Y168961D01*
X751345Y168984D01*
X751130Y169237D01*
X750455Y169912D01*
X750455Y177488D01*
X751130Y178163D01*
X751147Y178184D01*
X751168Y178201D01*
X751275Y178339D01*
X751385Y178474D01*
X751398Y178498D01*
X751414Y178519D01*
X751492Y178676D01*
X751574Y178830D01*
X751582Y178856D01*
X751594Y178880D01*
X751639Y179049D01*
X751689Y179216D01*
X751691Y179243D01*
X751698Y179268D01*
X751725Y179599D01*
X751725Y193201D01*
X751723Y193227D01*
X751725Y193254D01*
X751703Y193428D01*
X751685Y193601D01*
X751678Y193627D01*
X751674Y193654D01*
X751618Y193819D01*
X751567Y193986D01*
X751554Y194010D01*
X751546Y194035D01*
X751459Y194186D01*
X751375Y194340D01*
X751358Y194361D01*
X751345Y194384D01*
X751130Y194637D01*
X750455Y195312D01*
X750455Y202888D01*
X751130Y203563D01*
X751147Y203584D01*
X751168Y203601D01*
X751275Y203739D01*
X751385Y203874D01*
X751398Y203898D01*
X751414Y203919D01*
X751492Y204076D01*
X751574Y204230D01*
X751582Y204256D01*
X751594Y204280D01*
X751639Y204449D01*
X751689Y204616D01*
X751691Y204643D01*
X751698Y204668D01*
X751725Y204999D01*
X751725Y218601D01*
X751723Y218627D01*
X751725Y218654D01*
X751703Y218828D01*
X751685Y219001D01*
X751678Y219027D01*
X751674Y219054D01*
X751618Y219219D01*
X751567Y219386D01*
X751554Y219410D01*
X751546Y219435D01*
X751459Y219586D01*
X751375Y219740D01*
X751358Y219761D01*
X751345Y219784D01*
X751130Y220037D01*
X750455Y220712D01*
X750455Y228288D01*
X750579Y228412D01*
X750590Y228425D01*
X750604Y228437D01*
X750718Y228581D01*
X750834Y228723D01*
X750843Y228739D01*
X750854Y228753D01*
X750937Y228916D01*
X751023Y229079D01*
X751028Y229096D01*
X751036Y229112D01*
X751085Y229288D01*
X751138Y229465D01*
X751139Y229483D01*
X751144Y229500D01*
X751157Y229683D01*
X751174Y229866D01*
X751172Y229884D01*
X751173Y229901D01*
X751150Y230084D01*
X751131Y230266D01*
X751125Y230283D01*
X751123Y230301D01*
X751064Y230475D01*
X751009Y230650D01*
X751000Y230666D01*
X750995Y230682D01*
X750903Y230842D01*
X750814Y231002D01*
X750803Y231016D01*
X750794Y231031D01*
X750579Y231284D01*
X736333Y245530D01*
X736312Y245547D01*
X736295Y245568D01*
X736157Y245675D01*
X736022Y245785D01*
X735998Y245798D01*
X735977Y245814D01*
X735820Y245892D01*
X735666Y245974D01*
X735640Y245982D01*
X735616Y245994D01*
X735447Y246039D01*
X735280Y246089D01*
X735253Y246091D01*
X735228Y246098D01*
X734897Y246125D01*
X704372Y246125D01*
X704363Y246124D01*
X704354Y246125D01*
X704162Y246104D01*
X703971Y246085D01*
X703963Y246083D01*
X703954Y246082D01*
X703770Y246024D01*
X703586Y245967D01*
X703578Y245963D01*
X703570Y245960D01*
X703402Y245867D01*
X703232Y245775D01*
X703225Y245770D01*
X703217Y245765D01*
X703071Y245641D01*
X702923Y245518D01*
X702917Y245511D01*
X702910Y245505D01*
X702790Y245353D01*
X702671Y245204D01*
X702666Y245196D01*
X702661Y245189D01*
X702573Y245016D01*
X702485Y244847D01*
X702483Y244838D01*
X702479Y244830D01*
X702427Y244645D01*
X702374Y244460D01*
X702373Y244451D01*
X702371Y244442D01*
X702356Y244250D01*
X702341Y244058D01*
X702342Y244050D01*
X702341Y244041D01*
X702365Y243849D01*
X702388Y243659D01*
X702390Y243650D01*
X702392Y243641D01*
X702453Y243459D01*
X702513Y243276D01*
X702517Y243268D01*
X702520Y243260D01*
X702616Y243092D01*
X702710Y242925D01*
X702716Y242918D01*
X702721Y242911D01*
X702935Y242658D01*
X703533Y242060D01*
X703868Y241481D01*
X704041Y240835D01*
X704041Y231063D01*
X690782Y231063D01*
X690764Y231061D01*
X690747Y231063D01*
X690564Y231041D01*
X690381Y231023D01*
X690364Y231018D01*
X690347Y231016D01*
X690172Y230959D01*
X689997Y230905D01*
X689981Y230897D01*
X689964Y230891D01*
X689804Y230801D01*
X689643Y230713D01*
X689629Y230702D01*
X689613Y230693D01*
X689474Y230573D01*
X689333Y230456D01*
X689322Y230442D01*
X689309Y230430D01*
X689196Y230285D01*
X689081Y230142D01*
X689073Y230126D01*
X689062Y230112D01*
X688980Y229946D01*
X688895Y229785D01*
X688891Y229768D01*
X688883Y229751D01*
X688835Y229573D01*
X688784Y229398D01*
X688783Y229380D01*
X688778Y229363D01*
X688751Y229032D01*
X688751Y226999D01*
X688749Y226999D01*
X688749Y229032D01*
X688747Y229050D01*
X688749Y229067D01*
X688727Y229250D01*
X688709Y229433D01*
X688704Y229450D01*
X688702Y229467D01*
X688645Y229642D01*
X688591Y229817D01*
X688583Y229833D01*
X688577Y229850D01*
X688487Y230010D01*
X688399Y230171D01*
X688388Y230185D01*
X688379Y230201D01*
X688259Y230340D01*
X688142Y230481D01*
X688128Y230492D01*
X688116Y230505D01*
X687971Y230618D01*
X687828Y230733D01*
X687812Y230741D01*
X687798Y230752D01*
X687633Y230834D01*
X687471Y230919D01*
X687453Y230923D01*
X687437Y230931D01*
X687259Y230979D01*
X687084Y231030D01*
X687066Y231031D01*
X687049Y231036D01*
X686718Y231063D01*
X673459Y231063D01*
X673459Y240835D01*
X673632Y241481D01*
X673967Y242060D01*
X674565Y242658D01*
X674570Y242665D01*
X674577Y242670D01*
X674697Y242819D01*
X674820Y242969D01*
X674824Y242977D01*
X674829Y242984D01*
X674917Y243153D01*
X675008Y243325D01*
X675011Y243334D01*
X675015Y243341D01*
X675068Y243525D01*
X675123Y243711D01*
X675124Y243720D01*
X675126Y243728D01*
X675142Y243919D01*
X675159Y244112D01*
X675158Y244121D01*
X675159Y244130D01*
X675137Y244319D01*
X675116Y244512D01*
X675113Y244521D01*
X675112Y244529D01*
X675053Y244712D01*
X674995Y244896D01*
X674990Y244904D01*
X674987Y244912D01*
X674892Y245081D01*
X674800Y245248D01*
X674794Y245255D01*
X674790Y245263D01*
X674664Y245408D01*
X674539Y245555D01*
X674532Y245561D01*
X674526Y245568D01*
X674375Y245685D01*
X674223Y245805D01*
X674215Y245809D01*
X674208Y245814D01*
X674035Y245901D01*
X673864Y245987D01*
X673856Y245990D01*
X673848Y245994D01*
X673659Y246044D01*
X673477Y246095D01*
X673468Y246096D01*
X673459Y246098D01*
X673128Y246125D01*
X635906Y246125D01*
X635888Y246123D01*
X635870Y246125D01*
X635688Y246104D01*
X635505Y246085D01*
X635488Y246080D01*
X635471Y246078D01*
X635296Y246021D01*
X635120Y245967D01*
X635105Y245959D01*
X635088Y245953D01*
X634928Y245863D01*
X634766Y245775D01*
X634753Y245764D01*
X634737Y245755D01*
X634598Y245635D01*
X634457Y245518D01*
X634446Y245504D01*
X634432Y245492D01*
X634320Y245347D01*
X634205Y245204D01*
X634197Y245188D01*
X634186Y245174D01*
X634104Y245009D01*
X634019Y244847D01*
X634014Y244830D01*
X634006Y244814D01*
X633959Y244635D01*
X633908Y244460D01*
X633906Y244442D01*
X633902Y244425D01*
X633875Y244094D01*
X633875Y244056D01*
X633877Y244038D01*
X633875Y244020D01*
X633896Y243838D01*
X633915Y243655D01*
X633920Y243638D01*
X633922Y243621D01*
X633979Y243446D01*
X634033Y243270D01*
X634041Y243255D01*
X634047Y243238D01*
X634138Y243077D01*
X634225Y242916D01*
X634236Y242903D01*
X634245Y242887D01*
X634365Y242748D01*
X634482Y242607D01*
X634496Y242596D01*
X634508Y242582D01*
X634653Y242470D01*
X634796Y242355D01*
X634812Y242347D01*
X634826Y242336D01*
X634991Y242254D01*
X635153Y242169D01*
X635170Y242164D01*
X635186Y242156D01*
X635365Y242109D01*
X635540Y242058D01*
X635558Y242056D01*
X635575Y242052D01*
X635906Y242025D01*
X638632Y242025D01*
X639525Y241132D01*
X639525Y212868D01*
X638632Y211975D01*
X611868Y211975D01*
X610975Y212868D01*
X610975Y241132D01*
X611868Y242025D01*
X616094Y242025D01*
X616112Y242027D01*
X616130Y242025D01*
X616312Y242046D01*
X616495Y242065D01*
X616512Y242070D01*
X616529Y242072D01*
X616704Y242129D01*
X616880Y242183D01*
X616895Y242191D01*
X616912Y242197D01*
X617072Y242287D01*
X617234Y242375D01*
X617247Y242386D01*
X617263Y242395D01*
X617402Y242515D01*
X617543Y242632D01*
X617554Y242646D01*
X617568Y242658D01*
X617680Y242803D01*
X617795Y242946D01*
X617803Y242962D01*
X617814Y242976D01*
X617896Y243140D01*
X617981Y243303D01*
X617986Y243320D01*
X617994Y243336D01*
X618041Y243515D01*
X618092Y243690D01*
X618094Y243708D01*
X618098Y243725D01*
X618125Y244056D01*
X618125Y263944D01*
X618123Y263962D01*
X618125Y263980D01*
X618104Y264162D01*
X618085Y264345D01*
X618080Y264362D01*
X618078Y264379D01*
X618021Y264554D01*
X617967Y264730D01*
X617959Y264745D01*
X617953Y264762D01*
X617863Y264922D01*
X617775Y265084D01*
X617764Y265097D01*
X617755Y265113D01*
X617635Y265252D01*
X617518Y265393D01*
X617504Y265404D01*
X617492Y265418D01*
X617347Y265530D01*
X617204Y265645D01*
X617188Y265653D01*
X617174Y265664D01*
X617009Y265746D01*
X616847Y265831D01*
X616830Y265836D01*
X616814Y265844D01*
X616635Y265891D01*
X616460Y265942D01*
X616442Y265944D01*
X616425Y265948D01*
X616094Y265975D01*
X611868Y265975D01*
X610975Y266868D01*
X610975Y295132D01*
X611868Y296025D01*
X638632Y296025D01*
X639525Y295132D01*
X639525Y289636D01*
X639527Y289618D01*
X639525Y289600D01*
X639546Y289418D01*
X639565Y289235D01*
X639570Y289218D01*
X639572Y289201D01*
X639629Y289026D01*
X639683Y288850D01*
X639691Y288835D01*
X639697Y288818D01*
X639787Y288658D01*
X639875Y288496D01*
X639886Y288483D01*
X639895Y288467D01*
X640015Y288328D01*
X640132Y288187D01*
X640146Y288176D01*
X640158Y288162D01*
X640303Y288050D01*
X640446Y287935D01*
X640462Y287927D01*
X640476Y287916D01*
X640641Y287834D01*
X640803Y287749D01*
X640820Y287744D01*
X640836Y287736D01*
X641015Y287689D01*
X641190Y287638D01*
X641208Y287636D01*
X641225Y287632D01*
X641556Y287605D01*
X650314Y287605D01*
X652741Y286599D01*
X654599Y284741D01*
X655605Y282314D01*
X655605Y279686D01*
X654599Y277259D01*
X652741Y275401D01*
X650314Y274395D01*
X641556Y274395D01*
X641538Y274393D01*
X641520Y274395D01*
X641338Y274374D01*
X641155Y274355D01*
X641138Y274350D01*
X641121Y274348D01*
X640946Y274291D01*
X640770Y274237D01*
X640755Y274229D01*
X640738Y274223D01*
X640578Y274133D01*
X640416Y274045D01*
X640403Y274034D01*
X640387Y274025D01*
X640248Y273905D01*
X640107Y273788D01*
X640096Y273774D01*
X640082Y273762D01*
X639970Y273617D01*
X639855Y273474D01*
X639847Y273458D01*
X639836Y273444D01*
X639754Y273279D01*
X639669Y273117D01*
X639664Y273100D01*
X639656Y273084D01*
X639609Y272905D01*
X639558Y272730D01*
X639556Y272712D01*
X639552Y272695D01*
X639525Y272364D01*
X639525Y266868D01*
X638632Y265975D01*
X635906Y265975D01*
X635888Y265973D01*
X635870Y265975D01*
X635688Y265954D01*
X635505Y265935D01*
X635488Y265930D01*
X635471Y265928D01*
X635296Y265871D01*
X635120Y265817D01*
X635105Y265809D01*
X635088Y265803D01*
X634928Y265713D01*
X634766Y265625D01*
X634753Y265614D01*
X634737Y265605D01*
X634598Y265485D01*
X634457Y265368D01*
X634446Y265354D01*
X634432Y265342D01*
X634320Y265197D01*
X634205Y265054D01*
X634197Y265038D01*
X634186Y265024D01*
X634104Y264859D01*
X634019Y264697D01*
X634014Y264680D01*
X634006Y264664D01*
X633959Y264485D01*
X633908Y264310D01*
X633906Y264292D01*
X633902Y264275D01*
X633875Y263944D01*
X633875Y263906D01*
X633877Y263888D01*
X633875Y263870D01*
X633896Y263688D01*
X633915Y263505D01*
X633920Y263488D01*
X633922Y263471D01*
X633979Y263296D01*
X634033Y263120D01*
X634041Y263105D01*
X634047Y263088D01*
X634137Y262928D01*
X634225Y262766D01*
X634236Y262753D01*
X634245Y262737D01*
X634365Y262598D01*
X634482Y262457D01*
X634496Y262446D01*
X634508Y262432D01*
X634653Y262320D01*
X634796Y262205D01*
X634812Y262197D01*
X634826Y262186D01*
X634991Y262104D01*
X635153Y262019D01*
X635170Y262014D01*
X635186Y262006D01*
X635365Y261959D01*
X635540Y261908D01*
X635558Y261906D01*
X635575Y261902D01*
X635906Y261875D01*
X673128Y261875D01*
X673137Y261876D01*
X673146Y261875D01*
X673338Y261896D01*
X673529Y261915D01*
X673537Y261917D01*
X673546Y261918D01*
X673730Y261976D01*
X673914Y262033D01*
X673922Y262037D01*
X673930Y262040D01*
X674098Y262133D01*
X674268Y262225D01*
X674275Y262230D01*
X674283Y262235D01*
X674429Y262359D01*
X674577Y262482D01*
X674583Y262489D01*
X674590Y262495D01*
X674710Y262647D01*
X674829Y262796D01*
X674834Y262804D01*
X674839Y262811D01*
X674927Y262984D01*
X675015Y263153D01*
X675017Y263162D01*
X675021Y263170D01*
X675073Y263355D01*
X675126Y263540D01*
X675127Y263549D01*
X675129Y263558D01*
X675144Y263750D01*
X675159Y263942D01*
X675158Y263950D01*
X675159Y263959D01*
X675135Y264148D01*
X675112Y264341D01*
X675110Y264350D01*
X675108Y264359D01*
X675047Y264541D01*
X674987Y264724D01*
X674983Y264732D01*
X674980Y264740D01*
X674884Y264908D01*
X674790Y265075D01*
X674784Y265082D01*
X674779Y265089D01*
X674565Y265342D01*
X673967Y265940D01*
X673632Y266519D01*
X673459Y267165D01*
X673459Y276937D01*
X686718Y276937D01*
X686736Y276939D01*
X686753Y276937D01*
X686936Y276959D01*
X687119Y276977D01*
X687136Y276982D01*
X687153Y276984D01*
X687328Y277041D01*
X687503Y277095D01*
X687519Y277103D01*
X687536Y277109D01*
X687696Y277199D01*
X687857Y277287D01*
X687871Y277298D01*
X687887Y277307D01*
X688026Y277427D01*
X688167Y277544D01*
X688178Y277558D01*
X688191Y277570D01*
X688304Y277715D01*
X688419Y277858D01*
X688427Y277874D01*
X688438Y277888D01*
X688520Y278053D01*
X688605Y278215D01*
X688609Y278232D01*
X688617Y278249D01*
X688665Y278427D01*
X688716Y278602D01*
X688717Y278620D01*
X688722Y278637D01*
X688749Y278968D01*
X688749Y281001D01*
X688751Y281001D01*
X688751Y278968D01*
X688753Y278950D01*
X688751Y278933D01*
X688773Y278750D01*
X688791Y278567D01*
X688796Y278550D01*
X688798Y278533D01*
X688855Y278358D01*
X688909Y278183D01*
X688917Y278167D01*
X688923Y278150D01*
X689013Y277990D01*
X689101Y277828D01*
X689112Y277815D01*
X689121Y277799D01*
X689241Y277660D01*
X689358Y277519D01*
X689372Y277508D01*
X689384Y277495D01*
X689529Y277382D01*
X689672Y277267D01*
X689688Y277259D01*
X689702Y277248D01*
X689867Y277166D01*
X690029Y277081D01*
X690047Y277076D01*
X690063Y277068D01*
X690241Y277021D01*
X690416Y276970D01*
X690434Y276969D01*
X690451Y276964D01*
X690782Y276937D01*
X704041Y276937D01*
X704041Y267165D01*
X703868Y266519D01*
X703533Y265940D01*
X702935Y265342D01*
X702930Y265335D01*
X702923Y265330D01*
X702803Y265181D01*
X702680Y265031D01*
X702676Y265023D01*
X702671Y265016D01*
X702583Y264847D01*
X702492Y264675D01*
X702489Y264666D01*
X702485Y264659D01*
X702432Y264475D01*
X702377Y264289D01*
X702376Y264280D01*
X702374Y264272D01*
X702358Y264081D01*
X702341Y263888D01*
X702342Y263879D01*
X702341Y263870D01*
X702363Y263681D01*
X702384Y263488D01*
X702387Y263479D01*
X702388Y263471D01*
X702447Y263288D01*
X702505Y263104D01*
X702510Y263096D01*
X702513Y263088D01*
X702608Y262919D01*
X702700Y262752D01*
X702706Y262745D01*
X702710Y262737D01*
X702836Y262592D01*
X702961Y262445D01*
X702968Y262439D01*
X702974Y262432D01*
X703126Y262315D01*
X703277Y262195D01*
X703285Y262191D01*
X703292Y262186D01*
X703465Y262099D01*
X703636Y262013D01*
X703644Y262010D01*
X703652Y262006D01*
X703841Y261956D01*
X704023Y261905D01*
X704032Y261904D01*
X704041Y261902D01*
X704372Y261875D01*
X740566Y261875D01*
X743461Y260676D01*
X744533Y259603D01*
X744537Y259601D01*
X744540Y259597D01*
X744694Y259471D01*
X744845Y259348D01*
X744849Y259346D01*
X744852Y259343D01*
X745026Y259252D01*
X745200Y259160D01*
X745205Y259158D01*
X745209Y259156D01*
X745396Y259101D01*
X745586Y259045D01*
X745591Y259044D01*
X745595Y259043D01*
X745788Y259026D01*
X745987Y259008D01*
X745992Y259009D01*
X745996Y259008D01*
X746186Y259030D01*
X746388Y259052D01*
X746392Y259053D01*
X746396Y259054D01*
X746580Y259113D01*
X746771Y259173D01*
X746775Y259175D01*
X746780Y259177D01*
X746949Y259271D01*
X747124Y259368D01*
X747127Y259371D01*
X747131Y259373D01*
X747279Y259500D01*
X747431Y259629D01*
X747434Y259632D01*
X747437Y259635D01*
X747557Y259788D01*
X747680Y259944D01*
X747682Y259949D01*
X747685Y259952D01*
X747771Y260122D01*
X747863Y260303D01*
X747864Y260308D01*
X747866Y260312D01*
X747917Y260498D01*
X747971Y260691D01*
X747971Y260696D01*
X747972Y260700D01*
X747986Y260896D01*
X748000Y261093D01*
X748000Y261097D01*
X748000Y261102D01*
X747975Y261295D01*
X747950Y261492D01*
X747948Y261497D01*
X747948Y261501D01*
X747846Y261817D01*
X747553Y262524D01*
X747553Y267476D01*
X749448Y272051D01*
X752949Y275552D01*
X756246Y276917D01*
X756247Y276918D01*
X757524Y277447D01*
X762476Y277447D01*
X767051Y275552D01*
X770552Y272051D01*
X772447Y267476D01*
X772447Y262524D01*
X770552Y257949D01*
X767051Y254448D01*
X762476Y252553D01*
X757524Y252553D01*
X756817Y252846D01*
X756813Y252848D01*
X756809Y252850D01*
X756622Y252905D01*
X756431Y252963D01*
X756427Y252963D01*
X756423Y252964D01*
X756224Y252982D01*
X756031Y253001D01*
X756026Y253000D01*
X756022Y253001D01*
X755820Y252979D01*
X755630Y252959D01*
X755626Y252958D01*
X755622Y252957D01*
X755432Y252897D01*
X755246Y252839D01*
X755242Y252837D01*
X755238Y252836D01*
X755066Y252741D01*
X754893Y252646D01*
X754889Y252643D01*
X754885Y252641D01*
X754735Y252513D01*
X754585Y252387D01*
X754582Y252383D01*
X754578Y252381D01*
X754455Y252225D01*
X754334Y252072D01*
X754332Y252068D01*
X754329Y252065D01*
X754239Y251888D01*
X754150Y251714D01*
X754148Y251710D01*
X754146Y251706D01*
X754093Y251513D01*
X754040Y251327D01*
X754040Y251322D01*
X754038Y251318D01*
X754024Y251116D01*
X754009Y250925D01*
X754009Y250921D01*
X754009Y250916D01*
X754034Y250715D01*
X754057Y250526D01*
X754059Y250521D01*
X754059Y250517D01*
X754123Y250326D01*
X754184Y250143D01*
X754186Y250139D01*
X754188Y250135D01*
X754286Y249965D01*
X754383Y249794D01*
X754386Y249790D01*
X754389Y249786D01*
X754603Y249533D01*
X766276Y237861D01*
X767475Y234966D01*
X767475Y230399D01*
X767477Y230373D01*
X767475Y230346D01*
X767497Y230171D01*
X767515Y229999D01*
X767522Y229973D01*
X767526Y229946D01*
X767581Y229781D01*
X767633Y229614D01*
X767646Y229590D01*
X767654Y229565D01*
X767741Y229413D01*
X767825Y229260D01*
X767842Y229239D01*
X767855Y229216D01*
X768070Y228963D01*
X768745Y228288D01*
X768745Y220712D01*
X768070Y220037D01*
X768053Y220016D01*
X768032Y219999D01*
X767925Y219861D01*
X767815Y219726D01*
X767802Y219702D01*
X767786Y219681D01*
X767708Y219524D01*
X767626Y219370D01*
X767618Y219344D01*
X767606Y219320D01*
X767561Y219151D01*
X767511Y218984D01*
X767509Y218957D01*
X767502Y218932D01*
X767475Y218601D01*
X767475Y204999D01*
X767477Y204973D01*
X767475Y204946D01*
X767497Y204772D01*
X767515Y204599D01*
X767522Y204573D01*
X767526Y204546D01*
X767582Y204381D01*
X767633Y204214D01*
X767646Y204190D01*
X767654Y204165D01*
X767741Y204014D01*
X767825Y203860D01*
X767842Y203839D01*
X767855Y203816D01*
X768070Y203563D01*
X768745Y202888D01*
X768745Y195312D01*
X768070Y194637D01*
X768053Y194616D01*
X768032Y194599D01*
X767925Y194461D01*
X767815Y194326D01*
X767802Y194302D01*
X767786Y194281D01*
X767708Y194124D01*
X767626Y193970D01*
X767618Y193944D01*
X767606Y193920D01*
X767561Y193751D01*
X767511Y193584D01*
X767509Y193557D01*
X767502Y193532D01*
X767475Y193201D01*
X767475Y179599D01*
X767477Y179573D01*
X767475Y179546D01*
X767497Y179372D01*
X767515Y179199D01*
X767522Y179173D01*
X767526Y179146D01*
X767582Y178981D01*
X767633Y178814D01*
X767646Y178790D01*
X767654Y178765D01*
X767741Y178614D01*
X767825Y178460D01*
X767842Y178439D01*
X767855Y178416D01*
X768070Y178163D01*
X768745Y177488D01*
X768745Y169912D01*
X768070Y169237D01*
X768053Y169216D01*
X768032Y169199D01*
X767925Y169061D01*
X767815Y168926D01*
X767802Y168902D01*
X767786Y168881D01*
X767708Y168724D01*
X767626Y168570D01*
X767618Y168544D01*
X767606Y168520D01*
X767561Y168351D01*
X767511Y168184D01*
X767509Y168157D01*
X767502Y168132D01*
X767475Y167801D01*
X767475Y154199D01*
X767477Y154173D01*
X767475Y154146D01*
X767497Y153972D01*
X767515Y153799D01*
X767522Y153773D01*
X767526Y153746D01*
X767582Y153581D01*
X767633Y153414D01*
X767646Y153390D01*
X767654Y153365D01*
X767741Y153214D01*
X767825Y153060D01*
X767842Y153039D01*
X767855Y153016D01*
X768070Y152763D01*
X768745Y152088D01*
X768745Y144512D01*
X768070Y143837D01*
X768053Y143816D01*
X768032Y143799D01*
X767925Y143661D01*
X767815Y143526D01*
X767802Y143502D01*
X767786Y143481D01*
X767708Y143324D01*
X767626Y143170D01*
X767618Y143144D01*
X767606Y143120D01*
X767561Y142951D01*
X767511Y142784D01*
X767509Y142757D01*
X767502Y142732D01*
X767475Y142401D01*
X767475Y128799D01*
X767477Y128773D01*
X767475Y128746D01*
X767497Y128572D01*
X767515Y128399D01*
X767522Y128373D01*
X767526Y128346D01*
X767582Y128181D01*
X767633Y128014D01*
X767646Y127990D01*
X767654Y127965D01*
X767741Y127814D01*
X767825Y127660D01*
X767842Y127639D01*
X767855Y127616D01*
X768070Y127363D01*
X768745Y126688D01*
X768745Y119112D01*
X768070Y118437D01*
X768053Y118416D01*
X768032Y118399D01*
X767925Y118261D01*
X767815Y118126D01*
X767802Y118102D01*
X767786Y118081D01*
X767708Y117924D01*
X767626Y117770D01*
X767618Y117744D01*
X767606Y117720D01*
X767561Y117551D01*
X767511Y117384D01*
X767509Y117357D01*
X767502Y117332D01*
X767475Y117001D01*
X767475Y103399D01*
X767477Y103373D01*
X767475Y103346D01*
X767497Y103172D01*
X767515Y102999D01*
X767522Y102973D01*
X767526Y102946D01*
X767582Y102781D01*
X767633Y102614D01*
X767646Y102590D01*
X767654Y102565D01*
X767741Y102414D01*
X767825Y102260D01*
X767842Y102239D01*
X767855Y102216D01*
X768070Y101963D01*
X768745Y101288D01*
X768745Y93712D01*
X768470Y93437D01*
X768453Y93416D01*
X768432Y93399D01*
X768325Y93261D01*
X768215Y93126D01*
X768202Y93102D01*
X768186Y93081D01*
X768108Y92924D01*
X768026Y92770D01*
X768018Y92744D01*
X768006Y92720D01*
X767961Y92551D01*
X767911Y92384D01*
X767909Y92357D01*
X767902Y92331D01*
X767875Y92001D01*
X767875Y84106D01*
X767877Y84087D01*
X767875Y84063D01*
X767908Y82514D01*
X767316Y81085D01*
X767310Y81066D01*
X767300Y81045D01*
X766738Y79601D01*
X765643Y78507D01*
X765631Y78492D01*
X765613Y78476D01*
X764541Y77358D01*
X763112Y76765D01*
X763095Y76756D01*
X763072Y76748D01*
X761654Y76125D01*
X760182Y76125D01*
X760117Y76119D01*
X760025Y76119D01*
X755905Y75800D01*
X755900Y75799D01*
X755896Y75799D01*
X755568Y75745D01*
X747509Y73724D01*
X747451Y73703D01*
X747390Y73690D01*
X747208Y73616D01*
X747130Y73588D01*
X747110Y73576D01*
X747083Y73565D01*
X739675Y69801D01*
X739623Y69768D01*
X739567Y69742D01*
X739406Y69629D01*
X739336Y69584D01*
X739319Y69568D01*
X739295Y69551D01*
X732911Y64234D01*
X732867Y64189D01*
X732818Y64152D01*
X732687Y64006D01*
X732629Y63947D01*
X732616Y63927D01*
X732596Y63905D01*
X727555Y57300D01*
X727523Y57248D01*
X727483Y57200D01*
X727387Y57029D01*
X727344Y56958D01*
X727336Y56936D01*
X727321Y56910D01*
X723876Y49349D01*
X723861Y49303D01*
X723838Y49260D01*
X723834Y49247D01*
X723829Y49235D01*
X723773Y49046D01*
X723747Y48968D01*
X723744Y48945D01*
X723735Y48917D01*
X722059Y40779D01*
X722059Y40774D01*
X722057Y40769D01*
X722019Y40440D01*
X721876Y36346D01*
X721878Y36315D01*
X721875Y36276D01*
X721875Y36105D01*
X721877Y36085D01*
X721875Y36061D01*
X721908Y34514D01*
X721316Y33084D01*
X721310Y33066D01*
X721300Y33044D01*
X720738Y31601D01*
X719643Y30506D01*
X719631Y30491D01*
X719613Y30475D01*
X718532Y29348D01*
X718521Y29341D01*
X718514Y29335D01*
X718505Y29330D01*
X718252Y29116D01*
X700461Y11324D01*
X698490Y10508D01*
X697566Y10125D01*
X93434Y10125D01*
G37*
%LPD*%
%LPC*%
G36*
X162090Y84427D02*
X162090Y84427D01*
X160410Y85123D01*
X151123Y94410D01*
X150427Y96090D01*
X150427Y109957D01*
X150425Y109979D01*
X150427Y110002D01*
X150405Y110179D01*
X150387Y110357D01*
X150381Y110379D01*
X150378Y110401D01*
X150322Y110571D01*
X150269Y110742D01*
X150258Y110762D01*
X150251Y110783D01*
X150163Y110939D01*
X150077Y111096D01*
X150063Y111114D01*
X150052Y111133D01*
X149934Y111268D01*
X149820Y111406D01*
X149802Y111420D01*
X149787Y111437D01*
X149645Y111546D01*
X149570Y111606D01*
X146713Y114463D01*
X145225Y118056D01*
X145225Y121944D01*
X146713Y125537D01*
X149463Y128287D01*
X153056Y129775D01*
X156944Y129775D01*
X160537Y128287D01*
X163287Y125537D01*
X164775Y121944D01*
X164775Y118056D01*
X163287Y114463D01*
X160450Y111626D01*
X160435Y111618D01*
X160300Y111501D01*
X160162Y111387D01*
X160147Y111370D01*
X160130Y111355D01*
X160021Y111213D01*
X159908Y111074D01*
X159897Y111055D01*
X159884Y111037D01*
X159804Y110877D01*
X159721Y110718D01*
X159714Y110696D01*
X159704Y110676D01*
X159658Y110503D01*
X159608Y110332D01*
X159606Y110309D01*
X159600Y110287D01*
X159573Y109957D01*
X159573Y99735D01*
X159575Y99709D01*
X159573Y99682D01*
X159595Y99508D01*
X159613Y99335D01*
X159620Y99309D01*
X159624Y99283D01*
X159679Y99117D01*
X159731Y98950D01*
X159744Y98926D01*
X159752Y98901D01*
X159839Y98749D01*
X159923Y98596D01*
X159940Y98575D01*
X159953Y98552D01*
X160168Y98299D01*
X164299Y94168D01*
X164320Y94151D01*
X164337Y94130D01*
X164475Y94023D01*
X164611Y93913D01*
X164634Y93900D01*
X164655Y93884D01*
X164812Y93806D01*
X164966Y93724D01*
X164992Y93716D01*
X165016Y93704D01*
X165185Y93659D01*
X165352Y93609D01*
X165379Y93607D01*
X165405Y93600D01*
X165735Y93573D01*
X182493Y93573D01*
X182502Y93574D01*
X182511Y93573D01*
X182703Y93594D01*
X182894Y93613D01*
X182903Y93615D01*
X182911Y93616D01*
X183094Y93674D01*
X183279Y93731D01*
X183287Y93735D01*
X183295Y93738D01*
X183464Y93831D01*
X183633Y93923D01*
X183640Y93928D01*
X183648Y93933D01*
X183795Y94057D01*
X183942Y94180D01*
X183948Y94187D01*
X183955Y94193D01*
X184074Y94344D01*
X184195Y94494D01*
X184199Y94502D01*
X184204Y94509D01*
X184292Y94682D01*
X184380Y94851D01*
X184383Y94860D01*
X184387Y94868D01*
X184439Y95054D01*
X184491Y95238D01*
X184492Y95247D01*
X184495Y95256D01*
X184509Y95449D01*
X184524Y95640D01*
X184523Y95648D01*
X184524Y95657D01*
X184500Y95850D01*
X184477Y96039D01*
X184475Y96048D01*
X184474Y96057D01*
X184412Y96239D01*
X184353Y96422D01*
X184348Y96430D01*
X184345Y96438D01*
X184249Y96605D01*
X184155Y96773D01*
X184149Y96780D01*
X184144Y96787D01*
X183930Y97040D01*
X179122Y101848D01*
X176443Y104527D01*
X176443Y109536D01*
X176441Y109558D01*
X176443Y109580D01*
X176421Y109758D01*
X176403Y109937D01*
X176397Y109958D01*
X176394Y109980D01*
X176338Y110149D01*
X176285Y110321D01*
X176275Y110341D01*
X176268Y110362D01*
X176179Y110518D01*
X176093Y110675D01*
X176079Y110693D01*
X176068Y110712D01*
X175951Y110847D01*
X175836Y110985D01*
X175818Y110999D01*
X175804Y111016D01*
X175662Y111125D01*
X175522Y111237D01*
X175502Y111247D01*
X175484Y111261D01*
X175189Y111413D01*
X174463Y111713D01*
X171713Y114463D01*
X170225Y118056D01*
X170225Y121944D01*
X171713Y125537D01*
X174463Y128287D01*
X178056Y129775D01*
X181944Y129775D01*
X185537Y128287D01*
X188287Y125537D01*
X189775Y121944D01*
X189775Y118056D01*
X188287Y114463D01*
X185537Y111713D01*
X184811Y111413D01*
X184791Y111402D01*
X184770Y111395D01*
X184614Y111307D01*
X184456Y111222D01*
X184439Y111208D01*
X184419Y111197D01*
X184284Y111080D01*
X184145Y110966D01*
X184131Y110949D01*
X184114Y110934D01*
X184005Y110793D01*
X183892Y110653D01*
X183881Y110634D01*
X183868Y110616D01*
X183788Y110455D01*
X183705Y110297D01*
X183698Y110275D01*
X183688Y110255D01*
X183642Y110082D01*
X183592Y109910D01*
X183590Y109888D01*
X183584Y109867D01*
X183557Y109536D01*
X183557Y108315D01*
X183559Y108288D01*
X183557Y108261D01*
X183579Y108087D01*
X183597Y107914D01*
X183604Y107889D01*
X183608Y107862D01*
X183663Y107696D01*
X183715Y107529D01*
X183728Y107506D01*
X183736Y107480D01*
X183823Y107329D01*
X183907Y107175D01*
X183924Y107155D01*
X183937Y107131D01*
X184152Y106878D01*
X187878Y103152D01*
X187899Y103135D01*
X187917Y103114D01*
X188054Y103007D01*
X188190Y102897D01*
X188213Y102884D01*
X188235Y102868D01*
X188392Y102790D01*
X188546Y102708D01*
X188571Y102700D01*
X188595Y102688D01*
X188765Y102643D01*
X188931Y102593D01*
X188958Y102591D01*
X188984Y102584D01*
X189315Y102557D01*
X272685Y102557D01*
X272712Y102559D01*
X272739Y102557D01*
X272913Y102579D01*
X273086Y102597D01*
X273111Y102604D01*
X273138Y102608D01*
X273304Y102663D01*
X273471Y102715D01*
X273494Y102728D01*
X273520Y102736D01*
X273671Y102823D01*
X273825Y102907D01*
X273845Y102924D01*
X273869Y102937D01*
X274122Y103152D01*
X283948Y112978D01*
X283965Y112999D01*
X283986Y113017D01*
X284093Y113154D01*
X284203Y113290D01*
X284216Y113313D01*
X284232Y113335D01*
X284310Y113492D01*
X284392Y113646D01*
X284400Y113671D01*
X284412Y113695D01*
X284457Y113865D01*
X284507Y114031D01*
X284509Y114058D01*
X284516Y114084D01*
X284543Y114415D01*
X284543Y202083D01*
X284541Y202109D01*
X284543Y202136D01*
X284521Y202310D01*
X284503Y202483D01*
X284496Y202509D01*
X284492Y202536D01*
X284436Y202701D01*
X284385Y202868D01*
X284372Y202892D01*
X284364Y202917D01*
X284277Y203069D01*
X284193Y203222D01*
X284176Y203243D01*
X284163Y203266D01*
X283948Y203519D01*
X278955Y208512D01*
X278955Y216088D01*
X284312Y221445D01*
X291888Y221445D01*
X297245Y216088D01*
X297245Y208512D01*
X292252Y203519D01*
X292235Y203498D01*
X292214Y203481D01*
X292107Y203343D01*
X291997Y203208D01*
X291984Y203184D01*
X291968Y203163D01*
X291890Y203006D01*
X291808Y202852D01*
X291800Y202826D01*
X291788Y202802D01*
X291743Y202633D01*
X291693Y202466D01*
X291691Y202439D01*
X291684Y202414D01*
X291657Y202083D01*
X291657Y123541D01*
X291657Y123536D01*
X291657Y123532D01*
X291677Y123338D01*
X291697Y123140D01*
X291698Y123136D01*
X291698Y123131D01*
X291757Y122942D01*
X291815Y122755D01*
X291817Y122751D01*
X291818Y122747D01*
X291914Y122573D01*
X292007Y122401D01*
X292009Y122398D01*
X292012Y122394D01*
X292142Y122239D01*
X292264Y122092D01*
X292268Y122089D01*
X292271Y122086D01*
X292427Y121961D01*
X292578Y121840D01*
X292582Y121838D01*
X292585Y121835D01*
X292766Y121742D01*
X292935Y121654D01*
X292940Y121653D01*
X292944Y121651D01*
X293134Y121597D01*
X293322Y121543D01*
X293327Y121542D01*
X293331Y121541D01*
X293524Y121526D01*
X293724Y121510D01*
X293728Y121510D01*
X293732Y121510D01*
X293926Y121534D01*
X294123Y121557D01*
X294128Y121558D01*
X294132Y121559D01*
X294317Y121620D01*
X294506Y121682D01*
X294510Y121684D01*
X294514Y121685D01*
X294683Y121782D01*
X294857Y121880D01*
X294860Y121883D01*
X294864Y121885D01*
X295013Y122014D01*
X295161Y122143D01*
X295164Y122146D01*
X295168Y122149D01*
X295290Y122308D01*
X295408Y122461D01*
X295410Y122465D01*
X295413Y122468D01*
X295565Y122764D01*
X296713Y125537D01*
X299463Y128287D01*
X303056Y129775D01*
X306944Y129775D01*
X310537Y128287D01*
X313287Y125537D01*
X314775Y121944D01*
X314775Y118056D01*
X313287Y114463D01*
X310450Y111626D01*
X310435Y111618D01*
X310300Y111501D01*
X310162Y111387D01*
X310147Y111370D01*
X310130Y111355D01*
X310021Y111213D01*
X309908Y111074D01*
X309897Y111055D01*
X309884Y111037D01*
X309804Y110877D01*
X309721Y110718D01*
X309714Y110696D01*
X309704Y110676D01*
X309658Y110503D01*
X309608Y110332D01*
X309606Y110309D01*
X309600Y110287D01*
X309573Y109957D01*
X309573Y95604D01*
X309575Y95586D01*
X309573Y95568D01*
X309594Y95386D01*
X309613Y95203D01*
X309618Y95186D01*
X309620Y95169D01*
X309677Y94994D01*
X309731Y94818D01*
X309739Y94803D01*
X309745Y94786D01*
X309835Y94626D01*
X309923Y94464D01*
X309934Y94451D01*
X309943Y94435D01*
X310063Y94296D01*
X310180Y94155D01*
X310194Y94144D01*
X310206Y94130D01*
X310351Y94018D01*
X310494Y93903D01*
X310510Y93895D01*
X310524Y93884D01*
X310689Y93802D01*
X310851Y93717D01*
X310868Y93712D01*
X310884Y93704D01*
X311063Y93657D01*
X311238Y93606D01*
X311256Y93604D01*
X311273Y93600D01*
X311604Y93573D01*
X377396Y93573D01*
X377414Y93575D01*
X377432Y93573D01*
X377614Y93594D01*
X377797Y93613D01*
X377814Y93618D01*
X377831Y93620D01*
X378006Y93677D01*
X378182Y93731D01*
X378197Y93739D01*
X378214Y93745D01*
X378374Y93835D01*
X378536Y93923D01*
X378549Y93934D01*
X378565Y93943D01*
X378704Y94063D01*
X378845Y94180D01*
X378856Y94194D01*
X378870Y94206D01*
X378982Y94351D01*
X379097Y94494D01*
X379105Y94510D01*
X379116Y94524D01*
X379198Y94689D01*
X379283Y94851D01*
X379288Y94868D01*
X379296Y94884D01*
X379343Y95063D01*
X379394Y95238D01*
X379396Y95256D01*
X379400Y95273D01*
X379427Y95604D01*
X379427Y124265D01*
X379425Y124291D01*
X379427Y124318D01*
X379405Y124492D01*
X379387Y124665D01*
X379380Y124691D01*
X379376Y124717D01*
X379321Y124883D01*
X379269Y125050D01*
X379256Y125074D01*
X379248Y125099D01*
X379161Y125251D01*
X379077Y125404D01*
X379060Y125425D01*
X379047Y125448D01*
X378832Y125701D01*
X353123Y151410D01*
X352427Y153090D01*
X352427Y206554D01*
X352426Y206563D01*
X352427Y206572D01*
X352406Y206765D01*
X352387Y206955D01*
X352385Y206963D01*
X352384Y206972D01*
X352326Y207156D01*
X352269Y207340D01*
X352265Y207347D01*
X352262Y207356D01*
X352169Y207524D01*
X352077Y207694D01*
X352072Y207700D01*
X352067Y207708D01*
X351943Y207855D01*
X351820Y208003D01*
X351813Y208008D01*
X351807Y208015D01*
X351656Y208134D01*
X351506Y208255D01*
X351498Y208259D01*
X351491Y208265D01*
X351318Y208353D01*
X351149Y208441D01*
X351140Y208443D01*
X351132Y208447D01*
X350946Y208499D01*
X350762Y208552D01*
X350753Y208553D01*
X350744Y208555D01*
X350551Y208569D01*
X350360Y208585D01*
X350352Y208584D01*
X350343Y208585D01*
X350150Y208560D01*
X349961Y208538D01*
X349952Y208535D01*
X349943Y208534D01*
X349760Y208473D01*
X349578Y208413D01*
X349570Y208409D01*
X349562Y208406D01*
X349395Y208310D01*
X349227Y208215D01*
X349220Y208209D01*
X349213Y208205D01*
X348960Y207990D01*
X343109Y202139D01*
X341439Y202139D01*
X341439Y211792D01*
X341437Y211810D01*
X341439Y211827D01*
X341418Y212010D01*
X341399Y212192D01*
X341394Y212209D01*
X341392Y212227D01*
X341367Y212305D01*
X341406Y212442D01*
X341408Y212460D01*
X341412Y212477D01*
X341439Y212808D01*
X341439Y222461D01*
X343109Y222461D01*
X348960Y216610D01*
X348967Y216604D01*
X348972Y216597D01*
X349122Y216477D01*
X349271Y216355D01*
X349279Y216350D01*
X349286Y216345D01*
X349456Y216256D01*
X349627Y216166D01*
X349636Y216163D01*
X349643Y216159D01*
X349828Y216106D01*
X350013Y216051D01*
X350022Y216050D01*
X350030Y216048D01*
X350222Y216032D01*
X350414Y216015D01*
X350423Y216016D01*
X350432Y216015D01*
X350621Y216037D01*
X350814Y216058D01*
X350823Y216061D01*
X350831Y216062D01*
X351013Y216121D01*
X351198Y216180D01*
X351206Y216184D01*
X351214Y216187D01*
X351383Y216282D01*
X351550Y216375D01*
X351557Y216380D01*
X351565Y216385D01*
X351711Y216511D01*
X351857Y216635D01*
X351863Y216642D01*
X351870Y216648D01*
X351987Y216799D01*
X352107Y216951D01*
X352111Y216959D01*
X352116Y216966D01*
X352202Y217138D01*
X352289Y217310D01*
X352292Y217318D01*
X352296Y217327D01*
X352346Y217513D01*
X352397Y217698D01*
X352398Y217707D01*
X352400Y217715D01*
X352427Y218046D01*
X352427Y231096D01*
X352425Y231114D01*
X352427Y231132D01*
X352406Y231314D01*
X352387Y231497D01*
X352382Y231514D01*
X352380Y231531D01*
X352323Y231706D01*
X352269Y231882D01*
X352261Y231897D01*
X352255Y231914D01*
X352165Y232074D01*
X352077Y232236D01*
X352066Y232249D01*
X352057Y232265D01*
X351937Y232404D01*
X351820Y232545D01*
X351806Y232556D01*
X351794Y232570D01*
X351649Y232682D01*
X351506Y232797D01*
X351490Y232805D01*
X351476Y232816D01*
X351311Y232898D01*
X351149Y232983D01*
X351132Y232988D01*
X351116Y232996D01*
X350937Y233043D01*
X350762Y233094D01*
X350744Y233096D01*
X350727Y233100D01*
X350396Y233127D01*
X348101Y233127D01*
X348075Y233125D01*
X348048Y233127D01*
X347874Y233105D01*
X347701Y233087D01*
X347675Y233080D01*
X347648Y233076D01*
X347483Y233021D01*
X347316Y232969D01*
X347292Y232956D01*
X347267Y232948D01*
X347115Y232861D01*
X346962Y232777D01*
X346941Y232760D01*
X346918Y232747D01*
X346665Y232532D01*
X342688Y228555D01*
X335112Y228555D01*
X329755Y233912D01*
X329755Y241488D01*
X335112Y246845D01*
X342688Y246845D01*
X346665Y242868D01*
X346686Y242851D01*
X346703Y242830D01*
X346841Y242723D01*
X346976Y242613D01*
X347000Y242600D01*
X347021Y242584D01*
X347178Y242506D01*
X347332Y242424D01*
X347358Y242416D01*
X347382Y242404D01*
X347551Y242359D01*
X347718Y242309D01*
X347745Y242307D01*
X347771Y242300D01*
X348101Y242273D01*
X354210Y242273D01*
X355890Y241577D01*
X360877Y236590D01*
X361573Y234910D01*
X361573Y156735D01*
X361575Y156709D01*
X361573Y156682D01*
X361595Y156508D01*
X361613Y156335D01*
X361620Y156309D01*
X361624Y156283D01*
X361679Y156117D01*
X361731Y155950D01*
X361744Y155926D01*
X361752Y155901D01*
X361839Y155749D01*
X361923Y155596D01*
X361940Y155575D01*
X361953Y155552D01*
X362168Y155299D01*
X387877Y129590D01*
X388573Y127910D01*
X388573Y95604D01*
X388575Y95586D01*
X388573Y95568D01*
X388594Y95386D01*
X388613Y95203D01*
X388618Y95186D01*
X388620Y95169D01*
X388677Y94994D01*
X388731Y94818D01*
X388739Y94803D01*
X388745Y94786D01*
X388835Y94626D01*
X388923Y94464D01*
X388934Y94451D01*
X388943Y94435D01*
X389063Y94296D01*
X389180Y94155D01*
X389194Y94144D01*
X389206Y94130D01*
X389351Y94018D01*
X389494Y93903D01*
X389510Y93895D01*
X389524Y93884D01*
X389689Y93802D01*
X389851Y93717D01*
X389868Y93712D01*
X389884Y93704D01*
X390063Y93657D01*
X390238Y93606D01*
X390256Y93604D01*
X390273Y93600D01*
X390604Y93573D01*
X448265Y93573D01*
X448291Y93575D01*
X448318Y93573D01*
X448492Y93595D01*
X448665Y93613D01*
X448691Y93620D01*
X448717Y93624D01*
X448883Y93679D01*
X449050Y93731D01*
X449074Y93744D01*
X449099Y93752D01*
X449251Y93839D01*
X449404Y93923D01*
X449425Y93940D01*
X449448Y93953D01*
X449701Y94168D01*
X449832Y94299D01*
X449849Y94320D01*
X449870Y94337D01*
X449977Y94475D01*
X450087Y94611D01*
X450100Y94634D01*
X450116Y94655D01*
X450194Y94812D01*
X450276Y94966D01*
X450284Y94992D01*
X450296Y95016D01*
X450341Y95185D01*
X450391Y95352D01*
X450393Y95379D01*
X450400Y95405D01*
X450427Y95735D01*
X450427Y109957D01*
X450425Y109979D01*
X450427Y110002D01*
X450405Y110179D01*
X450387Y110357D01*
X450381Y110379D01*
X450378Y110401D01*
X450322Y110571D01*
X450269Y110742D01*
X450258Y110762D01*
X450251Y110783D01*
X450163Y110939D01*
X450077Y111096D01*
X450063Y111114D01*
X450052Y111133D01*
X449934Y111268D01*
X449820Y111406D01*
X449802Y111420D01*
X449787Y111437D01*
X449645Y111546D01*
X449570Y111606D01*
X446713Y114463D01*
X445225Y118056D01*
X445225Y121944D01*
X446713Y125537D01*
X449463Y128287D01*
X453056Y129775D01*
X456944Y129775D01*
X460537Y128287D01*
X463287Y125537D01*
X464775Y121944D01*
X464775Y118056D01*
X463287Y114463D01*
X460450Y111626D01*
X460435Y111618D01*
X460300Y111501D01*
X460162Y111387D01*
X460147Y111370D01*
X460130Y111355D01*
X460021Y111213D01*
X459908Y111074D01*
X459897Y111055D01*
X459884Y111037D01*
X459804Y110877D01*
X459721Y110718D01*
X459714Y110696D01*
X459704Y110676D01*
X459658Y110503D01*
X459608Y110332D01*
X459606Y110309D01*
X459600Y110287D01*
X459573Y109957D01*
X459573Y95604D01*
X459575Y95586D01*
X459573Y95568D01*
X459594Y95386D01*
X459613Y95203D01*
X459618Y95186D01*
X459620Y95169D01*
X459677Y94994D01*
X459731Y94818D01*
X459739Y94803D01*
X459745Y94786D01*
X459835Y94626D01*
X459923Y94464D01*
X459934Y94451D01*
X459943Y94435D01*
X460063Y94296D01*
X460180Y94155D01*
X460194Y94144D01*
X460206Y94130D01*
X460351Y94018D01*
X460494Y93903D01*
X460510Y93895D01*
X460524Y93884D01*
X460689Y93802D01*
X460851Y93717D01*
X460868Y93712D01*
X460884Y93704D01*
X461063Y93657D01*
X461238Y93606D01*
X461256Y93604D01*
X461273Y93600D01*
X461604Y93573D01*
X598396Y93573D01*
X598414Y93575D01*
X598432Y93573D01*
X598614Y93594D01*
X598797Y93613D01*
X598814Y93618D01*
X598831Y93620D01*
X599006Y93677D01*
X599182Y93731D01*
X599197Y93739D01*
X599214Y93745D01*
X599374Y93835D01*
X599536Y93923D01*
X599549Y93934D01*
X599565Y93943D01*
X599704Y94063D01*
X599845Y94180D01*
X599856Y94194D01*
X599870Y94206D01*
X599982Y94351D01*
X600097Y94494D01*
X600105Y94510D01*
X600116Y94524D01*
X600198Y94689D01*
X600283Y94851D01*
X600288Y94868D01*
X600296Y94884D01*
X600343Y95063D01*
X600394Y95238D01*
X600396Y95256D01*
X600400Y95273D01*
X600427Y95604D01*
X600427Y109957D01*
X600425Y109979D01*
X600427Y110002D01*
X600405Y110179D01*
X600387Y110357D01*
X600381Y110379D01*
X600378Y110401D01*
X600322Y110571D01*
X600269Y110742D01*
X600258Y110762D01*
X600251Y110783D01*
X600163Y110939D01*
X600077Y111096D01*
X600063Y111114D01*
X600052Y111133D01*
X599934Y111268D01*
X599820Y111406D01*
X599802Y111420D01*
X599787Y111437D01*
X599645Y111546D01*
X599570Y111606D01*
X596713Y114463D01*
X595225Y118056D01*
X595225Y121944D01*
X596713Y125537D01*
X599463Y128287D01*
X603056Y129775D01*
X606944Y129775D01*
X610537Y128287D01*
X613287Y125537D01*
X614775Y121944D01*
X614775Y118056D01*
X613287Y114463D01*
X610450Y111626D01*
X610435Y111618D01*
X610300Y111501D01*
X610162Y111387D01*
X610147Y111370D01*
X610130Y111355D01*
X610021Y111213D01*
X609908Y111074D01*
X609897Y111055D01*
X609884Y111037D01*
X609804Y110877D01*
X609721Y110718D01*
X609714Y110696D01*
X609704Y110676D01*
X609658Y110503D01*
X609608Y110332D01*
X609606Y110309D01*
X609600Y110287D01*
X609573Y109957D01*
X609573Y91090D01*
X608877Y89410D01*
X606162Y86695D01*
X604590Y85123D01*
X602910Y84427D01*
X162090Y84427D01*
G37*
%LPD*%
%LPC*%
G36*
X506896Y200451D02*
X506896Y200451D01*
X504857Y201296D01*
X503296Y202857D01*
X502451Y204896D01*
X502451Y207104D01*
X503296Y209143D01*
X504927Y210774D01*
X504943Y210783D01*
X504953Y210791D01*
X504965Y210798D01*
X505109Y210920D01*
X505253Y211039D01*
X505262Y211050D01*
X505272Y211058D01*
X505388Y211206D01*
X505507Y211352D01*
X505513Y211364D01*
X505522Y211374D01*
X505606Y211541D01*
X505694Y211708D01*
X505698Y211721D01*
X505704Y211733D01*
X505754Y211913D01*
X505807Y212095D01*
X505808Y212108D01*
X505812Y212121D01*
X505826Y212309D01*
X505842Y212496D01*
X505840Y212509D01*
X505841Y212523D01*
X505818Y212710D01*
X505797Y212896D01*
X505793Y212909D01*
X505791Y212922D01*
X505731Y213102D01*
X505674Y213279D01*
X505667Y213291D01*
X505663Y213304D01*
X505569Y213468D01*
X505477Y213631D01*
X505469Y213641D01*
X505462Y213653D01*
X505303Y213840D01*
X504451Y215896D01*
X504451Y218420D01*
X504449Y218438D01*
X504451Y218456D01*
X504430Y218638D01*
X504411Y218821D01*
X504406Y218838D01*
X504404Y218855D01*
X504347Y219030D01*
X504293Y219206D01*
X504285Y219221D01*
X504279Y219238D01*
X504189Y219398D01*
X504101Y219560D01*
X504090Y219573D01*
X504081Y219589D01*
X503961Y219728D01*
X503844Y219869D01*
X503830Y219880D01*
X503818Y219894D01*
X503673Y220006D01*
X503530Y220121D01*
X503514Y220129D01*
X503500Y220140D01*
X503335Y220222D01*
X503173Y220307D01*
X503156Y220312D01*
X503140Y220320D01*
X502961Y220367D01*
X502786Y220418D01*
X502768Y220420D01*
X502751Y220424D01*
X502420Y220451D01*
X500896Y220451D01*
X498857Y221296D01*
X497296Y222857D01*
X496377Y225076D01*
X496372Y225084D01*
X496370Y225093D01*
X496277Y225262D01*
X496186Y225431D01*
X496181Y225438D01*
X496176Y225446D01*
X496053Y225593D01*
X495930Y225742D01*
X495923Y225747D01*
X495917Y225754D01*
X495767Y225874D01*
X495617Y225995D01*
X495609Y226000D01*
X495605Y226003D01*
X495661Y226034D01*
X495668Y226040D01*
X495676Y226045D01*
X495822Y226172D01*
X495967Y226296D01*
X495973Y226303D01*
X495980Y226309D01*
X496097Y226462D01*
X496216Y226613D01*
X496220Y226621D01*
X496225Y226628D01*
X496377Y226924D01*
X497289Y229125D01*
X497298Y229155D01*
X497312Y229183D01*
X497356Y229348D01*
X497405Y229511D01*
X497408Y229542D01*
X497416Y229572D01*
X497443Y229903D01*
X497443Y296868D01*
X497441Y296895D01*
X497443Y296922D01*
X497421Y297095D01*
X497403Y297269D01*
X497396Y297294D01*
X497392Y297321D01*
X497337Y297487D01*
X497285Y297654D01*
X497272Y297677D01*
X497264Y297703D01*
X497177Y297854D01*
X497093Y298008D01*
X497076Y298028D01*
X497063Y298052D01*
X496848Y298305D01*
X496296Y298857D01*
X495451Y300896D01*
X495451Y303104D01*
X496296Y305143D01*
X497857Y306704D01*
X499896Y307549D01*
X502104Y307549D01*
X504143Y306704D01*
X505704Y305143D01*
X506549Y303104D01*
X506549Y300896D01*
X505704Y298857D01*
X505152Y298305D01*
X505135Y298284D01*
X505114Y298266D01*
X505007Y298128D01*
X504897Y297993D01*
X504884Y297969D01*
X504868Y297948D01*
X504790Y297791D01*
X504708Y297637D01*
X504700Y297612D01*
X504688Y297588D01*
X504643Y297418D01*
X504593Y297251D01*
X504591Y297225D01*
X504584Y297199D01*
X504557Y296868D01*
X504557Y232132D01*
X504559Y232105D01*
X504557Y232078D01*
X504579Y231905D01*
X504597Y231731D01*
X504604Y231706D01*
X504608Y231679D01*
X504663Y231513D01*
X504715Y231346D01*
X504728Y231323D01*
X504736Y231297D01*
X504823Y231146D01*
X504907Y230992D01*
X504924Y230972D01*
X504937Y230948D01*
X505152Y230695D01*
X506704Y229143D01*
X507549Y227104D01*
X507549Y224580D01*
X507551Y224562D01*
X507549Y224544D01*
X507570Y224362D01*
X507589Y224179D01*
X507594Y224162D01*
X507596Y224145D01*
X507653Y223970D01*
X507707Y223794D01*
X507715Y223779D01*
X507721Y223762D01*
X507811Y223602D01*
X507899Y223440D01*
X507910Y223427D01*
X507919Y223411D01*
X508039Y223272D01*
X508156Y223131D01*
X508170Y223120D01*
X508182Y223106D01*
X508327Y222994D01*
X508470Y222879D01*
X508486Y222871D01*
X508500Y222860D01*
X508665Y222778D01*
X508827Y222693D01*
X508844Y222688D01*
X508860Y222680D01*
X509039Y222633D01*
X509214Y222582D01*
X509232Y222580D01*
X509249Y222576D01*
X509580Y222549D01*
X511104Y222549D01*
X513143Y221704D01*
X513695Y221152D01*
X513716Y221135D01*
X513734Y221114D01*
X513872Y221007D01*
X514007Y220897D01*
X514031Y220884D01*
X514052Y220868D01*
X514209Y220790D01*
X514363Y220708D01*
X514388Y220700D01*
X514412Y220688D01*
X514582Y220643D01*
X514749Y220593D01*
X514775Y220591D01*
X514801Y220584D01*
X515132Y220557D01*
X527685Y220557D01*
X527712Y220559D01*
X527739Y220557D01*
X527913Y220579D01*
X528086Y220597D01*
X528111Y220604D01*
X528138Y220608D01*
X528304Y220663D01*
X528471Y220715D01*
X528494Y220728D01*
X528520Y220736D01*
X528671Y220823D01*
X528825Y220907D01*
X528845Y220924D01*
X528869Y220937D01*
X529122Y221152D01*
X533848Y225878D01*
X533865Y225899D01*
X533886Y225917D01*
X533993Y226054D01*
X534103Y226190D01*
X534116Y226213D01*
X534132Y226235D01*
X534210Y226392D01*
X534292Y226546D01*
X534300Y226571D01*
X534312Y226595D01*
X534357Y226765D01*
X534407Y226931D01*
X534409Y226958D01*
X534416Y226984D01*
X534443Y227315D01*
X534443Y263473D01*
X534534Y263564D01*
X534545Y263577D01*
X534559Y263589D01*
X534672Y263733D01*
X534789Y263875D01*
X534797Y263891D01*
X534808Y263905D01*
X534891Y264068D01*
X534977Y264231D01*
X534982Y264248D01*
X534991Y264264D01*
X535040Y264440D01*
X535092Y264617D01*
X535094Y264635D01*
X535099Y264652D01*
X535112Y264835D01*
X535129Y265018D01*
X535127Y265035D01*
X535128Y265053D01*
X535105Y265235D01*
X535085Y265418D01*
X535080Y265435D01*
X535078Y265453D01*
X535019Y265626D01*
X534964Y265802D01*
X534955Y265817D01*
X534949Y265834D01*
X534857Y265994D01*
X534769Y266154D01*
X534757Y266168D01*
X534748Y266183D01*
X534534Y266436D01*
X533443Y267527D01*
X533443Y297868D01*
X533441Y297895D01*
X533443Y297922D01*
X533421Y298095D01*
X533403Y298269D01*
X533396Y298294D01*
X533392Y298321D01*
X533337Y298487D01*
X533285Y298654D01*
X533272Y298677D01*
X533264Y298703D01*
X533177Y298854D01*
X533093Y299008D01*
X533076Y299028D01*
X533063Y299052D01*
X532848Y299305D01*
X532296Y299857D01*
X531451Y301896D01*
X531451Y304104D01*
X532296Y306143D01*
X533857Y307704D01*
X535896Y308549D01*
X538104Y308549D01*
X540143Y307704D01*
X541704Y306143D01*
X542549Y304104D01*
X542549Y301896D01*
X541704Y299857D01*
X541152Y299305D01*
X541135Y299284D01*
X541114Y299266D01*
X541007Y299128D01*
X540897Y298993D01*
X540884Y298969D01*
X540868Y298948D01*
X540790Y298791D01*
X540708Y298637D01*
X540700Y298612D01*
X540688Y298588D01*
X540643Y298418D01*
X540593Y298251D01*
X540591Y298225D01*
X540584Y298199D01*
X540557Y297868D01*
X540557Y272547D01*
X540559Y272524D01*
X540557Y272502D01*
X540579Y272325D01*
X540597Y272146D01*
X540603Y272125D01*
X540606Y272103D01*
X540662Y271933D01*
X540715Y271761D01*
X540725Y271742D01*
X540732Y271720D01*
X540821Y271565D01*
X540907Y271407D01*
X540921Y271390D01*
X540932Y271371D01*
X541049Y271236D01*
X541164Y271098D01*
X541182Y271084D01*
X541196Y271067D01*
X541338Y270958D01*
X541478Y270846D01*
X541498Y270835D01*
X541516Y270822D01*
X541811Y270670D01*
X544143Y269704D01*
X545704Y268143D01*
X546549Y266104D01*
X546549Y263896D01*
X545704Y261857D01*
X544143Y260296D01*
X542811Y259744D01*
X542791Y259734D01*
X542770Y259727D01*
X542614Y259639D01*
X542456Y259554D01*
X542439Y259540D01*
X542419Y259529D01*
X542284Y259412D01*
X542145Y259297D01*
X542131Y259280D01*
X542114Y259266D01*
X542005Y259124D01*
X541892Y258985D01*
X541881Y258965D01*
X541868Y258947D01*
X541788Y258787D01*
X541705Y258628D01*
X541698Y258607D01*
X541688Y258587D01*
X541642Y258413D01*
X541592Y258242D01*
X541590Y258220D01*
X541584Y258198D01*
X541557Y257867D01*
X541557Y243491D01*
X541558Y243482D01*
X541557Y243473D01*
X541578Y243278D01*
X541597Y243090D01*
X541599Y243082D01*
X541600Y243073D01*
X541659Y242887D01*
X541715Y242705D01*
X541719Y242697D01*
X541722Y242689D01*
X541815Y242520D01*
X541907Y242351D01*
X541912Y242344D01*
X541917Y242336D01*
X542042Y242188D01*
X542164Y242042D01*
X542171Y242036D01*
X542177Y242029D01*
X542329Y241910D01*
X542478Y241789D01*
X542486Y241785D01*
X542493Y241780D01*
X542666Y241692D01*
X542835Y241604D01*
X542844Y241601D01*
X542852Y241597D01*
X543038Y241545D01*
X543222Y241493D01*
X543231Y241492D01*
X543240Y241489D01*
X543433Y241475D01*
X543624Y241460D01*
X543632Y241461D01*
X543641Y241460D01*
X543834Y241484D01*
X544023Y241507D01*
X544032Y241509D01*
X544041Y241510D01*
X544223Y241572D01*
X544406Y241631D01*
X544414Y241636D01*
X544422Y241639D01*
X544589Y241735D01*
X544757Y241829D01*
X544764Y241835D01*
X544771Y241840D01*
X545024Y242054D01*
X568856Y265886D01*
X568873Y265907D01*
X568894Y265925D01*
X569001Y266062D01*
X569111Y266198D01*
X569124Y266221D01*
X569140Y266243D01*
X569218Y266400D01*
X569300Y266554D01*
X569308Y266579D01*
X569320Y266603D01*
X569365Y266773D01*
X569415Y266939D01*
X569417Y266966D01*
X569424Y266992D01*
X569451Y267323D01*
X569451Y268104D01*
X570296Y270143D01*
X570848Y270695D01*
X570865Y270716D01*
X570886Y270734D01*
X570993Y270872D01*
X571103Y271007D01*
X571116Y271031D01*
X571132Y271052D01*
X571210Y271209D01*
X571292Y271363D01*
X571300Y271388D01*
X571312Y271412D01*
X571357Y271582D01*
X571407Y271749D01*
X571409Y271775D01*
X571416Y271801D01*
X571443Y272132D01*
X571443Y296453D01*
X571441Y296476D01*
X571443Y296498D01*
X571421Y296675D01*
X571403Y296854D01*
X571397Y296875D01*
X571394Y296897D01*
X571338Y297067D01*
X571285Y297239D01*
X571275Y297258D01*
X571268Y297280D01*
X571179Y297435D01*
X571093Y297593D01*
X571079Y297610D01*
X571068Y297629D01*
X570951Y297764D01*
X570836Y297902D01*
X570818Y297916D01*
X570804Y297933D01*
X570662Y298042D01*
X570522Y298154D01*
X570502Y298165D01*
X570484Y298178D01*
X570189Y298330D01*
X567857Y299296D01*
X566296Y300857D01*
X565451Y302896D01*
X565451Y305104D01*
X566296Y307143D01*
X567857Y308704D01*
X569896Y309549D01*
X572104Y309549D01*
X574143Y308704D01*
X575704Y307143D01*
X576549Y305104D01*
X576549Y304323D01*
X576551Y304296D01*
X576549Y304269D01*
X576571Y304095D01*
X576589Y303922D01*
X576596Y303897D01*
X576600Y303870D01*
X576655Y303704D01*
X576707Y303537D01*
X576720Y303514D01*
X576728Y303488D01*
X576815Y303337D01*
X576899Y303183D01*
X576916Y303163D01*
X576929Y303139D01*
X577144Y302886D01*
X578557Y301473D01*
X578557Y272132D01*
X578559Y272105D01*
X578557Y272078D01*
X578579Y271905D01*
X578597Y271731D01*
X578604Y271706D01*
X578608Y271679D01*
X578663Y271513D01*
X578715Y271346D01*
X578728Y271323D01*
X578736Y271297D01*
X578823Y271146D01*
X578907Y270992D01*
X578924Y270972D01*
X578937Y270948D01*
X579152Y270695D01*
X579704Y270143D01*
X580549Y268104D01*
X580549Y266483D01*
X580550Y266474D01*
X580549Y266465D01*
X580570Y266271D01*
X580589Y266082D01*
X580591Y266074D01*
X580592Y266065D01*
X580651Y265880D01*
X580707Y265697D01*
X580711Y265689D01*
X580714Y265681D01*
X580807Y265512D01*
X580899Y265343D01*
X580904Y265336D01*
X580909Y265328D01*
X581033Y265181D01*
X581156Y265034D01*
X581163Y265028D01*
X581169Y265021D01*
X581321Y264902D01*
X581470Y264781D01*
X581478Y264777D01*
X581485Y264772D01*
X581658Y264684D01*
X581827Y264596D01*
X581836Y264593D01*
X581844Y264589D01*
X582030Y264537D01*
X582214Y264485D01*
X582223Y264484D01*
X582232Y264481D01*
X582425Y264467D01*
X582616Y264452D01*
X582624Y264453D01*
X582633Y264452D01*
X582826Y264476D01*
X583015Y264499D01*
X583024Y264501D01*
X583033Y264502D01*
X583215Y264564D01*
X583398Y264623D01*
X583406Y264628D01*
X583414Y264631D01*
X583581Y264727D01*
X583749Y264821D01*
X583756Y264827D01*
X583763Y264832D01*
X584016Y265046D01*
X585856Y266886D01*
X585873Y266907D01*
X585894Y266924D01*
X586001Y267062D01*
X586111Y267198D01*
X586124Y267221D01*
X586140Y267243D01*
X586218Y267400D01*
X586300Y267554D01*
X586308Y267579D01*
X586320Y267603D01*
X586365Y267772D01*
X586415Y267939D01*
X586417Y267966D01*
X586424Y267992D01*
X586451Y268323D01*
X586451Y269104D01*
X587296Y271143D01*
X588857Y272704D01*
X589221Y272855D01*
X589222Y272855D01*
X590896Y273549D01*
X593104Y273549D01*
X595143Y272704D01*
X596704Y271143D01*
X597549Y269104D01*
X597549Y266896D01*
X596704Y264857D01*
X595143Y263296D01*
X593104Y262451D01*
X592323Y262451D01*
X592296Y262449D01*
X592269Y262451D01*
X592095Y262429D01*
X591922Y262411D01*
X591896Y262404D01*
X591870Y262400D01*
X591704Y262345D01*
X591537Y262293D01*
X591513Y262280D01*
X591488Y262272D01*
X591337Y262185D01*
X591183Y262101D01*
X591163Y262084D01*
X591139Y262071D01*
X590886Y261856D01*
X567152Y238122D01*
X567135Y238101D01*
X567114Y238083D01*
X567007Y237946D01*
X566897Y237810D01*
X566884Y237787D01*
X566868Y237765D01*
X566790Y237608D01*
X566708Y237454D01*
X566700Y237429D01*
X566688Y237405D01*
X566643Y237235D01*
X566593Y237069D01*
X566591Y237042D01*
X566584Y237016D01*
X566557Y236685D01*
X566557Y219527D01*
X549473Y202443D01*
X513132Y202443D01*
X513105Y202441D01*
X513078Y202443D01*
X512905Y202421D01*
X512731Y202403D01*
X512706Y202396D01*
X512679Y202392D01*
X512513Y202337D01*
X512346Y202285D01*
X512323Y202272D01*
X512297Y202264D01*
X512146Y202177D01*
X511992Y202093D01*
X511972Y202076D01*
X511948Y202063D01*
X511695Y201848D01*
X511143Y201296D01*
X509104Y200451D01*
X506896Y200451D01*
G37*
%LPD*%
%LPC*%
G36*
X485896Y220451D02*
X485896Y220451D01*
X483857Y221296D01*
X482296Y222857D01*
X481451Y224896D01*
X481451Y227104D01*
X482296Y229143D01*
X482848Y229695D01*
X482865Y229716D01*
X482886Y229734D01*
X482993Y229872D01*
X483103Y230007D01*
X483116Y230031D01*
X483132Y230052D01*
X483210Y230209D01*
X483292Y230363D01*
X483300Y230388D01*
X483312Y230412D01*
X483357Y230582D01*
X483407Y230749D01*
X483409Y230775D01*
X483416Y230801D01*
X483443Y231132D01*
X483443Y243412D01*
X483441Y243430D01*
X483443Y243448D01*
X483422Y243630D01*
X483403Y243813D01*
X483398Y243830D01*
X483396Y243847D01*
X483339Y244022D01*
X483285Y244198D01*
X483277Y244213D01*
X483271Y244230D01*
X483181Y244390D01*
X483093Y244552D01*
X483082Y244565D01*
X483073Y244581D01*
X482953Y244720D01*
X482836Y244861D01*
X482822Y244872D01*
X482810Y244886D01*
X482665Y244998D01*
X482522Y245113D01*
X482506Y245121D01*
X482492Y245132D01*
X482327Y245214D01*
X482165Y245299D01*
X482148Y245304D01*
X482132Y245312D01*
X481953Y245359D01*
X481778Y245410D01*
X481760Y245412D01*
X481743Y245416D01*
X481412Y245443D01*
X445132Y245443D01*
X445105Y245441D01*
X445078Y245443D01*
X444905Y245421D01*
X444731Y245403D01*
X444706Y245396D01*
X444679Y245392D01*
X444513Y245337D01*
X444346Y245285D01*
X444323Y245272D01*
X444297Y245264D01*
X444146Y245177D01*
X443992Y245093D01*
X443972Y245076D01*
X443948Y245063D01*
X443695Y244848D01*
X443143Y244296D01*
X442674Y244101D01*
X442673Y244101D01*
X441104Y243451D01*
X438896Y243451D01*
X436857Y244296D01*
X435296Y245857D01*
X434451Y247896D01*
X434451Y250104D01*
X435296Y252143D01*
X436857Y253704D01*
X438896Y254549D01*
X441104Y254549D01*
X443143Y253704D01*
X443695Y253152D01*
X443716Y253135D01*
X443734Y253114D01*
X443872Y253007D01*
X444007Y252897D01*
X444031Y252884D01*
X444052Y252868D01*
X444209Y252790D01*
X444363Y252708D01*
X444388Y252700D01*
X444412Y252688D01*
X444582Y252643D01*
X444749Y252593D01*
X444775Y252591D01*
X444801Y252584D01*
X445132Y252557D01*
X481412Y252557D01*
X481430Y252559D01*
X481448Y252557D01*
X481630Y252578D01*
X481813Y252597D01*
X481830Y252602D01*
X481847Y252604D01*
X482022Y252661D01*
X482198Y252715D01*
X482213Y252723D01*
X482230Y252729D01*
X482390Y252819D01*
X482552Y252907D01*
X482565Y252918D01*
X482581Y252927D01*
X482720Y253047D01*
X482861Y253164D01*
X482872Y253178D01*
X482886Y253190D01*
X482998Y253335D01*
X483113Y253478D01*
X483121Y253494D01*
X483132Y253508D01*
X483214Y253673D01*
X483299Y253835D01*
X483304Y253852D01*
X483312Y253868D01*
X483359Y254047D01*
X483410Y254222D01*
X483412Y254240D01*
X483416Y254257D01*
X483443Y254588D01*
X483443Y264692D01*
X483442Y264701D01*
X483443Y264710D01*
X483423Y264900D01*
X483403Y265093D01*
X483401Y265101D01*
X483400Y265110D01*
X483342Y265292D01*
X483285Y265478D01*
X483281Y265486D01*
X483278Y265494D01*
X483185Y265663D01*
X483093Y265832D01*
X483088Y265839D01*
X483083Y265847D01*
X482958Y265994D01*
X482836Y266141D01*
X482829Y266147D01*
X482823Y266154D01*
X482671Y266273D01*
X482522Y266393D01*
X482514Y266398D01*
X482507Y266403D01*
X482335Y266491D01*
X482165Y266579D01*
X482156Y266581D01*
X482148Y266585D01*
X481962Y266637D01*
X481778Y266690D01*
X481769Y266691D01*
X481760Y266693D01*
X481568Y266708D01*
X481376Y266723D01*
X481368Y266722D01*
X481359Y266723D01*
X481166Y266699D01*
X480977Y266676D01*
X480968Y266674D01*
X480959Y266672D01*
X480776Y266611D01*
X480594Y266551D01*
X480586Y266547D01*
X480578Y266544D01*
X480412Y266449D01*
X480243Y266354D01*
X480236Y266348D01*
X480229Y266343D01*
X479976Y266129D01*
X478143Y264296D01*
X476104Y263451D01*
X473896Y263451D01*
X471857Y264296D01*
X471305Y264848D01*
X471284Y264865D01*
X471266Y264886D01*
X471128Y264993D01*
X470993Y265103D01*
X470969Y265116D01*
X470948Y265132D01*
X470791Y265210D01*
X470637Y265292D01*
X470612Y265300D01*
X470588Y265312D01*
X470418Y265357D01*
X470251Y265407D01*
X470225Y265409D01*
X470199Y265416D01*
X469868Y265443D01*
X437511Y265443D01*
X437438Y265501D01*
X437302Y265611D01*
X437279Y265624D01*
X437257Y265640D01*
X437100Y265718D01*
X436946Y265800D01*
X436921Y265808D01*
X436897Y265820D01*
X436727Y265865D01*
X436561Y265915D01*
X436534Y265917D01*
X436508Y265924D01*
X436177Y265951D01*
X435396Y265951D01*
X433357Y266796D01*
X431796Y268357D01*
X430951Y270396D01*
X430951Y271177D01*
X430949Y271204D01*
X430951Y271231D01*
X430929Y271405D01*
X430911Y271578D01*
X430904Y271603D01*
X430900Y271630D01*
X430845Y271796D01*
X430793Y271963D01*
X430780Y271986D01*
X430772Y272012D01*
X430685Y272163D01*
X430601Y272317D01*
X430584Y272337D01*
X430571Y272361D01*
X430356Y272614D01*
X428443Y274527D01*
X428443Y296868D01*
X428441Y296895D01*
X428443Y296922D01*
X428421Y297095D01*
X428403Y297269D01*
X428396Y297294D01*
X428392Y297321D01*
X428337Y297487D01*
X428285Y297654D01*
X428272Y297677D01*
X428264Y297703D01*
X428177Y297854D01*
X428093Y298008D01*
X428076Y298028D01*
X428063Y298052D01*
X427848Y298305D01*
X427296Y298857D01*
X426451Y300896D01*
X426451Y303104D01*
X427296Y305143D01*
X428857Y306704D01*
X430896Y307549D01*
X433104Y307549D01*
X435143Y306704D01*
X436704Y305143D01*
X437549Y303104D01*
X437549Y300896D01*
X436704Y298857D01*
X436152Y298305D01*
X436135Y298284D01*
X436114Y298266D01*
X436007Y298128D01*
X435897Y297993D01*
X435884Y297969D01*
X435868Y297948D01*
X435790Y297791D01*
X435708Y297637D01*
X435700Y297612D01*
X435688Y297588D01*
X435643Y297418D01*
X435593Y297251D01*
X435591Y297225D01*
X435584Y297199D01*
X435557Y296868D01*
X435557Y279080D01*
X435559Y279062D01*
X435557Y279044D01*
X435578Y278862D01*
X435597Y278679D01*
X435602Y278662D01*
X435604Y278645D01*
X435661Y278470D01*
X435715Y278294D01*
X435723Y278279D01*
X435729Y278262D01*
X435819Y278102D01*
X435907Y277940D01*
X435918Y277927D01*
X435927Y277911D01*
X436047Y277772D01*
X436164Y277631D01*
X436178Y277620D01*
X436190Y277606D01*
X436335Y277494D01*
X436478Y277379D01*
X436494Y277371D01*
X436508Y277360D01*
X436673Y277278D01*
X436835Y277193D01*
X436852Y277188D01*
X436868Y277180D01*
X437047Y277133D01*
X437222Y277082D01*
X437240Y277080D01*
X437257Y277076D01*
X437588Y277049D01*
X437604Y277049D01*
X439643Y276204D01*
X441204Y274643D01*
X441549Y273811D01*
X441559Y273791D01*
X441566Y273770D01*
X441654Y273614D01*
X441739Y273456D01*
X441753Y273439D01*
X441764Y273419D01*
X441881Y273283D01*
X441995Y273145D01*
X442013Y273131D01*
X442027Y273114D01*
X442168Y273005D01*
X442308Y272892D01*
X442328Y272881D01*
X442345Y272868D01*
X442506Y272788D01*
X442665Y272705D01*
X442686Y272698D01*
X442706Y272688D01*
X442879Y272642D01*
X443051Y272592D01*
X443073Y272590D01*
X443095Y272584D01*
X443425Y272557D01*
X469868Y272557D01*
X469895Y272559D01*
X469922Y272557D01*
X470095Y272579D01*
X470269Y272597D01*
X470294Y272604D01*
X470321Y272608D01*
X470487Y272663D01*
X470654Y272715D01*
X470677Y272728D01*
X470703Y272736D01*
X470854Y272823D01*
X471008Y272907D01*
X471028Y272924D01*
X471052Y272937D01*
X471305Y273152D01*
X471857Y273704D01*
X473896Y274549D01*
X476104Y274549D01*
X478143Y273704D01*
X479976Y271871D01*
X479983Y271866D01*
X479988Y271859D01*
X480138Y271739D01*
X480287Y271616D01*
X480295Y271612D01*
X480302Y271607D01*
X480472Y271518D01*
X480643Y271428D01*
X480652Y271425D01*
X480659Y271421D01*
X480844Y271368D01*
X481029Y271313D01*
X481038Y271312D01*
X481046Y271310D01*
X481237Y271294D01*
X481430Y271277D01*
X481439Y271277D01*
X481448Y271277D01*
X481637Y271299D01*
X481830Y271320D01*
X481839Y271323D01*
X481847Y271324D01*
X482029Y271383D01*
X482214Y271441D01*
X482222Y271446D01*
X482230Y271449D01*
X482397Y271543D01*
X482566Y271636D01*
X482573Y271642D01*
X482581Y271646D01*
X482726Y271772D01*
X482873Y271897D01*
X482879Y271904D01*
X482886Y271910D01*
X483003Y272061D01*
X483123Y272213D01*
X483127Y272221D01*
X483132Y272228D01*
X483218Y272400D01*
X483305Y272572D01*
X483308Y272580D01*
X483312Y272588D01*
X483362Y272774D01*
X483413Y272959D01*
X483414Y272968D01*
X483416Y272977D01*
X483443Y273308D01*
X483443Y279685D01*
X483441Y279712D01*
X483443Y279739D01*
X483421Y279913D01*
X483403Y280086D01*
X483396Y280111D01*
X483392Y280138D01*
X483337Y280304D01*
X483285Y280471D01*
X483272Y280494D01*
X483264Y280520D01*
X483177Y280671D01*
X483093Y280825D01*
X483076Y280845D01*
X483063Y280869D01*
X482848Y281122D01*
X468114Y295856D01*
X468093Y295873D01*
X468075Y295894D01*
X467938Y296000D01*
X467802Y296111D01*
X467779Y296124D01*
X467757Y296140D01*
X467600Y296218D01*
X467446Y296300D01*
X467421Y296308D01*
X467397Y296320D01*
X467227Y296365D01*
X467061Y296415D01*
X467034Y296417D01*
X467008Y296424D01*
X466677Y296451D01*
X465896Y296451D01*
X463857Y297296D01*
X462296Y298857D01*
X461451Y300896D01*
X461451Y303104D01*
X462296Y305143D01*
X463857Y306704D01*
X465896Y307549D01*
X468104Y307549D01*
X470143Y306704D01*
X471704Y305143D01*
X472549Y303104D01*
X472549Y302323D01*
X472551Y302296D01*
X472549Y302269D01*
X472571Y302095D01*
X472589Y301922D01*
X472596Y301897D01*
X472600Y301870D01*
X472655Y301704D01*
X472707Y301537D01*
X472720Y301514D01*
X472728Y301488D01*
X472815Y301337D01*
X472899Y301183D01*
X472916Y301163D01*
X472929Y301139D01*
X473144Y300886D01*
X490557Y283473D01*
X490557Y231132D01*
X490559Y231105D01*
X490557Y231078D01*
X490579Y230905D01*
X490597Y230731D01*
X490604Y230706D01*
X490608Y230679D01*
X490663Y230513D01*
X490715Y230346D01*
X490728Y230323D01*
X490736Y230297D01*
X490823Y230146D01*
X490907Y229992D01*
X490924Y229972D01*
X490937Y229948D01*
X491152Y229695D01*
X491704Y229143D01*
X492623Y226924D01*
X492628Y226916D01*
X492630Y226907D01*
X492722Y226739D01*
X492814Y226569D01*
X492819Y226562D01*
X492824Y226554D01*
X492948Y226406D01*
X493070Y226258D01*
X493077Y226253D01*
X493083Y226246D01*
X493232Y226127D01*
X493383Y226005D01*
X493391Y226000D01*
X493395Y225997D01*
X493338Y225966D01*
X493332Y225960D01*
X493324Y225955D01*
X493180Y225830D01*
X493033Y225704D01*
X493027Y225697D01*
X493020Y225691D01*
X492904Y225539D01*
X492784Y225387D01*
X492780Y225379D01*
X492775Y225372D01*
X492623Y225076D01*
X491704Y222857D01*
X490143Y221296D01*
X488104Y220451D01*
X485896Y220451D01*
G37*
%LPD*%
%LPC*%
G36*
X131498Y32395D02*
X131498Y32395D01*
X125028Y35075D01*
X120075Y40028D01*
X117395Y46498D01*
X117395Y53502D01*
X120075Y59972D01*
X125028Y64925D01*
X131498Y67605D01*
X138502Y67605D01*
X144972Y64925D01*
X149925Y59972D01*
X152605Y53502D01*
X152605Y46498D01*
X149925Y40028D01*
X144972Y35075D01*
X138502Y32395D01*
X131498Y32395D01*
G37*
%LPD*%
%LPC*%
G36*
X581498Y32395D02*
X581498Y32395D01*
X575028Y35075D01*
X570075Y40028D01*
X567395Y46498D01*
X567395Y53502D01*
X570075Y59972D01*
X575028Y64925D01*
X581498Y67605D01*
X588502Y67605D01*
X594972Y64925D01*
X599925Y59972D01*
X602605Y53502D01*
X602605Y46498D01*
X599925Y40028D01*
X594972Y35075D01*
X588502Y32395D01*
X581498Y32395D01*
G37*
%LPD*%
%LPC*%
G36*
X521498Y32395D02*
X521498Y32395D01*
X515028Y35075D01*
X510075Y40028D01*
X507395Y46498D01*
X507395Y53502D01*
X510075Y59972D01*
X515028Y64925D01*
X521498Y67605D01*
X528502Y67605D01*
X534972Y64925D01*
X539925Y59972D01*
X542605Y53502D01*
X542605Y46498D01*
X539925Y40028D01*
X534972Y35075D01*
X528502Y32395D01*
X521498Y32395D01*
G37*
%LPD*%
%LPC*%
G36*
X431498Y32395D02*
X431498Y32395D01*
X425028Y35075D01*
X420075Y40028D01*
X417395Y46498D01*
X417395Y53502D01*
X420075Y59972D01*
X425028Y64925D01*
X431498Y67605D01*
X438502Y67605D01*
X444972Y64925D01*
X449925Y59972D01*
X452605Y53502D01*
X452605Y46498D01*
X449925Y40028D01*
X444972Y35075D01*
X438502Y32395D01*
X431498Y32395D01*
G37*
%LPD*%
%LPC*%
G36*
X221498Y32395D02*
X221498Y32395D01*
X215028Y35075D01*
X210075Y40028D01*
X207395Y46498D01*
X207395Y53502D01*
X210075Y59972D01*
X215028Y64925D01*
X221498Y67605D01*
X228502Y67605D01*
X234972Y64925D01*
X239925Y59972D01*
X242605Y53502D01*
X242605Y46498D01*
X239925Y40028D01*
X234972Y35075D01*
X228502Y32395D01*
X221498Y32395D01*
G37*
%LPD*%
%LPC*%
G36*
X671498Y32395D02*
X671498Y32395D01*
X665028Y35075D01*
X660075Y40028D01*
X657395Y46498D01*
X657395Y53502D01*
X660075Y59972D01*
X665028Y64925D01*
X671498Y67605D01*
X678502Y67605D01*
X684972Y64925D01*
X689925Y59972D01*
X692605Y53502D01*
X692605Y46498D01*
X689925Y40028D01*
X684972Y35075D01*
X678502Y32395D01*
X671498Y32395D01*
G37*
%LPD*%
%LPC*%
G36*
X281498Y32395D02*
X281498Y32395D01*
X275028Y35075D01*
X270075Y40028D01*
X267395Y46498D01*
X267395Y53502D01*
X270075Y59972D01*
X275028Y64925D01*
X281498Y67605D01*
X288502Y67605D01*
X294972Y64925D01*
X299925Y59972D01*
X302605Y53502D01*
X302605Y46498D01*
X299925Y40028D01*
X294972Y35075D01*
X288502Y32395D01*
X281498Y32395D01*
G37*
%LPD*%
%LPC*%
G36*
X371498Y32395D02*
X371498Y32395D01*
X365028Y35075D01*
X360075Y40028D01*
X357395Y46498D01*
X357395Y53502D01*
X360075Y59972D01*
X365028Y64925D01*
X371498Y67605D01*
X378502Y67605D01*
X384972Y64925D01*
X389925Y59972D01*
X392605Y53502D01*
X392605Y46498D01*
X389925Y40028D01*
X384972Y35075D01*
X378502Y32395D01*
X371498Y32395D01*
G37*
%LPD*%
%LPC*%
G36*
X262896Y107451D02*
X262896Y107451D01*
X260857Y108296D01*
X259296Y109857D01*
X258451Y111896D01*
X258451Y114104D01*
X258989Y115401D01*
X258998Y115431D01*
X259012Y115459D01*
X259056Y115624D01*
X259105Y115787D01*
X259108Y115818D01*
X259116Y115848D01*
X259143Y116178D01*
X259143Y202083D01*
X259141Y202109D01*
X259143Y202136D01*
X259121Y202310D01*
X259103Y202483D01*
X259096Y202509D01*
X259092Y202536D01*
X259036Y202701D01*
X258985Y202868D01*
X258972Y202892D01*
X258964Y202917D01*
X258877Y203069D01*
X258793Y203222D01*
X258776Y203243D01*
X258763Y203266D01*
X258548Y203519D01*
X253555Y208512D01*
X253555Y216088D01*
X258912Y221445D01*
X266488Y221445D01*
X271845Y216088D01*
X271845Y208512D01*
X266852Y203519D01*
X266835Y203498D01*
X266814Y203481D01*
X266707Y203343D01*
X266597Y203208D01*
X266584Y203184D01*
X266568Y203163D01*
X266490Y203006D01*
X266408Y202852D01*
X266400Y202826D01*
X266388Y202802D01*
X266343Y202633D01*
X266293Y202466D01*
X266291Y202439D01*
X266284Y202414D01*
X266257Y202083D01*
X266257Y119428D01*
X266259Y119405D01*
X266257Y119382D01*
X266279Y119205D01*
X266297Y119028D01*
X266303Y119005D01*
X266306Y118982D01*
X266362Y118814D01*
X266415Y118643D01*
X266426Y118622D01*
X266433Y118600D01*
X266522Y118445D01*
X266607Y118289D01*
X266621Y118271D01*
X266633Y118251D01*
X266738Y118130D01*
X266769Y118094D01*
X266864Y117980D01*
X266881Y117966D01*
X266884Y117963D01*
X266898Y117947D01*
X266906Y117941D01*
X268704Y116143D01*
X269549Y114104D01*
X269549Y111896D01*
X268704Y109857D01*
X267143Y108296D01*
X266447Y108008D01*
X265104Y107451D01*
X262896Y107451D01*
G37*
%LPD*%
%LPC*%
G36*
X234896Y125451D02*
X234896Y125451D01*
X232857Y126296D01*
X231296Y127857D01*
X230451Y129896D01*
X230451Y132104D01*
X231296Y134143D01*
X231848Y134695D01*
X231865Y134716D01*
X231886Y134734D01*
X231993Y134872D01*
X232103Y135007D01*
X232116Y135031D01*
X232132Y135052D01*
X232210Y135209D01*
X232292Y135363D01*
X232300Y135388D01*
X232312Y135412D01*
X232357Y135582D01*
X232407Y135749D01*
X232409Y135775D01*
X232416Y135801D01*
X232443Y136132D01*
X232443Y203383D01*
X232441Y203409D01*
X232443Y203436D01*
X232421Y203610D01*
X232403Y203783D01*
X232396Y203809D01*
X232392Y203836D01*
X232336Y204001D01*
X232285Y204168D01*
X232272Y204192D01*
X232264Y204217D01*
X232177Y204369D01*
X232093Y204522D01*
X232076Y204543D01*
X232063Y204566D01*
X231848Y204819D01*
X228155Y208512D01*
X228155Y216088D01*
X233512Y221445D01*
X241088Y221445D01*
X246445Y216088D01*
X246445Y208512D01*
X240986Y203054D01*
X240978Y203051D01*
X240802Y202997D01*
X240787Y202989D01*
X240770Y202983D01*
X240610Y202893D01*
X240448Y202805D01*
X240435Y202794D01*
X240419Y202785D01*
X240280Y202665D01*
X240139Y202548D01*
X240128Y202534D01*
X240114Y202522D01*
X240002Y202377D01*
X239887Y202234D01*
X239879Y202218D01*
X239868Y202204D01*
X239785Y202039D01*
X239701Y201877D01*
X239696Y201860D01*
X239688Y201844D01*
X239640Y201665D01*
X239590Y201490D01*
X239588Y201472D01*
X239584Y201455D01*
X239557Y201124D01*
X239557Y136132D01*
X239559Y136105D01*
X239557Y136078D01*
X239579Y135905D01*
X239597Y135731D01*
X239604Y135706D01*
X239608Y135679D01*
X239663Y135513D01*
X239715Y135346D01*
X239728Y135323D01*
X239736Y135297D01*
X239823Y135146D01*
X239907Y134992D01*
X239924Y134972D01*
X239937Y134948D01*
X240152Y134695D01*
X240704Y134143D01*
X241549Y132104D01*
X241549Y129896D01*
X240704Y127857D01*
X239143Y126296D01*
X237104Y125451D01*
X234896Y125451D01*
G37*
%LPD*%
%LPC*%
G36*
X213896Y137451D02*
X213896Y137451D01*
X211857Y138296D01*
X210296Y139857D01*
X209451Y141896D01*
X209451Y142677D01*
X209449Y142704D01*
X209451Y142731D01*
X209429Y142905D01*
X209411Y143078D01*
X209404Y143103D01*
X209400Y143130D01*
X209345Y143296D01*
X209293Y143463D01*
X209280Y143486D01*
X209272Y143512D01*
X209185Y143663D01*
X209101Y143817D01*
X209084Y143837D01*
X209071Y143861D01*
X208856Y144114D01*
X208343Y144627D01*
X208343Y202083D01*
X208341Y202109D01*
X208343Y202136D01*
X208321Y202310D01*
X208303Y202483D01*
X208296Y202509D01*
X208292Y202536D01*
X208236Y202701D01*
X208185Y202868D01*
X208172Y202892D01*
X208164Y202917D01*
X208077Y203069D01*
X207993Y203222D01*
X207976Y203243D01*
X207963Y203266D01*
X207748Y203519D01*
X202755Y208512D01*
X202755Y216088D01*
X208112Y221445D01*
X215688Y221445D01*
X221045Y216088D01*
X221045Y208512D01*
X216052Y203519D01*
X216035Y203498D01*
X216014Y203481D01*
X215907Y203343D01*
X215797Y203208D01*
X215784Y203184D01*
X215768Y203163D01*
X215690Y203006D01*
X215608Y202852D01*
X215600Y202826D01*
X215588Y202802D01*
X215543Y202633D01*
X215493Y202466D01*
X215491Y202439D01*
X215484Y202414D01*
X215457Y202083D01*
X215457Y150174D01*
X215459Y150152D01*
X215457Y150129D01*
X215479Y149952D01*
X215497Y149773D01*
X215503Y149752D01*
X215506Y149730D01*
X215562Y149560D01*
X215615Y149388D01*
X215625Y149369D01*
X215632Y149348D01*
X215721Y149192D01*
X215807Y149034D01*
X215821Y149017D01*
X215832Y148998D01*
X215949Y148863D01*
X216064Y148725D01*
X216082Y148711D01*
X216096Y148694D01*
X216238Y148585D01*
X216378Y148473D01*
X216398Y148463D01*
X216416Y148449D01*
X216711Y148297D01*
X218143Y147704D01*
X219704Y146143D01*
X220549Y144104D01*
X220549Y141896D01*
X219704Y139857D01*
X218143Y138296D01*
X216104Y137451D01*
X213896Y137451D01*
G37*
%LPD*%
%LPC*%
G36*
X39063Y39063D02*
X39063Y39063D01*
X39063Y66504D01*
X39664Y66445D01*
X42724Y65836D01*
X45710Y64931D01*
X48591Y63737D01*
X51343Y62266D01*
X53936Y60533D01*
X56348Y58554D01*
X58554Y56348D01*
X60533Y53936D01*
X62266Y51343D01*
X63737Y48591D01*
X64931Y45710D01*
X65836Y42724D01*
X66445Y39664D01*
X66504Y39063D01*
X39063Y39063D01*
G37*
%LPD*%
%LPC*%
G36*
X733496Y39063D02*
X733496Y39063D01*
X733555Y39664D01*
X734164Y42724D01*
X735069Y45710D01*
X736263Y48591D01*
X737734Y51343D01*
X739467Y53936D01*
X741446Y56348D01*
X743652Y58554D01*
X746064Y60533D01*
X748657Y62266D01*
X751409Y63737D01*
X754290Y64931D01*
X757276Y65836D01*
X760336Y66445D01*
X760937Y66504D01*
X760937Y39063D01*
X733496Y39063D01*
G37*
%LPD*%
%LPC*%
G36*
X27148Y279460D02*
X27148Y279460D01*
X26255Y280353D01*
X26255Y283396D01*
X26253Y283414D01*
X26255Y283432D01*
X26234Y283614D01*
X26215Y283797D01*
X26210Y283814D01*
X26208Y283831D01*
X26151Y284006D01*
X26097Y284182D01*
X26089Y284197D01*
X26083Y284214D01*
X25993Y284374D01*
X25905Y284536D01*
X25894Y284549D01*
X25885Y284565D01*
X25765Y284704D01*
X25648Y284845D01*
X25634Y284856D01*
X25622Y284870D01*
X25477Y284982D01*
X25334Y285097D01*
X25318Y285105D01*
X25304Y285116D01*
X25139Y285198D01*
X24977Y285283D01*
X24960Y285288D01*
X24944Y285296D01*
X24765Y285343D01*
X24590Y285394D01*
X24572Y285396D01*
X24555Y285400D01*
X24224Y285427D01*
X19864Y285427D01*
X19833Y285424D01*
X19802Y285426D01*
X19632Y285404D01*
X19463Y285387D01*
X19434Y285378D01*
X19403Y285374D01*
X19087Y285273D01*
X17104Y284451D01*
X14896Y284451D01*
X12857Y285296D01*
X11296Y286857D01*
X10451Y288896D01*
X10451Y291104D01*
X11296Y293143D01*
X12857Y294704D01*
X14896Y295549D01*
X17104Y295549D01*
X19087Y294727D01*
X19117Y294718D01*
X19145Y294704D01*
X19309Y294660D01*
X19472Y294611D01*
X19503Y294608D01*
X19533Y294600D01*
X19864Y294573D01*
X24224Y294573D01*
X24242Y294575D01*
X24260Y294573D01*
X24442Y294594D01*
X24625Y294613D01*
X24642Y294618D01*
X24659Y294620D01*
X24834Y294677D01*
X25010Y294731D01*
X25025Y294739D01*
X25042Y294745D01*
X25202Y294835D01*
X25364Y294923D01*
X25377Y294934D01*
X25393Y294943D01*
X25532Y295063D01*
X25673Y295180D01*
X25684Y295194D01*
X25698Y295206D01*
X25810Y295351D01*
X25925Y295494D01*
X25933Y295510D01*
X25944Y295524D01*
X26026Y295689D01*
X26111Y295851D01*
X26116Y295868D01*
X26124Y295884D01*
X26171Y296063D01*
X26222Y296238D01*
X26224Y296256D01*
X26228Y296273D01*
X26255Y296604D01*
X26255Y299647D01*
X27148Y300540D01*
X44412Y300540D01*
X45305Y299647D01*
X45305Y280353D01*
X44412Y279460D01*
X27148Y279460D01*
G37*
%LPD*%
%LPC*%
G36*
X376896Y185451D02*
X376896Y185451D01*
X374857Y186296D01*
X373296Y187857D01*
X372451Y189896D01*
X372451Y192104D01*
X373296Y194143D01*
X374857Y195704D01*
X376896Y196549D01*
X377677Y196549D01*
X377704Y196551D01*
X377731Y196549D01*
X377905Y196571D01*
X378078Y196589D01*
X378103Y196596D01*
X378130Y196600D01*
X378296Y196655D01*
X378463Y196707D01*
X378486Y196720D01*
X378512Y196728D01*
X378663Y196815D01*
X378817Y196899D01*
X378837Y196916D01*
X378861Y196929D01*
X379114Y197144D01*
X379848Y197878D01*
X379865Y197899D01*
X379886Y197917D01*
X379992Y198054D01*
X380103Y198190D01*
X380116Y198213D01*
X380132Y198235D01*
X380210Y198392D01*
X380292Y198546D01*
X380300Y198571D01*
X380312Y198595D01*
X380357Y198765D01*
X380407Y198931D01*
X380409Y198958D01*
X380416Y198984D01*
X380443Y199315D01*
X380443Y229868D01*
X380441Y229895D01*
X380443Y229922D01*
X380421Y230095D01*
X380403Y230269D01*
X380396Y230294D01*
X380392Y230321D01*
X380337Y230487D01*
X380285Y230654D01*
X380272Y230677D01*
X380264Y230703D01*
X380177Y230854D01*
X380093Y231008D01*
X380076Y231028D01*
X380063Y231052D01*
X379848Y231305D01*
X379296Y231857D01*
X378451Y233896D01*
X378451Y236104D01*
X379296Y238143D01*
X380857Y239704D01*
X382429Y240355D01*
X382896Y240549D01*
X385104Y240549D01*
X387143Y239704D01*
X388704Y238143D01*
X389549Y236104D01*
X389549Y233896D01*
X388704Y231857D01*
X388152Y231305D01*
X388135Y231284D01*
X388114Y231266D01*
X388007Y231128D01*
X387897Y230993D01*
X387884Y230969D01*
X387868Y230948D01*
X387790Y230791D01*
X387708Y230637D01*
X387700Y230612D01*
X387688Y230588D01*
X387643Y230418D01*
X387593Y230251D01*
X387591Y230225D01*
X387584Y230199D01*
X387557Y229868D01*
X387557Y195527D01*
X384144Y192114D01*
X384127Y192093D01*
X384106Y192075D01*
X383999Y191938D01*
X383889Y191802D01*
X383876Y191779D01*
X383860Y191757D01*
X383782Y191600D01*
X383700Y191446D01*
X383692Y191421D01*
X383680Y191397D01*
X383635Y191227D01*
X383585Y191061D01*
X383583Y191034D01*
X383576Y191008D01*
X383549Y190677D01*
X383549Y189896D01*
X382704Y187857D01*
X381143Y186296D01*
X379104Y185451D01*
X376896Y185451D01*
G37*
%LPD*%
%LPC*%
G36*
X328056Y110225D02*
X328056Y110225D01*
X324463Y111713D01*
X321713Y114463D01*
X320225Y118056D01*
X320225Y121944D01*
X321713Y125537D01*
X324463Y128287D01*
X328056Y129775D01*
X331944Y129775D01*
X335537Y128287D01*
X338287Y125537D01*
X339775Y121944D01*
X339775Y118056D01*
X338287Y114463D01*
X335537Y111713D01*
X331944Y110225D01*
X328056Y110225D01*
G37*
%LPD*%
%LPC*%
G36*
X628056Y110225D02*
X628056Y110225D01*
X624463Y111713D01*
X621713Y114463D01*
X620225Y118056D01*
X620225Y121944D01*
X621713Y125537D01*
X624463Y128287D01*
X628056Y129775D01*
X631944Y129775D01*
X635537Y128287D01*
X638287Y125537D01*
X639775Y121944D01*
X639775Y118056D01*
X638287Y114463D01*
X635537Y111713D01*
X631944Y110225D01*
X628056Y110225D01*
G37*
%LPD*%
%LPC*%
G36*
X478056Y110225D02*
X478056Y110225D01*
X474463Y111713D01*
X471713Y114463D01*
X470225Y118056D01*
X470225Y121944D01*
X471713Y125537D01*
X474463Y128287D01*
X478056Y129775D01*
X481944Y129775D01*
X485537Y128287D01*
X488287Y125537D01*
X489775Y121944D01*
X489775Y118056D01*
X488287Y114463D01*
X485537Y111713D01*
X481944Y110225D01*
X478056Y110225D01*
G37*
%LPD*%
%LPC*%
G36*
X157312Y228555D02*
X157312Y228555D01*
X151955Y233912D01*
X151955Y241488D01*
X157312Y246845D01*
X164888Y246845D01*
X170245Y241488D01*
X170245Y233912D01*
X164888Y228555D01*
X157312Y228555D01*
G37*
%LPD*%
%LPC*%
G36*
X182712Y228555D02*
X182712Y228555D01*
X177355Y233912D01*
X177355Y241488D01*
X182712Y246845D01*
X190288Y246845D01*
X195645Y241488D01*
X195645Y233912D01*
X190288Y228555D01*
X182712Y228555D01*
G37*
%LPD*%
%LPC*%
G36*
X309712Y228555D02*
X309712Y228555D01*
X304355Y233912D01*
X304355Y241488D01*
X309712Y246845D01*
X317288Y246845D01*
X322645Y241488D01*
X322645Y233912D01*
X317288Y228555D01*
X309712Y228555D01*
G37*
%LPD*%
%LPC*%
G36*
X60812Y214355D02*
X60812Y214355D01*
X55455Y219712D01*
X55455Y227288D01*
X60812Y232645D01*
X68388Y232645D01*
X73745Y227288D01*
X73745Y219712D01*
X68388Y214355D01*
X60812Y214355D01*
G37*
%LPD*%
%LPC*%
G36*
X730612Y215355D02*
X730612Y215355D01*
X725255Y220712D01*
X725255Y228288D01*
X730612Y233645D01*
X738188Y233645D01*
X743545Y228288D01*
X743545Y220712D01*
X738188Y215355D01*
X730612Y215355D01*
G37*
%LPD*%
%LPC*%
G36*
X157312Y203155D02*
X157312Y203155D01*
X151955Y208512D01*
X151955Y216088D01*
X157312Y221445D01*
X164888Y221445D01*
X170245Y216088D01*
X170245Y208512D01*
X164888Y203155D01*
X157312Y203155D01*
G37*
%LPD*%
%LPC*%
G36*
X284312Y228555D02*
X284312Y228555D01*
X278955Y233912D01*
X278955Y241488D01*
X284312Y246845D01*
X291888Y246845D01*
X297245Y241488D01*
X297245Y233912D01*
X291888Y228555D01*
X284312Y228555D01*
G37*
%LPD*%
%LPC*%
G36*
X208112Y228555D02*
X208112Y228555D01*
X202755Y233912D01*
X202755Y241488D01*
X208112Y246845D01*
X215688Y246845D01*
X221045Y241488D01*
X221045Y233912D01*
X215688Y228555D01*
X208112Y228555D01*
G37*
%LPD*%
%LPC*%
G36*
X258912Y228555D02*
X258912Y228555D01*
X253555Y233912D01*
X253555Y241488D01*
X258912Y246845D01*
X266488Y246845D01*
X271845Y241488D01*
X271845Y233912D01*
X266488Y228555D01*
X258912Y228555D01*
G37*
%LPD*%
%LPC*%
G36*
X233512Y228555D02*
X233512Y228555D01*
X228155Y233912D01*
X228155Y241488D01*
X233512Y246845D01*
X241088Y246845D01*
X246445Y241488D01*
X246445Y233912D01*
X241088Y228555D01*
X233512Y228555D01*
G37*
%LPD*%
%LPC*%
G36*
X60812Y112755D02*
X60812Y112755D01*
X55455Y118112D01*
X55455Y125688D01*
X60812Y131045D01*
X68388Y131045D01*
X73745Y125688D01*
X73745Y118112D01*
X68388Y112755D01*
X60812Y112755D01*
G37*
%LPD*%
%LPC*%
G36*
X730612Y113755D02*
X730612Y113755D01*
X725255Y119112D01*
X725255Y126688D01*
X730612Y132045D01*
X738188Y132045D01*
X743545Y126688D01*
X743545Y119112D01*
X738188Y113755D01*
X730612Y113755D01*
G37*
%LPD*%
%LPC*%
G36*
X182712Y203155D02*
X182712Y203155D01*
X177355Y208512D01*
X177355Y216088D01*
X182712Y221445D01*
X190288Y221445D01*
X195645Y216088D01*
X195645Y208512D01*
X190288Y203155D01*
X182712Y203155D01*
G37*
%LPD*%
%LPC*%
G36*
X730612Y189955D02*
X730612Y189955D01*
X725255Y195312D01*
X725255Y202888D01*
X730612Y208245D01*
X738188Y208245D01*
X743545Y202888D01*
X743545Y195312D01*
X738188Y189955D01*
X730612Y189955D01*
G37*
%LPD*%
%LPC*%
G36*
X60812Y188955D02*
X60812Y188955D01*
X55455Y194312D01*
X55455Y201888D01*
X60812Y207245D01*
X68388Y207245D01*
X73745Y201888D01*
X73745Y194312D01*
X68388Y188955D01*
X60812Y188955D01*
G37*
%LPD*%
%LPC*%
G36*
X730612Y139155D02*
X730612Y139155D01*
X725255Y144512D01*
X725255Y152088D01*
X730612Y157445D01*
X738188Y157445D01*
X743545Y152088D01*
X743545Y144512D01*
X738188Y139155D01*
X730612Y139155D01*
G37*
%LPD*%
%LPC*%
G36*
X60812Y163555D02*
X60812Y163555D01*
X55455Y168912D01*
X55455Y176488D01*
X60812Y181845D01*
X68388Y181845D01*
X73745Y176488D01*
X73745Y168912D01*
X68388Y163555D01*
X60812Y163555D01*
G37*
%LPD*%
%LPC*%
G36*
X730612Y164555D02*
X730612Y164555D01*
X725255Y169912D01*
X725255Y177488D01*
X730612Y182845D01*
X738188Y182845D01*
X743545Y177488D01*
X743545Y169912D01*
X738188Y164555D01*
X730612Y164555D01*
G37*
%LPD*%
%LPC*%
G36*
X60812Y138155D02*
X60812Y138155D01*
X55455Y143512D01*
X55455Y151088D01*
X60812Y156445D01*
X68388Y156445D01*
X73745Y151088D01*
X73745Y143512D01*
X68388Y138155D01*
X60812Y138155D01*
G37*
%LPD*%
%LPC*%
G36*
X759898Y302466D02*
X759898Y302466D01*
X759880Y302468D01*
X759863Y302472D01*
X759532Y302499D01*
X746765Y302499D01*
X746869Y303153D01*
X747524Y305168D01*
X748486Y307056D01*
X749731Y308770D01*
X751230Y310269D01*
X752944Y311514D01*
X754832Y312476D01*
X756847Y313131D01*
X758682Y313422D01*
X758723Y313432D01*
X758765Y313437D01*
X758917Y313483D01*
X759071Y313524D01*
X759109Y313542D01*
X759150Y313555D01*
X759290Y313631D01*
X759433Y313701D01*
X759467Y313726D01*
X759504Y313747D01*
X759626Y313848D01*
X759753Y313945D01*
X759781Y313977D01*
X759813Y314004D01*
X759913Y314128D01*
X760001Y314229D01*
X760002Y314227D01*
X760024Y314191D01*
X760134Y314075D01*
X760238Y313955D01*
X760271Y313929D01*
X760300Y313898D01*
X760430Y313805D01*
X760556Y313708D01*
X760594Y313689D01*
X760628Y313664D01*
X760774Y313599D01*
X760916Y313528D01*
X760957Y313517D01*
X760996Y313500D01*
X761263Y313435D01*
X761305Y313424D01*
X761312Y313423D01*
X761318Y313422D01*
X763153Y313131D01*
X765168Y312476D01*
X767056Y311514D01*
X768770Y310269D01*
X770269Y308770D01*
X771514Y307056D01*
X772476Y305168D01*
X773131Y303153D01*
X773235Y302499D01*
X760468Y302499D01*
X760450Y302497D01*
X760433Y302499D01*
X760250Y302478D01*
X760068Y302459D01*
X760051Y302454D01*
X760033Y302452D01*
X759992Y302439D01*
X759898Y302466D01*
G37*
%LPD*%
%LPC*%
G36*
X692813Y285063D02*
X692813Y285063D01*
X692813Y297041D01*
X701835Y297041D01*
X702481Y296868D01*
X703060Y296533D01*
X703533Y296060D01*
X703868Y295481D01*
X704041Y294835D01*
X704041Y285063D01*
X692813Y285063D01*
G37*
%LPD*%
%LPC*%
G36*
X692813Y210959D02*
X692813Y210959D01*
X692813Y222937D01*
X704041Y222937D01*
X704041Y213165D01*
X703868Y212519D01*
X703533Y211940D01*
X703060Y211467D01*
X702481Y211132D01*
X701835Y210959D01*
X692813Y210959D01*
G37*
%LPD*%
%LPC*%
G36*
X673459Y285063D02*
X673459Y285063D01*
X673459Y294835D01*
X673632Y295481D01*
X673967Y296060D01*
X674440Y296533D01*
X675019Y296868D01*
X675665Y297041D01*
X684687Y297041D01*
X684687Y285063D01*
X673459Y285063D01*
G37*
%LPD*%
%LPC*%
G36*
X675665Y210959D02*
X675665Y210959D01*
X675019Y211132D01*
X674440Y211467D01*
X673967Y211940D01*
X673632Y212519D01*
X673459Y213165D01*
X673459Y222937D01*
X684687Y222937D01*
X684687Y210959D01*
X675665Y210959D01*
G37*
%LPD*%
%LPC*%
G36*
X762499Y297501D02*
X762499Y297501D01*
X773235Y297501D01*
X773131Y296847D01*
X772476Y294832D01*
X771514Y292944D01*
X770269Y291230D01*
X768770Y289731D01*
X767056Y288486D01*
X765168Y287524D01*
X763153Y286869D01*
X762499Y286765D01*
X762499Y297501D01*
G37*
%LPD*%
%LPC*%
G36*
X756847Y286869D02*
X756847Y286869D01*
X754832Y287524D01*
X752944Y288486D01*
X751230Y289731D01*
X749731Y291230D01*
X748486Y292944D01*
X747524Y294832D01*
X746869Y296847D01*
X746765Y297501D01*
X757501Y297501D01*
X757501Y286765D01*
X756847Y286869D01*
G37*
%LPD*%
%LPC*%
G36*
X68219Y293999D02*
X68219Y293999D01*
X68219Y301556D01*
X72555Y301556D01*
X73201Y301383D01*
X73780Y301048D01*
X74253Y300575D01*
X74588Y299996D01*
X74761Y299350D01*
X74761Y293999D01*
X68219Y293999D01*
G37*
%LPD*%
%LPC*%
G36*
X68219Y278444D02*
X68219Y278444D01*
X68219Y286001D01*
X74761Y286001D01*
X74761Y280650D01*
X74588Y280004D01*
X74253Y279425D01*
X73780Y278952D01*
X73201Y278617D01*
X72555Y278444D01*
X68219Y278444D01*
G37*
%LPD*%
%LPC*%
G36*
X53679Y293999D02*
X53679Y293999D01*
X53679Y299350D01*
X53852Y299996D01*
X54187Y300575D01*
X54660Y301048D01*
X55239Y301383D01*
X55885Y301556D01*
X60221Y301556D01*
X60221Y293999D01*
X53679Y293999D01*
G37*
%LPD*%
%LPC*%
G36*
X55885Y278444D02*
X55885Y278444D01*
X55239Y278617D01*
X54660Y278952D01*
X54187Y279425D01*
X53852Y280004D01*
X53679Y280650D01*
X53679Y286001D01*
X60221Y286001D01*
X60221Y278444D01*
X55885Y278444D01*
G37*
%LPD*%
%LPC*%
G36*
X357749Y122749D02*
X357749Y122749D01*
X357749Y130453D01*
X359142Y130000D01*
X360656Y129229D01*
X362030Y128231D01*
X363231Y127030D01*
X364229Y125656D01*
X365000Y124142D01*
X365453Y122749D01*
X357749Y122749D01*
G37*
%LPD*%
%LPC*%
G36*
X657749Y122749D02*
X657749Y122749D01*
X657749Y130453D01*
X659142Y130000D01*
X660656Y129229D01*
X662030Y128231D01*
X663231Y127030D01*
X664229Y125656D01*
X665000Y124142D01*
X665453Y122749D01*
X657749Y122749D01*
G37*
%LPD*%
%LPC*%
G36*
X507749Y122749D02*
X507749Y122749D01*
X507749Y130453D01*
X509142Y130000D01*
X510656Y129229D01*
X512030Y128231D01*
X513231Y127030D01*
X514229Y125656D01*
X515000Y124142D01*
X515453Y122749D01*
X507749Y122749D01*
G37*
%LPD*%
%LPC*%
G36*
X207749Y122749D02*
X207749Y122749D01*
X207749Y130453D01*
X209142Y130000D01*
X210656Y129229D01*
X212030Y128231D01*
X213231Y127030D01*
X214229Y125656D01*
X215000Y124142D01*
X215453Y122749D01*
X207749Y122749D01*
G37*
%LPD*%
%LPC*%
G36*
X494547Y122749D02*
X494547Y122749D01*
X495000Y124142D01*
X495771Y125656D01*
X496769Y127030D01*
X497970Y128231D01*
X499344Y129229D01*
X500858Y130000D01*
X502251Y130453D01*
X502251Y122749D01*
X494547Y122749D01*
G37*
%LPD*%
%LPC*%
G36*
X507749Y117251D02*
X507749Y117251D01*
X515453Y117251D01*
X515000Y115858D01*
X514229Y114344D01*
X513231Y112970D01*
X512030Y111769D01*
X510656Y110771D01*
X509142Y110000D01*
X507749Y109547D01*
X507749Y117251D01*
G37*
%LPD*%
%LPC*%
G36*
X207749Y117251D02*
X207749Y117251D01*
X215453Y117251D01*
X215000Y115858D01*
X214229Y114344D01*
X213231Y112970D01*
X212030Y111769D01*
X210656Y110771D01*
X209142Y110000D01*
X207749Y109547D01*
X207749Y117251D01*
G37*
%LPD*%
%LPC*%
G36*
X357749Y117251D02*
X357749Y117251D01*
X365453Y117251D01*
X365000Y115858D01*
X364229Y114344D01*
X363231Y112970D01*
X362030Y111769D01*
X360656Y110771D01*
X359142Y110000D01*
X357749Y109547D01*
X357749Y117251D01*
G37*
%LPD*%
%LPC*%
G36*
X657749Y117251D02*
X657749Y117251D01*
X665453Y117251D01*
X665000Y115858D01*
X664229Y114344D01*
X663231Y112970D01*
X662030Y111769D01*
X660656Y110771D01*
X659142Y110000D01*
X657749Y109547D01*
X657749Y117251D01*
G37*
%LPD*%
%LPC*%
G36*
X644547Y122749D02*
X644547Y122749D01*
X645000Y124142D01*
X645771Y125656D01*
X646769Y127030D01*
X647970Y128231D01*
X649344Y129229D01*
X650858Y130000D01*
X652251Y130453D01*
X652251Y122749D01*
X644547Y122749D01*
G37*
%LPD*%
%LPC*%
G36*
X194547Y122749D02*
X194547Y122749D01*
X195000Y124142D01*
X195771Y125656D01*
X196769Y127030D01*
X197970Y128231D01*
X199344Y129229D01*
X200858Y130000D01*
X202251Y130453D01*
X202251Y122749D01*
X194547Y122749D01*
G37*
%LPD*%
%LPC*%
G36*
X344547Y122749D02*
X344547Y122749D01*
X345000Y124142D01*
X345771Y125656D01*
X346769Y127030D01*
X347970Y128231D01*
X349344Y129229D01*
X350858Y130000D01*
X352251Y130453D01*
X352251Y122749D01*
X344547Y122749D01*
G37*
%LPD*%
%LPC*%
G36*
X650858Y110000D02*
X650858Y110000D01*
X649344Y110771D01*
X647970Y111769D01*
X646769Y112970D01*
X645771Y114344D01*
X645000Y115858D01*
X644547Y117251D01*
X652251Y117251D01*
X652251Y109547D01*
X650858Y110000D01*
G37*
%LPD*%
%LPC*%
G36*
X200858Y110000D02*
X200858Y110000D01*
X199344Y110771D01*
X197970Y111769D01*
X196769Y112970D01*
X195771Y114344D01*
X195000Y115858D01*
X194547Y117251D01*
X202251Y117251D01*
X202251Y109547D01*
X200858Y110000D01*
G37*
%LPD*%
%LPC*%
G36*
X350858Y110000D02*
X350858Y110000D01*
X349344Y110771D01*
X347970Y111769D01*
X346769Y112970D01*
X345771Y114344D01*
X345000Y115858D01*
X344547Y117251D01*
X352251Y117251D01*
X352251Y109547D01*
X350858Y110000D01*
G37*
%LPD*%
%LPC*%
G36*
X500858Y110000D02*
X500858Y110000D01*
X499344Y110771D01*
X497970Y111769D01*
X496769Y112970D01*
X495771Y114344D01*
X495000Y115858D01*
X494547Y117251D01*
X502251Y117251D01*
X502251Y109547D01*
X500858Y110000D01*
G37*
%LPD*%
%LPC*%
G36*
X17139Y200639D02*
X17139Y200639D01*
X17139Y208261D01*
X18809Y208261D01*
X24761Y202309D01*
X24761Y200639D01*
X17139Y200639D01*
G37*
%LPD*%
%LPC*%
G36*
X17139Y175239D02*
X17139Y175239D01*
X17139Y182861D01*
X18809Y182861D01*
X24761Y176909D01*
X24761Y175239D01*
X17139Y175239D01*
G37*
%LPD*%
%LPC*%
G36*
X17139Y226039D02*
X17139Y226039D01*
X17139Y233661D01*
X18809Y233661D01*
X24761Y227709D01*
X24761Y226039D01*
X17139Y226039D01*
G37*
%LPD*%
%LPC*%
G36*
X17139Y99039D02*
X17139Y99039D01*
X17139Y106661D01*
X18809Y106661D01*
X24761Y100709D01*
X24761Y99039D01*
X17139Y99039D01*
G37*
%LPD*%
%LPC*%
G36*
X17139Y149839D02*
X17139Y149839D01*
X17139Y157461D01*
X18809Y157461D01*
X24761Y151509D01*
X24761Y149839D01*
X17139Y149839D01*
G37*
%LPD*%
%LPC*%
G36*
X17139Y124439D02*
X17139Y124439D01*
X17139Y132061D01*
X18809Y132061D01*
X24761Y126109D01*
X24761Y124439D01*
X17139Y124439D01*
G37*
%LPD*%
%LPC*%
G36*
X316039Y214839D02*
X316039Y214839D01*
X316039Y222461D01*
X317709Y222461D01*
X323661Y216509D01*
X323661Y214839D01*
X316039Y214839D01*
G37*
%LPD*%
%LPC*%
G36*
X17139Y162539D02*
X17139Y162539D01*
X17139Y170161D01*
X24761Y170161D01*
X24761Y168491D01*
X18809Y162539D01*
X17139Y162539D01*
G37*
%LPD*%
%LPC*%
G36*
X774839Y150839D02*
X774839Y150839D01*
X774839Y152509D01*
X780791Y158461D01*
X782461Y158461D01*
X782461Y150839D01*
X774839Y150839D01*
G37*
%LPD*%
%LPC*%
G36*
X774839Y201639D02*
X774839Y201639D01*
X774839Y203309D01*
X780791Y209261D01*
X782461Y209261D01*
X782461Y201639D01*
X774839Y201639D01*
G37*
%LPD*%
%LPC*%
G36*
X774839Y125439D02*
X774839Y125439D01*
X774839Y127109D01*
X780791Y133061D01*
X782461Y133061D01*
X782461Y125439D01*
X774839Y125439D01*
G37*
%LPD*%
%LPC*%
G36*
X17139Y137139D02*
X17139Y137139D01*
X17139Y144761D01*
X24761Y144761D01*
X24761Y143091D01*
X18809Y137139D01*
X17139Y137139D01*
G37*
%LPD*%
%LPC*%
G36*
X774839Y100039D02*
X774839Y100039D01*
X774839Y101709D01*
X780791Y107661D01*
X782461Y107661D01*
X782461Y100039D01*
X774839Y100039D01*
G37*
%LPD*%
%LPC*%
G36*
X17139Y111739D02*
X17139Y111739D01*
X17139Y119361D01*
X24761Y119361D01*
X24761Y117691D01*
X18809Y111739D01*
X17139Y111739D01*
G37*
%LPD*%
%LPC*%
G36*
X17139Y86339D02*
X17139Y86339D01*
X17139Y93961D01*
X24761Y93961D01*
X24761Y92291D01*
X18809Y86339D01*
X17139Y86339D01*
G37*
%LPD*%
%LPC*%
G36*
X328739Y214839D02*
X328739Y214839D01*
X328739Y216509D01*
X334691Y222461D01*
X336361Y222461D01*
X336361Y214839D01*
X328739Y214839D01*
G37*
%LPD*%
%LPC*%
G36*
X303339Y214839D02*
X303339Y214839D01*
X303339Y216509D01*
X309291Y222461D01*
X310961Y222461D01*
X310961Y214839D01*
X303339Y214839D01*
G37*
%LPD*%
%LPC*%
G36*
X17139Y187939D02*
X17139Y187939D01*
X17139Y195561D01*
X24761Y195561D01*
X24761Y193891D01*
X18809Y187939D01*
X17139Y187939D01*
G37*
%LPD*%
%LPC*%
G36*
X17139Y213339D02*
X17139Y213339D01*
X17139Y220961D01*
X24761Y220961D01*
X24761Y219291D01*
X18809Y213339D01*
X17139Y213339D01*
G37*
%LPD*%
%LPC*%
G36*
X774839Y227039D02*
X774839Y227039D01*
X774839Y228709D01*
X780791Y234661D01*
X782461Y234661D01*
X782461Y227039D01*
X774839Y227039D01*
G37*
%LPD*%
%LPC*%
G36*
X774839Y176239D02*
X774839Y176239D01*
X774839Y177909D01*
X780791Y183861D01*
X782461Y183861D01*
X782461Y176239D01*
X774839Y176239D01*
G37*
%LPD*%
%LPC*%
G36*
X316039Y202139D02*
X316039Y202139D01*
X316039Y209761D01*
X323661Y209761D01*
X323661Y208091D01*
X317709Y202139D01*
X316039Y202139D01*
G37*
%LPD*%
%LPC*%
G36*
X780791Y163539D02*
X780791Y163539D01*
X774839Y169491D01*
X774839Y171161D01*
X782461Y171161D01*
X782461Y163539D01*
X780791Y163539D01*
G37*
%LPD*%
%LPC*%
G36*
X334691Y202139D02*
X334691Y202139D01*
X328739Y208091D01*
X328739Y209761D01*
X336361Y209761D01*
X336361Y202139D01*
X334691Y202139D01*
G37*
%LPD*%
%LPC*%
G36*
X309291Y202139D02*
X309291Y202139D01*
X303339Y208091D01*
X303339Y209761D01*
X310961Y209761D01*
X310961Y202139D01*
X309291Y202139D01*
G37*
%LPD*%
%LPC*%
G36*
X780791Y112739D02*
X780791Y112739D01*
X774839Y118691D01*
X774839Y120361D01*
X782461Y120361D01*
X782461Y112739D01*
X780791Y112739D01*
G37*
%LPD*%
%LPC*%
G36*
X780791Y87339D02*
X780791Y87339D01*
X774839Y93291D01*
X774839Y94961D01*
X782461Y94961D01*
X782461Y87339D01*
X780791Y87339D01*
G37*
%LPD*%
%LPC*%
G36*
X780791Y214339D02*
X780791Y214339D01*
X774839Y220291D01*
X774839Y221961D01*
X782461Y221961D01*
X782461Y214339D01*
X780791Y214339D01*
G37*
%LPD*%
%LPC*%
G36*
X780791Y138139D02*
X780791Y138139D01*
X774839Y144091D01*
X774839Y145761D01*
X782461Y145761D01*
X782461Y138139D01*
X780791Y138139D01*
G37*
%LPD*%
%LPC*%
G36*
X780791Y188939D02*
X780791Y188939D01*
X774839Y194891D01*
X774839Y196561D01*
X782461Y196561D01*
X782461Y188939D01*
X780791Y188939D01*
G37*
%LPD*%
D10*
X35000Y35000D03*
X765000Y35000D03*
D11*
X161100Y212300D03*
X186500Y212300D03*
X211900Y212300D03*
X237300Y212300D03*
X262700Y212300D03*
X288100Y212300D03*
X161100Y237700D03*
X186500Y237700D03*
X211900Y237700D03*
X237300Y237700D03*
X262700Y237700D03*
X288100Y237700D03*
X313500Y212300D03*
X338900Y212300D03*
X313500Y237700D03*
X338900Y237700D03*
D12*
X760000Y265000D03*
X760000Y300000D03*
D13*
X625250Y281000D03*
X688750Y281000D03*
D11*
X734400Y224500D03*
X734400Y199100D03*
X734400Y173700D03*
X734400Y148300D03*
X734400Y122900D03*
X734400Y97500D03*
D14*
X64600Y96500D03*
X64600Y121900D03*
X64600Y147300D03*
X64600Y172700D03*
X64600Y198100D03*
X64600Y223500D03*
D11*
X40000Y223500D03*
X40000Y198100D03*
X40000Y172700D03*
X40000Y147300D03*
X40000Y121900D03*
X40000Y96500D03*
X14600Y223500D03*
X14600Y198100D03*
X14600Y172700D03*
X14600Y147300D03*
X14600Y121900D03*
X14600Y96500D03*
D14*
X759600Y97500D03*
X759600Y122900D03*
X759600Y148300D03*
X759600Y173700D03*
X759600Y199100D03*
X759600Y224500D03*
X785000Y97500D03*
X785000Y122900D03*
X785000Y148300D03*
X785000Y173700D03*
X785000Y199100D03*
X785000Y224500D03*
D15*
X375000Y50000D03*
X285000Y50000D03*
D16*
X330000Y120000D03*
X355000Y120000D03*
X305000Y120000D03*
D15*
X225000Y50000D03*
X135000Y50000D03*
D16*
X180000Y120000D03*
X205000Y120000D03*
X155000Y120000D03*
D15*
X525000Y50000D03*
X435000Y50000D03*
D16*
X480000Y120000D03*
X505000Y120000D03*
X455000Y120000D03*
D15*
X675000Y50000D03*
X585000Y50000D03*
D16*
X630000Y120000D03*
X655000Y120000D03*
X605000Y120000D03*
D17*
X64220Y290000D03*
X35780Y290000D03*
D13*
X625250Y227000D03*
X688750Y227000D03*
D18*
X493000Y169000D03*
X450000Y214000D03*
X434000Y226000D03*
D19*
X353300Y237700D02*
X338900Y237700D01*
X353300Y237700D02*
X357000Y234000D01*
X357000Y154000D01*
X384000Y127000D01*
X384000Y89000D01*
X302000Y89000D01*
X163000Y89000D01*
X155000Y97000D01*
X155000Y120000D01*
X305000Y120000D02*
X305000Y92000D01*
X302000Y89000D01*
X455000Y93000D02*
X455000Y120000D01*
X455000Y93000D02*
X451000Y89000D01*
X384000Y89000D01*
X605000Y92000D02*
X605000Y120000D01*
X605000Y92000D02*
X602000Y89000D01*
X451000Y89000D01*
D18*
X384000Y235000D03*
D20*
X384000Y197000D01*
X378000Y191000D01*
D18*
X378000Y191000D03*
D20*
X288100Y212300D02*
X288100Y112100D01*
X275000Y99000D01*
X187000Y99000D01*
X180000Y106000D01*
X180000Y120000D01*
X262700Y114300D02*
X262700Y212300D01*
X262700Y114300D02*
X264000Y113000D01*
D18*
X264000Y113000D03*
X236000Y131000D03*
D20*
X236000Y211000D01*
X237300Y212300D01*
X211900Y212300D02*
X211900Y146100D01*
X215000Y143000D01*
D18*
X215000Y143000D03*
X649000Y281000D03*
D21*
X625250Y281000D01*
D22*
X759600Y224500D02*
X759600Y199644D01*
X759600Y199100D01*
X759600Y173736D01*
X759600Y173700D01*
X759600Y149352D01*
X759600Y148300D01*
X759600Y123444D01*
X759600Y122900D01*
X759600Y97500D01*
X759600Y233400D02*
X739000Y254000D01*
X626000Y254000D01*
X626000Y280300D01*
X625250Y281000D01*
X40000Y223500D02*
X40000Y198120D01*
X40000Y198100D01*
X40000Y173736D01*
X40000Y172700D01*
X40000Y121920D01*
X40000Y121900D01*
X40000Y96500D01*
X40000Y84000D01*
X41087Y83987D01*
X42174Y83947D01*
X43260Y83882D01*
X44343Y83790D01*
X45424Y83672D01*
X46502Y83528D01*
X47576Y83358D01*
X48646Y83162D01*
X49710Y82940D01*
X50769Y82692D01*
X51822Y82419D01*
X52868Y82121D01*
X53906Y81798D01*
X54936Y81449D01*
X55957Y81076D01*
X56969Y80678D01*
X57971Y80256D01*
X58963Y79809D01*
X59944Y79339D01*
X60913Y78846D01*
X61869Y78329D01*
X62813Y77789D01*
X63744Y77226D01*
X64661Y76641D01*
X65563Y76034D01*
X66450Y75406D01*
X67322Y74756D01*
X68178Y74085D01*
X69018Y73394D01*
X69841Y72683D01*
X70646Y71952D01*
X71433Y71202D01*
X72202Y70433D01*
X72952Y69646D01*
X73683Y68841D01*
X74394Y68018D01*
X75085Y67178D01*
X75756Y66322D01*
X76406Y65450D01*
X77034Y64563D01*
X77641Y63661D01*
X78226Y62744D01*
X78789Y61813D01*
X79329Y60869D01*
X79846Y59913D01*
X80339Y58944D01*
X80809Y57963D01*
X81256Y56971D01*
X81678Y55969D01*
X82076Y54957D01*
X82449Y53936D01*
X82798Y52906D01*
X83121Y51868D01*
X83419Y50822D01*
X83692Y49769D01*
X83940Y48710D01*
X84162Y47646D01*
X84358Y46576D01*
X84528Y45502D01*
X84672Y44424D01*
X84790Y43343D01*
X84882Y42260D01*
X84947Y41174D01*
X84987Y40087D01*
X85000Y39000D01*
X85000Y28000D01*
X95000Y18000D01*
X696000Y18000D01*
X713000Y35000D01*
X713002Y35060D01*
X713007Y35121D01*
X713016Y35180D01*
X713029Y35239D01*
X713045Y35298D01*
X713065Y35355D01*
X713088Y35410D01*
X713115Y35465D01*
X713144Y35517D01*
X713177Y35568D01*
X713213Y35617D01*
X713251Y35663D01*
X713293Y35707D01*
X713337Y35749D01*
X713383Y35787D01*
X713432Y35823D01*
X713483Y35856D01*
X713535Y35885D01*
X713590Y35912D01*
X713645Y35935D01*
X713702Y35955D01*
X713761Y35971D01*
X713820Y35984D01*
X713879Y35993D01*
X713940Y35998D01*
X714000Y36000D01*
X713989Y37136D01*
X714006Y38272D01*
X714051Y39407D01*
X714123Y40541D01*
X714222Y41673D01*
X714348Y42802D01*
X714502Y43927D01*
X714683Y45049D01*
X714891Y46165D01*
X715126Y47277D01*
X715388Y48382D01*
X715676Y49481D01*
X715991Y50573D01*
X716332Y51656D01*
X716699Y52732D01*
X717092Y53797D01*
X717511Y54853D01*
X717955Y55899D01*
X718424Y56934D01*
X718919Y57957D01*
X719437Y58967D01*
X719980Y59965D01*
X720547Y60950D01*
X721138Y61920D01*
X721751Y62876D01*
X722388Y63817D01*
X723047Y64742D01*
X723729Y65651D01*
X724432Y66543D01*
X725157Y67418D01*
X725902Y68276D01*
X726668Y69115D01*
X727454Y69935D01*
X728260Y70736D01*
X729084Y71517D01*
X729928Y72278D01*
X730789Y73019D01*
X731669Y73738D01*
X732565Y74436D01*
X733478Y75112D01*
X734407Y75766D01*
X735351Y76398D01*
X736311Y77006D01*
X737285Y77591D01*
X738272Y78152D01*
X739273Y78689D01*
X740287Y79202D01*
X741313Y79690D01*
X742350Y80153D01*
X743398Y80591D01*
X744457Y81004D01*
X745525Y81391D01*
X746602Y81752D01*
X747688Y82087D01*
X748781Y82395D01*
X749882Y82677D01*
X750989Y82933D01*
X752101Y83161D01*
X753219Y83363D01*
X754342Y83537D01*
X755468Y83684D01*
X756598Y83804D01*
X757730Y83897D01*
X758865Y83962D01*
X760000Y84000D01*
X760000Y97100D01*
X759998Y97139D01*
X759992Y97178D01*
X759983Y97216D01*
X759970Y97253D01*
X759953Y97289D01*
X759933Y97322D01*
X759909Y97354D01*
X759883Y97383D01*
X759854Y97409D01*
X759822Y97433D01*
X759789Y97453D01*
X759753Y97470D01*
X759716Y97483D01*
X759678Y97492D01*
X759639Y97498D01*
X759600Y97500D01*
X626000Y235000D02*
X626000Y254000D01*
X626000Y235000D02*
X631000Y230000D01*
X628000Y227000D01*
X625250Y227000D01*
X759600Y224500D02*
X759600Y233400D01*
D23*
X41148Y121920D02*
X40000Y121900D01*
X40000Y121920D02*
X41148Y121920D01*
X40000Y172700D02*
X41148Y173736D01*
X40000Y173736D01*
X40000Y198100D02*
X41148Y198120D01*
X40000Y198120D01*
X759600Y122900D02*
X760476Y123444D01*
X759600Y123444D01*
X759600Y148300D02*
X760476Y149352D01*
X759600Y149352D01*
X759600Y173700D02*
X760476Y173736D01*
X759600Y173736D01*
X759600Y199100D02*
X760476Y199644D01*
X759600Y199644D01*
D19*
X35780Y290000D02*
X16000Y290000D01*
D18*
X16000Y290000D03*
X475000Y269000D03*
D20*
X440000Y269000D01*
X439000Y269000D01*
X436500Y271500D01*
X432000Y276000D01*
X432000Y302000D01*
D18*
X432000Y302000D03*
X436500Y271500D03*
D20*
X437500Y271500D01*
X440000Y269000D01*
D18*
X487000Y226000D03*
D20*
X487000Y247000D01*
X487000Y282000D01*
X467000Y302000D01*
D18*
X467000Y302000D03*
X440000Y249000D03*
D20*
X485000Y249000D01*
X487000Y247000D01*
D18*
X501000Y302000D03*
D20*
X501000Y227000D01*
X502000Y226000D01*
D18*
X502000Y226000D03*
X510000Y217000D03*
D20*
X530000Y217000D01*
X538000Y225000D01*
X538000Y262000D01*
X541000Y265000D01*
D18*
X541000Y265000D03*
X537000Y303000D03*
D20*
X537000Y269000D01*
X541000Y265000D01*
D18*
X547000Y220000D03*
D20*
X547000Y239000D01*
X575000Y267000D01*
D18*
X575000Y267000D03*
D20*
X575000Y300000D01*
X571000Y304000D01*
D18*
X571000Y304000D03*
X508000Y206000D03*
D20*
X548000Y206000D01*
X563000Y221000D01*
X563000Y239000D01*
X592000Y268000D01*
D18*
X592000Y268000D03*
M02*
