G04 EAGLE Gerber RS-274X export*
G75*
%MOMM*%
%FSLAX34Y34*%
%LPD*%
%INSilkscreen Bottom*%
%IPPOS*%
%AMOC8*
5,1,8,0,0,1.08239X$1,22.5*%
G01*
%ADD10C,0.203200*%
%ADD11R,0.838200X0.203200*%
%ADD12C,0.177800*%
%ADD13C,0.127000*%
%ADD14C,0.152400*%
%ADD15R,0.736600X1.752600*%
%ADD16C,0.076200*%
%ADD17R,2.895600X0.863600*%
%ADD18R,0.762000X0.863600*%
%ADD19R,1.000000X3.100000*%
%ADD20C,0.101600*%
%ADD21R,3.100000X1.000000*%

G36*
X723569Y254343D02*
X723569Y254343D01*
X723656Y254346D01*
X723709Y254363D01*
X723764Y254371D01*
X723843Y254406D01*
X723927Y254433D01*
X723966Y254461D01*
X724023Y254487D01*
X724136Y254583D01*
X724200Y254628D01*
X728772Y259200D01*
X728824Y259270D01*
X728884Y259334D01*
X728910Y259383D01*
X728943Y259427D01*
X728974Y259509D01*
X729014Y259587D01*
X729022Y259635D01*
X729044Y259693D01*
X729056Y259841D01*
X729069Y259918D01*
X729069Y302082D01*
X729062Y302135D01*
X729063Y302164D01*
X729056Y302187D01*
X729054Y302256D01*
X729037Y302309D01*
X729029Y302364D01*
X728994Y302443D01*
X728967Y302527D01*
X728939Y302566D01*
X728913Y302623D01*
X728817Y302736D01*
X728772Y302800D01*
X724200Y307372D01*
X724130Y307424D01*
X724066Y307484D01*
X724017Y307510D01*
X723973Y307543D01*
X723891Y307574D01*
X723813Y307614D01*
X723766Y307622D01*
X723707Y307644D01*
X723559Y307656D01*
X723482Y307669D01*
X716370Y307669D01*
X716312Y307661D01*
X716254Y307663D01*
X716172Y307641D01*
X716089Y307629D01*
X716035Y307606D01*
X715979Y307591D01*
X715906Y307548D01*
X715829Y307513D01*
X715784Y307475D01*
X715734Y307446D01*
X715676Y307384D01*
X715612Y307330D01*
X715580Y307281D01*
X715540Y307238D01*
X715501Y307163D01*
X715455Y307093D01*
X715437Y307037D01*
X715410Y306985D01*
X715399Y306917D01*
X715369Y306822D01*
X715366Y306722D01*
X715355Y306654D01*
X715355Y255346D01*
X715363Y255288D01*
X715361Y255230D01*
X715383Y255148D01*
X715395Y255065D01*
X715419Y255011D01*
X715433Y254955D01*
X715476Y254882D01*
X715511Y254805D01*
X715549Y254760D01*
X715579Y254710D01*
X715640Y254652D01*
X715695Y254588D01*
X715743Y254556D01*
X715786Y254516D01*
X715861Y254477D01*
X715931Y254431D01*
X715987Y254413D01*
X716039Y254386D01*
X716107Y254375D01*
X716202Y254345D01*
X716302Y254342D01*
X716370Y254331D01*
X723482Y254331D01*
X723569Y254343D01*
G37*
D10*
X516828Y238646D02*
X516828Y149354D01*
X471172Y149354D01*
X471172Y238646D01*
X516828Y238646D01*
X501620Y229756D02*
X501622Y229891D01*
X501628Y230026D01*
X501638Y230160D01*
X501652Y230294D01*
X501670Y230428D01*
X501691Y230561D01*
X501717Y230693D01*
X501747Y230825D01*
X501780Y230956D01*
X501817Y231085D01*
X501859Y231214D01*
X501903Y231341D01*
X501952Y231467D01*
X502004Y231591D01*
X502060Y231714D01*
X502120Y231835D01*
X502183Y231954D01*
X502249Y232071D01*
X502319Y232186D01*
X502393Y232300D01*
X502470Y232411D01*
X502549Y232519D01*
X502633Y232625D01*
X502719Y232729D01*
X502808Y232830D01*
X502900Y232929D01*
X502995Y233024D01*
X503093Y233117D01*
X503193Y233207D01*
X503296Y233294D01*
X503402Y233378D01*
X503510Y233459D01*
X503620Y233536D01*
X503733Y233610D01*
X503848Y233681D01*
X503965Y233749D01*
X504083Y233813D01*
X504204Y233873D01*
X504326Y233930D01*
X504450Y233983D01*
X504576Y234033D01*
X504702Y234079D01*
X504831Y234121D01*
X504960Y234159D01*
X505090Y234193D01*
X505222Y234224D01*
X505354Y234251D01*
X505487Y234273D01*
X505620Y234292D01*
X505754Y234307D01*
X505889Y234318D01*
X506023Y234325D01*
X506158Y234328D01*
X506293Y234327D01*
X506428Y234322D01*
X506562Y234313D01*
X506697Y234300D01*
X506831Y234283D01*
X506964Y234262D01*
X507096Y234238D01*
X507228Y234209D01*
X507359Y234177D01*
X507489Y234140D01*
X507618Y234100D01*
X507745Y234056D01*
X507871Y234008D01*
X507996Y233957D01*
X508119Y233902D01*
X508241Y233843D01*
X508360Y233781D01*
X508478Y233715D01*
X508594Y233646D01*
X508707Y233574D01*
X508819Y233498D01*
X508928Y233419D01*
X509035Y233337D01*
X509139Y233251D01*
X509241Y233163D01*
X509340Y233071D01*
X509437Y232977D01*
X509530Y232880D01*
X509621Y232780D01*
X509709Y232678D01*
X509793Y232573D01*
X509875Y232465D01*
X509953Y232355D01*
X510028Y232243D01*
X510100Y232129D01*
X510168Y232013D01*
X510233Y231894D01*
X510294Y231774D01*
X510352Y231652D01*
X510406Y231529D01*
X510457Y231404D01*
X510503Y231277D01*
X510546Y231150D01*
X510586Y231021D01*
X510621Y230890D01*
X510653Y230759D01*
X510680Y230627D01*
X510704Y230495D01*
X510724Y230361D01*
X510740Y230227D01*
X510752Y230093D01*
X510760Y229958D01*
X510764Y229823D01*
X510764Y229689D01*
X510760Y229554D01*
X510752Y229419D01*
X510740Y229285D01*
X510724Y229151D01*
X510704Y229017D01*
X510680Y228885D01*
X510653Y228753D01*
X510621Y228622D01*
X510586Y228491D01*
X510546Y228362D01*
X510503Y228235D01*
X510457Y228108D01*
X510406Y227983D01*
X510352Y227860D01*
X510294Y227738D01*
X510233Y227618D01*
X510168Y227499D01*
X510100Y227383D01*
X510028Y227269D01*
X509953Y227157D01*
X509875Y227047D01*
X509793Y226939D01*
X509709Y226834D01*
X509621Y226732D01*
X509530Y226632D01*
X509437Y226535D01*
X509340Y226441D01*
X509241Y226349D01*
X509139Y226261D01*
X509035Y226175D01*
X508928Y226093D01*
X508819Y226014D01*
X508707Y225938D01*
X508594Y225866D01*
X508478Y225797D01*
X508360Y225731D01*
X508241Y225669D01*
X508119Y225610D01*
X507996Y225555D01*
X507871Y225504D01*
X507745Y225456D01*
X507618Y225412D01*
X507489Y225372D01*
X507359Y225335D01*
X507228Y225303D01*
X507096Y225274D01*
X506964Y225250D01*
X506831Y225229D01*
X506697Y225212D01*
X506562Y225199D01*
X506428Y225190D01*
X506293Y225185D01*
X506158Y225184D01*
X506023Y225187D01*
X505889Y225194D01*
X505754Y225205D01*
X505620Y225220D01*
X505487Y225239D01*
X505354Y225261D01*
X505222Y225288D01*
X505090Y225319D01*
X504960Y225353D01*
X504831Y225391D01*
X504702Y225433D01*
X504576Y225479D01*
X504450Y225529D01*
X504326Y225582D01*
X504204Y225639D01*
X504083Y225699D01*
X503965Y225763D01*
X503848Y225831D01*
X503733Y225902D01*
X503620Y225976D01*
X503510Y226053D01*
X503402Y226134D01*
X503296Y226218D01*
X503193Y226305D01*
X503093Y226395D01*
X502995Y226488D01*
X502900Y226583D01*
X502808Y226682D01*
X502719Y226783D01*
X502633Y226887D01*
X502549Y226993D01*
X502470Y227101D01*
X502393Y227212D01*
X502319Y227326D01*
X502249Y227441D01*
X502183Y227558D01*
X502120Y227677D01*
X502060Y227798D01*
X502004Y227921D01*
X501952Y228045D01*
X501903Y228171D01*
X501859Y228298D01*
X501817Y228427D01*
X501780Y228556D01*
X501747Y228687D01*
X501717Y228819D01*
X501691Y228951D01*
X501670Y229084D01*
X501652Y229218D01*
X501638Y229352D01*
X501628Y229486D01*
X501622Y229621D01*
X501620Y229756D01*
D11*
X521019Y236250D03*
X521019Y229750D03*
X521019Y223250D03*
X521019Y216750D03*
X521019Y210250D03*
X521019Y203750D03*
X521019Y197250D03*
X521019Y190750D03*
X466981Y190750D03*
X466981Y197250D03*
X466981Y203750D03*
X466981Y210250D03*
X466981Y216750D03*
X466981Y223250D03*
X466981Y229750D03*
X466981Y236250D03*
X521019Y184250D03*
X521019Y177750D03*
X466981Y184250D03*
X466981Y177750D03*
X521019Y171250D03*
X521019Y164750D03*
X521019Y158250D03*
X521019Y151750D03*
X466981Y151750D03*
X466981Y158250D03*
X466981Y164750D03*
X466981Y171250D03*
D12*
X513294Y191663D02*
X513294Y198654D01*
X513294Y191663D02*
X511896Y190265D01*
X509100Y190265D01*
X507701Y191663D01*
X507701Y198654D01*
X503939Y195858D02*
X501143Y198654D01*
X501143Y190265D01*
X503939Y190265D02*
X498346Y190265D01*
D10*
X404840Y280030D02*
X404840Y307970D01*
X422620Y310510D02*
X422720Y310508D01*
X422819Y310502D01*
X422919Y310492D01*
X423017Y310479D01*
X423116Y310461D01*
X423213Y310440D01*
X423309Y310415D01*
X423405Y310386D01*
X423499Y310353D01*
X423592Y310317D01*
X423683Y310277D01*
X423773Y310233D01*
X423861Y310186D01*
X423947Y310136D01*
X424031Y310082D01*
X424113Y310025D01*
X424192Y309965D01*
X424270Y309901D01*
X424344Y309835D01*
X424416Y309766D01*
X424485Y309694D01*
X424551Y309620D01*
X424615Y309542D01*
X424675Y309463D01*
X424732Y309381D01*
X424786Y309297D01*
X424836Y309211D01*
X424883Y309123D01*
X424927Y309033D01*
X424967Y308942D01*
X425003Y308849D01*
X425036Y308755D01*
X425065Y308659D01*
X425090Y308563D01*
X425111Y308466D01*
X425129Y308367D01*
X425142Y308269D01*
X425152Y308169D01*
X425158Y308070D01*
X425160Y307970D01*
X425160Y280030D02*
X425158Y279930D01*
X425152Y279831D01*
X425142Y279731D01*
X425129Y279633D01*
X425111Y279534D01*
X425090Y279437D01*
X425065Y279341D01*
X425036Y279245D01*
X425003Y279151D01*
X424967Y279058D01*
X424927Y278967D01*
X424883Y278877D01*
X424836Y278789D01*
X424786Y278703D01*
X424732Y278619D01*
X424675Y278537D01*
X424615Y278458D01*
X424551Y278380D01*
X424485Y278306D01*
X424416Y278234D01*
X424344Y278165D01*
X424270Y278099D01*
X424192Y278035D01*
X424113Y277975D01*
X424031Y277918D01*
X423947Y277864D01*
X423861Y277814D01*
X423773Y277767D01*
X423683Y277723D01*
X423592Y277683D01*
X423499Y277647D01*
X423405Y277614D01*
X423309Y277585D01*
X423213Y277560D01*
X423116Y277539D01*
X423017Y277521D01*
X422919Y277508D01*
X422819Y277498D01*
X422720Y277492D01*
X422620Y277490D01*
X407380Y277490D02*
X407280Y277492D01*
X407181Y277498D01*
X407081Y277508D01*
X406983Y277521D01*
X406884Y277539D01*
X406787Y277560D01*
X406691Y277585D01*
X406595Y277614D01*
X406501Y277647D01*
X406408Y277683D01*
X406317Y277723D01*
X406227Y277767D01*
X406139Y277814D01*
X406053Y277864D01*
X405969Y277918D01*
X405887Y277975D01*
X405808Y278035D01*
X405730Y278099D01*
X405656Y278165D01*
X405584Y278234D01*
X405515Y278306D01*
X405449Y278380D01*
X405385Y278458D01*
X405325Y278537D01*
X405268Y278619D01*
X405214Y278703D01*
X405164Y278789D01*
X405117Y278877D01*
X405073Y278967D01*
X405033Y279058D01*
X404997Y279151D01*
X404964Y279245D01*
X404935Y279341D01*
X404910Y279437D01*
X404889Y279534D01*
X404871Y279633D01*
X404858Y279731D01*
X404848Y279831D01*
X404842Y279930D01*
X404840Y280030D01*
X404840Y307970D02*
X404842Y308070D01*
X404848Y308169D01*
X404858Y308269D01*
X404871Y308367D01*
X404889Y308466D01*
X404910Y308563D01*
X404935Y308659D01*
X404964Y308755D01*
X404997Y308849D01*
X405033Y308942D01*
X405073Y309033D01*
X405117Y309123D01*
X405164Y309211D01*
X405214Y309297D01*
X405268Y309381D01*
X405325Y309463D01*
X405385Y309542D01*
X405449Y309620D01*
X405515Y309694D01*
X405584Y309766D01*
X405656Y309835D01*
X405730Y309901D01*
X405808Y309965D01*
X405887Y310025D01*
X405969Y310082D01*
X406053Y310136D01*
X406139Y310186D01*
X406227Y310233D01*
X406317Y310277D01*
X406408Y310317D01*
X406501Y310353D01*
X406595Y310386D01*
X406691Y310415D01*
X406787Y310440D01*
X406884Y310461D01*
X406983Y310479D01*
X407081Y310492D01*
X407181Y310502D01*
X407280Y310508D01*
X407380Y310510D01*
X422620Y310510D01*
X422620Y277490D02*
X407380Y277490D01*
X425160Y280030D02*
X425160Y307970D01*
X415000Y309240D02*
X415000Y304160D01*
X415000Y283840D02*
X415000Y278760D01*
D13*
X408044Y290826D02*
X415000Y291459D01*
X415000Y291459D01*
X421956Y290826D01*
X421939Y290656D01*
X421917Y290486D01*
X421891Y290318D01*
X421861Y290149D01*
X421827Y289982D01*
X421789Y289815D01*
X421746Y289650D01*
X421700Y289485D01*
X421650Y289322D01*
X421596Y289160D01*
X421537Y288999D01*
X421475Y288840D01*
X421409Y288683D01*
X421339Y288527D01*
X421266Y288373D01*
X421188Y288220D01*
X421107Y288070D01*
X421022Y287922D01*
X420934Y287775D01*
X420842Y287631D01*
X420747Y287490D01*
X420648Y287350D01*
X420546Y287213D01*
X420440Y287079D01*
X420331Y286947D01*
X420219Y286818D01*
X420104Y286692D01*
X419986Y286568D01*
X419865Y286448D01*
X419741Y286330D01*
X419614Y286216D01*
X419485Y286105D01*
X419352Y285997D01*
X419217Y285892D01*
X419080Y285790D01*
X418940Y285692D01*
X418798Y285598D01*
X418653Y285506D01*
X418506Y285419D01*
X418358Y285335D01*
X418207Y285255D01*
X418054Y285178D01*
X417900Y285105D01*
X417743Y285036D01*
X417585Y284971D01*
X417426Y284910D01*
X417265Y284852D01*
X417103Y284799D01*
X416939Y284750D01*
X416774Y284704D01*
X416609Y284663D01*
X416442Y284625D01*
X416274Y284592D01*
X416106Y284563D01*
X415937Y284538D01*
X415767Y284517D01*
X415597Y284501D01*
X415427Y284488D01*
X415256Y284480D01*
X415085Y284476D01*
X414915Y284476D01*
X414744Y284480D01*
X414573Y284488D01*
X414403Y284501D01*
X414233Y284517D01*
X414063Y284538D01*
X413894Y284563D01*
X413726Y284592D01*
X413558Y284625D01*
X413391Y284663D01*
X413226Y284704D01*
X413061Y284750D01*
X412897Y284799D01*
X412735Y284852D01*
X412574Y284910D01*
X412415Y284971D01*
X412257Y285036D01*
X412100Y285105D01*
X411946Y285178D01*
X411793Y285255D01*
X411642Y285335D01*
X411494Y285419D01*
X411347Y285506D01*
X411202Y285598D01*
X411060Y285692D01*
X410920Y285790D01*
X410783Y285892D01*
X410648Y285997D01*
X410515Y286105D01*
X410386Y286216D01*
X410259Y286330D01*
X410135Y286448D01*
X410014Y286568D01*
X409896Y286692D01*
X409781Y286818D01*
X409669Y286947D01*
X409560Y287079D01*
X409454Y287213D01*
X409352Y287350D01*
X409253Y287490D01*
X409158Y287631D01*
X409066Y287775D01*
X408978Y287922D01*
X408893Y288070D01*
X408812Y288220D01*
X408734Y288373D01*
X408661Y288527D01*
X408591Y288683D01*
X408525Y288840D01*
X408463Y288999D01*
X408404Y289160D01*
X408350Y289322D01*
X408300Y289485D01*
X408254Y289650D01*
X408211Y289815D01*
X408173Y289982D01*
X408139Y290149D01*
X408109Y290318D01*
X408083Y290486D01*
X408061Y290656D01*
X408044Y290826D01*
X409256Y290826D01*
X409274Y290677D01*
X409297Y290528D01*
X409323Y290379D01*
X409353Y290231D01*
X409387Y290085D01*
X409425Y289939D01*
X409466Y289794D01*
X409512Y289650D01*
X409561Y289507D01*
X409614Y289366D01*
X409670Y289226D01*
X409730Y289088D01*
X409794Y288951D01*
X409861Y288816D01*
X409932Y288683D01*
X410006Y288552D01*
X410083Y288423D01*
X410164Y288296D01*
X410249Y288171D01*
X410336Y288048D01*
X410427Y287927D01*
X410520Y287809D01*
X410617Y287693D01*
X410717Y287580D01*
X410819Y287470D01*
X410925Y287362D01*
X411033Y287257D01*
X411144Y287155D01*
X411258Y287056D01*
X411374Y286960D01*
X411493Y286867D01*
X411614Y286777D01*
X411737Y286690D01*
X411862Y286607D01*
X411990Y286527D01*
X412120Y286450D01*
X412251Y286376D01*
X412385Y286307D01*
X412520Y286240D01*
X412657Y286177D01*
X412796Y286118D01*
X412936Y286062D01*
X413077Y286010D01*
X413220Y285962D01*
X413364Y285917D01*
X413509Y285877D01*
X413656Y285840D01*
X413803Y285806D01*
X413951Y285777D01*
X414099Y285752D01*
X414248Y285730D01*
X414398Y285712D01*
X414548Y285699D01*
X414699Y285689D01*
X414849Y285683D01*
X415000Y285681D01*
X415151Y285683D01*
X415301Y285689D01*
X415452Y285699D01*
X415602Y285712D01*
X415752Y285730D01*
X415901Y285752D01*
X416049Y285777D01*
X416197Y285806D01*
X416344Y285840D01*
X416491Y285877D01*
X416636Y285917D01*
X416780Y285962D01*
X416923Y286010D01*
X417064Y286062D01*
X417204Y286118D01*
X417343Y286177D01*
X417480Y286240D01*
X417615Y286307D01*
X417749Y286376D01*
X417880Y286450D01*
X418010Y286527D01*
X418138Y286607D01*
X418263Y286690D01*
X418386Y286777D01*
X418507Y286867D01*
X418626Y286960D01*
X418742Y287056D01*
X418856Y287155D01*
X418967Y287257D01*
X419075Y287362D01*
X419181Y287470D01*
X419283Y287580D01*
X419383Y287693D01*
X419480Y287809D01*
X419573Y287927D01*
X419664Y288048D01*
X419751Y288171D01*
X419836Y288296D01*
X419917Y288423D01*
X419994Y288552D01*
X420068Y288683D01*
X420139Y288816D01*
X420206Y288951D01*
X420270Y289088D01*
X420330Y289226D01*
X420386Y289366D01*
X420439Y289507D01*
X420488Y289650D01*
X420534Y289794D01*
X420575Y289939D01*
X420613Y290085D01*
X420647Y290231D01*
X420677Y290379D01*
X420703Y290528D01*
X420726Y290677D01*
X420744Y290826D01*
X419529Y290827D01*
X419509Y290695D01*
X419484Y290564D01*
X419456Y290433D01*
X419424Y290303D01*
X419389Y290174D01*
X419349Y290047D01*
X419306Y289920D01*
X419259Y289795D01*
X419209Y289671D01*
X419155Y289549D01*
X419097Y289429D01*
X419036Y289310D01*
X418971Y289193D01*
X418903Y289078D01*
X418832Y288965D01*
X418758Y288854D01*
X418680Y288745D01*
X418599Y288639D01*
X418515Y288535D01*
X418428Y288433D01*
X418338Y288334D01*
X418245Y288238D01*
X418150Y288145D01*
X418052Y288054D01*
X417951Y287966D01*
X417847Y287882D01*
X417742Y287800D01*
X417634Y287721D01*
X417523Y287646D01*
X417411Y287574D01*
X417296Y287505D01*
X417180Y287440D01*
X417061Y287378D01*
X416941Y287319D01*
X416819Y287264D01*
X416696Y287213D01*
X416571Y287165D01*
X416445Y287121D01*
X416317Y287081D01*
X416189Y287044D01*
X416059Y287011D01*
X415929Y286982D01*
X415798Y286957D01*
X415666Y286936D01*
X415533Y286918D01*
X415400Y286905D01*
X415267Y286895D01*
X415134Y286889D01*
X415000Y286887D01*
X414866Y286889D01*
X414733Y286895D01*
X414600Y286905D01*
X414467Y286918D01*
X414334Y286936D01*
X414202Y286957D01*
X414071Y286982D01*
X413941Y287011D01*
X413811Y287044D01*
X413683Y287081D01*
X413555Y287121D01*
X413429Y287165D01*
X413304Y287213D01*
X413181Y287264D01*
X413059Y287319D01*
X412939Y287378D01*
X412820Y287440D01*
X412704Y287505D01*
X412589Y287574D01*
X412477Y287646D01*
X412366Y287721D01*
X412258Y287800D01*
X412153Y287882D01*
X412049Y287966D01*
X411948Y288054D01*
X411850Y288145D01*
X411755Y288238D01*
X411662Y288334D01*
X411572Y288433D01*
X411485Y288535D01*
X411401Y288639D01*
X411320Y288745D01*
X411242Y288854D01*
X411168Y288965D01*
X411097Y289078D01*
X411029Y289193D01*
X410964Y289310D01*
X410903Y289429D01*
X410845Y289549D01*
X410791Y289671D01*
X410741Y289795D01*
X410694Y289920D01*
X410651Y290047D01*
X410611Y290174D01*
X410576Y290303D01*
X410544Y290433D01*
X410516Y290564D01*
X410491Y290695D01*
X410471Y290827D01*
X411693Y290829D01*
X411716Y290716D01*
X411743Y290605D01*
X411775Y290494D01*
X411809Y290385D01*
X411848Y290276D01*
X411890Y290169D01*
X411936Y290064D01*
X411985Y289960D01*
X412038Y289858D01*
X412095Y289758D01*
X412154Y289660D01*
X412218Y289564D01*
X412284Y289470D01*
X412353Y289379D01*
X412426Y289290D01*
X412501Y289203D01*
X412580Y289119D01*
X412661Y289038D01*
X412745Y288959D01*
X412832Y288884D01*
X412921Y288811D01*
X413013Y288742D01*
X413107Y288676D01*
X413203Y288613D01*
X413301Y288553D01*
X413401Y288497D01*
X413503Y288444D01*
X413607Y288395D01*
X413712Y288349D01*
X413819Y288307D01*
X413927Y288268D01*
X414037Y288234D01*
X414148Y288203D01*
X414259Y288176D01*
X414372Y288152D01*
X414485Y288133D01*
X414599Y288117D01*
X414713Y288105D01*
X414828Y288097D01*
X414943Y288093D01*
X415057Y288093D01*
X415172Y288097D01*
X415287Y288105D01*
X415401Y288117D01*
X415515Y288133D01*
X415628Y288152D01*
X415741Y288176D01*
X415852Y288203D01*
X415963Y288234D01*
X416073Y288268D01*
X416181Y288307D01*
X416288Y288349D01*
X416393Y288395D01*
X416497Y288444D01*
X416599Y288497D01*
X416699Y288553D01*
X416797Y288613D01*
X416893Y288676D01*
X416987Y288742D01*
X417079Y288811D01*
X417168Y288884D01*
X417255Y288959D01*
X417339Y289038D01*
X417420Y289119D01*
X417499Y289203D01*
X417574Y289290D01*
X417647Y289379D01*
X417716Y289470D01*
X417782Y289564D01*
X417846Y289660D01*
X417905Y289758D01*
X417962Y289858D01*
X418015Y289960D01*
X418064Y290064D01*
X418110Y290169D01*
X418152Y290276D01*
X418191Y290385D01*
X418225Y290494D01*
X418257Y290605D01*
X418284Y290716D01*
X418307Y290829D01*
X417068Y290834D01*
X417040Y290747D01*
X417008Y290660D01*
X416972Y290576D01*
X416932Y290493D01*
X416890Y290411D01*
X416843Y290332D01*
X416793Y290254D01*
X416741Y290179D01*
X416684Y290106D01*
X416625Y290036D01*
X416563Y289968D01*
X416498Y289903D01*
X416431Y289840D01*
X416361Y289781D01*
X416288Y289725D01*
X416213Y289671D01*
X416136Y289621D01*
X416056Y289575D01*
X415975Y289532D01*
X415892Y289492D01*
X415808Y289456D01*
X415722Y289423D01*
X415634Y289394D01*
X415546Y289369D01*
X415456Y289348D01*
X415366Y289330D01*
X415275Y289317D01*
X415184Y289307D01*
X415092Y289301D01*
X415000Y289299D01*
X414908Y289301D01*
X414816Y289307D01*
X414725Y289317D01*
X414634Y289330D01*
X414544Y289348D01*
X414454Y289369D01*
X414366Y289394D01*
X414278Y289423D01*
X414192Y289456D01*
X414108Y289492D01*
X414025Y289532D01*
X413944Y289575D01*
X413864Y289621D01*
X413787Y289671D01*
X413712Y289725D01*
X413639Y289781D01*
X413569Y289840D01*
X413502Y289903D01*
X413437Y289968D01*
X413375Y290036D01*
X413316Y290106D01*
X413259Y290179D01*
X413207Y290254D01*
X413157Y290332D01*
X413110Y290411D01*
X413068Y290493D01*
X413028Y290576D01*
X412992Y290660D01*
X412960Y290747D01*
X412932Y290834D01*
X414248Y290871D01*
X414287Y290825D01*
X414328Y290782D01*
X414371Y290741D01*
X414418Y290703D01*
X414466Y290668D01*
X414516Y290637D01*
X414569Y290608D01*
X414623Y290583D01*
X414678Y290561D01*
X414735Y290542D01*
X414793Y290528D01*
X414851Y290517D01*
X414911Y290509D01*
X414970Y290505D01*
X415030Y290505D01*
X415089Y290509D01*
X415149Y290517D01*
X415207Y290528D01*
X415265Y290542D01*
X415322Y290561D01*
X415377Y290583D01*
X415431Y290608D01*
X415484Y290637D01*
X415534Y290668D01*
X415582Y290703D01*
X415629Y290741D01*
X415672Y290782D01*
X415713Y290825D01*
X415752Y290871D01*
X421956Y297174D02*
X415000Y296541D01*
X415000Y296541D01*
X408044Y297174D01*
X408061Y297344D01*
X408083Y297514D01*
X408109Y297682D01*
X408139Y297851D01*
X408173Y298018D01*
X408211Y298185D01*
X408254Y298350D01*
X408300Y298515D01*
X408350Y298678D01*
X408404Y298840D01*
X408463Y299001D01*
X408525Y299160D01*
X408591Y299317D01*
X408661Y299473D01*
X408734Y299627D01*
X408812Y299780D01*
X408893Y299930D01*
X408978Y300078D01*
X409066Y300225D01*
X409158Y300369D01*
X409253Y300510D01*
X409352Y300650D01*
X409454Y300787D01*
X409560Y300921D01*
X409669Y301053D01*
X409781Y301182D01*
X409896Y301308D01*
X410014Y301432D01*
X410135Y301552D01*
X410259Y301670D01*
X410386Y301784D01*
X410515Y301895D01*
X410648Y302003D01*
X410783Y302108D01*
X410920Y302210D01*
X411060Y302308D01*
X411202Y302402D01*
X411347Y302494D01*
X411494Y302581D01*
X411642Y302665D01*
X411793Y302745D01*
X411946Y302822D01*
X412100Y302895D01*
X412257Y302964D01*
X412415Y303029D01*
X412574Y303090D01*
X412735Y303148D01*
X412897Y303201D01*
X413061Y303250D01*
X413226Y303296D01*
X413391Y303337D01*
X413558Y303375D01*
X413726Y303408D01*
X413894Y303437D01*
X414063Y303462D01*
X414233Y303483D01*
X414403Y303499D01*
X414573Y303512D01*
X414744Y303520D01*
X414915Y303524D01*
X415085Y303524D01*
X415256Y303520D01*
X415427Y303512D01*
X415597Y303499D01*
X415767Y303483D01*
X415937Y303462D01*
X416106Y303437D01*
X416274Y303408D01*
X416442Y303375D01*
X416609Y303337D01*
X416774Y303296D01*
X416939Y303250D01*
X417103Y303201D01*
X417265Y303148D01*
X417426Y303090D01*
X417585Y303029D01*
X417743Y302964D01*
X417900Y302895D01*
X418054Y302822D01*
X418207Y302745D01*
X418358Y302665D01*
X418506Y302581D01*
X418653Y302494D01*
X418798Y302402D01*
X418940Y302308D01*
X419080Y302210D01*
X419217Y302108D01*
X419352Y302003D01*
X419485Y301895D01*
X419614Y301784D01*
X419741Y301670D01*
X419865Y301552D01*
X419986Y301432D01*
X420104Y301308D01*
X420219Y301182D01*
X420331Y301053D01*
X420440Y300921D01*
X420546Y300787D01*
X420648Y300650D01*
X420747Y300510D01*
X420842Y300369D01*
X420934Y300225D01*
X421022Y300078D01*
X421107Y299930D01*
X421188Y299780D01*
X421266Y299627D01*
X421339Y299473D01*
X421409Y299317D01*
X421475Y299160D01*
X421537Y299001D01*
X421596Y298840D01*
X421650Y298678D01*
X421700Y298515D01*
X421746Y298350D01*
X421789Y298185D01*
X421827Y298018D01*
X421861Y297851D01*
X421891Y297682D01*
X421917Y297514D01*
X421939Y297344D01*
X421956Y297174D01*
X420744Y297174D01*
X420726Y297323D01*
X420703Y297472D01*
X420677Y297621D01*
X420647Y297769D01*
X420613Y297915D01*
X420575Y298061D01*
X420534Y298206D01*
X420488Y298350D01*
X420439Y298493D01*
X420386Y298634D01*
X420330Y298774D01*
X420270Y298912D01*
X420206Y299049D01*
X420139Y299184D01*
X420068Y299317D01*
X419994Y299448D01*
X419917Y299577D01*
X419836Y299704D01*
X419751Y299829D01*
X419664Y299952D01*
X419573Y300073D01*
X419480Y300191D01*
X419383Y300307D01*
X419283Y300420D01*
X419181Y300530D01*
X419075Y300638D01*
X418967Y300743D01*
X418856Y300845D01*
X418742Y300944D01*
X418626Y301040D01*
X418507Y301133D01*
X418386Y301223D01*
X418263Y301310D01*
X418138Y301393D01*
X418010Y301473D01*
X417880Y301550D01*
X417749Y301624D01*
X417615Y301693D01*
X417480Y301760D01*
X417343Y301823D01*
X417204Y301882D01*
X417064Y301938D01*
X416923Y301990D01*
X416780Y302038D01*
X416636Y302083D01*
X416491Y302123D01*
X416344Y302160D01*
X416197Y302194D01*
X416049Y302223D01*
X415901Y302248D01*
X415752Y302270D01*
X415602Y302288D01*
X415452Y302301D01*
X415301Y302311D01*
X415151Y302317D01*
X415000Y302319D01*
X414849Y302317D01*
X414699Y302311D01*
X414548Y302301D01*
X414398Y302288D01*
X414248Y302270D01*
X414099Y302248D01*
X413951Y302223D01*
X413803Y302194D01*
X413656Y302160D01*
X413509Y302123D01*
X413364Y302083D01*
X413220Y302038D01*
X413077Y301990D01*
X412936Y301938D01*
X412796Y301882D01*
X412657Y301823D01*
X412520Y301760D01*
X412385Y301693D01*
X412251Y301624D01*
X412120Y301550D01*
X411990Y301473D01*
X411862Y301393D01*
X411737Y301310D01*
X411614Y301223D01*
X411493Y301133D01*
X411374Y301040D01*
X411258Y300944D01*
X411144Y300845D01*
X411033Y300743D01*
X410925Y300638D01*
X410819Y300530D01*
X410717Y300420D01*
X410617Y300307D01*
X410520Y300191D01*
X410427Y300073D01*
X410336Y299952D01*
X410249Y299829D01*
X410164Y299704D01*
X410083Y299577D01*
X410006Y299448D01*
X409932Y299317D01*
X409861Y299184D01*
X409794Y299049D01*
X409730Y298912D01*
X409670Y298774D01*
X409614Y298634D01*
X409561Y298493D01*
X409512Y298350D01*
X409466Y298206D01*
X409425Y298061D01*
X409387Y297915D01*
X409353Y297769D01*
X409323Y297621D01*
X409297Y297472D01*
X409274Y297323D01*
X409256Y297174D01*
X410471Y297173D01*
X410491Y297305D01*
X410516Y297436D01*
X410544Y297567D01*
X410576Y297697D01*
X410611Y297826D01*
X410651Y297953D01*
X410694Y298080D01*
X410741Y298205D01*
X410791Y298329D01*
X410845Y298451D01*
X410903Y298571D01*
X410964Y298690D01*
X411029Y298807D01*
X411097Y298922D01*
X411168Y299035D01*
X411242Y299146D01*
X411320Y299255D01*
X411401Y299361D01*
X411485Y299465D01*
X411572Y299567D01*
X411662Y299666D01*
X411755Y299762D01*
X411850Y299855D01*
X411948Y299946D01*
X412049Y300034D01*
X412153Y300118D01*
X412258Y300200D01*
X412366Y300279D01*
X412477Y300354D01*
X412589Y300426D01*
X412704Y300495D01*
X412820Y300560D01*
X412939Y300622D01*
X413059Y300681D01*
X413181Y300736D01*
X413304Y300787D01*
X413429Y300835D01*
X413555Y300879D01*
X413683Y300919D01*
X413811Y300956D01*
X413941Y300989D01*
X414071Y301018D01*
X414202Y301043D01*
X414334Y301064D01*
X414467Y301082D01*
X414600Y301095D01*
X414733Y301105D01*
X414866Y301111D01*
X415000Y301113D01*
X415134Y301111D01*
X415267Y301105D01*
X415400Y301095D01*
X415533Y301082D01*
X415666Y301064D01*
X415798Y301043D01*
X415929Y301018D01*
X416059Y300989D01*
X416189Y300956D01*
X416317Y300919D01*
X416445Y300879D01*
X416571Y300835D01*
X416696Y300787D01*
X416819Y300736D01*
X416941Y300681D01*
X417061Y300622D01*
X417180Y300560D01*
X417296Y300495D01*
X417411Y300426D01*
X417523Y300354D01*
X417634Y300279D01*
X417742Y300200D01*
X417847Y300118D01*
X417951Y300034D01*
X418052Y299946D01*
X418150Y299855D01*
X418245Y299762D01*
X418338Y299666D01*
X418428Y299567D01*
X418515Y299465D01*
X418599Y299361D01*
X418680Y299255D01*
X418758Y299146D01*
X418832Y299035D01*
X418903Y298922D01*
X418971Y298807D01*
X419036Y298690D01*
X419097Y298571D01*
X419155Y298451D01*
X419209Y298329D01*
X419259Y298205D01*
X419306Y298080D01*
X419349Y297953D01*
X419389Y297826D01*
X419424Y297697D01*
X419456Y297567D01*
X419484Y297436D01*
X419509Y297305D01*
X419529Y297173D01*
X418307Y297171D01*
X418284Y297284D01*
X418257Y297395D01*
X418225Y297506D01*
X418191Y297615D01*
X418152Y297724D01*
X418110Y297831D01*
X418064Y297936D01*
X418015Y298040D01*
X417962Y298142D01*
X417905Y298242D01*
X417846Y298340D01*
X417782Y298436D01*
X417716Y298530D01*
X417647Y298621D01*
X417574Y298710D01*
X417499Y298797D01*
X417420Y298881D01*
X417339Y298962D01*
X417255Y299041D01*
X417168Y299116D01*
X417079Y299189D01*
X416987Y299258D01*
X416893Y299324D01*
X416797Y299387D01*
X416699Y299447D01*
X416599Y299503D01*
X416497Y299556D01*
X416393Y299605D01*
X416288Y299651D01*
X416181Y299693D01*
X416073Y299732D01*
X415963Y299766D01*
X415852Y299797D01*
X415741Y299824D01*
X415628Y299848D01*
X415515Y299867D01*
X415401Y299883D01*
X415287Y299895D01*
X415172Y299903D01*
X415057Y299907D01*
X414943Y299907D01*
X414828Y299903D01*
X414713Y299895D01*
X414599Y299883D01*
X414485Y299867D01*
X414372Y299848D01*
X414259Y299824D01*
X414148Y299797D01*
X414037Y299766D01*
X413927Y299732D01*
X413819Y299693D01*
X413712Y299651D01*
X413607Y299605D01*
X413503Y299556D01*
X413401Y299503D01*
X413301Y299447D01*
X413203Y299387D01*
X413107Y299324D01*
X413013Y299258D01*
X412921Y299189D01*
X412832Y299116D01*
X412745Y299041D01*
X412661Y298962D01*
X412580Y298881D01*
X412501Y298797D01*
X412426Y298710D01*
X412353Y298621D01*
X412284Y298530D01*
X412218Y298436D01*
X412154Y298340D01*
X412095Y298242D01*
X412038Y298142D01*
X411985Y298040D01*
X411936Y297936D01*
X411890Y297831D01*
X411848Y297724D01*
X411809Y297615D01*
X411775Y297506D01*
X411743Y297395D01*
X411716Y297284D01*
X411693Y297171D01*
X412932Y297166D01*
X412960Y297253D01*
X412992Y297340D01*
X413028Y297424D01*
X413068Y297507D01*
X413110Y297589D01*
X413157Y297668D01*
X413207Y297746D01*
X413259Y297821D01*
X413316Y297894D01*
X413375Y297964D01*
X413437Y298032D01*
X413502Y298097D01*
X413569Y298160D01*
X413639Y298219D01*
X413712Y298275D01*
X413787Y298329D01*
X413864Y298379D01*
X413944Y298425D01*
X414025Y298468D01*
X414108Y298508D01*
X414192Y298544D01*
X414278Y298577D01*
X414366Y298606D01*
X414454Y298631D01*
X414544Y298652D01*
X414634Y298670D01*
X414725Y298683D01*
X414816Y298693D01*
X414908Y298699D01*
X415000Y298701D01*
X415092Y298699D01*
X415184Y298693D01*
X415275Y298683D01*
X415366Y298670D01*
X415456Y298652D01*
X415546Y298631D01*
X415634Y298606D01*
X415722Y298577D01*
X415808Y298544D01*
X415892Y298508D01*
X415975Y298468D01*
X416056Y298425D01*
X416136Y298379D01*
X416213Y298329D01*
X416288Y298275D01*
X416361Y298219D01*
X416431Y298160D01*
X416498Y298097D01*
X416563Y298032D01*
X416625Y297964D01*
X416684Y297894D01*
X416741Y297821D01*
X416793Y297746D01*
X416843Y297668D01*
X416890Y297589D01*
X416932Y297507D01*
X416972Y297424D01*
X417008Y297340D01*
X417040Y297253D01*
X417068Y297166D01*
X415752Y297129D01*
X415713Y297175D01*
X415672Y297218D01*
X415629Y297259D01*
X415582Y297297D01*
X415534Y297332D01*
X415484Y297363D01*
X415431Y297392D01*
X415377Y297417D01*
X415322Y297439D01*
X415265Y297458D01*
X415207Y297472D01*
X415149Y297483D01*
X415089Y297491D01*
X415030Y297495D01*
X414970Y297495D01*
X414911Y297491D01*
X414851Y297483D01*
X414793Y297472D01*
X414735Y297458D01*
X414678Y297439D01*
X414623Y297417D01*
X414569Y297392D01*
X414516Y297363D01*
X414466Y297332D01*
X414418Y297297D01*
X414371Y297259D01*
X414328Y297218D01*
X414287Y297175D01*
X414248Y297129D01*
D12*
X435500Y276584D02*
X436898Y275186D01*
X436898Y272389D01*
X435500Y270991D01*
X434102Y270991D01*
X432704Y272389D01*
X432704Y275186D01*
X431305Y276584D01*
X429907Y276584D01*
X428509Y275186D01*
X428509Y272389D01*
X429907Y270991D01*
X429907Y280346D02*
X428509Y281744D01*
X428509Y283143D01*
X429907Y284541D01*
X436898Y284541D01*
X436898Y283143D02*
X436898Y285939D01*
X427111Y289701D02*
X427111Y295294D01*
X428509Y299057D02*
X434102Y299057D01*
X436898Y301853D01*
X434102Y304649D01*
X428509Y304649D01*
X432704Y304649D02*
X432704Y299057D01*
X435500Y308412D02*
X429907Y308412D01*
X435500Y308412D02*
X436898Y309810D01*
X436898Y312606D01*
X435500Y314005D01*
X429907Y314005D01*
X428509Y312606D01*
X428509Y309810D01*
X429907Y308412D01*
X435500Y314005D01*
D10*
X439840Y307970D02*
X439840Y280030D01*
X460160Y307970D02*
X460158Y308070D01*
X460152Y308169D01*
X460142Y308269D01*
X460129Y308367D01*
X460111Y308466D01*
X460090Y308563D01*
X460065Y308659D01*
X460036Y308755D01*
X460003Y308849D01*
X459967Y308942D01*
X459927Y309033D01*
X459883Y309123D01*
X459836Y309211D01*
X459786Y309297D01*
X459732Y309381D01*
X459675Y309463D01*
X459615Y309542D01*
X459551Y309620D01*
X459485Y309694D01*
X459416Y309766D01*
X459344Y309835D01*
X459270Y309901D01*
X459192Y309965D01*
X459113Y310025D01*
X459031Y310082D01*
X458947Y310136D01*
X458861Y310186D01*
X458773Y310233D01*
X458683Y310277D01*
X458592Y310317D01*
X458499Y310353D01*
X458405Y310386D01*
X458309Y310415D01*
X458213Y310440D01*
X458116Y310461D01*
X458017Y310479D01*
X457919Y310492D01*
X457819Y310502D01*
X457720Y310508D01*
X457620Y310510D01*
X460160Y280030D02*
X460158Y279930D01*
X460152Y279831D01*
X460142Y279731D01*
X460129Y279633D01*
X460111Y279534D01*
X460090Y279437D01*
X460065Y279341D01*
X460036Y279245D01*
X460003Y279151D01*
X459967Y279058D01*
X459927Y278967D01*
X459883Y278877D01*
X459836Y278789D01*
X459786Y278703D01*
X459732Y278619D01*
X459675Y278537D01*
X459615Y278458D01*
X459551Y278380D01*
X459485Y278306D01*
X459416Y278234D01*
X459344Y278165D01*
X459270Y278099D01*
X459192Y278035D01*
X459113Y277975D01*
X459031Y277918D01*
X458947Y277864D01*
X458861Y277814D01*
X458773Y277767D01*
X458683Y277723D01*
X458592Y277683D01*
X458499Y277647D01*
X458405Y277614D01*
X458309Y277585D01*
X458213Y277560D01*
X458116Y277539D01*
X458017Y277521D01*
X457919Y277508D01*
X457819Y277498D01*
X457720Y277492D01*
X457620Y277490D01*
X442380Y277490D02*
X442280Y277492D01*
X442181Y277498D01*
X442081Y277508D01*
X441983Y277521D01*
X441884Y277539D01*
X441787Y277560D01*
X441691Y277585D01*
X441595Y277614D01*
X441501Y277647D01*
X441408Y277683D01*
X441317Y277723D01*
X441227Y277767D01*
X441139Y277814D01*
X441053Y277864D01*
X440969Y277918D01*
X440887Y277975D01*
X440808Y278035D01*
X440730Y278099D01*
X440656Y278165D01*
X440584Y278234D01*
X440515Y278306D01*
X440449Y278380D01*
X440385Y278458D01*
X440325Y278537D01*
X440268Y278619D01*
X440214Y278703D01*
X440164Y278789D01*
X440117Y278877D01*
X440073Y278967D01*
X440033Y279058D01*
X439997Y279151D01*
X439964Y279245D01*
X439935Y279341D01*
X439910Y279437D01*
X439889Y279534D01*
X439871Y279633D01*
X439858Y279731D01*
X439848Y279831D01*
X439842Y279930D01*
X439840Y280030D01*
X439840Y307970D02*
X439842Y308070D01*
X439848Y308169D01*
X439858Y308269D01*
X439871Y308367D01*
X439889Y308466D01*
X439910Y308563D01*
X439935Y308659D01*
X439964Y308755D01*
X439997Y308849D01*
X440033Y308942D01*
X440073Y309033D01*
X440117Y309123D01*
X440164Y309211D01*
X440214Y309297D01*
X440268Y309381D01*
X440325Y309463D01*
X440385Y309542D01*
X440449Y309620D01*
X440515Y309694D01*
X440584Y309766D01*
X440656Y309835D01*
X440730Y309901D01*
X440808Y309965D01*
X440887Y310025D01*
X440969Y310082D01*
X441053Y310136D01*
X441139Y310186D01*
X441227Y310233D01*
X441317Y310277D01*
X441408Y310317D01*
X441501Y310353D01*
X441595Y310386D01*
X441691Y310415D01*
X441787Y310440D01*
X441884Y310461D01*
X441983Y310479D01*
X442081Y310492D01*
X442181Y310502D01*
X442280Y310508D01*
X442380Y310510D01*
X457620Y310510D01*
X457620Y277490D02*
X442380Y277490D01*
X460160Y280030D02*
X460160Y307970D01*
X450000Y309240D02*
X450000Y304160D01*
X450000Y283840D02*
X450000Y278760D01*
D13*
X443044Y290826D02*
X450000Y291459D01*
X450000Y291459D01*
X456956Y290826D01*
X456939Y290656D01*
X456917Y290486D01*
X456891Y290318D01*
X456861Y290149D01*
X456827Y289982D01*
X456789Y289815D01*
X456746Y289650D01*
X456700Y289485D01*
X456650Y289322D01*
X456596Y289160D01*
X456537Y288999D01*
X456475Y288840D01*
X456409Y288683D01*
X456339Y288527D01*
X456266Y288373D01*
X456188Y288220D01*
X456107Y288070D01*
X456022Y287922D01*
X455934Y287775D01*
X455842Y287631D01*
X455747Y287490D01*
X455648Y287350D01*
X455546Y287213D01*
X455440Y287079D01*
X455331Y286947D01*
X455219Y286818D01*
X455104Y286692D01*
X454986Y286568D01*
X454865Y286448D01*
X454741Y286330D01*
X454614Y286216D01*
X454485Y286105D01*
X454352Y285997D01*
X454217Y285892D01*
X454080Y285790D01*
X453940Y285692D01*
X453798Y285598D01*
X453653Y285506D01*
X453506Y285419D01*
X453358Y285335D01*
X453207Y285255D01*
X453054Y285178D01*
X452900Y285105D01*
X452743Y285036D01*
X452585Y284971D01*
X452426Y284910D01*
X452265Y284852D01*
X452103Y284799D01*
X451939Y284750D01*
X451774Y284704D01*
X451609Y284663D01*
X451442Y284625D01*
X451274Y284592D01*
X451106Y284563D01*
X450937Y284538D01*
X450767Y284517D01*
X450597Y284501D01*
X450427Y284488D01*
X450256Y284480D01*
X450085Y284476D01*
X449915Y284476D01*
X449744Y284480D01*
X449573Y284488D01*
X449403Y284501D01*
X449233Y284517D01*
X449063Y284538D01*
X448894Y284563D01*
X448726Y284592D01*
X448558Y284625D01*
X448391Y284663D01*
X448226Y284704D01*
X448061Y284750D01*
X447897Y284799D01*
X447735Y284852D01*
X447574Y284910D01*
X447415Y284971D01*
X447257Y285036D01*
X447100Y285105D01*
X446946Y285178D01*
X446793Y285255D01*
X446642Y285335D01*
X446494Y285419D01*
X446347Y285506D01*
X446202Y285598D01*
X446060Y285692D01*
X445920Y285790D01*
X445783Y285892D01*
X445648Y285997D01*
X445515Y286105D01*
X445386Y286216D01*
X445259Y286330D01*
X445135Y286448D01*
X445014Y286568D01*
X444896Y286692D01*
X444781Y286818D01*
X444669Y286947D01*
X444560Y287079D01*
X444454Y287213D01*
X444352Y287350D01*
X444253Y287490D01*
X444158Y287631D01*
X444066Y287775D01*
X443978Y287922D01*
X443893Y288070D01*
X443812Y288220D01*
X443734Y288373D01*
X443661Y288527D01*
X443591Y288683D01*
X443525Y288840D01*
X443463Y288999D01*
X443404Y289160D01*
X443350Y289322D01*
X443300Y289485D01*
X443254Y289650D01*
X443211Y289815D01*
X443173Y289982D01*
X443139Y290149D01*
X443109Y290318D01*
X443083Y290486D01*
X443061Y290656D01*
X443044Y290826D01*
X444256Y290826D01*
X444274Y290677D01*
X444297Y290528D01*
X444323Y290379D01*
X444353Y290231D01*
X444387Y290085D01*
X444425Y289939D01*
X444466Y289794D01*
X444512Y289650D01*
X444561Y289507D01*
X444614Y289366D01*
X444670Y289226D01*
X444730Y289088D01*
X444794Y288951D01*
X444861Y288816D01*
X444932Y288683D01*
X445006Y288552D01*
X445083Y288423D01*
X445164Y288296D01*
X445249Y288171D01*
X445336Y288048D01*
X445427Y287927D01*
X445520Y287809D01*
X445617Y287693D01*
X445717Y287580D01*
X445819Y287470D01*
X445925Y287362D01*
X446033Y287257D01*
X446144Y287155D01*
X446258Y287056D01*
X446374Y286960D01*
X446493Y286867D01*
X446614Y286777D01*
X446737Y286690D01*
X446862Y286607D01*
X446990Y286527D01*
X447120Y286450D01*
X447251Y286376D01*
X447385Y286307D01*
X447520Y286240D01*
X447657Y286177D01*
X447796Y286118D01*
X447936Y286062D01*
X448077Y286010D01*
X448220Y285962D01*
X448364Y285917D01*
X448509Y285877D01*
X448656Y285840D01*
X448803Y285806D01*
X448951Y285777D01*
X449099Y285752D01*
X449248Y285730D01*
X449398Y285712D01*
X449548Y285699D01*
X449699Y285689D01*
X449849Y285683D01*
X450000Y285681D01*
X450151Y285683D01*
X450301Y285689D01*
X450452Y285699D01*
X450602Y285712D01*
X450752Y285730D01*
X450901Y285752D01*
X451049Y285777D01*
X451197Y285806D01*
X451344Y285840D01*
X451491Y285877D01*
X451636Y285917D01*
X451780Y285962D01*
X451923Y286010D01*
X452064Y286062D01*
X452204Y286118D01*
X452343Y286177D01*
X452480Y286240D01*
X452615Y286307D01*
X452749Y286376D01*
X452880Y286450D01*
X453010Y286527D01*
X453138Y286607D01*
X453263Y286690D01*
X453386Y286777D01*
X453507Y286867D01*
X453626Y286960D01*
X453742Y287056D01*
X453856Y287155D01*
X453967Y287257D01*
X454075Y287362D01*
X454181Y287470D01*
X454283Y287580D01*
X454383Y287693D01*
X454480Y287809D01*
X454573Y287927D01*
X454664Y288048D01*
X454751Y288171D01*
X454836Y288296D01*
X454917Y288423D01*
X454994Y288552D01*
X455068Y288683D01*
X455139Y288816D01*
X455206Y288951D01*
X455270Y289088D01*
X455330Y289226D01*
X455386Y289366D01*
X455439Y289507D01*
X455488Y289650D01*
X455534Y289794D01*
X455575Y289939D01*
X455613Y290085D01*
X455647Y290231D01*
X455677Y290379D01*
X455703Y290528D01*
X455726Y290677D01*
X455744Y290826D01*
X454529Y290827D01*
X454509Y290695D01*
X454484Y290564D01*
X454456Y290433D01*
X454424Y290303D01*
X454389Y290174D01*
X454349Y290047D01*
X454306Y289920D01*
X454259Y289795D01*
X454209Y289671D01*
X454155Y289549D01*
X454097Y289429D01*
X454036Y289310D01*
X453971Y289193D01*
X453903Y289078D01*
X453832Y288965D01*
X453758Y288854D01*
X453680Y288745D01*
X453599Y288639D01*
X453515Y288535D01*
X453428Y288433D01*
X453338Y288334D01*
X453245Y288238D01*
X453150Y288145D01*
X453052Y288054D01*
X452951Y287966D01*
X452847Y287882D01*
X452742Y287800D01*
X452634Y287721D01*
X452523Y287646D01*
X452411Y287574D01*
X452296Y287505D01*
X452180Y287440D01*
X452061Y287378D01*
X451941Y287319D01*
X451819Y287264D01*
X451696Y287213D01*
X451571Y287165D01*
X451445Y287121D01*
X451317Y287081D01*
X451189Y287044D01*
X451059Y287011D01*
X450929Y286982D01*
X450798Y286957D01*
X450666Y286936D01*
X450533Y286918D01*
X450400Y286905D01*
X450267Y286895D01*
X450134Y286889D01*
X450000Y286887D01*
X449866Y286889D01*
X449733Y286895D01*
X449600Y286905D01*
X449467Y286918D01*
X449334Y286936D01*
X449202Y286957D01*
X449071Y286982D01*
X448941Y287011D01*
X448811Y287044D01*
X448683Y287081D01*
X448555Y287121D01*
X448429Y287165D01*
X448304Y287213D01*
X448181Y287264D01*
X448059Y287319D01*
X447939Y287378D01*
X447820Y287440D01*
X447704Y287505D01*
X447589Y287574D01*
X447477Y287646D01*
X447366Y287721D01*
X447258Y287800D01*
X447153Y287882D01*
X447049Y287966D01*
X446948Y288054D01*
X446850Y288145D01*
X446755Y288238D01*
X446662Y288334D01*
X446572Y288433D01*
X446485Y288535D01*
X446401Y288639D01*
X446320Y288745D01*
X446242Y288854D01*
X446168Y288965D01*
X446097Y289078D01*
X446029Y289193D01*
X445964Y289310D01*
X445903Y289429D01*
X445845Y289549D01*
X445791Y289671D01*
X445741Y289795D01*
X445694Y289920D01*
X445651Y290047D01*
X445611Y290174D01*
X445576Y290303D01*
X445544Y290433D01*
X445516Y290564D01*
X445491Y290695D01*
X445471Y290827D01*
X446693Y290829D01*
X446716Y290716D01*
X446743Y290605D01*
X446775Y290494D01*
X446809Y290385D01*
X446848Y290276D01*
X446890Y290169D01*
X446936Y290064D01*
X446985Y289960D01*
X447038Y289858D01*
X447095Y289758D01*
X447154Y289660D01*
X447218Y289564D01*
X447284Y289470D01*
X447353Y289379D01*
X447426Y289290D01*
X447501Y289203D01*
X447580Y289119D01*
X447661Y289038D01*
X447745Y288959D01*
X447832Y288884D01*
X447921Y288811D01*
X448013Y288742D01*
X448107Y288676D01*
X448203Y288613D01*
X448301Y288553D01*
X448401Y288497D01*
X448503Y288444D01*
X448607Y288395D01*
X448712Y288349D01*
X448819Y288307D01*
X448927Y288268D01*
X449037Y288234D01*
X449148Y288203D01*
X449259Y288176D01*
X449372Y288152D01*
X449485Y288133D01*
X449599Y288117D01*
X449713Y288105D01*
X449828Y288097D01*
X449943Y288093D01*
X450057Y288093D01*
X450172Y288097D01*
X450287Y288105D01*
X450401Y288117D01*
X450515Y288133D01*
X450628Y288152D01*
X450741Y288176D01*
X450852Y288203D01*
X450963Y288234D01*
X451073Y288268D01*
X451181Y288307D01*
X451288Y288349D01*
X451393Y288395D01*
X451497Y288444D01*
X451599Y288497D01*
X451699Y288553D01*
X451797Y288613D01*
X451893Y288676D01*
X451987Y288742D01*
X452079Y288811D01*
X452168Y288884D01*
X452255Y288959D01*
X452339Y289038D01*
X452420Y289119D01*
X452499Y289203D01*
X452574Y289290D01*
X452647Y289379D01*
X452716Y289470D01*
X452782Y289564D01*
X452846Y289660D01*
X452905Y289758D01*
X452962Y289858D01*
X453015Y289960D01*
X453064Y290064D01*
X453110Y290169D01*
X453152Y290276D01*
X453191Y290385D01*
X453225Y290494D01*
X453257Y290605D01*
X453284Y290716D01*
X453307Y290829D01*
X452068Y290834D01*
X452040Y290747D01*
X452008Y290660D01*
X451972Y290576D01*
X451932Y290493D01*
X451890Y290411D01*
X451843Y290332D01*
X451793Y290254D01*
X451741Y290179D01*
X451684Y290106D01*
X451625Y290036D01*
X451563Y289968D01*
X451498Y289903D01*
X451431Y289840D01*
X451361Y289781D01*
X451288Y289725D01*
X451213Y289671D01*
X451136Y289621D01*
X451056Y289575D01*
X450975Y289532D01*
X450892Y289492D01*
X450808Y289456D01*
X450722Y289423D01*
X450634Y289394D01*
X450546Y289369D01*
X450456Y289348D01*
X450366Y289330D01*
X450275Y289317D01*
X450184Y289307D01*
X450092Y289301D01*
X450000Y289299D01*
X449908Y289301D01*
X449816Y289307D01*
X449725Y289317D01*
X449634Y289330D01*
X449544Y289348D01*
X449454Y289369D01*
X449366Y289394D01*
X449278Y289423D01*
X449192Y289456D01*
X449108Y289492D01*
X449025Y289532D01*
X448944Y289575D01*
X448864Y289621D01*
X448787Y289671D01*
X448712Y289725D01*
X448639Y289781D01*
X448569Y289840D01*
X448502Y289903D01*
X448437Y289968D01*
X448375Y290036D01*
X448316Y290106D01*
X448259Y290179D01*
X448207Y290254D01*
X448157Y290332D01*
X448110Y290411D01*
X448068Y290493D01*
X448028Y290576D01*
X447992Y290660D01*
X447960Y290747D01*
X447932Y290834D01*
X449248Y290871D01*
X449287Y290825D01*
X449328Y290782D01*
X449371Y290741D01*
X449418Y290703D01*
X449466Y290668D01*
X449516Y290637D01*
X449569Y290608D01*
X449623Y290583D01*
X449678Y290561D01*
X449735Y290542D01*
X449793Y290528D01*
X449851Y290517D01*
X449911Y290509D01*
X449970Y290505D01*
X450030Y290505D01*
X450089Y290509D01*
X450149Y290517D01*
X450207Y290528D01*
X450265Y290542D01*
X450322Y290561D01*
X450377Y290583D01*
X450431Y290608D01*
X450484Y290637D01*
X450534Y290668D01*
X450582Y290703D01*
X450629Y290741D01*
X450672Y290782D01*
X450713Y290825D01*
X450752Y290871D01*
X456956Y297174D02*
X450000Y296541D01*
X450000Y296541D01*
X443044Y297174D01*
X443061Y297344D01*
X443083Y297514D01*
X443109Y297682D01*
X443139Y297851D01*
X443173Y298018D01*
X443211Y298185D01*
X443254Y298350D01*
X443300Y298515D01*
X443350Y298678D01*
X443404Y298840D01*
X443463Y299001D01*
X443525Y299160D01*
X443591Y299317D01*
X443661Y299473D01*
X443734Y299627D01*
X443812Y299780D01*
X443893Y299930D01*
X443978Y300078D01*
X444066Y300225D01*
X444158Y300369D01*
X444253Y300510D01*
X444352Y300650D01*
X444454Y300787D01*
X444560Y300921D01*
X444669Y301053D01*
X444781Y301182D01*
X444896Y301308D01*
X445014Y301432D01*
X445135Y301552D01*
X445259Y301670D01*
X445386Y301784D01*
X445515Y301895D01*
X445648Y302003D01*
X445783Y302108D01*
X445920Y302210D01*
X446060Y302308D01*
X446202Y302402D01*
X446347Y302494D01*
X446494Y302581D01*
X446642Y302665D01*
X446793Y302745D01*
X446946Y302822D01*
X447100Y302895D01*
X447257Y302964D01*
X447415Y303029D01*
X447574Y303090D01*
X447735Y303148D01*
X447897Y303201D01*
X448061Y303250D01*
X448226Y303296D01*
X448391Y303337D01*
X448558Y303375D01*
X448726Y303408D01*
X448894Y303437D01*
X449063Y303462D01*
X449233Y303483D01*
X449403Y303499D01*
X449573Y303512D01*
X449744Y303520D01*
X449915Y303524D01*
X450085Y303524D01*
X450256Y303520D01*
X450427Y303512D01*
X450597Y303499D01*
X450767Y303483D01*
X450937Y303462D01*
X451106Y303437D01*
X451274Y303408D01*
X451442Y303375D01*
X451609Y303337D01*
X451774Y303296D01*
X451939Y303250D01*
X452103Y303201D01*
X452265Y303148D01*
X452426Y303090D01*
X452585Y303029D01*
X452743Y302964D01*
X452900Y302895D01*
X453054Y302822D01*
X453207Y302745D01*
X453358Y302665D01*
X453506Y302581D01*
X453653Y302494D01*
X453798Y302402D01*
X453940Y302308D01*
X454080Y302210D01*
X454217Y302108D01*
X454352Y302003D01*
X454485Y301895D01*
X454614Y301784D01*
X454741Y301670D01*
X454865Y301552D01*
X454986Y301432D01*
X455104Y301308D01*
X455219Y301182D01*
X455331Y301053D01*
X455440Y300921D01*
X455546Y300787D01*
X455648Y300650D01*
X455747Y300510D01*
X455842Y300369D01*
X455934Y300225D01*
X456022Y300078D01*
X456107Y299930D01*
X456188Y299780D01*
X456266Y299627D01*
X456339Y299473D01*
X456409Y299317D01*
X456475Y299160D01*
X456537Y299001D01*
X456596Y298840D01*
X456650Y298678D01*
X456700Y298515D01*
X456746Y298350D01*
X456789Y298185D01*
X456827Y298018D01*
X456861Y297851D01*
X456891Y297682D01*
X456917Y297514D01*
X456939Y297344D01*
X456956Y297174D01*
X455744Y297174D01*
X455726Y297323D01*
X455703Y297472D01*
X455677Y297621D01*
X455647Y297769D01*
X455613Y297915D01*
X455575Y298061D01*
X455534Y298206D01*
X455488Y298350D01*
X455439Y298493D01*
X455386Y298634D01*
X455330Y298774D01*
X455270Y298912D01*
X455206Y299049D01*
X455139Y299184D01*
X455068Y299317D01*
X454994Y299448D01*
X454917Y299577D01*
X454836Y299704D01*
X454751Y299829D01*
X454664Y299952D01*
X454573Y300073D01*
X454480Y300191D01*
X454383Y300307D01*
X454283Y300420D01*
X454181Y300530D01*
X454075Y300638D01*
X453967Y300743D01*
X453856Y300845D01*
X453742Y300944D01*
X453626Y301040D01*
X453507Y301133D01*
X453386Y301223D01*
X453263Y301310D01*
X453138Y301393D01*
X453010Y301473D01*
X452880Y301550D01*
X452749Y301624D01*
X452615Y301693D01*
X452480Y301760D01*
X452343Y301823D01*
X452204Y301882D01*
X452064Y301938D01*
X451923Y301990D01*
X451780Y302038D01*
X451636Y302083D01*
X451491Y302123D01*
X451344Y302160D01*
X451197Y302194D01*
X451049Y302223D01*
X450901Y302248D01*
X450752Y302270D01*
X450602Y302288D01*
X450452Y302301D01*
X450301Y302311D01*
X450151Y302317D01*
X450000Y302319D01*
X449849Y302317D01*
X449699Y302311D01*
X449548Y302301D01*
X449398Y302288D01*
X449248Y302270D01*
X449099Y302248D01*
X448951Y302223D01*
X448803Y302194D01*
X448656Y302160D01*
X448509Y302123D01*
X448364Y302083D01*
X448220Y302038D01*
X448077Y301990D01*
X447936Y301938D01*
X447796Y301882D01*
X447657Y301823D01*
X447520Y301760D01*
X447385Y301693D01*
X447251Y301624D01*
X447120Y301550D01*
X446990Y301473D01*
X446862Y301393D01*
X446737Y301310D01*
X446614Y301223D01*
X446493Y301133D01*
X446374Y301040D01*
X446258Y300944D01*
X446144Y300845D01*
X446033Y300743D01*
X445925Y300638D01*
X445819Y300530D01*
X445717Y300420D01*
X445617Y300307D01*
X445520Y300191D01*
X445427Y300073D01*
X445336Y299952D01*
X445249Y299829D01*
X445164Y299704D01*
X445083Y299577D01*
X445006Y299448D01*
X444932Y299317D01*
X444861Y299184D01*
X444794Y299049D01*
X444730Y298912D01*
X444670Y298774D01*
X444614Y298634D01*
X444561Y298493D01*
X444512Y298350D01*
X444466Y298206D01*
X444425Y298061D01*
X444387Y297915D01*
X444353Y297769D01*
X444323Y297621D01*
X444297Y297472D01*
X444274Y297323D01*
X444256Y297174D01*
X445471Y297173D01*
X445491Y297305D01*
X445516Y297436D01*
X445544Y297567D01*
X445576Y297697D01*
X445611Y297826D01*
X445651Y297953D01*
X445694Y298080D01*
X445741Y298205D01*
X445791Y298329D01*
X445845Y298451D01*
X445903Y298571D01*
X445964Y298690D01*
X446029Y298807D01*
X446097Y298922D01*
X446168Y299035D01*
X446242Y299146D01*
X446320Y299255D01*
X446401Y299361D01*
X446485Y299465D01*
X446572Y299567D01*
X446662Y299666D01*
X446755Y299762D01*
X446850Y299855D01*
X446948Y299946D01*
X447049Y300034D01*
X447153Y300118D01*
X447258Y300200D01*
X447366Y300279D01*
X447477Y300354D01*
X447589Y300426D01*
X447704Y300495D01*
X447820Y300560D01*
X447939Y300622D01*
X448059Y300681D01*
X448181Y300736D01*
X448304Y300787D01*
X448429Y300835D01*
X448555Y300879D01*
X448683Y300919D01*
X448811Y300956D01*
X448941Y300989D01*
X449071Y301018D01*
X449202Y301043D01*
X449334Y301064D01*
X449467Y301082D01*
X449600Y301095D01*
X449733Y301105D01*
X449866Y301111D01*
X450000Y301113D01*
X450134Y301111D01*
X450267Y301105D01*
X450400Y301095D01*
X450533Y301082D01*
X450666Y301064D01*
X450798Y301043D01*
X450929Y301018D01*
X451059Y300989D01*
X451189Y300956D01*
X451317Y300919D01*
X451445Y300879D01*
X451571Y300835D01*
X451696Y300787D01*
X451819Y300736D01*
X451941Y300681D01*
X452061Y300622D01*
X452180Y300560D01*
X452296Y300495D01*
X452411Y300426D01*
X452523Y300354D01*
X452634Y300279D01*
X452742Y300200D01*
X452847Y300118D01*
X452951Y300034D01*
X453052Y299946D01*
X453150Y299855D01*
X453245Y299762D01*
X453338Y299666D01*
X453428Y299567D01*
X453515Y299465D01*
X453599Y299361D01*
X453680Y299255D01*
X453758Y299146D01*
X453832Y299035D01*
X453903Y298922D01*
X453971Y298807D01*
X454036Y298690D01*
X454097Y298571D01*
X454155Y298451D01*
X454209Y298329D01*
X454259Y298205D01*
X454306Y298080D01*
X454349Y297953D01*
X454389Y297826D01*
X454424Y297697D01*
X454456Y297567D01*
X454484Y297436D01*
X454509Y297305D01*
X454529Y297173D01*
X453307Y297171D01*
X453284Y297284D01*
X453257Y297395D01*
X453225Y297506D01*
X453191Y297615D01*
X453152Y297724D01*
X453110Y297831D01*
X453064Y297936D01*
X453015Y298040D01*
X452962Y298142D01*
X452905Y298242D01*
X452846Y298340D01*
X452782Y298436D01*
X452716Y298530D01*
X452647Y298621D01*
X452574Y298710D01*
X452499Y298797D01*
X452420Y298881D01*
X452339Y298962D01*
X452255Y299041D01*
X452168Y299116D01*
X452079Y299189D01*
X451987Y299258D01*
X451893Y299324D01*
X451797Y299387D01*
X451699Y299447D01*
X451599Y299503D01*
X451497Y299556D01*
X451393Y299605D01*
X451288Y299651D01*
X451181Y299693D01*
X451073Y299732D01*
X450963Y299766D01*
X450852Y299797D01*
X450741Y299824D01*
X450628Y299848D01*
X450515Y299867D01*
X450401Y299883D01*
X450287Y299895D01*
X450172Y299903D01*
X450057Y299907D01*
X449943Y299907D01*
X449828Y299903D01*
X449713Y299895D01*
X449599Y299883D01*
X449485Y299867D01*
X449372Y299848D01*
X449259Y299824D01*
X449148Y299797D01*
X449037Y299766D01*
X448927Y299732D01*
X448819Y299693D01*
X448712Y299651D01*
X448607Y299605D01*
X448503Y299556D01*
X448401Y299503D01*
X448301Y299447D01*
X448203Y299387D01*
X448107Y299324D01*
X448013Y299258D01*
X447921Y299189D01*
X447832Y299116D01*
X447745Y299041D01*
X447661Y298962D01*
X447580Y298881D01*
X447501Y298797D01*
X447426Y298710D01*
X447353Y298621D01*
X447284Y298530D01*
X447218Y298436D01*
X447154Y298340D01*
X447095Y298242D01*
X447038Y298142D01*
X446985Y298040D01*
X446936Y297936D01*
X446890Y297831D01*
X446848Y297724D01*
X446809Y297615D01*
X446775Y297506D01*
X446743Y297395D01*
X446716Y297284D01*
X446693Y297171D01*
X447932Y297166D01*
X447960Y297253D01*
X447992Y297340D01*
X448028Y297424D01*
X448068Y297507D01*
X448110Y297589D01*
X448157Y297668D01*
X448207Y297746D01*
X448259Y297821D01*
X448316Y297894D01*
X448375Y297964D01*
X448437Y298032D01*
X448502Y298097D01*
X448569Y298160D01*
X448639Y298219D01*
X448712Y298275D01*
X448787Y298329D01*
X448864Y298379D01*
X448944Y298425D01*
X449025Y298468D01*
X449108Y298508D01*
X449192Y298544D01*
X449278Y298577D01*
X449366Y298606D01*
X449454Y298631D01*
X449544Y298652D01*
X449634Y298670D01*
X449725Y298683D01*
X449816Y298693D01*
X449908Y298699D01*
X450000Y298701D01*
X450092Y298699D01*
X450184Y298693D01*
X450275Y298683D01*
X450366Y298670D01*
X450456Y298652D01*
X450546Y298631D01*
X450634Y298606D01*
X450722Y298577D01*
X450808Y298544D01*
X450892Y298508D01*
X450975Y298468D01*
X451056Y298425D01*
X451136Y298379D01*
X451213Y298329D01*
X451288Y298275D01*
X451361Y298219D01*
X451431Y298160D01*
X451498Y298097D01*
X451563Y298032D01*
X451625Y297964D01*
X451684Y297894D01*
X451741Y297821D01*
X451793Y297746D01*
X451843Y297668D01*
X451890Y297589D01*
X451932Y297507D01*
X451972Y297424D01*
X452008Y297340D01*
X452040Y297253D01*
X452068Y297166D01*
X450752Y297129D01*
X450713Y297175D01*
X450672Y297218D01*
X450629Y297259D01*
X450582Y297297D01*
X450534Y297332D01*
X450484Y297363D01*
X450431Y297392D01*
X450377Y297417D01*
X450322Y297439D01*
X450265Y297458D01*
X450207Y297472D01*
X450149Y297483D01*
X450089Y297491D01*
X450030Y297495D01*
X449970Y297495D01*
X449911Y297491D01*
X449851Y297483D01*
X449793Y297472D01*
X449735Y297458D01*
X449678Y297439D01*
X449623Y297417D01*
X449569Y297392D01*
X449516Y297363D01*
X449466Y297332D01*
X449418Y297297D01*
X449371Y297259D01*
X449328Y297218D01*
X449287Y297175D01*
X449248Y297129D01*
D12*
X470500Y277584D02*
X471898Y276186D01*
X471898Y273389D01*
X470500Y271991D01*
X469102Y271991D01*
X467704Y273389D01*
X467704Y276186D01*
X466305Y277584D01*
X464907Y277584D01*
X463509Y276186D01*
X463509Y273389D01*
X464907Y271991D01*
X464907Y281346D02*
X463509Y282744D01*
X463509Y284143D01*
X464907Y285541D01*
X471898Y285541D01*
X471898Y284143D02*
X471898Y286939D01*
X462111Y290701D02*
X462111Y296294D01*
X463509Y300057D02*
X469102Y300057D01*
X471898Y302853D01*
X469102Y305649D01*
X463509Y305649D01*
X467704Y305649D02*
X467704Y300057D01*
X469102Y309412D02*
X471898Y312208D01*
X463509Y312208D01*
X463509Y309412D02*
X463509Y315005D01*
D10*
X474840Y307970D02*
X474840Y280030D01*
X495160Y307970D02*
X495158Y308070D01*
X495152Y308169D01*
X495142Y308269D01*
X495129Y308367D01*
X495111Y308466D01*
X495090Y308563D01*
X495065Y308659D01*
X495036Y308755D01*
X495003Y308849D01*
X494967Y308942D01*
X494927Y309033D01*
X494883Y309123D01*
X494836Y309211D01*
X494786Y309297D01*
X494732Y309381D01*
X494675Y309463D01*
X494615Y309542D01*
X494551Y309620D01*
X494485Y309694D01*
X494416Y309766D01*
X494344Y309835D01*
X494270Y309901D01*
X494192Y309965D01*
X494113Y310025D01*
X494031Y310082D01*
X493947Y310136D01*
X493861Y310186D01*
X493773Y310233D01*
X493683Y310277D01*
X493592Y310317D01*
X493499Y310353D01*
X493405Y310386D01*
X493309Y310415D01*
X493213Y310440D01*
X493116Y310461D01*
X493017Y310479D01*
X492919Y310492D01*
X492819Y310502D01*
X492720Y310508D01*
X492620Y310510D01*
X495160Y280030D02*
X495158Y279930D01*
X495152Y279831D01*
X495142Y279731D01*
X495129Y279633D01*
X495111Y279534D01*
X495090Y279437D01*
X495065Y279341D01*
X495036Y279245D01*
X495003Y279151D01*
X494967Y279058D01*
X494927Y278967D01*
X494883Y278877D01*
X494836Y278789D01*
X494786Y278703D01*
X494732Y278619D01*
X494675Y278537D01*
X494615Y278458D01*
X494551Y278380D01*
X494485Y278306D01*
X494416Y278234D01*
X494344Y278165D01*
X494270Y278099D01*
X494192Y278035D01*
X494113Y277975D01*
X494031Y277918D01*
X493947Y277864D01*
X493861Y277814D01*
X493773Y277767D01*
X493683Y277723D01*
X493592Y277683D01*
X493499Y277647D01*
X493405Y277614D01*
X493309Y277585D01*
X493213Y277560D01*
X493116Y277539D01*
X493017Y277521D01*
X492919Y277508D01*
X492819Y277498D01*
X492720Y277492D01*
X492620Y277490D01*
X477380Y277490D02*
X477280Y277492D01*
X477181Y277498D01*
X477081Y277508D01*
X476983Y277521D01*
X476884Y277539D01*
X476787Y277560D01*
X476691Y277585D01*
X476595Y277614D01*
X476501Y277647D01*
X476408Y277683D01*
X476317Y277723D01*
X476227Y277767D01*
X476139Y277814D01*
X476053Y277864D01*
X475969Y277918D01*
X475887Y277975D01*
X475808Y278035D01*
X475730Y278099D01*
X475656Y278165D01*
X475584Y278234D01*
X475515Y278306D01*
X475449Y278380D01*
X475385Y278458D01*
X475325Y278537D01*
X475268Y278619D01*
X475214Y278703D01*
X475164Y278789D01*
X475117Y278877D01*
X475073Y278967D01*
X475033Y279058D01*
X474997Y279151D01*
X474964Y279245D01*
X474935Y279341D01*
X474910Y279437D01*
X474889Y279534D01*
X474871Y279633D01*
X474858Y279731D01*
X474848Y279831D01*
X474842Y279930D01*
X474840Y280030D01*
X474840Y307970D02*
X474842Y308070D01*
X474848Y308169D01*
X474858Y308269D01*
X474871Y308367D01*
X474889Y308466D01*
X474910Y308563D01*
X474935Y308659D01*
X474964Y308755D01*
X474997Y308849D01*
X475033Y308942D01*
X475073Y309033D01*
X475117Y309123D01*
X475164Y309211D01*
X475214Y309297D01*
X475268Y309381D01*
X475325Y309463D01*
X475385Y309542D01*
X475449Y309620D01*
X475515Y309694D01*
X475584Y309766D01*
X475656Y309835D01*
X475730Y309901D01*
X475808Y309965D01*
X475887Y310025D01*
X475969Y310082D01*
X476053Y310136D01*
X476139Y310186D01*
X476227Y310233D01*
X476317Y310277D01*
X476408Y310317D01*
X476501Y310353D01*
X476595Y310386D01*
X476691Y310415D01*
X476787Y310440D01*
X476884Y310461D01*
X476983Y310479D01*
X477081Y310492D01*
X477181Y310502D01*
X477280Y310508D01*
X477380Y310510D01*
X492620Y310510D01*
X492620Y277490D02*
X477380Y277490D01*
X495160Y280030D02*
X495160Y307970D01*
X485000Y309240D02*
X485000Y304160D01*
X485000Y283840D02*
X485000Y278760D01*
D13*
X478044Y290826D02*
X485000Y291459D01*
X485000Y291459D01*
X491956Y290826D01*
X491939Y290656D01*
X491917Y290486D01*
X491891Y290318D01*
X491861Y290149D01*
X491827Y289982D01*
X491789Y289815D01*
X491746Y289650D01*
X491700Y289485D01*
X491650Y289322D01*
X491596Y289160D01*
X491537Y288999D01*
X491475Y288840D01*
X491409Y288683D01*
X491339Y288527D01*
X491266Y288373D01*
X491188Y288220D01*
X491107Y288070D01*
X491022Y287922D01*
X490934Y287775D01*
X490842Y287631D01*
X490747Y287490D01*
X490648Y287350D01*
X490546Y287213D01*
X490440Y287079D01*
X490331Y286947D01*
X490219Y286818D01*
X490104Y286692D01*
X489986Y286568D01*
X489865Y286448D01*
X489741Y286330D01*
X489614Y286216D01*
X489485Y286105D01*
X489352Y285997D01*
X489217Y285892D01*
X489080Y285790D01*
X488940Y285692D01*
X488798Y285598D01*
X488653Y285506D01*
X488506Y285419D01*
X488358Y285335D01*
X488207Y285255D01*
X488054Y285178D01*
X487900Y285105D01*
X487743Y285036D01*
X487585Y284971D01*
X487426Y284910D01*
X487265Y284852D01*
X487103Y284799D01*
X486939Y284750D01*
X486774Y284704D01*
X486609Y284663D01*
X486442Y284625D01*
X486274Y284592D01*
X486106Y284563D01*
X485937Y284538D01*
X485767Y284517D01*
X485597Y284501D01*
X485427Y284488D01*
X485256Y284480D01*
X485085Y284476D01*
X484915Y284476D01*
X484744Y284480D01*
X484573Y284488D01*
X484403Y284501D01*
X484233Y284517D01*
X484063Y284538D01*
X483894Y284563D01*
X483726Y284592D01*
X483558Y284625D01*
X483391Y284663D01*
X483226Y284704D01*
X483061Y284750D01*
X482897Y284799D01*
X482735Y284852D01*
X482574Y284910D01*
X482415Y284971D01*
X482257Y285036D01*
X482100Y285105D01*
X481946Y285178D01*
X481793Y285255D01*
X481642Y285335D01*
X481494Y285419D01*
X481347Y285506D01*
X481202Y285598D01*
X481060Y285692D01*
X480920Y285790D01*
X480783Y285892D01*
X480648Y285997D01*
X480515Y286105D01*
X480386Y286216D01*
X480259Y286330D01*
X480135Y286448D01*
X480014Y286568D01*
X479896Y286692D01*
X479781Y286818D01*
X479669Y286947D01*
X479560Y287079D01*
X479454Y287213D01*
X479352Y287350D01*
X479253Y287490D01*
X479158Y287631D01*
X479066Y287775D01*
X478978Y287922D01*
X478893Y288070D01*
X478812Y288220D01*
X478734Y288373D01*
X478661Y288527D01*
X478591Y288683D01*
X478525Y288840D01*
X478463Y288999D01*
X478404Y289160D01*
X478350Y289322D01*
X478300Y289485D01*
X478254Y289650D01*
X478211Y289815D01*
X478173Y289982D01*
X478139Y290149D01*
X478109Y290318D01*
X478083Y290486D01*
X478061Y290656D01*
X478044Y290826D01*
X479256Y290826D01*
X479274Y290677D01*
X479297Y290528D01*
X479323Y290379D01*
X479353Y290231D01*
X479387Y290085D01*
X479425Y289939D01*
X479466Y289794D01*
X479512Y289650D01*
X479561Y289507D01*
X479614Y289366D01*
X479670Y289226D01*
X479730Y289088D01*
X479794Y288951D01*
X479861Y288816D01*
X479932Y288683D01*
X480006Y288552D01*
X480083Y288423D01*
X480164Y288296D01*
X480249Y288171D01*
X480336Y288048D01*
X480427Y287927D01*
X480520Y287809D01*
X480617Y287693D01*
X480717Y287580D01*
X480819Y287470D01*
X480925Y287362D01*
X481033Y287257D01*
X481144Y287155D01*
X481258Y287056D01*
X481374Y286960D01*
X481493Y286867D01*
X481614Y286777D01*
X481737Y286690D01*
X481862Y286607D01*
X481990Y286527D01*
X482120Y286450D01*
X482251Y286376D01*
X482385Y286307D01*
X482520Y286240D01*
X482657Y286177D01*
X482796Y286118D01*
X482936Y286062D01*
X483077Y286010D01*
X483220Y285962D01*
X483364Y285917D01*
X483509Y285877D01*
X483656Y285840D01*
X483803Y285806D01*
X483951Y285777D01*
X484099Y285752D01*
X484248Y285730D01*
X484398Y285712D01*
X484548Y285699D01*
X484699Y285689D01*
X484849Y285683D01*
X485000Y285681D01*
X485151Y285683D01*
X485301Y285689D01*
X485452Y285699D01*
X485602Y285712D01*
X485752Y285730D01*
X485901Y285752D01*
X486049Y285777D01*
X486197Y285806D01*
X486344Y285840D01*
X486491Y285877D01*
X486636Y285917D01*
X486780Y285962D01*
X486923Y286010D01*
X487064Y286062D01*
X487204Y286118D01*
X487343Y286177D01*
X487480Y286240D01*
X487615Y286307D01*
X487749Y286376D01*
X487880Y286450D01*
X488010Y286527D01*
X488138Y286607D01*
X488263Y286690D01*
X488386Y286777D01*
X488507Y286867D01*
X488626Y286960D01*
X488742Y287056D01*
X488856Y287155D01*
X488967Y287257D01*
X489075Y287362D01*
X489181Y287470D01*
X489283Y287580D01*
X489383Y287693D01*
X489480Y287809D01*
X489573Y287927D01*
X489664Y288048D01*
X489751Y288171D01*
X489836Y288296D01*
X489917Y288423D01*
X489994Y288552D01*
X490068Y288683D01*
X490139Y288816D01*
X490206Y288951D01*
X490270Y289088D01*
X490330Y289226D01*
X490386Y289366D01*
X490439Y289507D01*
X490488Y289650D01*
X490534Y289794D01*
X490575Y289939D01*
X490613Y290085D01*
X490647Y290231D01*
X490677Y290379D01*
X490703Y290528D01*
X490726Y290677D01*
X490744Y290826D01*
X489529Y290827D01*
X489509Y290695D01*
X489484Y290564D01*
X489456Y290433D01*
X489424Y290303D01*
X489389Y290174D01*
X489349Y290047D01*
X489306Y289920D01*
X489259Y289795D01*
X489209Y289671D01*
X489155Y289549D01*
X489097Y289429D01*
X489036Y289310D01*
X488971Y289193D01*
X488903Y289078D01*
X488832Y288965D01*
X488758Y288854D01*
X488680Y288745D01*
X488599Y288639D01*
X488515Y288535D01*
X488428Y288433D01*
X488338Y288334D01*
X488245Y288238D01*
X488150Y288145D01*
X488052Y288054D01*
X487951Y287966D01*
X487847Y287882D01*
X487742Y287800D01*
X487634Y287721D01*
X487523Y287646D01*
X487411Y287574D01*
X487296Y287505D01*
X487180Y287440D01*
X487061Y287378D01*
X486941Y287319D01*
X486819Y287264D01*
X486696Y287213D01*
X486571Y287165D01*
X486445Y287121D01*
X486317Y287081D01*
X486189Y287044D01*
X486059Y287011D01*
X485929Y286982D01*
X485798Y286957D01*
X485666Y286936D01*
X485533Y286918D01*
X485400Y286905D01*
X485267Y286895D01*
X485134Y286889D01*
X485000Y286887D01*
X484866Y286889D01*
X484733Y286895D01*
X484600Y286905D01*
X484467Y286918D01*
X484334Y286936D01*
X484202Y286957D01*
X484071Y286982D01*
X483941Y287011D01*
X483811Y287044D01*
X483683Y287081D01*
X483555Y287121D01*
X483429Y287165D01*
X483304Y287213D01*
X483181Y287264D01*
X483059Y287319D01*
X482939Y287378D01*
X482820Y287440D01*
X482704Y287505D01*
X482589Y287574D01*
X482477Y287646D01*
X482366Y287721D01*
X482258Y287800D01*
X482153Y287882D01*
X482049Y287966D01*
X481948Y288054D01*
X481850Y288145D01*
X481755Y288238D01*
X481662Y288334D01*
X481572Y288433D01*
X481485Y288535D01*
X481401Y288639D01*
X481320Y288745D01*
X481242Y288854D01*
X481168Y288965D01*
X481097Y289078D01*
X481029Y289193D01*
X480964Y289310D01*
X480903Y289429D01*
X480845Y289549D01*
X480791Y289671D01*
X480741Y289795D01*
X480694Y289920D01*
X480651Y290047D01*
X480611Y290174D01*
X480576Y290303D01*
X480544Y290433D01*
X480516Y290564D01*
X480491Y290695D01*
X480471Y290827D01*
X481693Y290829D01*
X481716Y290716D01*
X481743Y290605D01*
X481775Y290494D01*
X481809Y290385D01*
X481848Y290276D01*
X481890Y290169D01*
X481936Y290064D01*
X481985Y289960D01*
X482038Y289858D01*
X482095Y289758D01*
X482154Y289660D01*
X482218Y289564D01*
X482284Y289470D01*
X482353Y289379D01*
X482426Y289290D01*
X482501Y289203D01*
X482580Y289119D01*
X482661Y289038D01*
X482745Y288959D01*
X482832Y288884D01*
X482921Y288811D01*
X483013Y288742D01*
X483107Y288676D01*
X483203Y288613D01*
X483301Y288553D01*
X483401Y288497D01*
X483503Y288444D01*
X483607Y288395D01*
X483712Y288349D01*
X483819Y288307D01*
X483927Y288268D01*
X484037Y288234D01*
X484148Y288203D01*
X484259Y288176D01*
X484372Y288152D01*
X484485Y288133D01*
X484599Y288117D01*
X484713Y288105D01*
X484828Y288097D01*
X484943Y288093D01*
X485057Y288093D01*
X485172Y288097D01*
X485287Y288105D01*
X485401Y288117D01*
X485515Y288133D01*
X485628Y288152D01*
X485741Y288176D01*
X485852Y288203D01*
X485963Y288234D01*
X486073Y288268D01*
X486181Y288307D01*
X486288Y288349D01*
X486393Y288395D01*
X486497Y288444D01*
X486599Y288497D01*
X486699Y288553D01*
X486797Y288613D01*
X486893Y288676D01*
X486987Y288742D01*
X487079Y288811D01*
X487168Y288884D01*
X487255Y288959D01*
X487339Y289038D01*
X487420Y289119D01*
X487499Y289203D01*
X487574Y289290D01*
X487647Y289379D01*
X487716Y289470D01*
X487782Y289564D01*
X487846Y289660D01*
X487905Y289758D01*
X487962Y289858D01*
X488015Y289960D01*
X488064Y290064D01*
X488110Y290169D01*
X488152Y290276D01*
X488191Y290385D01*
X488225Y290494D01*
X488257Y290605D01*
X488284Y290716D01*
X488307Y290829D01*
X487068Y290834D01*
X487040Y290747D01*
X487008Y290660D01*
X486972Y290576D01*
X486932Y290493D01*
X486890Y290411D01*
X486843Y290332D01*
X486793Y290254D01*
X486741Y290179D01*
X486684Y290106D01*
X486625Y290036D01*
X486563Y289968D01*
X486498Y289903D01*
X486431Y289840D01*
X486361Y289781D01*
X486288Y289725D01*
X486213Y289671D01*
X486136Y289621D01*
X486056Y289575D01*
X485975Y289532D01*
X485892Y289492D01*
X485808Y289456D01*
X485722Y289423D01*
X485634Y289394D01*
X485546Y289369D01*
X485456Y289348D01*
X485366Y289330D01*
X485275Y289317D01*
X485184Y289307D01*
X485092Y289301D01*
X485000Y289299D01*
X484908Y289301D01*
X484816Y289307D01*
X484725Y289317D01*
X484634Y289330D01*
X484544Y289348D01*
X484454Y289369D01*
X484366Y289394D01*
X484278Y289423D01*
X484192Y289456D01*
X484108Y289492D01*
X484025Y289532D01*
X483944Y289575D01*
X483864Y289621D01*
X483787Y289671D01*
X483712Y289725D01*
X483639Y289781D01*
X483569Y289840D01*
X483502Y289903D01*
X483437Y289968D01*
X483375Y290036D01*
X483316Y290106D01*
X483259Y290179D01*
X483207Y290254D01*
X483157Y290332D01*
X483110Y290411D01*
X483068Y290493D01*
X483028Y290576D01*
X482992Y290660D01*
X482960Y290747D01*
X482932Y290834D01*
X484248Y290871D01*
X484287Y290825D01*
X484328Y290782D01*
X484371Y290741D01*
X484418Y290703D01*
X484466Y290668D01*
X484516Y290637D01*
X484569Y290608D01*
X484623Y290583D01*
X484678Y290561D01*
X484735Y290542D01*
X484793Y290528D01*
X484851Y290517D01*
X484911Y290509D01*
X484970Y290505D01*
X485030Y290505D01*
X485089Y290509D01*
X485149Y290517D01*
X485207Y290528D01*
X485265Y290542D01*
X485322Y290561D01*
X485377Y290583D01*
X485431Y290608D01*
X485484Y290637D01*
X485534Y290668D01*
X485582Y290703D01*
X485629Y290741D01*
X485672Y290782D01*
X485713Y290825D01*
X485752Y290871D01*
X491956Y297174D02*
X485000Y296541D01*
X485000Y296541D01*
X478044Y297174D01*
X478061Y297344D01*
X478083Y297514D01*
X478109Y297682D01*
X478139Y297851D01*
X478173Y298018D01*
X478211Y298185D01*
X478254Y298350D01*
X478300Y298515D01*
X478350Y298678D01*
X478404Y298840D01*
X478463Y299001D01*
X478525Y299160D01*
X478591Y299317D01*
X478661Y299473D01*
X478734Y299627D01*
X478812Y299780D01*
X478893Y299930D01*
X478978Y300078D01*
X479066Y300225D01*
X479158Y300369D01*
X479253Y300510D01*
X479352Y300650D01*
X479454Y300787D01*
X479560Y300921D01*
X479669Y301053D01*
X479781Y301182D01*
X479896Y301308D01*
X480014Y301432D01*
X480135Y301552D01*
X480259Y301670D01*
X480386Y301784D01*
X480515Y301895D01*
X480648Y302003D01*
X480783Y302108D01*
X480920Y302210D01*
X481060Y302308D01*
X481202Y302402D01*
X481347Y302494D01*
X481494Y302581D01*
X481642Y302665D01*
X481793Y302745D01*
X481946Y302822D01*
X482100Y302895D01*
X482257Y302964D01*
X482415Y303029D01*
X482574Y303090D01*
X482735Y303148D01*
X482897Y303201D01*
X483061Y303250D01*
X483226Y303296D01*
X483391Y303337D01*
X483558Y303375D01*
X483726Y303408D01*
X483894Y303437D01*
X484063Y303462D01*
X484233Y303483D01*
X484403Y303499D01*
X484573Y303512D01*
X484744Y303520D01*
X484915Y303524D01*
X485085Y303524D01*
X485256Y303520D01*
X485427Y303512D01*
X485597Y303499D01*
X485767Y303483D01*
X485937Y303462D01*
X486106Y303437D01*
X486274Y303408D01*
X486442Y303375D01*
X486609Y303337D01*
X486774Y303296D01*
X486939Y303250D01*
X487103Y303201D01*
X487265Y303148D01*
X487426Y303090D01*
X487585Y303029D01*
X487743Y302964D01*
X487900Y302895D01*
X488054Y302822D01*
X488207Y302745D01*
X488358Y302665D01*
X488506Y302581D01*
X488653Y302494D01*
X488798Y302402D01*
X488940Y302308D01*
X489080Y302210D01*
X489217Y302108D01*
X489352Y302003D01*
X489485Y301895D01*
X489614Y301784D01*
X489741Y301670D01*
X489865Y301552D01*
X489986Y301432D01*
X490104Y301308D01*
X490219Y301182D01*
X490331Y301053D01*
X490440Y300921D01*
X490546Y300787D01*
X490648Y300650D01*
X490747Y300510D01*
X490842Y300369D01*
X490934Y300225D01*
X491022Y300078D01*
X491107Y299930D01*
X491188Y299780D01*
X491266Y299627D01*
X491339Y299473D01*
X491409Y299317D01*
X491475Y299160D01*
X491537Y299001D01*
X491596Y298840D01*
X491650Y298678D01*
X491700Y298515D01*
X491746Y298350D01*
X491789Y298185D01*
X491827Y298018D01*
X491861Y297851D01*
X491891Y297682D01*
X491917Y297514D01*
X491939Y297344D01*
X491956Y297174D01*
X490744Y297174D01*
X490726Y297323D01*
X490703Y297472D01*
X490677Y297621D01*
X490647Y297769D01*
X490613Y297915D01*
X490575Y298061D01*
X490534Y298206D01*
X490488Y298350D01*
X490439Y298493D01*
X490386Y298634D01*
X490330Y298774D01*
X490270Y298912D01*
X490206Y299049D01*
X490139Y299184D01*
X490068Y299317D01*
X489994Y299448D01*
X489917Y299577D01*
X489836Y299704D01*
X489751Y299829D01*
X489664Y299952D01*
X489573Y300073D01*
X489480Y300191D01*
X489383Y300307D01*
X489283Y300420D01*
X489181Y300530D01*
X489075Y300638D01*
X488967Y300743D01*
X488856Y300845D01*
X488742Y300944D01*
X488626Y301040D01*
X488507Y301133D01*
X488386Y301223D01*
X488263Y301310D01*
X488138Y301393D01*
X488010Y301473D01*
X487880Y301550D01*
X487749Y301624D01*
X487615Y301693D01*
X487480Y301760D01*
X487343Y301823D01*
X487204Y301882D01*
X487064Y301938D01*
X486923Y301990D01*
X486780Y302038D01*
X486636Y302083D01*
X486491Y302123D01*
X486344Y302160D01*
X486197Y302194D01*
X486049Y302223D01*
X485901Y302248D01*
X485752Y302270D01*
X485602Y302288D01*
X485452Y302301D01*
X485301Y302311D01*
X485151Y302317D01*
X485000Y302319D01*
X484849Y302317D01*
X484699Y302311D01*
X484548Y302301D01*
X484398Y302288D01*
X484248Y302270D01*
X484099Y302248D01*
X483951Y302223D01*
X483803Y302194D01*
X483656Y302160D01*
X483509Y302123D01*
X483364Y302083D01*
X483220Y302038D01*
X483077Y301990D01*
X482936Y301938D01*
X482796Y301882D01*
X482657Y301823D01*
X482520Y301760D01*
X482385Y301693D01*
X482251Y301624D01*
X482120Y301550D01*
X481990Y301473D01*
X481862Y301393D01*
X481737Y301310D01*
X481614Y301223D01*
X481493Y301133D01*
X481374Y301040D01*
X481258Y300944D01*
X481144Y300845D01*
X481033Y300743D01*
X480925Y300638D01*
X480819Y300530D01*
X480717Y300420D01*
X480617Y300307D01*
X480520Y300191D01*
X480427Y300073D01*
X480336Y299952D01*
X480249Y299829D01*
X480164Y299704D01*
X480083Y299577D01*
X480006Y299448D01*
X479932Y299317D01*
X479861Y299184D01*
X479794Y299049D01*
X479730Y298912D01*
X479670Y298774D01*
X479614Y298634D01*
X479561Y298493D01*
X479512Y298350D01*
X479466Y298206D01*
X479425Y298061D01*
X479387Y297915D01*
X479353Y297769D01*
X479323Y297621D01*
X479297Y297472D01*
X479274Y297323D01*
X479256Y297174D01*
X480471Y297173D01*
X480491Y297305D01*
X480516Y297436D01*
X480544Y297567D01*
X480576Y297697D01*
X480611Y297826D01*
X480651Y297953D01*
X480694Y298080D01*
X480741Y298205D01*
X480791Y298329D01*
X480845Y298451D01*
X480903Y298571D01*
X480964Y298690D01*
X481029Y298807D01*
X481097Y298922D01*
X481168Y299035D01*
X481242Y299146D01*
X481320Y299255D01*
X481401Y299361D01*
X481485Y299465D01*
X481572Y299567D01*
X481662Y299666D01*
X481755Y299762D01*
X481850Y299855D01*
X481948Y299946D01*
X482049Y300034D01*
X482153Y300118D01*
X482258Y300200D01*
X482366Y300279D01*
X482477Y300354D01*
X482589Y300426D01*
X482704Y300495D01*
X482820Y300560D01*
X482939Y300622D01*
X483059Y300681D01*
X483181Y300736D01*
X483304Y300787D01*
X483429Y300835D01*
X483555Y300879D01*
X483683Y300919D01*
X483811Y300956D01*
X483941Y300989D01*
X484071Y301018D01*
X484202Y301043D01*
X484334Y301064D01*
X484467Y301082D01*
X484600Y301095D01*
X484733Y301105D01*
X484866Y301111D01*
X485000Y301113D01*
X485134Y301111D01*
X485267Y301105D01*
X485400Y301095D01*
X485533Y301082D01*
X485666Y301064D01*
X485798Y301043D01*
X485929Y301018D01*
X486059Y300989D01*
X486189Y300956D01*
X486317Y300919D01*
X486445Y300879D01*
X486571Y300835D01*
X486696Y300787D01*
X486819Y300736D01*
X486941Y300681D01*
X487061Y300622D01*
X487180Y300560D01*
X487296Y300495D01*
X487411Y300426D01*
X487523Y300354D01*
X487634Y300279D01*
X487742Y300200D01*
X487847Y300118D01*
X487951Y300034D01*
X488052Y299946D01*
X488150Y299855D01*
X488245Y299762D01*
X488338Y299666D01*
X488428Y299567D01*
X488515Y299465D01*
X488599Y299361D01*
X488680Y299255D01*
X488758Y299146D01*
X488832Y299035D01*
X488903Y298922D01*
X488971Y298807D01*
X489036Y298690D01*
X489097Y298571D01*
X489155Y298451D01*
X489209Y298329D01*
X489259Y298205D01*
X489306Y298080D01*
X489349Y297953D01*
X489389Y297826D01*
X489424Y297697D01*
X489456Y297567D01*
X489484Y297436D01*
X489509Y297305D01*
X489529Y297173D01*
X488307Y297171D01*
X488284Y297284D01*
X488257Y297395D01*
X488225Y297506D01*
X488191Y297615D01*
X488152Y297724D01*
X488110Y297831D01*
X488064Y297936D01*
X488015Y298040D01*
X487962Y298142D01*
X487905Y298242D01*
X487846Y298340D01*
X487782Y298436D01*
X487716Y298530D01*
X487647Y298621D01*
X487574Y298710D01*
X487499Y298797D01*
X487420Y298881D01*
X487339Y298962D01*
X487255Y299041D01*
X487168Y299116D01*
X487079Y299189D01*
X486987Y299258D01*
X486893Y299324D01*
X486797Y299387D01*
X486699Y299447D01*
X486599Y299503D01*
X486497Y299556D01*
X486393Y299605D01*
X486288Y299651D01*
X486181Y299693D01*
X486073Y299732D01*
X485963Y299766D01*
X485852Y299797D01*
X485741Y299824D01*
X485628Y299848D01*
X485515Y299867D01*
X485401Y299883D01*
X485287Y299895D01*
X485172Y299903D01*
X485057Y299907D01*
X484943Y299907D01*
X484828Y299903D01*
X484713Y299895D01*
X484599Y299883D01*
X484485Y299867D01*
X484372Y299848D01*
X484259Y299824D01*
X484148Y299797D01*
X484037Y299766D01*
X483927Y299732D01*
X483819Y299693D01*
X483712Y299651D01*
X483607Y299605D01*
X483503Y299556D01*
X483401Y299503D01*
X483301Y299447D01*
X483203Y299387D01*
X483107Y299324D01*
X483013Y299258D01*
X482921Y299189D01*
X482832Y299116D01*
X482745Y299041D01*
X482661Y298962D01*
X482580Y298881D01*
X482501Y298797D01*
X482426Y298710D01*
X482353Y298621D01*
X482284Y298530D01*
X482218Y298436D01*
X482154Y298340D01*
X482095Y298242D01*
X482038Y298142D01*
X481985Y298040D01*
X481936Y297936D01*
X481890Y297831D01*
X481848Y297724D01*
X481809Y297615D01*
X481775Y297506D01*
X481743Y297395D01*
X481716Y297284D01*
X481693Y297171D01*
X482932Y297166D01*
X482960Y297253D01*
X482992Y297340D01*
X483028Y297424D01*
X483068Y297507D01*
X483110Y297589D01*
X483157Y297668D01*
X483207Y297746D01*
X483259Y297821D01*
X483316Y297894D01*
X483375Y297964D01*
X483437Y298032D01*
X483502Y298097D01*
X483569Y298160D01*
X483639Y298219D01*
X483712Y298275D01*
X483787Y298329D01*
X483864Y298379D01*
X483944Y298425D01*
X484025Y298468D01*
X484108Y298508D01*
X484192Y298544D01*
X484278Y298577D01*
X484366Y298606D01*
X484454Y298631D01*
X484544Y298652D01*
X484634Y298670D01*
X484725Y298683D01*
X484816Y298693D01*
X484908Y298699D01*
X485000Y298701D01*
X485092Y298699D01*
X485184Y298693D01*
X485275Y298683D01*
X485366Y298670D01*
X485456Y298652D01*
X485546Y298631D01*
X485634Y298606D01*
X485722Y298577D01*
X485808Y298544D01*
X485892Y298508D01*
X485975Y298468D01*
X486056Y298425D01*
X486136Y298379D01*
X486213Y298329D01*
X486288Y298275D01*
X486361Y298219D01*
X486431Y298160D01*
X486498Y298097D01*
X486563Y298032D01*
X486625Y297964D01*
X486684Y297894D01*
X486741Y297821D01*
X486793Y297746D01*
X486843Y297668D01*
X486890Y297589D01*
X486932Y297507D01*
X486972Y297424D01*
X487008Y297340D01*
X487040Y297253D01*
X487068Y297166D01*
X485752Y297129D01*
X485713Y297175D01*
X485672Y297218D01*
X485629Y297259D01*
X485582Y297297D01*
X485534Y297332D01*
X485484Y297363D01*
X485431Y297392D01*
X485377Y297417D01*
X485322Y297439D01*
X485265Y297458D01*
X485207Y297472D01*
X485149Y297483D01*
X485089Y297491D01*
X485030Y297495D01*
X484970Y297495D01*
X484911Y297491D01*
X484851Y297483D01*
X484793Y297472D01*
X484735Y297458D01*
X484678Y297439D01*
X484623Y297417D01*
X484569Y297392D01*
X484516Y297363D01*
X484466Y297332D01*
X484418Y297297D01*
X484371Y297259D01*
X484328Y297218D01*
X484287Y297175D01*
X484248Y297129D01*
D12*
X505500Y277584D02*
X506898Y276186D01*
X506898Y273389D01*
X505500Y271991D01*
X504102Y271991D01*
X502704Y273389D01*
X502704Y276186D01*
X501305Y277584D01*
X499907Y277584D01*
X498509Y276186D01*
X498509Y273389D01*
X499907Y271991D01*
X499907Y281346D02*
X498509Y282744D01*
X498509Y284143D01*
X499907Y285541D01*
X506898Y285541D01*
X506898Y284143D02*
X506898Y286939D01*
X497111Y290701D02*
X497111Y296294D01*
X498509Y300057D02*
X504102Y300057D01*
X506898Y302853D01*
X504102Y305649D01*
X498509Y305649D01*
X502704Y305649D02*
X502704Y300057D01*
X498509Y309412D02*
X498509Y315005D01*
X498509Y309412D02*
X504102Y315005D01*
X505500Y315005D01*
X506898Y313606D01*
X506898Y310810D01*
X505500Y309412D01*
D10*
X509840Y307970D02*
X509840Y280030D01*
X530160Y307970D02*
X530158Y308070D01*
X530152Y308169D01*
X530142Y308269D01*
X530129Y308367D01*
X530111Y308466D01*
X530090Y308563D01*
X530065Y308659D01*
X530036Y308755D01*
X530003Y308849D01*
X529967Y308942D01*
X529927Y309033D01*
X529883Y309123D01*
X529836Y309211D01*
X529786Y309297D01*
X529732Y309381D01*
X529675Y309463D01*
X529615Y309542D01*
X529551Y309620D01*
X529485Y309694D01*
X529416Y309766D01*
X529344Y309835D01*
X529270Y309901D01*
X529192Y309965D01*
X529113Y310025D01*
X529031Y310082D01*
X528947Y310136D01*
X528861Y310186D01*
X528773Y310233D01*
X528683Y310277D01*
X528592Y310317D01*
X528499Y310353D01*
X528405Y310386D01*
X528309Y310415D01*
X528213Y310440D01*
X528116Y310461D01*
X528017Y310479D01*
X527919Y310492D01*
X527819Y310502D01*
X527720Y310508D01*
X527620Y310510D01*
X530160Y280030D02*
X530158Y279930D01*
X530152Y279831D01*
X530142Y279731D01*
X530129Y279633D01*
X530111Y279534D01*
X530090Y279437D01*
X530065Y279341D01*
X530036Y279245D01*
X530003Y279151D01*
X529967Y279058D01*
X529927Y278967D01*
X529883Y278877D01*
X529836Y278789D01*
X529786Y278703D01*
X529732Y278619D01*
X529675Y278537D01*
X529615Y278458D01*
X529551Y278380D01*
X529485Y278306D01*
X529416Y278234D01*
X529344Y278165D01*
X529270Y278099D01*
X529192Y278035D01*
X529113Y277975D01*
X529031Y277918D01*
X528947Y277864D01*
X528861Y277814D01*
X528773Y277767D01*
X528683Y277723D01*
X528592Y277683D01*
X528499Y277647D01*
X528405Y277614D01*
X528309Y277585D01*
X528213Y277560D01*
X528116Y277539D01*
X528017Y277521D01*
X527919Y277508D01*
X527819Y277498D01*
X527720Y277492D01*
X527620Y277490D01*
X512380Y277490D02*
X512280Y277492D01*
X512181Y277498D01*
X512081Y277508D01*
X511983Y277521D01*
X511884Y277539D01*
X511787Y277560D01*
X511691Y277585D01*
X511595Y277614D01*
X511501Y277647D01*
X511408Y277683D01*
X511317Y277723D01*
X511227Y277767D01*
X511139Y277814D01*
X511053Y277864D01*
X510969Y277918D01*
X510887Y277975D01*
X510808Y278035D01*
X510730Y278099D01*
X510656Y278165D01*
X510584Y278234D01*
X510515Y278306D01*
X510449Y278380D01*
X510385Y278458D01*
X510325Y278537D01*
X510268Y278619D01*
X510214Y278703D01*
X510164Y278789D01*
X510117Y278877D01*
X510073Y278967D01*
X510033Y279058D01*
X509997Y279151D01*
X509964Y279245D01*
X509935Y279341D01*
X509910Y279437D01*
X509889Y279534D01*
X509871Y279633D01*
X509858Y279731D01*
X509848Y279831D01*
X509842Y279930D01*
X509840Y280030D01*
X509840Y307970D02*
X509842Y308070D01*
X509848Y308169D01*
X509858Y308269D01*
X509871Y308367D01*
X509889Y308466D01*
X509910Y308563D01*
X509935Y308659D01*
X509964Y308755D01*
X509997Y308849D01*
X510033Y308942D01*
X510073Y309033D01*
X510117Y309123D01*
X510164Y309211D01*
X510214Y309297D01*
X510268Y309381D01*
X510325Y309463D01*
X510385Y309542D01*
X510449Y309620D01*
X510515Y309694D01*
X510584Y309766D01*
X510656Y309835D01*
X510730Y309901D01*
X510808Y309965D01*
X510887Y310025D01*
X510969Y310082D01*
X511053Y310136D01*
X511139Y310186D01*
X511227Y310233D01*
X511317Y310277D01*
X511408Y310317D01*
X511501Y310353D01*
X511595Y310386D01*
X511691Y310415D01*
X511787Y310440D01*
X511884Y310461D01*
X511983Y310479D01*
X512081Y310492D01*
X512181Y310502D01*
X512280Y310508D01*
X512380Y310510D01*
X527620Y310510D01*
X527620Y277490D02*
X512380Y277490D01*
X530160Y280030D02*
X530160Y307970D01*
X520000Y309240D02*
X520000Y304160D01*
X520000Y283840D02*
X520000Y278760D01*
D13*
X513044Y290826D02*
X520000Y291459D01*
X520000Y291459D01*
X526956Y290826D01*
X526939Y290656D01*
X526917Y290486D01*
X526891Y290318D01*
X526861Y290149D01*
X526827Y289982D01*
X526789Y289815D01*
X526746Y289650D01*
X526700Y289485D01*
X526650Y289322D01*
X526596Y289160D01*
X526537Y288999D01*
X526475Y288840D01*
X526409Y288683D01*
X526339Y288527D01*
X526266Y288373D01*
X526188Y288220D01*
X526107Y288070D01*
X526022Y287922D01*
X525934Y287775D01*
X525842Y287631D01*
X525747Y287490D01*
X525648Y287350D01*
X525546Y287213D01*
X525440Y287079D01*
X525331Y286947D01*
X525219Y286818D01*
X525104Y286692D01*
X524986Y286568D01*
X524865Y286448D01*
X524741Y286330D01*
X524614Y286216D01*
X524485Y286105D01*
X524352Y285997D01*
X524217Y285892D01*
X524080Y285790D01*
X523940Y285692D01*
X523798Y285598D01*
X523653Y285506D01*
X523506Y285419D01*
X523358Y285335D01*
X523207Y285255D01*
X523054Y285178D01*
X522900Y285105D01*
X522743Y285036D01*
X522585Y284971D01*
X522426Y284910D01*
X522265Y284852D01*
X522103Y284799D01*
X521939Y284750D01*
X521774Y284704D01*
X521609Y284663D01*
X521442Y284625D01*
X521274Y284592D01*
X521106Y284563D01*
X520937Y284538D01*
X520767Y284517D01*
X520597Y284501D01*
X520427Y284488D01*
X520256Y284480D01*
X520085Y284476D01*
X519915Y284476D01*
X519744Y284480D01*
X519573Y284488D01*
X519403Y284501D01*
X519233Y284517D01*
X519063Y284538D01*
X518894Y284563D01*
X518726Y284592D01*
X518558Y284625D01*
X518391Y284663D01*
X518226Y284704D01*
X518061Y284750D01*
X517897Y284799D01*
X517735Y284852D01*
X517574Y284910D01*
X517415Y284971D01*
X517257Y285036D01*
X517100Y285105D01*
X516946Y285178D01*
X516793Y285255D01*
X516642Y285335D01*
X516494Y285419D01*
X516347Y285506D01*
X516202Y285598D01*
X516060Y285692D01*
X515920Y285790D01*
X515783Y285892D01*
X515648Y285997D01*
X515515Y286105D01*
X515386Y286216D01*
X515259Y286330D01*
X515135Y286448D01*
X515014Y286568D01*
X514896Y286692D01*
X514781Y286818D01*
X514669Y286947D01*
X514560Y287079D01*
X514454Y287213D01*
X514352Y287350D01*
X514253Y287490D01*
X514158Y287631D01*
X514066Y287775D01*
X513978Y287922D01*
X513893Y288070D01*
X513812Y288220D01*
X513734Y288373D01*
X513661Y288527D01*
X513591Y288683D01*
X513525Y288840D01*
X513463Y288999D01*
X513404Y289160D01*
X513350Y289322D01*
X513300Y289485D01*
X513254Y289650D01*
X513211Y289815D01*
X513173Y289982D01*
X513139Y290149D01*
X513109Y290318D01*
X513083Y290486D01*
X513061Y290656D01*
X513044Y290826D01*
X514256Y290826D01*
X514274Y290677D01*
X514297Y290528D01*
X514323Y290379D01*
X514353Y290231D01*
X514387Y290085D01*
X514425Y289939D01*
X514466Y289794D01*
X514512Y289650D01*
X514561Y289507D01*
X514614Y289366D01*
X514670Y289226D01*
X514730Y289088D01*
X514794Y288951D01*
X514861Y288816D01*
X514932Y288683D01*
X515006Y288552D01*
X515083Y288423D01*
X515164Y288296D01*
X515249Y288171D01*
X515336Y288048D01*
X515427Y287927D01*
X515520Y287809D01*
X515617Y287693D01*
X515717Y287580D01*
X515819Y287470D01*
X515925Y287362D01*
X516033Y287257D01*
X516144Y287155D01*
X516258Y287056D01*
X516374Y286960D01*
X516493Y286867D01*
X516614Y286777D01*
X516737Y286690D01*
X516862Y286607D01*
X516990Y286527D01*
X517120Y286450D01*
X517251Y286376D01*
X517385Y286307D01*
X517520Y286240D01*
X517657Y286177D01*
X517796Y286118D01*
X517936Y286062D01*
X518077Y286010D01*
X518220Y285962D01*
X518364Y285917D01*
X518509Y285877D01*
X518656Y285840D01*
X518803Y285806D01*
X518951Y285777D01*
X519099Y285752D01*
X519248Y285730D01*
X519398Y285712D01*
X519548Y285699D01*
X519699Y285689D01*
X519849Y285683D01*
X520000Y285681D01*
X520151Y285683D01*
X520301Y285689D01*
X520452Y285699D01*
X520602Y285712D01*
X520752Y285730D01*
X520901Y285752D01*
X521049Y285777D01*
X521197Y285806D01*
X521344Y285840D01*
X521491Y285877D01*
X521636Y285917D01*
X521780Y285962D01*
X521923Y286010D01*
X522064Y286062D01*
X522204Y286118D01*
X522343Y286177D01*
X522480Y286240D01*
X522615Y286307D01*
X522749Y286376D01*
X522880Y286450D01*
X523010Y286527D01*
X523138Y286607D01*
X523263Y286690D01*
X523386Y286777D01*
X523507Y286867D01*
X523626Y286960D01*
X523742Y287056D01*
X523856Y287155D01*
X523967Y287257D01*
X524075Y287362D01*
X524181Y287470D01*
X524283Y287580D01*
X524383Y287693D01*
X524480Y287809D01*
X524573Y287927D01*
X524664Y288048D01*
X524751Y288171D01*
X524836Y288296D01*
X524917Y288423D01*
X524994Y288552D01*
X525068Y288683D01*
X525139Y288816D01*
X525206Y288951D01*
X525270Y289088D01*
X525330Y289226D01*
X525386Y289366D01*
X525439Y289507D01*
X525488Y289650D01*
X525534Y289794D01*
X525575Y289939D01*
X525613Y290085D01*
X525647Y290231D01*
X525677Y290379D01*
X525703Y290528D01*
X525726Y290677D01*
X525744Y290826D01*
X524529Y290827D01*
X524509Y290695D01*
X524484Y290564D01*
X524456Y290433D01*
X524424Y290303D01*
X524389Y290174D01*
X524349Y290047D01*
X524306Y289920D01*
X524259Y289795D01*
X524209Y289671D01*
X524155Y289549D01*
X524097Y289429D01*
X524036Y289310D01*
X523971Y289193D01*
X523903Y289078D01*
X523832Y288965D01*
X523758Y288854D01*
X523680Y288745D01*
X523599Y288639D01*
X523515Y288535D01*
X523428Y288433D01*
X523338Y288334D01*
X523245Y288238D01*
X523150Y288145D01*
X523052Y288054D01*
X522951Y287966D01*
X522847Y287882D01*
X522742Y287800D01*
X522634Y287721D01*
X522523Y287646D01*
X522411Y287574D01*
X522296Y287505D01*
X522180Y287440D01*
X522061Y287378D01*
X521941Y287319D01*
X521819Y287264D01*
X521696Y287213D01*
X521571Y287165D01*
X521445Y287121D01*
X521317Y287081D01*
X521189Y287044D01*
X521059Y287011D01*
X520929Y286982D01*
X520798Y286957D01*
X520666Y286936D01*
X520533Y286918D01*
X520400Y286905D01*
X520267Y286895D01*
X520134Y286889D01*
X520000Y286887D01*
X519866Y286889D01*
X519733Y286895D01*
X519600Y286905D01*
X519467Y286918D01*
X519334Y286936D01*
X519202Y286957D01*
X519071Y286982D01*
X518941Y287011D01*
X518811Y287044D01*
X518683Y287081D01*
X518555Y287121D01*
X518429Y287165D01*
X518304Y287213D01*
X518181Y287264D01*
X518059Y287319D01*
X517939Y287378D01*
X517820Y287440D01*
X517704Y287505D01*
X517589Y287574D01*
X517477Y287646D01*
X517366Y287721D01*
X517258Y287800D01*
X517153Y287882D01*
X517049Y287966D01*
X516948Y288054D01*
X516850Y288145D01*
X516755Y288238D01*
X516662Y288334D01*
X516572Y288433D01*
X516485Y288535D01*
X516401Y288639D01*
X516320Y288745D01*
X516242Y288854D01*
X516168Y288965D01*
X516097Y289078D01*
X516029Y289193D01*
X515964Y289310D01*
X515903Y289429D01*
X515845Y289549D01*
X515791Y289671D01*
X515741Y289795D01*
X515694Y289920D01*
X515651Y290047D01*
X515611Y290174D01*
X515576Y290303D01*
X515544Y290433D01*
X515516Y290564D01*
X515491Y290695D01*
X515471Y290827D01*
X516693Y290829D01*
X516716Y290716D01*
X516743Y290605D01*
X516775Y290494D01*
X516809Y290385D01*
X516848Y290276D01*
X516890Y290169D01*
X516936Y290064D01*
X516985Y289960D01*
X517038Y289858D01*
X517095Y289758D01*
X517154Y289660D01*
X517218Y289564D01*
X517284Y289470D01*
X517353Y289379D01*
X517426Y289290D01*
X517501Y289203D01*
X517580Y289119D01*
X517661Y289038D01*
X517745Y288959D01*
X517832Y288884D01*
X517921Y288811D01*
X518013Y288742D01*
X518107Y288676D01*
X518203Y288613D01*
X518301Y288553D01*
X518401Y288497D01*
X518503Y288444D01*
X518607Y288395D01*
X518712Y288349D01*
X518819Y288307D01*
X518927Y288268D01*
X519037Y288234D01*
X519148Y288203D01*
X519259Y288176D01*
X519372Y288152D01*
X519485Y288133D01*
X519599Y288117D01*
X519713Y288105D01*
X519828Y288097D01*
X519943Y288093D01*
X520057Y288093D01*
X520172Y288097D01*
X520287Y288105D01*
X520401Y288117D01*
X520515Y288133D01*
X520628Y288152D01*
X520741Y288176D01*
X520852Y288203D01*
X520963Y288234D01*
X521073Y288268D01*
X521181Y288307D01*
X521288Y288349D01*
X521393Y288395D01*
X521497Y288444D01*
X521599Y288497D01*
X521699Y288553D01*
X521797Y288613D01*
X521893Y288676D01*
X521987Y288742D01*
X522079Y288811D01*
X522168Y288884D01*
X522255Y288959D01*
X522339Y289038D01*
X522420Y289119D01*
X522499Y289203D01*
X522574Y289290D01*
X522647Y289379D01*
X522716Y289470D01*
X522782Y289564D01*
X522846Y289660D01*
X522905Y289758D01*
X522962Y289858D01*
X523015Y289960D01*
X523064Y290064D01*
X523110Y290169D01*
X523152Y290276D01*
X523191Y290385D01*
X523225Y290494D01*
X523257Y290605D01*
X523284Y290716D01*
X523307Y290829D01*
X522068Y290834D01*
X522040Y290747D01*
X522008Y290660D01*
X521972Y290576D01*
X521932Y290493D01*
X521890Y290411D01*
X521843Y290332D01*
X521793Y290254D01*
X521741Y290179D01*
X521684Y290106D01*
X521625Y290036D01*
X521563Y289968D01*
X521498Y289903D01*
X521431Y289840D01*
X521361Y289781D01*
X521288Y289725D01*
X521213Y289671D01*
X521136Y289621D01*
X521056Y289575D01*
X520975Y289532D01*
X520892Y289492D01*
X520808Y289456D01*
X520722Y289423D01*
X520634Y289394D01*
X520546Y289369D01*
X520456Y289348D01*
X520366Y289330D01*
X520275Y289317D01*
X520184Y289307D01*
X520092Y289301D01*
X520000Y289299D01*
X519908Y289301D01*
X519816Y289307D01*
X519725Y289317D01*
X519634Y289330D01*
X519544Y289348D01*
X519454Y289369D01*
X519366Y289394D01*
X519278Y289423D01*
X519192Y289456D01*
X519108Y289492D01*
X519025Y289532D01*
X518944Y289575D01*
X518864Y289621D01*
X518787Y289671D01*
X518712Y289725D01*
X518639Y289781D01*
X518569Y289840D01*
X518502Y289903D01*
X518437Y289968D01*
X518375Y290036D01*
X518316Y290106D01*
X518259Y290179D01*
X518207Y290254D01*
X518157Y290332D01*
X518110Y290411D01*
X518068Y290493D01*
X518028Y290576D01*
X517992Y290660D01*
X517960Y290747D01*
X517932Y290834D01*
X519248Y290871D01*
X519287Y290825D01*
X519328Y290782D01*
X519371Y290741D01*
X519418Y290703D01*
X519466Y290668D01*
X519516Y290637D01*
X519569Y290608D01*
X519623Y290583D01*
X519678Y290561D01*
X519735Y290542D01*
X519793Y290528D01*
X519851Y290517D01*
X519911Y290509D01*
X519970Y290505D01*
X520030Y290505D01*
X520089Y290509D01*
X520149Y290517D01*
X520207Y290528D01*
X520265Y290542D01*
X520322Y290561D01*
X520377Y290583D01*
X520431Y290608D01*
X520484Y290637D01*
X520534Y290668D01*
X520582Y290703D01*
X520629Y290741D01*
X520672Y290782D01*
X520713Y290825D01*
X520752Y290871D01*
X526956Y297174D02*
X520000Y296541D01*
X520000Y296541D01*
X513044Y297174D01*
X513061Y297344D01*
X513083Y297514D01*
X513109Y297682D01*
X513139Y297851D01*
X513173Y298018D01*
X513211Y298185D01*
X513254Y298350D01*
X513300Y298515D01*
X513350Y298678D01*
X513404Y298840D01*
X513463Y299001D01*
X513525Y299160D01*
X513591Y299317D01*
X513661Y299473D01*
X513734Y299627D01*
X513812Y299780D01*
X513893Y299930D01*
X513978Y300078D01*
X514066Y300225D01*
X514158Y300369D01*
X514253Y300510D01*
X514352Y300650D01*
X514454Y300787D01*
X514560Y300921D01*
X514669Y301053D01*
X514781Y301182D01*
X514896Y301308D01*
X515014Y301432D01*
X515135Y301552D01*
X515259Y301670D01*
X515386Y301784D01*
X515515Y301895D01*
X515648Y302003D01*
X515783Y302108D01*
X515920Y302210D01*
X516060Y302308D01*
X516202Y302402D01*
X516347Y302494D01*
X516494Y302581D01*
X516642Y302665D01*
X516793Y302745D01*
X516946Y302822D01*
X517100Y302895D01*
X517257Y302964D01*
X517415Y303029D01*
X517574Y303090D01*
X517735Y303148D01*
X517897Y303201D01*
X518061Y303250D01*
X518226Y303296D01*
X518391Y303337D01*
X518558Y303375D01*
X518726Y303408D01*
X518894Y303437D01*
X519063Y303462D01*
X519233Y303483D01*
X519403Y303499D01*
X519573Y303512D01*
X519744Y303520D01*
X519915Y303524D01*
X520085Y303524D01*
X520256Y303520D01*
X520427Y303512D01*
X520597Y303499D01*
X520767Y303483D01*
X520937Y303462D01*
X521106Y303437D01*
X521274Y303408D01*
X521442Y303375D01*
X521609Y303337D01*
X521774Y303296D01*
X521939Y303250D01*
X522103Y303201D01*
X522265Y303148D01*
X522426Y303090D01*
X522585Y303029D01*
X522743Y302964D01*
X522900Y302895D01*
X523054Y302822D01*
X523207Y302745D01*
X523358Y302665D01*
X523506Y302581D01*
X523653Y302494D01*
X523798Y302402D01*
X523940Y302308D01*
X524080Y302210D01*
X524217Y302108D01*
X524352Y302003D01*
X524485Y301895D01*
X524614Y301784D01*
X524741Y301670D01*
X524865Y301552D01*
X524986Y301432D01*
X525104Y301308D01*
X525219Y301182D01*
X525331Y301053D01*
X525440Y300921D01*
X525546Y300787D01*
X525648Y300650D01*
X525747Y300510D01*
X525842Y300369D01*
X525934Y300225D01*
X526022Y300078D01*
X526107Y299930D01*
X526188Y299780D01*
X526266Y299627D01*
X526339Y299473D01*
X526409Y299317D01*
X526475Y299160D01*
X526537Y299001D01*
X526596Y298840D01*
X526650Y298678D01*
X526700Y298515D01*
X526746Y298350D01*
X526789Y298185D01*
X526827Y298018D01*
X526861Y297851D01*
X526891Y297682D01*
X526917Y297514D01*
X526939Y297344D01*
X526956Y297174D01*
X525744Y297174D01*
X525726Y297323D01*
X525703Y297472D01*
X525677Y297621D01*
X525647Y297769D01*
X525613Y297915D01*
X525575Y298061D01*
X525534Y298206D01*
X525488Y298350D01*
X525439Y298493D01*
X525386Y298634D01*
X525330Y298774D01*
X525270Y298912D01*
X525206Y299049D01*
X525139Y299184D01*
X525068Y299317D01*
X524994Y299448D01*
X524917Y299577D01*
X524836Y299704D01*
X524751Y299829D01*
X524664Y299952D01*
X524573Y300073D01*
X524480Y300191D01*
X524383Y300307D01*
X524283Y300420D01*
X524181Y300530D01*
X524075Y300638D01*
X523967Y300743D01*
X523856Y300845D01*
X523742Y300944D01*
X523626Y301040D01*
X523507Y301133D01*
X523386Y301223D01*
X523263Y301310D01*
X523138Y301393D01*
X523010Y301473D01*
X522880Y301550D01*
X522749Y301624D01*
X522615Y301693D01*
X522480Y301760D01*
X522343Y301823D01*
X522204Y301882D01*
X522064Y301938D01*
X521923Y301990D01*
X521780Y302038D01*
X521636Y302083D01*
X521491Y302123D01*
X521344Y302160D01*
X521197Y302194D01*
X521049Y302223D01*
X520901Y302248D01*
X520752Y302270D01*
X520602Y302288D01*
X520452Y302301D01*
X520301Y302311D01*
X520151Y302317D01*
X520000Y302319D01*
X519849Y302317D01*
X519699Y302311D01*
X519548Y302301D01*
X519398Y302288D01*
X519248Y302270D01*
X519099Y302248D01*
X518951Y302223D01*
X518803Y302194D01*
X518656Y302160D01*
X518509Y302123D01*
X518364Y302083D01*
X518220Y302038D01*
X518077Y301990D01*
X517936Y301938D01*
X517796Y301882D01*
X517657Y301823D01*
X517520Y301760D01*
X517385Y301693D01*
X517251Y301624D01*
X517120Y301550D01*
X516990Y301473D01*
X516862Y301393D01*
X516737Y301310D01*
X516614Y301223D01*
X516493Y301133D01*
X516374Y301040D01*
X516258Y300944D01*
X516144Y300845D01*
X516033Y300743D01*
X515925Y300638D01*
X515819Y300530D01*
X515717Y300420D01*
X515617Y300307D01*
X515520Y300191D01*
X515427Y300073D01*
X515336Y299952D01*
X515249Y299829D01*
X515164Y299704D01*
X515083Y299577D01*
X515006Y299448D01*
X514932Y299317D01*
X514861Y299184D01*
X514794Y299049D01*
X514730Y298912D01*
X514670Y298774D01*
X514614Y298634D01*
X514561Y298493D01*
X514512Y298350D01*
X514466Y298206D01*
X514425Y298061D01*
X514387Y297915D01*
X514353Y297769D01*
X514323Y297621D01*
X514297Y297472D01*
X514274Y297323D01*
X514256Y297174D01*
X515471Y297173D01*
X515491Y297305D01*
X515516Y297436D01*
X515544Y297567D01*
X515576Y297697D01*
X515611Y297826D01*
X515651Y297953D01*
X515694Y298080D01*
X515741Y298205D01*
X515791Y298329D01*
X515845Y298451D01*
X515903Y298571D01*
X515964Y298690D01*
X516029Y298807D01*
X516097Y298922D01*
X516168Y299035D01*
X516242Y299146D01*
X516320Y299255D01*
X516401Y299361D01*
X516485Y299465D01*
X516572Y299567D01*
X516662Y299666D01*
X516755Y299762D01*
X516850Y299855D01*
X516948Y299946D01*
X517049Y300034D01*
X517153Y300118D01*
X517258Y300200D01*
X517366Y300279D01*
X517477Y300354D01*
X517589Y300426D01*
X517704Y300495D01*
X517820Y300560D01*
X517939Y300622D01*
X518059Y300681D01*
X518181Y300736D01*
X518304Y300787D01*
X518429Y300835D01*
X518555Y300879D01*
X518683Y300919D01*
X518811Y300956D01*
X518941Y300989D01*
X519071Y301018D01*
X519202Y301043D01*
X519334Y301064D01*
X519467Y301082D01*
X519600Y301095D01*
X519733Y301105D01*
X519866Y301111D01*
X520000Y301113D01*
X520134Y301111D01*
X520267Y301105D01*
X520400Y301095D01*
X520533Y301082D01*
X520666Y301064D01*
X520798Y301043D01*
X520929Y301018D01*
X521059Y300989D01*
X521189Y300956D01*
X521317Y300919D01*
X521445Y300879D01*
X521571Y300835D01*
X521696Y300787D01*
X521819Y300736D01*
X521941Y300681D01*
X522061Y300622D01*
X522180Y300560D01*
X522296Y300495D01*
X522411Y300426D01*
X522523Y300354D01*
X522634Y300279D01*
X522742Y300200D01*
X522847Y300118D01*
X522951Y300034D01*
X523052Y299946D01*
X523150Y299855D01*
X523245Y299762D01*
X523338Y299666D01*
X523428Y299567D01*
X523515Y299465D01*
X523599Y299361D01*
X523680Y299255D01*
X523758Y299146D01*
X523832Y299035D01*
X523903Y298922D01*
X523971Y298807D01*
X524036Y298690D01*
X524097Y298571D01*
X524155Y298451D01*
X524209Y298329D01*
X524259Y298205D01*
X524306Y298080D01*
X524349Y297953D01*
X524389Y297826D01*
X524424Y297697D01*
X524456Y297567D01*
X524484Y297436D01*
X524509Y297305D01*
X524529Y297173D01*
X523307Y297171D01*
X523284Y297284D01*
X523257Y297395D01*
X523225Y297506D01*
X523191Y297615D01*
X523152Y297724D01*
X523110Y297831D01*
X523064Y297936D01*
X523015Y298040D01*
X522962Y298142D01*
X522905Y298242D01*
X522846Y298340D01*
X522782Y298436D01*
X522716Y298530D01*
X522647Y298621D01*
X522574Y298710D01*
X522499Y298797D01*
X522420Y298881D01*
X522339Y298962D01*
X522255Y299041D01*
X522168Y299116D01*
X522079Y299189D01*
X521987Y299258D01*
X521893Y299324D01*
X521797Y299387D01*
X521699Y299447D01*
X521599Y299503D01*
X521497Y299556D01*
X521393Y299605D01*
X521288Y299651D01*
X521181Y299693D01*
X521073Y299732D01*
X520963Y299766D01*
X520852Y299797D01*
X520741Y299824D01*
X520628Y299848D01*
X520515Y299867D01*
X520401Y299883D01*
X520287Y299895D01*
X520172Y299903D01*
X520057Y299907D01*
X519943Y299907D01*
X519828Y299903D01*
X519713Y299895D01*
X519599Y299883D01*
X519485Y299867D01*
X519372Y299848D01*
X519259Y299824D01*
X519148Y299797D01*
X519037Y299766D01*
X518927Y299732D01*
X518819Y299693D01*
X518712Y299651D01*
X518607Y299605D01*
X518503Y299556D01*
X518401Y299503D01*
X518301Y299447D01*
X518203Y299387D01*
X518107Y299324D01*
X518013Y299258D01*
X517921Y299189D01*
X517832Y299116D01*
X517745Y299041D01*
X517661Y298962D01*
X517580Y298881D01*
X517501Y298797D01*
X517426Y298710D01*
X517353Y298621D01*
X517284Y298530D01*
X517218Y298436D01*
X517154Y298340D01*
X517095Y298242D01*
X517038Y298142D01*
X516985Y298040D01*
X516936Y297936D01*
X516890Y297831D01*
X516848Y297724D01*
X516809Y297615D01*
X516775Y297506D01*
X516743Y297395D01*
X516716Y297284D01*
X516693Y297171D01*
X517932Y297166D01*
X517960Y297253D01*
X517992Y297340D01*
X518028Y297424D01*
X518068Y297507D01*
X518110Y297589D01*
X518157Y297668D01*
X518207Y297746D01*
X518259Y297821D01*
X518316Y297894D01*
X518375Y297964D01*
X518437Y298032D01*
X518502Y298097D01*
X518569Y298160D01*
X518639Y298219D01*
X518712Y298275D01*
X518787Y298329D01*
X518864Y298379D01*
X518944Y298425D01*
X519025Y298468D01*
X519108Y298508D01*
X519192Y298544D01*
X519278Y298577D01*
X519366Y298606D01*
X519454Y298631D01*
X519544Y298652D01*
X519634Y298670D01*
X519725Y298683D01*
X519816Y298693D01*
X519908Y298699D01*
X520000Y298701D01*
X520092Y298699D01*
X520184Y298693D01*
X520275Y298683D01*
X520366Y298670D01*
X520456Y298652D01*
X520546Y298631D01*
X520634Y298606D01*
X520722Y298577D01*
X520808Y298544D01*
X520892Y298508D01*
X520975Y298468D01*
X521056Y298425D01*
X521136Y298379D01*
X521213Y298329D01*
X521288Y298275D01*
X521361Y298219D01*
X521431Y298160D01*
X521498Y298097D01*
X521563Y298032D01*
X521625Y297964D01*
X521684Y297894D01*
X521741Y297821D01*
X521793Y297746D01*
X521843Y297668D01*
X521890Y297589D01*
X521932Y297507D01*
X521972Y297424D01*
X522008Y297340D01*
X522040Y297253D01*
X522068Y297166D01*
X520752Y297129D01*
X520713Y297175D01*
X520672Y297218D01*
X520629Y297259D01*
X520582Y297297D01*
X520534Y297332D01*
X520484Y297363D01*
X520431Y297392D01*
X520377Y297417D01*
X520322Y297439D01*
X520265Y297458D01*
X520207Y297472D01*
X520149Y297483D01*
X520089Y297491D01*
X520030Y297495D01*
X519970Y297495D01*
X519911Y297491D01*
X519851Y297483D01*
X519793Y297472D01*
X519735Y297458D01*
X519678Y297439D01*
X519623Y297417D01*
X519569Y297392D01*
X519516Y297363D01*
X519466Y297332D01*
X519418Y297297D01*
X519371Y297259D01*
X519328Y297218D01*
X519287Y297175D01*
X519248Y297129D01*
D12*
X540500Y277584D02*
X541898Y276186D01*
X541898Y273389D01*
X540500Y271991D01*
X539102Y271991D01*
X537704Y273389D01*
X537704Y276186D01*
X536305Y277584D01*
X534907Y277584D01*
X533509Y276186D01*
X533509Y273389D01*
X534907Y271991D01*
X534907Y281346D02*
X533509Y282744D01*
X533509Y284143D01*
X534907Y285541D01*
X541898Y285541D01*
X541898Y284143D02*
X541898Y286939D01*
X532111Y290701D02*
X532111Y296294D01*
X533509Y300057D02*
X539102Y300057D01*
X541898Y302853D01*
X539102Y305649D01*
X533509Y305649D01*
X537704Y305649D02*
X537704Y300057D01*
X540500Y309412D02*
X541898Y310810D01*
X541898Y313606D01*
X540500Y315005D01*
X539102Y315005D01*
X537704Y313606D01*
X537704Y312208D01*
X537704Y313606D02*
X536305Y315005D01*
X534907Y315005D01*
X533509Y313606D01*
X533509Y310810D01*
X534907Y309412D01*
D10*
X544840Y307970D02*
X544840Y280030D01*
X565160Y307970D02*
X565158Y308070D01*
X565152Y308169D01*
X565142Y308269D01*
X565129Y308367D01*
X565111Y308466D01*
X565090Y308563D01*
X565065Y308659D01*
X565036Y308755D01*
X565003Y308849D01*
X564967Y308942D01*
X564927Y309033D01*
X564883Y309123D01*
X564836Y309211D01*
X564786Y309297D01*
X564732Y309381D01*
X564675Y309463D01*
X564615Y309542D01*
X564551Y309620D01*
X564485Y309694D01*
X564416Y309766D01*
X564344Y309835D01*
X564270Y309901D01*
X564192Y309965D01*
X564113Y310025D01*
X564031Y310082D01*
X563947Y310136D01*
X563861Y310186D01*
X563773Y310233D01*
X563683Y310277D01*
X563592Y310317D01*
X563499Y310353D01*
X563405Y310386D01*
X563309Y310415D01*
X563213Y310440D01*
X563116Y310461D01*
X563017Y310479D01*
X562919Y310492D01*
X562819Y310502D01*
X562720Y310508D01*
X562620Y310510D01*
X565160Y280030D02*
X565158Y279930D01*
X565152Y279831D01*
X565142Y279731D01*
X565129Y279633D01*
X565111Y279534D01*
X565090Y279437D01*
X565065Y279341D01*
X565036Y279245D01*
X565003Y279151D01*
X564967Y279058D01*
X564927Y278967D01*
X564883Y278877D01*
X564836Y278789D01*
X564786Y278703D01*
X564732Y278619D01*
X564675Y278537D01*
X564615Y278458D01*
X564551Y278380D01*
X564485Y278306D01*
X564416Y278234D01*
X564344Y278165D01*
X564270Y278099D01*
X564192Y278035D01*
X564113Y277975D01*
X564031Y277918D01*
X563947Y277864D01*
X563861Y277814D01*
X563773Y277767D01*
X563683Y277723D01*
X563592Y277683D01*
X563499Y277647D01*
X563405Y277614D01*
X563309Y277585D01*
X563213Y277560D01*
X563116Y277539D01*
X563017Y277521D01*
X562919Y277508D01*
X562819Y277498D01*
X562720Y277492D01*
X562620Y277490D01*
X547380Y277490D02*
X547280Y277492D01*
X547181Y277498D01*
X547081Y277508D01*
X546983Y277521D01*
X546884Y277539D01*
X546787Y277560D01*
X546691Y277585D01*
X546595Y277614D01*
X546501Y277647D01*
X546408Y277683D01*
X546317Y277723D01*
X546227Y277767D01*
X546139Y277814D01*
X546053Y277864D01*
X545969Y277918D01*
X545887Y277975D01*
X545808Y278035D01*
X545730Y278099D01*
X545656Y278165D01*
X545584Y278234D01*
X545515Y278306D01*
X545449Y278380D01*
X545385Y278458D01*
X545325Y278537D01*
X545268Y278619D01*
X545214Y278703D01*
X545164Y278789D01*
X545117Y278877D01*
X545073Y278967D01*
X545033Y279058D01*
X544997Y279151D01*
X544964Y279245D01*
X544935Y279341D01*
X544910Y279437D01*
X544889Y279534D01*
X544871Y279633D01*
X544858Y279731D01*
X544848Y279831D01*
X544842Y279930D01*
X544840Y280030D01*
X544840Y307970D02*
X544842Y308070D01*
X544848Y308169D01*
X544858Y308269D01*
X544871Y308367D01*
X544889Y308466D01*
X544910Y308563D01*
X544935Y308659D01*
X544964Y308755D01*
X544997Y308849D01*
X545033Y308942D01*
X545073Y309033D01*
X545117Y309123D01*
X545164Y309211D01*
X545214Y309297D01*
X545268Y309381D01*
X545325Y309463D01*
X545385Y309542D01*
X545449Y309620D01*
X545515Y309694D01*
X545584Y309766D01*
X545656Y309835D01*
X545730Y309901D01*
X545808Y309965D01*
X545887Y310025D01*
X545969Y310082D01*
X546053Y310136D01*
X546139Y310186D01*
X546227Y310233D01*
X546317Y310277D01*
X546408Y310317D01*
X546501Y310353D01*
X546595Y310386D01*
X546691Y310415D01*
X546787Y310440D01*
X546884Y310461D01*
X546983Y310479D01*
X547081Y310492D01*
X547181Y310502D01*
X547280Y310508D01*
X547380Y310510D01*
X562620Y310510D01*
X562620Y277490D02*
X547380Y277490D01*
X565160Y280030D02*
X565160Y307970D01*
X555000Y309240D02*
X555000Y304160D01*
X555000Y283840D02*
X555000Y278760D01*
D13*
X548044Y290826D02*
X555000Y291459D01*
X555000Y291459D01*
X561956Y290826D01*
X561939Y290656D01*
X561917Y290486D01*
X561891Y290318D01*
X561861Y290149D01*
X561827Y289982D01*
X561789Y289815D01*
X561746Y289650D01*
X561700Y289485D01*
X561650Y289322D01*
X561596Y289160D01*
X561537Y288999D01*
X561475Y288840D01*
X561409Y288683D01*
X561339Y288527D01*
X561266Y288373D01*
X561188Y288220D01*
X561107Y288070D01*
X561022Y287922D01*
X560934Y287775D01*
X560842Y287631D01*
X560747Y287490D01*
X560648Y287350D01*
X560546Y287213D01*
X560440Y287079D01*
X560331Y286947D01*
X560219Y286818D01*
X560104Y286692D01*
X559986Y286568D01*
X559865Y286448D01*
X559741Y286330D01*
X559614Y286216D01*
X559485Y286105D01*
X559352Y285997D01*
X559217Y285892D01*
X559080Y285790D01*
X558940Y285692D01*
X558798Y285598D01*
X558653Y285506D01*
X558506Y285419D01*
X558358Y285335D01*
X558207Y285255D01*
X558054Y285178D01*
X557900Y285105D01*
X557743Y285036D01*
X557585Y284971D01*
X557426Y284910D01*
X557265Y284852D01*
X557103Y284799D01*
X556939Y284750D01*
X556774Y284704D01*
X556609Y284663D01*
X556442Y284625D01*
X556274Y284592D01*
X556106Y284563D01*
X555937Y284538D01*
X555767Y284517D01*
X555597Y284501D01*
X555427Y284488D01*
X555256Y284480D01*
X555085Y284476D01*
X554915Y284476D01*
X554744Y284480D01*
X554573Y284488D01*
X554403Y284501D01*
X554233Y284517D01*
X554063Y284538D01*
X553894Y284563D01*
X553726Y284592D01*
X553558Y284625D01*
X553391Y284663D01*
X553226Y284704D01*
X553061Y284750D01*
X552897Y284799D01*
X552735Y284852D01*
X552574Y284910D01*
X552415Y284971D01*
X552257Y285036D01*
X552100Y285105D01*
X551946Y285178D01*
X551793Y285255D01*
X551642Y285335D01*
X551494Y285419D01*
X551347Y285506D01*
X551202Y285598D01*
X551060Y285692D01*
X550920Y285790D01*
X550783Y285892D01*
X550648Y285997D01*
X550515Y286105D01*
X550386Y286216D01*
X550259Y286330D01*
X550135Y286448D01*
X550014Y286568D01*
X549896Y286692D01*
X549781Y286818D01*
X549669Y286947D01*
X549560Y287079D01*
X549454Y287213D01*
X549352Y287350D01*
X549253Y287490D01*
X549158Y287631D01*
X549066Y287775D01*
X548978Y287922D01*
X548893Y288070D01*
X548812Y288220D01*
X548734Y288373D01*
X548661Y288527D01*
X548591Y288683D01*
X548525Y288840D01*
X548463Y288999D01*
X548404Y289160D01*
X548350Y289322D01*
X548300Y289485D01*
X548254Y289650D01*
X548211Y289815D01*
X548173Y289982D01*
X548139Y290149D01*
X548109Y290318D01*
X548083Y290486D01*
X548061Y290656D01*
X548044Y290826D01*
X549256Y290826D01*
X549274Y290677D01*
X549297Y290528D01*
X549323Y290379D01*
X549353Y290231D01*
X549387Y290085D01*
X549425Y289939D01*
X549466Y289794D01*
X549512Y289650D01*
X549561Y289507D01*
X549614Y289366D01*
X549670Y289226D01*
X549730Y289088D01*
X549794Y288951D01*
X549861Y288816D01*
X549932Y288683D01*
X550006Y288552D01*
X550083Y288423D01*
X550164Y288296D01*
X550249Y288171D01*
X550336Y288048D01*
X550427Y287927D01*
X550520Y287809D01*
X550617Y287693D01*
X550717Y287580D01*
X550819Y287470D01*
X550925Y287362D01*
X551033Y287257D01*
X551144Y287155D01*
X551258Y287056D01*
X551374Y286960D01*
X551493Y286867D01*
X551614Y286777D01*
X551737Y286690D01*
X551862Y286607D01*
X551990Y286527D01*
X552120Y286450D01*
X552251Y286376D01*
X552385Y286307D01*
X552520Y286240D01*
X552657Y286177D01*
X552796Y286118D01*
X552936Y286062D01*
X553077Y286010D01*
X553220Y285962D01*
X553364Y285917D01*
X553509Y285877D01*
X553656Y285840D01*
X553803Y285806D01*
X553951Y285777D01*
X554099Y285752D01*
X554248Y285730D01*
X554398Y285712D01*
X554548Y285699D01*
X554699Y285689D01*
X554849Y285683D01*
X555000Y285681D01*
X555151Y285683D01*
X555301Y285689D01*
X555452Y285699D01*
X555602Y285712D01*
X555752Y285730D01*
X555901Y285752D01*
X556049Y285777D01*
X556197Y285806D01*
X556344Y285840D01*
X556491Y285877D01*
X556636Y285917D01*
X556780Y285962D01*
X556923Y286010D01*
X557064Y286062D01*
X557204Y286118D01*
X557343Y286177D01*
X557480Y286240D01*
X557615Y286307D01*
X557749Y286376D01*
X557880Y286450D01*
X558010Y286527D01*
X558138Y286607D01*
X558263Y286690D01*
X558386Y286777D01*
X558507Y286867D01*
X558626Y286960D01*
X558742Y287056D01*
X558856Y287155D01*
X558967Y287257D01*
X559075Y287362D01*
X559181Y287470D01*
X559283Y287580D01*
X559383Y287693D01*
X559480Y287809D01*
X559573Y287927D01*
X559664Y288048D01*
X559751Y288171D01*
X559836Y288296D01*
X559917Y288423D01*
X559994Y288552D01*
X560068Y288683D01*
X560139Y288816D01*
X560206Y288951D01*
X560270Y289088D01*
X560330Y289226D01*
X560386Y289366D01*
X560439Y289507D01*
X560488Y289650D01*
X560534Y289794D01*
X560575Y289939D01*
X560613Y290085D01*
X560647Y290231D01*
X560677Y290379D01*
X560703Y290528D01*
X560726Y290677D01*
X560744Y290826D01*
X559529Y290827D01*
X559509Y290695D01*
X559484Y290564D01*
X559456Y290433D01*
X559424Y290303D01*
X559389Y290174D01*
X559349Y290047D01*
X559306Y289920D01*
X559259Y289795D01*
X559209Y289671D01*
X559155Y289549D01*
X559097Y289429D01*
X559036Y289310D01*
X558971Y289193D01*
X558903Y289078D01*
X558832Y288965D01*
X558758Y288854D01*
X558680Y288745D01*
X558599Y288639D01*
X558515Y288535D01*
X558428Y288433D01*
X558338Y288334D01*
X558245Y288238D01*
X558150Y288145D01*
X558052Y288054D01*
X557951Y287966D01*
X557847Y287882D01*
X557742Y287800D01*
X557634Y287721D01*
X557523Y287646D01*
X557411Y287574D01*
X557296Y287505D01*
X557180Y287440D01*
X557061Y287378D01*
X556941Y287319D01*
X556819Y287264D01*
X556696Y287213D01*
X556571Y287165D01*
X556445Y287121D01*
X556317Y287081D01*
X556189Y287044D01*
X556059Y287011D01*
X555929Y286982D01*
X555798Y286957D01*
X555666Y286936D01*
X555533Y286918D01*
X555400Y286905D01*
X555267Y286895D01*
X555134Y286889D01*
X555000Y286887D01*
X554866Y286889D01*
X554733Y286895D01*
X554600Y286905D01*
X554467Y286918D01*
X554334Y286936D01*
X554202Y286957D01*
X554071Y286982D01*
X553941Y287011D01*
X553811Y287044D01*
X553683Y287081D01*
X553555Y287121D01*
X553429Y287165D01*
X553304Y287213D01*
X553181Y287264D01*
X553059Y287319D01*
X552939Y287378D01*
X552820Y287440D01*
X552704Y287505D01*
X552589Y287574D01*
X552477Y287646D01*
X552366Y287721D01*
X552258Y287800D01*
X552153Y287882D01*
X552049Y287966D01*
X551948Y288054D01*
X551850Y288145D01*
X551755Y288238D01*
X551662Y288334D01*
X551572Y288433D01*
X551485Y288535D01*
X551401Y288639D01*
X551320Y288745D01*
X551242Y288854D01*
X551168Y288965D01*
X551097Y289078D01*
X551029Y289193D01*
X550964Y289310D01*
X550903Y289429D01*
X550845Y289549D01*
X550791Y289671D01*
X550741Y289795D01*
X550694Y289920D01*
X550651Y290047D01*
X550611Y290174D01*
X550576Y290303D01*
X550544Y290433D01*
X550516Y290564D01*
X550491Y290695D01*
X550471Y290827D01*
X551693Y290829D01*
X551716Y290716D01*
X551743Y290605D01*
X551775Y290494D01*
X551809Y290385D01*
X551848Y290276D01*
X551890Y290169D01*
X551936Y290064D01*
X551985Y289960D01*
X552038Y289858D01*
X552095Y289758D01*
X552154Y289660D01*
X552218Y289564D01*
X552284Y289470D01*
X552353Y289379D01*
X552426Y289290D01*
X552501Y289203D01*
X552580Y289119D01*
X552661Y289038D01*
X552745Y288959D01*
X552832Y288884D01*
X552921Y288811D01*
X553013Y288742D01*
X553107Y288676D01*
X553203Y288613D01*
X553301Y288553D01*
X553401Y288497D01*
X553503Y288444D01*
X553607Y288395D01*
X553712Y288349D01*
X553819Y288307D01*
X553927Y288268D01*
X554037Y288234D01*
X554148Y288203D01*
X554259Y288176D01*
X554372Y288152D01*
X554485Y288133D01*
X554599Y288117D01*
X554713Y288105D01*
X554828Y288097D01*
X554943Y288093D01*
X555057Y288093D01*
X555172Y288097D01*
X555287Y288105D01*
X555401Y288117D01*
X555515Y288133D01*
X555628Y288152D01*
X555741Y288176D01*
X555852Y288203D01*
X555963Y288234D01*
X556073Y288268D01*
X556181Y288307D01*
X556288Y288349D01*
X556393Y288395D01*
X556497Y288444D01*
X556599Y288497D01*
X556699Y288553D01*
X556797Y288613D01*
X556893Y288676D01*
X556987Y288742D01*
X557079Y288811D01*
X557168Y288884D01*
X557255Y288959D01*
X557339Y289038D01*
X557420Y289119D01*
X557499Y289203D01*
X557574Y289290D01*
X557647Y289379D01*
X557716Y289470D01*
X557782Y289564D01*
X557846Y289660D01*
X557905Y289758D01*
X557962Y289858D01*
X558015Y289960D01*
X558064Y290064D01*
X558110Y290169D01*
X558152Y290276D01*
X558191Y290385D01*
X558225Y290494D01*
X558257Y290605D01*
X558284Y290716D01*
X558307Y290829D01*
X557068Y290834D01*
X557040Y290747D01*
X557008Y290660D01*
X556972Y290576D01*
X556932Y290493D01*
X556890Y290411D01*
X556843Y290332D01*
X556793Y290254D01*
X556741Y290179D01*
X556684Y290106D01*
X556625Y290036D01*
X556563Y289968D01*
X556498Y289903D01*
X556431Y289840D01*
X556361Y289781D01*
X556288Y289725D01*
X556213Y289671D01*
X556136Y289621D01*
X556056Y289575D01*
X555975Y289532D01*
X555892Y289492D01*
X555808Y289456D01*
X555722Y289423D01*
X555634Y289394D01*
X555546Y289369D01*
X555456Y289348D01*
X555366Y289330D01*
X555275Y289317D01*
X555184Y289307D01*
X555092Y289301D01*
X555000Y289299D01*
X554908Y289301D01*
X554816Y289307D01*
X554725Y289317D01*
X554634Y289330D01*
X554544Y289348D01*
X554454Y289369D01*
X554366Y289394D01*
X554278Y289423D01*
X554192Y289456D01*
X554108Y289492D01*
X554025Y289532D01*
X553944Y289575D01*
X553864Y289621D01*
X553787Y289671D01*
X553712Y289725D01*
X553639Y289781D01*
X553569Y289840D01*
X553502Y289903D01*
X553437Y289968D01*
X553375Y290036D01*
X553316Y290106D01*
X553259Y290179D01*
X553207Y290254D01*
X553157Y290332D01*
X553110Y290411D01*
X553068Y290493D01*
X553028Y290576D01*
X552992Y290660D01*
X552960Y290747D01*
X552932Y290834D01*
X554248Y290871D01*
X554287Y290825D01*
X554328Y290782D01*
X554371Y290741D01*
X554418Y290703D01*
X554466Y290668D01*
X554516Y290637D01*
X554569Y290608D01*
X554623Y290583D01*
X554678Y290561D01*
X554735Y290542D01*
X554793Y290528D01*
X554851Y290517D01*
X554911Y290509D01*
X554970Y290505D01*
X555030Y290505D01*
X555089Y290509D01*
X555149Y290517D01*
X555207Y290528D01*
X555265Y290542D01*
X555322Y290561D01*
X555377Y290583D01*
X555431Y290608D01*
X555484Y290637D01*
X555534Y290668D01*
X555582Y290703D01*
X555629Y290741D01*
X555672Y290782D01*
X555713Y290825D01*
X555752Y290871D01*
X561956Y297174D02*
X555000Y296541D01*
X555000Y296541D01*
X548044Y297174D01*
X548061Y297344D01*
X548083Y297514D01*
X548109Y297682D01*
X548139Y297851D01*
X548173Y298018D01*
X548211Y298185D01*
X548254Y298350D01*
X548300Y298515D01*
X548350Y298678D01*
X548404Y298840D01*
X548463Y299001D01*
X548525Y299160D01*
X548591Y299317D01*
X548661Y299473D01*
X548734Y299627D01*
X548812Y299780D01*
X548893Y299930D01*
X548978Y300078D01*
X549066Y300225D01*
X549158Y300369D01*
X549253Y300510D01*
X549352Y300650D01*
X549454Y300787D01*
X549560Y300921D01*
X549669Y301053D01*
X549781Y301182D01*
X549896Y301308D01*
X550014Y301432D01*
X550135Y301552D01*
X550259Y301670D01*
X550386Y301784D01*
X550515Y301895D01*
X550648Y302003D01*
X550783Y302108D01*
X550920Y302210D01*
X551060Y302308D01*
X551202Y302402D01*
X551347Y302494D01*
X551494Y302581D01*
X551642Y302665D01*
X551793Y302745D01*
X551946Y302822D01*
X552100Y302895D01*
X552257Y302964D01*
X552415Y303029D01*
X552574Y303090D01*
X552735Y303148D01*
X552897Y303201D01*
X553061Y303250D01*
X553226Y303296D01*
X553391Y303337D01*
X553558Y303375D01*
X553726Y303408D01*
X553894Y303437D01*
X554063Y303462D01*
X554233Y303483D01*
X554403Y303499D01*
X554573Y303512D01*
X554744Y303520D01*
X554915Y303524D01*
X555085Y303524D01*
X555256Y303520D01*
X555427Y303512D01*
X555597Y303499D01*
X555767Y303483D01*
X555937Y303462D01*
X556106Y303437D01*
X556274Y303408D01*
X556442Y303375D01*
X556609Y303337D01*
X556774Y303296D01*
X556939Y303250D01*
X557103Y303201D01*
X557265Y303148D01*
X557426Y303090D01*
X557585Y303029D01*
X557743Y302964D01*
X557900Y302895D01*
X558054Y302822D01*
X558207Y302745D01*
X558358Y302665D01*
X558506Y302581D01*
X558653Y302494D01*
X558798Y302402D01*
X558940Y302308D01*
X559080Y302210D01*
X559217Y302108D01*
X559352Y302003D01*
X559485Y301895D01*
X559614Y301784D01*
X559741Y301670D01*
X559865Y301552D01*
X559986Y301432D01*
X560104Y301308D01*
X560219Y301182D01*
X560331Y301053D01*
X560440Y300921D01*
X560546Y300787D01*
X560648Y300650D01*
X560747Y300510D01*
X560842Y300369D01*
X560934Y300225D01*
X561022Y300078D01*
X561107Y299930D01*
X561188Y299780D01*
X561266Y299627D01*
X561339Y299473D01*
X561409Y299317D01*
X561475Y299160D01*
X561537Y299001D01*
X561596Y298840D01*
X561650Y298678D01*
X561700Y298515D01*
X561746Y298350D01*
X561789Y298185D01*
X561827Y298018D01*
X561861Y297851D01*
X561891Y297682D01*
X561917Y297514D01*
X561939Y297344D01*
X561956Y297174D01*
X560744Y297174D01*
X560726Y297323D01*
X560703Y297472D01*
X560677Y297621D01*
X560647Y297769D01*
X560613Y297915D01*
X560575Y298061D01*
X560534Y298206D01*
X560488Y298350D01*
X560439Y298493D01*
X560386Y298634D01*
X560330Y298774D01*
X560270Y298912D01*
X560206Y299049D01*
X560139Y299184D01*
X560068Y299317D01*
X559994Y299448D01*
X559917Y299577D01*
X559836Y299704D01*
X559751Y299829D01*
X559664Y299952D01*
X559573Y300073D01*
X559480Y300191D01*
X559383Y300307D01*
X559283Y300420D01*
X559181Y300530D01*
X559075Y300638D01*
X558967Y300743D01*
X558856Y300845D01*
X558742Y300944D01*
X558626Y301040D01*
X558507Y301133D01*
X558386Y301223D01*
X558263Y301310D01*
X558138Y301393D01*
X558010Y301473D01*
X557880Y301550D01*
X557749Y301624D01*
X557615Y301693D01*
X557480Y301760D01*
X557343Y301823D01*
X557204Y301882D01*
X557064Y301938D01*
X556923Y301990D01*
X556780Y302038D01*
X556636Y302083D01*
X556491Y302123D01*
X556344Y302160D01*
X556197Y302194D01*
X556049Y302223D01*
X555901Y302248D01*
X555752Y302270D01*
X555602Y302288D01*
X555452Y302301D01*
X555301Y302311D01*
X555151Y302317D01*
X555000Y302319D01*
X554849Y302317D01*
X554699Y302311D01*
X554548Y302301D01*
X554398Y302288D01*
X554248Y302270D01*
X554099Y302248D01*
X553951Y302223D01*
X553803Y302194D01*
X553656Y302160D01*
X553509Y302123D01*
X553364Y302083D01*
X553220Y302038D01*
X553077Y301990D01*
X552936Y301938D01*
X552796Y301882D01*
X552657Y301823D01*
X552520Y301760D01*
X552385Y301693D01*
X552251Y301624D01*
X552120Y301550D01*
X551990Y301473D01*
X551862Y301393D01*
X551737Y301310D01*
X551614Y301223D01*
X551493Y301133D01*
X551374Y301040D01*
X551258Y300944D01*
X551144Y300845D01*
X551033Y300743D01*
X550925Y300638D01*
X550819Y300530D01*
X550717Y300420D01*
X550617Y300307D01*
X550520Y300191D01*
X550427Y300073D01*
X550336Y299952D01*
X550249Y299829D01*
X550164Y299704D01*
X550083Y299577D01*
X550006Y299448D01*
X549932Y299317D01*
X549861Y299184D01*
X549794Y299049D01*
X549730Y298912D01*
X549670Y298774D01*
X549614Y298634D01*
X549561Y298493D01*
X549512Y298350D01*
X549466Y298206D01*
X549425Y298061D01*
X549387Y297915D01*
X549353Y297769D01*
X549323Y297621D01*
X549297Y297472D01*
X549274Y297323D01*
X549256Y297174D01*
X550471Y297173D01*
X550491Y297305D01*
X550516Y297436D01*
X550544Y297567D01*
X550576Y297697D01*
X550611Y297826D01*
X550651Y297953D01*
X550694Y298080D01*
X550741Y298205D01*
X550791Y298329D01*
X550845Y298451D01*
X550903Y298571D01*
X550964Y298690D01*
X551029Y298807D01*
X551097Y298922D01*
X551168Y299035D01*
X551242Y299146D01*
X551320Y299255D01*
X551401Y299361D01*
X551485Y299465D01*
X551572Y299567D01*
X551662Y299666D01*
X551755Y299762D01*
X551850Y299855D01*
X551948Y299946D01*
X552049Y300034D01*
X552153Y300118D01*
X552258Y300200D01*
X552366Y300279D01*
X552477Y300354D01*
X552589Y300426D01*
X552704Y300495D01*
X552820Y300560D01*
X552939Y300622D01*
X553059Y300681D01*
X553181Y300736D01*
X553304Y300787D01*
X553429Y300835D01*
X553555Y300879D01*
X553683Y300919D01*
X553811Y300956D01*
X553941Y300989D01*
X554071Y301018D01*
X554202Y301043D01*
X554334Y301064D01*
X554467Y301082D01*
X554600Y301095D01*
X554733Y301105D01*
X554866Y301111D01*
X555000Y301113D01*
X555134Y301111D01*
X555267Y301105D01*
X555400Y301095D01*
X555533Y301082D01*
X555666Y301064D01*
X555798Y301043D01*
X555929Y301018D01*
X556059Y300989D01*
X556189Y300956D01*
X556317Y300919D01*
X556445Y300879D01*
X556571Y300835D01*
X556696Y300787D01*
X556819Y300736D01*
X556941Y300681D01*
X557061Y300622D01*
X557180Y300560D01*
X557296Y300495D01*
X557411Y300426D01*
X557523Y300354D01*
X557634Y300279D01*
X557742Y300200D01*
X557847Y300118D01*
X557951Y300034D01*
X558052Y299946D01*
X558150Y299855D01*
X558245Y299762D01*
X558338Y299666D01*
X558428Y299567D01*
X558515Y299465D01*
X558599Y299361D01*
X558680Y299255D01*
X558758Y299146D01*
X558832Y299035D01*
X558903Y298922D01*
X558971Y298807D01*
X559036Y298690D01*
X559097Y298571D01*
X559155Y298451D01*
X559209Y298329D01*
X559259Y298205D01*
X559306Y298080D01*
X559349Y297953D01*
X559389Y297826D01*
X559424Y297697D01*
X559456Y297567D01*
X559484Y297436D01*
X559509Y297305D01*
X559529Y297173D01*
X558307Y297171D01*
X558284Y297284D01*
X558257Y297395D01*
X558225Y297506D01*
X558191Y297615D01*
X558152Y297724D01*
X558110Y297831D01*
X558064Y297936D01*
X558015Y298040D01*
X557962Y298142D01*
X557905Y298242D01*
X557846Y298340D01*
X557782Y298436D01*
X557716Y298530D01*
X557647Y298621D01*
X557574Y298710D01*
X557499Y298797D01*
X557420Y298881D01*
X557339Y298962D01*
X557255Y299041D01*
X557168Y299116D01*
X557079Y299189D01*
X556987Y299258D01*
X556893Y299324D01*
X556797Y299387D01*
X556699Y299447D01*
X556599Y299503D01*
X556497Y299556D01*
X556393Y299605D01*
X556288Y299651D01*
X556181Y299693D01*
X556073Y299732D01*
X555963Y299766D01*
X555852Y299797D01*
X555741Y299824D01*
X555628Y299848D01*
X555515Y299867D01*
X555401Y299883D01*
X555287Y299895D01*
X555172Y299903D01*
X555057Y299907D01*
X554943Y299907D01*
X554828Y299903D01*
X554713Y299895D01*
X554599Y299883D01*
X554485Y299867D01*
X554372Y299848D01*
X554259Y299824D01*
X554148Y299797D01*
X554037Y299766D01*
X553927Y299732D01*
X553819Y299693D01*
X553712Y299651D01*
X553607Y299605D01*
X553503Y299556D01*
X553401Y299503D01*
X553301Y299447D01*
X553203Y299387D01*
X553107Y299324D01*
X553013Y299258D01*
X552921Y299189D01*
X552832Y299116D01*
X552745Y299041D01*
X552661Y298962D01*
X552580Y298881D01*
X552501Y298797D01*
X552426Y298710D01*
X552353Y298621D01*
X552284Y298530D01*
X552218Y298436D01*
X552154Y298340D01*
X552095Y298242D01*
X552038Y298142D01*
X551985Y298040D01*
X551936Y297936D01*
X551890Y297831D01*
X551848Y297724D01*
X551809Y297615D01*
X551775Y297506D01*
X551743Y297395D01*
X551716Y297284D01*
X551693Y297171D01*
X552932Y297166D01*
X552960Y297253D01*
X552992Y297340D01*
X553028Y297424D01*
X553068Y297507D01*
X553110Y297589D01*
X553157Y297668D01*
X553207Y297746D01*
X553259Y297821D01*
X553316Y297894D01*
X553375Y297964D01*
X553437Y298032D01*
X553502Y298097D01*
X553569Y298160D01*
X553639Y298219D01*
X553712Y298275D01*
X553787Y298329D01*
X553864Y298379D01*
X553944Y298425D01*
X554025Y298468D01*
X554108Y298508D01*
X554192Y298544D01*
X554278Y298577D01*
X554366Y298606D01*
X554454Y298631D01*
X554544Y298652D01*
X554634Y298670D01*
X554725Y298683D01*
X554816Y298693D01*
X554908Y298699D01*
X555000Y298701D01*
X555092Y298699D01*
X555184Y298693D01*
X555275Y298683D01*
X555366Y298670D01*
X555456Y298652D01*
X555546Y298631D01*
X555634Y298606D01*
X555722Y298577D01*
X555808Y298544D01*
X555892Y298508D01*
X555975Y298468D01*
X556056Y298425D01*
X556136Y298379D01*
X556213Y298329D01*
X556288Y298275D01*
X556361Y298219D01*
X556431Y298160D01*
X556498Y298097D01*
X556563Y298032D01*
X556625Y297964D01*
X556684Y297894D01*
X556741Y297821D01*
X556793Y297746D01*
X556843Y297668D01*
X556890Y297589D01*
X556932Y297507D01*
X556972Y297424D01*
X557008Y297340D01*
X557040Y297253D01*
X557068Y297166D01*
X555752Y297129D01*
X555713Y297175D01*
X555672Y297218D01*
X555629Y297259D01*
X555582Y297297D01*
X555534Y297332D01*
X555484Y297363D01*
X555431Y297392D01*
X555377Y297417D01*
X555322Y297439D01*
X555265Y297458D01*
X555207Y297472D01*
X555149Y297483D01*
X555089Y297491D01*
X555030Y297495D01*
X554970Y297495D01*
X554911Y297491D01*
X554851Y297483D01*
X554793Y297472D01*
X554735Y297458D01*
X554678Y297439D01*
X554623Y297417D01*
X554569Y297392D01*
X554516Y297363D01*
X554466Y297332D01*
X554418Y297297D01*
X554371Y297259D01*
X554328Y297218D01*
X554287Y297175D01*
X554248Y297129D01*
D12*
X575500Y277584D02*
X576898Y276186D01*
X576898Y273389D01*
X575500Y271991D01*
X574102Y271991D01*
X572704Y273389D01*
X572704Y276186D01*
X571305Y277584D01*
X569907Y277584D01*
X568509Y276186D01*
X568509Y273389D01*
X569907Y271991D01*
X569907Y281346D02*
X568509Y282744D01*
X568509Y284143D01*
X569907Y285541D01*
X576898Y285541D01*
X576898Y284143D02*
X576898Y286939D01*
X567111Y290701D02*
X567111Y296294D01*
X568509Y300057D02*
X574102Y300057D01*
X576898Y302853D01*
X574102Y305649D01*
X568509Y305649D01*
X572704Y305649D02*
X572704Y300057D01*
X568509Y313606D02*
X576898Y313606D01*
X572704Y309412D01*
X572704Y315005D01*
D10*
X579840Y307970D02*
X579840Y280030D01*
X600160Y307970D02*
X600158Y308070D01*
X600152Y308169D01*
X600142Y308269D01*
X600129Y308367D01*
X600111Y308466D01*
X600090Y308563D01*
X600065Y308659D01*
X600036Y308755D01*
X600003Y308849D01*
X599967Y308942D01*
X599927Y309033D01*
X599883Y309123D01*
X599836Y309211D01*
X599786Y309297D01*
X599732Y309381D01*
X599675Y309463D01*
X599615Y309542D01*
X599551Y309620D01*
X599485Y309694D01*
X599416Y309766D01*
X599344Y309835D01*
X599270Y309901D01*
X599192Y309965D01*
X599113Y310025D01*
X599031Y310082D01*
X598947Y310136D01*
X598861Y310186D01*
X598773Y310233D01*
X598683Y310277D01*
X598592Y310317D01*
X598499Y310353D01*
X598405Y310386D01*
X598309Y310415D01*
X598213Y310440D01*
X598116Y310461D01*
X598017Y310479D01*
X597919Y310492D01*
X597819Y310502D01*
X597720Y310508D01*
X597620Y310510D01*
X600160Y280030D02*
X600158Y279930D01*
X600152Y279831D01*
X600142Y279731D01*
X600129Y279633D01*
X600111Y279534D01*
X600090Y279437D01*
X600065Y279341D01*
X600036Y279245D01*
X600003Y279151D01*
X599967Y279058D01*
X599927Y278967D01*
X599883Y278877D01*
X599836Y278789D01*
X599786Y278703D01*
X599732Y278619D01*
X599675Y278537D01*
X599615Y278458D01*
X599551Y278380D01*
X599485Y278306D01*
X599416Y278234D01*
X599344Y278165D01*
X599270Y278099D01*
X599192Y278035D01*
X599113Y277975D01*
X599031Y277918D01*
X598947Y277864D01*
X598861Y277814D01*
X598773Y277767D01*
X598683Y277723D01*
X598592Y277683D01*
X598499Y277647D01*
X598405Y277614D01*
X598309Y277585D01*
X598213Y277560D01*
X598116Y277539D01*
X598017Y277521D01*
X597919Y277508D01*
X597819Y277498D01*
X597720Y277492D01*
X597620Y277490D01*
X582380Y277490D02*
X582280Y277492D01*
X582181Y277498D01*
X582081Y277508D01*
X581983Y277521D01*
X581884Y277539D01*
X581787Y277560D01*
X581691Y277585D01*
X581595Y277614D01*
X581501Y277647D01*
X581408Y277683D01*
X581317Y277723D01*
X581227Y277767D01*
X581139Y277814D01*
X581053Y277864D01*
X580969Y277918D01*
X580887Y277975D01*
X580808Y278035D01*
X580730Y278099D01*
X580656Y278165D01*
X580584Y278234D01*
X580515Y278306D01*
X580449Y278380D01*
X580385Y278458D01*
X580325Y278537D01*
X580268Y278619D01*
X580214Y278703D01*
X580164Y278789D01*
X580117Y278877D01*
X580073Y278967D01*
X580033Y279058D01*
X579997Y279151D01*
X579964Y279245D01*
X579935Y279341D01*
X579910Y279437D01*
X579889Y279534D01*
X579871Y279633D01*
X579858Y279731D01*
X579848Y279831D01*
X579842Y279930D01*
X579840Y280030D01*
X579840Y307970D02*
X579842Y308070D01*
X579848Y308169D01*
X579858Y308269D01*
X579871Y308367D01*
X579889Y308466D01*
X579910Y308563D01*
X579935Y308659D01*
X579964Y308755D01*
X579997Y308849D01*
X580033Y308942D01*
X580073Y309033D01*
X580117Y309123D01*
X580164Y309211D01*
X580214Y309297D01*
X580268Y309381D01*
X580325Y309463D01*
X580385Y309542D01*
X580449Y309620D01*
X580515Y309694D01*
X580584Y309766D01*
X580656Y309835D01*
X580730Y309901D01*
X580808Y309965D01*
X580887Y310025D01*
X580969Y310082D01*
X581053Y310136D01*
X581139Y310186D01*
X581227Y310233D01*
X581317Y310277D01*
X581408Y310317D01*
X581501Y310353D01*
X581595Y310386D01*
X581691Y310415D01*
X581787Y310440D01*
X581884Y310461D01*
X581983Y310479D01*
X582081Y310492D01*
X582181Y310502D01*
X582280Y310508D01*
X582380Y310510D01*
X597620Y310510D01*
X597620Y277490D02*
X582380Y277490D01*
X600160Y280030D02*
X600160Y307970D01*
X590000Y309240D02*
X590000Y304160D01*
X590000Y283840D02*
X590000Y278760D01*
D13*
X583044Y290826D02*
X590000Y291459D01*
X590000Y291459D01*
X596956Y290826D01*
X596939Y290656D01*
X596917Y290486D01*
X596891Y290318D01*
X596861Y290149D01*
X596827Y289982D01*
X596789Y289815D01*
X596746Y289650D01*
X596700Y289485D01*
X596650Y289322D01*
X596596Y289160D01*
X596537Y288999D01*
X596475Y288840D01*
X596409Y288683D01*
X596339Y288527D01*
X596266Y288373D01*
X596188Y288220D01*
X596107Y288070D01*
X596022Y287922D01*
X595934Y287775D01*
X595842Y287631D01*
X595747Y287490D01*
X595648Y287350D01*
X595546Y287213D01*
X595440Y287079D01*
X595331Y286947D01*
X595219Y286818D01*
X595104Y286692D01*
X594986Y286568D01*
X594865Y286448D01*
X594741Y286330D01*
X594614Y286216D01*
X594485Y286105D01*
X594352Y285997D01*
X594217Y285892D01*
X594080Y285790D01*
X593940Y285692D01*
X593798Y285598D01*
X593653Y285506D01*
X593506Y285419D01*
X593358Y285335D01*
X593207Y285255D01*
X593054Y285178D01*
X592900Y285105D01*
X592743Y285036D01*
X592585Y284971D01*
X592426Y284910D01*
X592265Y284852D01*
X592103Y284799D01*
X591939Y284750D01*
X591774Y284704D01*
X591609Y284663D01*
X591442Y284625D01*
X591274Y284592D01*
X591106Y284563D01*
X590937Y284538D01*
X590767Y284517D01*
X590597Y284501D01*
X590427Y284488D01*
X590256Y284480D01*
X590085Y284476D01*
X589915Y284476D01*
X589744Y284480D01*
X589573Y284488D01*
X589403Y284501D01*
X589233Y284517D01*
X589063Y284538D01*
X588894Y284563D01*
X588726Y284592D01*
X588558Y284625D01*
X588391Y284663D01*
X588226Y284704D01*
X588061Y284750D01*
X587897Y284799D01*
X587735Y284852D01*
X587574Y284910D01*
X587415Y284971D01*
X587257Y285036D01*
X587100Y285105D01*
X586946Y285178D01*
X586793Y285255D01*
X586642Y285335D01*
X586494Y285419D01*
X586347Y285506D01*
X586202Y285598D01*
X586060Y285692D01*
X585920Y285790D01*
X585783Y285892D01*
X585648Y285997D01*
X585515Y286105D01*
X585386Y286216D01*
X585259Y286330D01*
X585135Y286448D01*
X585014Y286568D01*
X584896Y286692D01*
X584781Y286818D01*
X584669Y286947D01*
X584560Y287079D01*
X584454Y287213D01*
X584352Y287350D01*
X584253Y287490D01*
X584158Y287631D01*
X584066Y287775D01*
X583978Y287922D01*
X583893Y288070D01*
X583812Y288220D01*
X583734Y288373D01*
X583661Y288527D01*
X583591Y288683D01*
X583525Y288840D01*
X583463Y288999D01*
X583404Y289160D01*
X583350Y289322D01*
X583300Y289485D01*
X583254Y289650D01*
X583211Y289815D01*
X583173Y289982D01*
X583139Y290149D01*
X583109Y290318D01*
X583083Y290486D01*
X583061Y290656D01*
X583044Y290826D01*
X584256Y290826D01*
X584274Y290677D01*
X584297Y290528D01*
X584323Y290379D01*
X584353Y290231D01*
X584387Y290085D01*
X584425Y289939D01*
X584466Y289794D01*
X584512Y289650D01*
X584561Y289507D01*
X584614Y289366D01*
X584670Y289226D01*
X584730Y289088D01*
X584794Y288951D01*
X584861Y288816D01*
X584932Y288683D01*
X585006Y288552D01*
X585083Y288423D01*
X585164Y288296D01*
X585249Y288171D01*
X585336Y288048D01*
X585427Y287927D01*
X585520Y287809D01*
X585617Y287693D01*
X585717Y287580D01*
X585819Y287470D01*
X585925Y287362D01*
X586033Y287257D01*
X586144Y287155D01*
X586258Y287056D01*
X586374Y286960D01*
X586493Y286867D01*
X586614Y286777D01*
X586737Y286690D01*
X586862Y286607D01*
X586990Y286527D01*
X587120Y286450D01*
X587251Y286376D01*
X587385Y286307D01*
X587520Y286240D01*
X587657Y286177D01*
X587796Y286118D01*
X587936Y286062D01*
X588077Y286010D01*
X588220Y285962D01*
X588364Y285917D01*
X588509Y285877D01*
X588656Y285840D01*
X588803Y285806D01*
X588951Y285777D01*
X589099Y285752D01*
X589248Y285730D01*
X589398Y285712D01*
X589548Y285699D01*
X589699Y285689D01*
X589849Y285683D01*
X590000Y285681D01*
X590151Y285683D01*
X590301Y285689D01*
X590452Y285699D01*
X590602Y285712D01*
X590752Y285730D01*
X590901Y285752D01*
X591049Y285777D01*
X591197Y285806D01*
X591344Y285840D01*
X591491Y285877D01*
X591636Y285917D01*
X591780Y285962D01*
X591923Y286010D01*
X592064Y286062D01*
X592204Y286118D01*
X592343Y286177D01*
X592480Y286240D01*
X592615Y286307D01*
X592749Y286376D01*
X592880Y286450D01*
X593010Y286527D01*
X593138Y286607D01*
X593263Y286690D01*
X593386Y286777D01*
X593507Y286867D01*
X593626Y286960D01*
X593742Y287056D01*
X593856Y287155D01*
X593967Y287257D01*
X594075Y287362D01*
X594181Y287470D01*
X594283Y287580D01*
X594383Y287693D01*
X594480Y287809D01*
X594573Y287927D01*
X594664Y288048D01*
X594751Y288171D01*
X594836Y288296D01*
X594917Y288423D01*
X594994Y288552D01*
X595068Y288683D01*
X595139Y288816D01*
X595206Y288951D01*
X595270Y289088D01*
X595330Y289226D01*
X595386Y289366D01*
X595439Y289507D01*
X595488Y289650D01*
X595534Y289794D01*
X595575Y289939D01*
X595613Y290085D01*
X595647Y290231D01*
X595677Y290379D01*
X595703Y290528D01*
X595726Y290677D01*
X595744Y290826D01*
X594529Y290827D01*
X594509Y290695D01*
X594484Y290564D01*
X594456Y290433D01*
X594424Y290303D01*
X594389Y290174D01*
X594349Y290047D01*
X594306Y289920D01*
X594259Y289795D01*
X594209Y289671D01*
X594155Y289549D01*
X594097Y289429D01*
X594036Y289310D01*
X593971Y289193D01*
X593903Y289078D01*
X593832Y288965D01*
X593758Y288854D01*
X593680Y288745D01*
X593599Y288639D01*
X593515Y288535D01*
X593428Y288433D01*
X593338Y288334D01*
X593245Y288238D01*
X593150Y288145D01*
X593052Y288054D01*
X592951Y287966D01*
X592847Y287882D01*
X592742Y287800D01*
X592634Y287721D01*
X592523Y287646D01*
X592411Y287574D01*
X592296Y287505D01*
X592180Y287440D01*
X592061Y287378D01*
X591941Y287319D01*
X591819Y287264D01*
X591696Y287213D01*
X591571Y287165D01*
X591445Y287121D01*
X591317Y287081D01*
X591189Y287044D01*
X591059Y287011D01*
X590929Y286982D01*
X590798Y286957D01*
X590666Y286936D01*
X590533Y286918D01*
X590400Y286905D01*
X590267Y286895D01*
X590134Y286889D01*
X590000Y286887D01*
X589866Y286889D01*
X589733Y286895D01*
X589600Y286905D01*
X589467Y286918D01*
X589334Y286936D01*
X589202Y286957D01*
X589071Y286982D01*
X588941Y287011D01*
X588811Y287044D01*
X588683Y287081D01*
X588555Y287121D01*
X588429Y287165D01*
X588304Y287213D01*
X588181Y287264D01*
X588059Y287319D01*
X587939Y287378D01*
X587820Y287440D01*
X587704Y287505D01*
X587589Y287574D01*
X587477Y287646D01*
X587366Y287721D01*
X587258Y287800D01*
X587153Y287882D01*
X587049Y287966D01*
X586948Y288054D01*
X586850Y288145D01*
X586755Y288238D01*
X586662Y288334D01*
X586572Y288433D01*
X586485Y288535D01*
X586401Y288639D01*
X586320Y288745D01*
X586242Y288854D01*
X586168Y288965D01*
X586097Y289078D01*
X586029Y289193D01*
X585964Y289310D01*
X585903Y289429D01*
X585845Y289549D01*
X585791Y289671D01*
X585741Y289795D01*
X585694Y289920D01*
X585651Y290047D01*
X585611Y290174D01*
X585576Y290303D01*
X585544Y290433D01*
X585516Y290564D01*
X585491Y290695D01*
X585471Y290827D01*
X586693Y290829D01*
X586716Y290716D01*
X586743Y290605D01*
X586775Y290494D01*
X586809Y290385D01*
X586848Y290276D01*
X586890Y290169D01*
X586936Y290064D01*
X586985Y289960D01*
X587038Y289858D01*
X587095Y289758D01*
X587154Y289660D01*
X587218Y289564D01*
X587284Y289470D01*
X587353Y289379D01*
X587426Y289290D01*
X587501Y289203D01*
X587580Y289119D01*
X587661Y289038D01*
X587745Y288959D01*
X587832Y288884D01*
X587921Y288811D01*
X588013Y288742D01*
X588107Y288676D01*
X588203Y288613D01*
X588301Y288553D01*
X588401Y288497D01*
X588503Y288444D01*
X588607Y288395D01*
X588712Y288349D01*
X588819Y288307D01*
X588927Y288268D01*
X589037Y288234D01*
X589148Y288203D01*
X589259Y288176D01*
X589372Y288152D01*
X589485Y288133D01*
X589599Y288117D01*
X589713Y288105D01*
X589828Y288097D01*
X589943Y288093D01*
X590057Y288093D01*
X590172Y288097D01*
X590287Y288105D01*
X590401Y288117D01*
X590515Y288133D01*
X590628Y288152D01*
X590741Y288176D01*
X590852Y288203D01*
X590963Y288234D01*
X591073Y288268D01*
X591181Y288307D01*
X591288Y288349D01*
X591393Y288395D01*
X591497Y288444D01*
X591599Y288497D01*
X591699Y288553D01*
X591797Y288613D01*
X591893Y288676D01*
X591987Y288742D01*
X592079Y288811D01*
X592168Y288884D01*
X592255Y288959D01*
X592339Y289038D01*
X592420Y289119D01*
X592499Y289203D01*
X592574Y289290D01*
X592647Y289379D01*
X592716Y289470D01*
X592782Y289564D01*
X592846Y289660D01*
X592905Y289758D01*
X592962Y289858D01*
X593015Y289960D01*
X593064Y290064D01*
X593110Y290169D01*
X593152Y290276D01*
X593191Y290385D01*
X593225Y290494D01*
X593257Y290605D01*
X593284Y290716D01*
X593307Y290829D01*
X592068Y290834D01*
X592040Y290747D01*
X592008Y290660D01*
X591972Y290576D01*
X591932Y290493D01*
X591890Y290411D01*
X591843Y290332D01*
X591793Y290254D01*
X591741Y290179D01*
X591684Y290106D01*
X591625Y290036D01*
X591563Y289968D01*
X591498Y289903D01*
X591431Y289840D01*
X591361Y289781D01*
X591288Y289725D01*
X591213Y289671D01*
X591136Y289621D01*
X591056Y289575D01*
X590975Y289532D01*
X590892Y289492D01*
X590808Y289456D01*
X590722Y289423D01*
X590634Y289394D01*
X590546Y289369D01*
X590456Y289348D01*
X590366Y289330D01*
X590275Y289317D01*
X590184Y289307D01*
X590092Y289301D01*
X590000Y289299D01*
X589908Y289301D01*
X589816Y289307D01*
X589725Y289317D01*
X589634Y289330D01*
X589544Y289348D01*
X589454Y289369D01*
X589366Y289394D01*
X589278Y289423D01*
X589192Y289456D01*
X589108Y289492D01*
X589025Y289532D01*
X588944Y289575D01*
X588864Y289621D01*
X588787Y289671D01*
X588712Y289725D01*
X588639Y289781D01*
X588569Y289840D01*
X588502Y289903D01*
X588437Y289968D01*
X588375Y290036D01*
X588316Y290106D01*
X588259Y290179D01*
X588207Y290254D01*
X588157Y290332D01*
X588110Y290411D01*
X588068Y290493D01*
X588028Y290576D01*
X587992Y290660D01*
X587960Y290747D01*
X587932Y290834D01*
X589248Y290871D01*
X589287Y290825D01*
X589328Y290782D01*
X589371Y290741D01*
X589418Y290703D01*
X589466Y290668D01*
X589516Y290637D01*
X589569Y290608D01*
X589623Y290583D01*
X589678Y290561D01*
X589735Y290542D01*
X589793Y290528D01*
X589851Y290517D01*
X589911Y290509D01*
X589970Y290505D01*
X590030Y290505D01*
X590089Y290509D01*
X590149Y290517D01*
X590207Y290528D01*
X590265Y290542D01*
X590322Y290561D01*
X590377Y290583D01*
X590431Y290608D01*
X590484Y290637D01*
X590534Y290668D01*
X590582Y290703D01*
X590629Y290741D01*
X590672Y290782D01*
X590713Y290825D01*
X590752Y290871D01*
X596956Y297174D02*
X590000Y296541D01*
X590000Y296541D01*
X583044Y297174D01*
X583061Y297344D01*
X583083Y297514D01*
X583109Y297682D01*
X583139Y297851D01*
X583173Y298018D01*
X583211Y298185D01*
X583254Y298350D01*
X583300Y298515D01*
X583350Y298678D01*
X583404Y298840D01*
X583463Y299001D01*
X583525Y299160D01*
X583591Y299317D01*
X583661Y299473D01*
X583734Y299627D01*
X583812Y299780D01*
X583893Y299930D01*
X583978Y300078D01*
X584066Y300225D01*
X584158Y300369D01*
X584253Y300510D01*
X584352Y300650D01*
X584454Y300787D01*
X584560Y300921D01*
X584669Y301053D01*
X584781Y301182D01*
X584896Y301308D01*
X585014Y301432D01*
X585135Y301552D01*
X585259Y301670D01*
X585386Y301784D01*
X585515Y301895D01*
X585648Y302003D01*
X585783Y302108D01*
X585920Y302210D01*
X586060Y302308D01*
X586202Y302402D01*
X586347Y302494D01*
X586494Y302581D01*
X586642Y302665D01*
X586793Y302745D01*
X586946Y302822D01*
X587100Y302895D01*
X587257Y302964D01*
X587415Y303029D01*
X587574Y303090D01*
X587735Y303148D01*
X587897Y303201D01*
X588061Y303250D01*
X588226Y303296D01*
X588391Y303337D01*
X588558Y303375D01*
X588726Y303408D01*
X588894Y303437D01*
X589063Y303462D01*
X589233Y303483D01*
X589403Y303499D01*
X589573Y303512D01*
X589744Y303520D01*
X589915Y303524D01*
X590085Y303524D01*
X590256Y303520D01*
X590427Y303512D01*
X590597Y303499D01*
X590767Y303483D01*
X590937Y303462D01*
X591106Y303437D01*
X591274Y303408D01*
X591442Y303375D01*
X591609Y303337D01*
X591774Y303296D01*
X591939Y303250D01*
X592103Y303201D01*
X592265Y303148D01*
X592426Y303090D01*
X592585Y303029D01*
X592743Y302964D01*
X592900Y302895D01*
X593054Y302822D01*
X593207Y302745D01*
X593358Y302665D01*
X593506Y302581D01*
X593653Y302494D01*
X593798Y302402D01*
X593940Y302308D01*
X594080Y302210D01*
X594217Y302108D01*
X594352Y302003D01*
X594485Y301895D01*
X594614Y301784D01*
X594741Y301670D01*
X594865Y301552D01*
X594986Y301432D01*
X595104Y301308D01*
X595219Y301182D01*
X595331Y301053D01*
X595440Y300921D01*
X595546Y300787D01*
X595648Y300650D01*
X595747Y300510D01*
X595842Y300369D01*
X595934Y300225D01*
X596022Y300078D01*
X596107Y299930D01*
X596188Y299780D01*
X596266Y299627D01*
X596339Y299473D01*
X596409Y299317D01*
X596475Y299160D01*
X596537Y299001D01*
X596596Y298840D01*
X596650Y298678D01*
X596700Y298515D01*
X596746Y298350D01*
X596789Y298185D01*
X596827Y298018D01*
X596861Y297851D01*
X596891Y297682D01*
X596917Y297514D01*
X596939Y297344D01*
X596956Y297174D01*
X595744Y297174D01*
X595726Y297323D01*
X595703Y297472D01*
X595677Y297621D01*
X595647Y297769D01*
X595613Y297915D01*
X595575Y298061D01*
X595534Y298206D01*
X595488Y298350D01*
X595439Y298493D01*
X595386Y298634D01*
X595330Y298774D01*
X595270Y298912D01*
X595206Y299049D01*
X595139Y299184D01*
X595068Y299317D01*
X594994Y299448D01*
X594917Y299577D01*
X594836Y299704D01*
X594751Y299829D01*
X594664Y299952D01*
X594573Y300073D01*
X594480Y300191D01*
X594383Y300307D01*
X594283Y300420D01*
X594181Y300530D01*
X594075Y300638D01*
X593967Y300743D01*
X593856Y300845D01*
X593742Y300944D01*
X593626Y301040D01*
X593507Y301133D01*
X593386Y301223D01*
X593263Y301310D01*
X593138Y301393D01*
X593010Y301473D01*
X592880Y301550D01*
X592749Y301624D01*
X592615Y301693D01*
X592480Y301760D01*
X592343Y301823D01*
X592204Y301882D01*
X592064Y301938D01*
X591923Y301990D01*
X591780Y302038D01*
X591636Y302083D01*
X591491Y302123D01*
X591344Y302160D01*
X591197Y302194D01*
X591049Y302223D01*
X590901Y302248D01*
X590752Y302270D01*
X590602Y302288D01*
X590452Y302301D01*
X590301Y302311D01*
X590151Y302317D01*
X590000Y302319D01*
X589849Y302317D01*
X589699Y302311D01*
X589548Y302301D01*
X589398Y302288D01*
X589248Y302270D01*
X589099Y302248D01*
X588951Y302223D01*
X588803Y302194D01*
X588656Y302160D01*
X588509Y302123D01*
X588364Y302083D01*
X588220Y302038D01*
X588077Y301990D01*
X587936Y301938D01*
X587796Y301882D01*
X587657Y301823D01*
X587520Y301760D01*
X587385Y301693D01*
X587251Y301624D01*
X587120Y301550D01*
X586990Y301473D01*
X586862Y301393D01*
X586737Y301310D01*
X586614Y301223D01*
X586493Y301133D01*
X586374Y301040D01*
X586258Y300944D01*
X586144Y300845D01*
X586033Y300743D01*
X585925Y300638D01*
X585819Y300530D01*
X585717Y300420D01*
X585617Y300307D01*
X585520Y300191D01*
X585427Y300073D01*
X585336Y299952D01*
X585249Y299829D01*
X585164Y299704D01*
X585083Y299577D01*
X585006Y299448D01*
X584932Y299317D01*
X584861Y299184D01*
X584794Y299049D01*
X584730Y298912D01*
X584670Y298774D01*
X584614Y298634D01*
X584561Y298493D01*
X584512Y298350D01*
X584466Y298206D01*
X584425Y298061D01*
X584387Y297915D01*
X584353Y297769D01*
X584323Y297621D01*
X584297Y297472D01*
X584274Y297323D01*
X584256Y297174D01*
X585471Y297173D01*
X585491Y297305D01*
X585516Y297436D01*
X585544Y297567D01*
X585576Y297697D01*
X585611Y297826D01*
X585651Y297953D01*
X585694Y298080D01*
X585741Y298205D01*
X585791Y298329D01*
X585845Y298451D01*
X585903Y298571D01*
X585964Y298690D01*
X586029Y298807D01*
X586097Y298922D01*
X586168Y299035D01*
X586242Y299146D01*
X586320Y299255D01*
X586401Y299361D01*
X586485Y299465D01*
X586572Y299567D01*
X586662Y299666D01*
X586755Y299762D01*
X586850Y299855D01*
X586948Y299946D01*
X587049Y300034D01*
X587153Y300118D01*
X587258Y300200D01*
X587366Y300279D01*
X587477Y300354D01*
X587589Y300426D01*
X587704Y300495D01*
X587820Y300560D01*
X587939Y300622D01*
X588059Y300681D01*
X588181Y300736D01*
X588304Y300787D01*
X588429Y300835D01*
X588555Y300879D01*
X588683Y300919D01*
X588811Y300956D01*
X588941Y300989D01*
X589071Y301018D01*
X589202Y301043D01*
X589334Y301064D01*
X589467Y301082D01*
X589600Y301095D01*
X589733Y301105D01*
X589866Y301111D01*
X590000Y301113D01*
X590134Y301111D01*
X590267Y301105D01*
X590400Y301095D01*
X590533Y301082D01*
X590666Y301064D01*
X590798Y301043D01*
X590929Y301018D01*
X591059Y300989D01*
X591189Y300956D01*
X591317Y300919D01*
X591445Y300879D01*
X591571Y300835D01*
X591696Y300787D01*
X591819Y300736D01*
X591941Y300681D01*
X592061Y300622D01*
X592180Y300560D01*
X592296Y300495D01*
X592411Y300426D01*
X592523Y300354D01*
X592634Y300279D01*
X592742Y300200D01*
X592847Y300118D01*
X592951Y300034D01*
X593052Y299946D01*
X593150Y299855D01*
X593245Y299762D01*
X593338Y299666D01*
X593428Y299567D01*
X593515Y299465D01*
X593599Y299361D01*
X593680Y299255D01*
X593758Y299146D01*
X593832Y299035D01*
X593903Y298922D01*
X593971Y298807D01*
X594036Y298690D01*
X594097Y298571D01*
X594155Y298451D01*
X594209Y298329D01*
X594259Y298205D01*
X594306Y298080D01*
X594349Y297953D01*
X594389Y297826D01*
X594424Y297697D01*
X594456Y297567D01*
X594484Y297436D01*
X594509Y297305D01*
X594529Y297173D01*
X593307Y297171D01*
X593284Y297284D01*
X593257Y297395D01*
X593225Y297506D01*
X593191Y297615D01*
X593152Y297724D01*
X593110Y297831D01*
X593064Y297936D01*
X593015Y298040D01*
X592962Y298142D01*
X592905Y298242D01*
X592846Y298340D01*
X592782Y298436D01*
X592716Y298530D01*
X592647Y298621D01*
X592574Y298710D01*
X592499Y298797D01*
X592420Y298881D01*
X592339Y298962D01*
X592255Y299041D01*
X592168Y299116D01*
X592079Y299189D01*
X591987Y299258D01*
X591893Y299324D01*
X591797Y299387D01*
X591699Y299447D01*
X591599Y299503D01*
X591497Y299556D01*
X591393Y299605D01*
X591288Y299651D01*
X591181Y299693D01*
X591073Y299732D01*
X590963Y299766D01*
X590852Y299797D01*
X590741Y299824D01*
X590628Y299848D01*
X590515Y299867D01*
X590401Y299883D01*
X590287Y299895D01*
X590172Y299903D01*
X590057Y299907D01*
X589943Y299907D01*
X589828Y299903D01*
X589713Y299895D01*
X589599Y299883D01*
X589485Y299867D01*
X589372Y299848D01*
X589259Y299824D01*
X589148Y299797D01*
X589037Y299766D01*
X588927Y299732D01*
X588819Y299693D01*
X588712Y299651D01*
X588607Y299605D01*
X588503Y299556D01*
X588401Y299503D01*
X588301Y299447D01*
X588203Y299387D01*
X588107Y299324D01*
X588013Y299258D01*
X587921Y299189D01*
X587832Y299116D01*
X587745Y299041D01*
X587661Y298962D01*
X587580Y298881D01*
X587501Y298797D01*
X587426Y298710D01*
X587353Y298621D01*
X587284Y298530D01*
X587218Y298436D01*
X587154Y298340D01*
X587095Y298242D01*
X587038Y298142D01*
X586985Y298040D01*
X586936Y297936D01*
X586890Y297831D01*
X586848Y297724D01*
X586809Y297615D01*
X586775Y297506D01*
X586743Y297395D01*
X586716Y297284D01*
X586693Y297171D01*
X587932Y297166D01*
X587960Y297253D01*
X587992Y297340D01*
X588028Y297424D01*
X588068Y297507D01*
X588110Y297589D01*
X588157Y297668D01*
X588207Y297746D01*
X588259Y297821D01*
X588316Y297894D01*
X588375Y297964D01*
X588437Y298032D01*
X588502Y298097D01*
X588569Y298160D01*
X588639Y298219D01*
X588712Y298275D01*
X588787Y298329D01*
X588864Y298379D01*
X588944Y298425D01*
X589025Y298468D01*
X589108Y298508D01*
X589192Y298544D01*
X589278Y298577D01*
X589366Y298606D01*
X589454Y298631D01*
X589544Y298652D01*
X589634Y298670D01*
X589725Y298683D01*
X589816Y298693D01*
X589908Y298699D01*
X590000Y298701D01*
X590092Y298699D01*
X590184Y298693D01*
X590275Y298683D01*
X590366Y298670D01*
X590456Y298652D01*
X590546Y298631D01*
X590634Y298606D01*
X590722Y298577D01*
X590808Y298544D01*
X590892Y298508D01*
X590975Y298468D01*
X591056Y298425D01*
X591136Y298379D01*
X591213Y298329D01*
X591288Y298275D01*
X591361Y298219D01*
X591431Y298160D01*
X591498Y298097D01*
X591563Y298032D01*
X591625Y297964D01*
X591684Y297894D01*
X591741Y297821D01*
X591793Y297746D01*
X591843Y297668D01*
X591890Y297589D01*
X591932Y297507D01*
X591972Y297424D01*
X592008Y297340D01*
X592040Y297253D01*
X592068Y297166D01*
X590752Y297129D01*
X590713Y297175D01*
X590672Y297218D01*
X590629Y297259D01*
X590582Y297297D01*
X590534Y297332D01*
X590484Y297363D01*
X590431Y297392D01*
X590377Y297417D01*
X590322Y297439D01*
X590265Y297458D01*
X590207Y297472D01*
X590149Y297483D01*
X590089Y297491D01*
X590030Y297495D01*
X589970Y297495D01*
X589911Y297491D01*
X589851Y297483D01*
X589793Y297472D01*
X589735Y297458D01*
X589678Y297439D01*
X589623Y297417D01*
X589569Y297392D01*
X589516Y297363D01*
X589466Y297332D01*
X589418Y297297D01*
X589371Y297259D01*
X589328Y297218D01*
X589287Y297175D01*
X589248Y297129D01*
D12*
X610500Y277584D02*
X611898Y276186D01*
X611898Y273389D01*
X610500Y271991D01*
X609102Y271991D01*
X607704Y273389D01*
X607704Y276186D01*
X606305Y277584D01*
X604907Y277584D01*
X603509Y276186D01*
X603509Y273389D01*
X604907Y271991D01*
X604907Y281346D02*
X603509Y282744D01*
X603509Y284143D01*
X604907Y285541D01*
X611898Y285541D01*
X611898Y284143D02*
X611898Y286939D01*
X602111Y290701D02*
X602111Y296294D01*
X603509Y300057D02*
X609102Y300057D01*
X611898Y302853D01*
X609102Y305649D01*
X603509Y305649D01*
X607704Y305649D02*
X607704Y300057D01*
X611898Y309412D02*
X611898Y315005D01*
X611898Y309412D02*
X607704Y309412D01*
X609102Y312208D01*
X609102Y313606D01*
X607704Y315005D01*
X604907Y315005D01*
X603509Y313606D01*
X603509Y310810D01*
X604907Y309412D01*
D14*
X484525Y260128D02*
X465348Y260128D01*
X465348Y243872D02*
X484525Y243872D01*
D15*
X461792Y252000D03*
X488208Y252000D03*
D16*
X510704Y256639D02*
X512271Y258207D01*
X515407Y258207D01*
X516974Y256639D01*
X516974Y250369D01*
X515407Y248801D01*
X512271Y248801D01*
X510704Y250369D01*
X507619Y255072D02*
X504484Y258207D01*
X504484Y248801D01*
X507619Y248801D02*
X501348Y248801D01*
D14*
X419652Y189872D02*
X400475Y189872D01*
X400475Y206128D02*
X419652Y206128D01*
D15*
X423208Y198000D03*
X396792Y198000D03*
D16*
X418974Y210801D02*
X418974Y220207D01*
X414271Y220207D01*
X412704Y218639D01*
X412704Y215504D01*
X414271Y213936D01*
X418974Y213936D01*
X415839Y213936D02*
X412704Y210801D01*
X409619Y220207D02*
X403348Y220207D01*
X403348Y218639D01*
X409619Y212369D01*
X409619Y210801D01*
D10*
X655410Y313770D02*
X715354Y313766D01*
X655410Y313770D02*
X655410Y248230D01*
X715354Y248234D01*
X715350Y248230D02*
X715346Y313774D01*
X716370Y255346D02*
X723482Y255346D01*
X728054Y259918D01*
X728054Y302082D01*
X723482Y306654D01*
X716370Y306654D01*
X716370Y255346D01*
D17*
X639916Y258140D03*
X639916Y303860D03*
D18*
X650584Y281000D03*
D12*
X661307Y272134D02*
X666900Y272134D01*
X668298Y273532D01*
X668298Y276328D01*
X666900Y277727D01*
X661307Y277727D01*
X659909Y276328D01*
X659909Y273532D01*
X661307Y272134D01*
X662705Y274930D02*
X659909Y277727D01*
X665502Y281489D02*
X668298Y284285D01*
X659909Y284285D01*
X659909Y281489D02*
X659909Y287082D01*
D10*
X673000Y171000D02*
X673000Y139000D01*
X673000Y171000D02*
X657000Y171000D01*
X657000Y139000D01*
X673000Y139000D01*
X679000Y174000D02*
X651000Y174000D01*
X651000Y136000D02*
X679000Y136000D01*
D19*
X665000Y155000D03*
D12*
X673466Y175809D02*
X673466Y184198D01*
X669272Y184198D01*
X667873Y182800D01*
X667873Y180004D01*
X669272Y178605D01*
X673466Y178605D01*
X670670Y178605D02*
X667873Y175809D01*
X659916Y175809D02*
X659916Y184198D01*
X664111Y180004D01*
X658518Y180004D01*
D20*
X660428Y148576D02*
X660428Y142475D01*
X666529Y148576D01*
X668055Y148576D01*
X669580Y147051D01*
X669580Y144001D01*
X668055Y142475D01*
X660428Y151830D02*
X660428Y157932D01*
X666529Y157932D02*
X660428Y151830D01*
X666529Y157932D02*
X668055Y157932D01*
X669580Y156406D01*
X669580Y153356D01*
X668055Y151830D01*
X668055Y161186D02*
X661953Y161186D01*
X668055Y161186D02*
X669580Y162711D01*
X669580Y165762D01*
X668055Y167287D01*
X661953Y167287D01*
X660428Y165762D01*
X660428Y162711D01*
X661953Y161186D01*
X668055Y167287D01*
D10*
X673000Y189000D02*
X673000Y221000D01*
X657000Y221000D01*
X657000Y189000D01*
X673000Y189000D01*
X679000Y224000D02*
X651000Y224000D01*
X651000Y186000D02*
X679000Y186000D01*
D19*
X665000Y205000D03*
D12*
X673466Y227809D02*
X673466Y236198D01*
X669272Y236198D01*
X667873Y234800D01*
X667873Y232004D01*
X669272Y230605D01*
X673466Y230605D01*
X670670Y230605D02*
X667873Y227809D01*
X664111Y234800D02*
X662713Y236198D01*
X659916Y236198D01*
X658518Y234800D01*
X658518Y233402D01*
X659916Y232004D01*
X661315Y232004D01*
X659916Y232004D02*
X658518Y230605D01*
X658518Y229207D01*
X659916Y227809D01*
X662713Y227809D01*
X664111Y229207D01*
D20*
X660428Y197576D02*
X660428Y191475D01*
X666529Y197576D01*
X668055Y197576D01*
X669580Y196051D01*
X669580Y193001D01*
X668055Y191475D01*
X660428Y200830D02*
X660428Y206932D01*
X666529Y206932D02*
X660428Y200830D01*
X666529Y206932D02*
X668055Y206932D01*
X669580Y205406D01*
X669580Y202356D01*
X668055Y200830D01*
X668055Y210186D02*
X661953Y210186D01*
X668055Y210186D02*
X669580Y211711D01*
X669580Y214762D01*
X668055Y216287D01*
X661953Y216287D01*
X660428Y214762D01*
X660428Y211711D01*
X661953Y210186D01*
X668055Y216287D01*
D10*
X117000Y201000D02*
X117000Y169000D01*
X133000Y169000D01*
X133000Y201000D01*
X117000Y201000D01*
X111000Y166000D02*
X139000Y166000D01*
X139000Y204000D02*
X111000Y204000D01*
D19*
X125000Y185000D03*
D12*
X133466Y207809D02*
X133466Y216198D01*
X129272Y216198D01*
X127873Y214800D01*
X127873Y212004D01*
X129272Y210605D01*
X133466Y210605D01*
X130670Y210605D02*
X127873Y207809D01*
X124111Y216198D02*
X118518Y216198D01*
X124111Y216198D02*
X124111Y212004D01*
X121315Y213402D01*
X119916Y213402D01*
X118518Y212004D01*
X118518Y209207D01*
X119916Y207809D01*
X122713Y207809D01*
X124111Y209207D01*
D20*
X132424Y152428D02*
X138525Y152428D01*
X132424Y158529D01*
X132424Y160055D01*
X133949Y161580D01*
X137000Y161580D01*
X138525Y160055D01*
X129170Y152428D02*
X123068Y152428D01*
X123068Y158529D02*
X129170Y152428D01*
X123068Y158529D02*
X123068Y160055D01*
X124594Y161580D01*
X127644Y161580D01*
X129170Y160055D01*
X119814Y160055D02*
X119814Y153953D01*
X119814Y160055D02*
X118289Y161580D01*
X115239Y161580D01*
X113713Y160055D01*
X113713Y153953D01*
X115239Y152428D01*
X118289Y152428D01*
X119814Y153953D01*
X113713Y160055D01*
D10*
X559000Y250000D02*
X591000Y250000D01*
X559000Y250000D02*
X559000Y234000D01*
X591000Y234000D01*
X591000Y250000D01*
X556000Y256000D02*
X556000Y228000D01*
X594000Y228000D02*
X594000Y256000D01*
D21*
X575000Y242000D03*
D12*
X598809Y233534D02*
X607198Y233534D01*
X607198Y237728D01*
X605800Y239127D01*
X603004Y239127D01*
X601605Y237728D01*
X601605Y233534D01*
X601605Y236330D02*
X598809Y239127D01*
X604402Y242889D02*
X607198Y245685D01*
X598809Y245685D01*
X598809Y242889D02*
X598809Y248482D01*
D20*
X551580Y231526D02*
X548529Y228475D01*
X551580Y231526D02*
X542428Y231526D01*
X542428Y234576D02*
X542428Y228475D01*
X543953Y237830D02*
X550055Y237830D01*
X551580Y239356D01*
X551580Y242406D01*
X550055Y243932D01*
X543953Y243932D01*
X542428Y242406D01*
X542428Y239356D01*
X543953Y237830D01*
X550055Y243932D01*
X551580Y247186D02*
X542428Y247186D01*
X545479Y247186D02*
X551580Y253287D01*
X547004Y248711D02*
X542428Y253287D01*
D10*
X426000Y247000D02*
X394000Y247000D01*
X394000Y231000D01*
X426000Y231000D01*
X426000Y247000D01*
X391000Y253000D02*
X391000Y225000D01*
X429000Y225000D02*
X429000Y253000D01*
D21*
X410000Y239000D03*
D12*
X433809Y230534D02*
X442198Y230534D01*
X442198Y234728D01*
X440800Y236127D01*
X438004Y236127D01*
X436605Y234728D01*
X436605Y230534D01*
X436605Y233330D02*
X433809Y236127D01*
X433809Y239889D02*
X433809Y245482D01*
X433809Y239889D02*
X439402Y245482D01*
X440800Y245482D01*
X442198Y244084D01*
X442198Y241287D01*
X440800Y239889D01*
D20*
X387580Y228526D02*
X384529Y225475D01*
X387580Y228526D02*
X378428Y228526D01*
X378428Y231576D02*
X378428Y225475D01*
X379953Y234830D02*
X386055Y234830D01*
X387580Y236356D01*
X387580Y239406D01*
X386055Y240932D01*
X379953Y240932D01*
X378428Y239406D01*
X378428Y236356D01*
X379953Y234830D01*
X386055Y240932D01*
X387580Y244186D02*
X378428Y244186D01*
X381479Y244186D02*
X387580Y250287D01*
X383004Y245711D02*
X378428Y250287D01*
D14*
X59652Y281872D02*
X40475Y281872D01*
X40475Y298128D02*
X59652Y298128D01*
D15*
X63208Y290000D03*
X36792Y290000D03*
D16*
X58974Y302801D02*
X58974Y312207D01*
X54271Y312207D01*
X52704Y310639D01*
X52704Y307504D01*
X54271Y305936D01*
X58974Y305936D01*
X55839Y305936D02*
X52704Y302801D01*
X46484Y310639D02*
X43348Y312207D01*
X46484Y310639D02*
X49619Y307504D01*
X49619Y304369D01*
X48051Y302801D01*
X44916Y302801D01*
X43348Y304369D01*
X43348Y305936D01*
X44916Y307504D01*
X49619Y307504D01*
M02*
