G04 EAGLE Gerber RS-274X export*
G75*
%MOMM*%
%FSLAX34Y34*%
%LPD*%
%INSolderpaste Bottom*%
%IPPOS*%
%AMOC8*
5,1,8,0,0,1.08239X$1,22.5*%
G01*
%ADD10R,0.990600X0.304800*%
%ADD11R,1.600000X1.803000*%
%ADD12R,6.200000X5.400000*%
%ADD13R,1.600000X1.000000*%
%ADD14R,0.900000X0.450000*%
%ADD15R,0.450000X0.900000*%


D10*
X523178Y236250D03*
X523178Y229750D03*
X523178Y223250D03*
X523178Y216750D03*
X523178Y210250D03*
X523178Y203750D03*
X523178Y197250D03*
X523178Y190750D03*
X464822Y190750D03*
X464822Y197250D03*
X464822Y203750D03*
X464822Y210250D03*
X464822Y216750D03*
X464822Y223250D03*
X464822Y229750D03*
X464822Y236250D03*
X523178Y184250D03*
X523178Y177750D03*
X464822Y184250D03*
X464822Y177750D03*
X523178Y171250D03*
X523178Y164750D03*
X523178Y158250D03*
X523178Y151750D03*
X464822Y151750D03*
X464822Y158250D03*
X464822Y164750D03*
X464822Y171250D03*
D11*
X489220Y252000D03*
X460780Y252000D03*
X395780Y198000D03*
X424220Y198000D03*
D12*
X702000Y281000D03*
D13*
X629000Y258200D03*
X629000Y303800D03*
D14*
X673500Y142000D03*
X656500Y142000D03*
X673500Y151000D03*
X673500Y159000D03*
X673500Y168000D03*
X656500Y168000D03*
X656500Y151000D03*
X656500Y159000D03*
X673500Y192000D03*
X656500Y192000D03*
X673500Y201000D03*
X673500Y209000D03*
X673500Y218000D03*
X656500Y218000D03*
X656500Y201000D03*
X656500Y209000D03*
X116500Y198000D03*
X133500Y198000D03*
X116500Y189000D03*
X116500Y181000D03*
X116500Y172000D03*
X133500Y172000D03*
X133500Y189000D03*
X133500Y181000D03*
D15*
X588000Y250500D03*
X588000Y233500D03*
X579000Y250500D03*
X571000Y250500D03*
X562000Y250500D03*
X562000Y233500D03*
X579000Y233500D03*
X571000Y233500D03*
X423000Y247500D03*
X423000Y230500D03*
X414000Y247500D03*
X406000Y247500D03*
X397000Y247500D03*
X397000Y230500D03*
X414000Y230500D03*
X406000Y230500D03*
D11*
X35780Y290000D03*
X64220Y290000D03*
M02*
