G04 EAGLE Gerber RS-274X export*
G75*
%MOMM*%
%FSLAX34Y34*%
%LPD*%
%INSoldermask Bottom*%
%IPPOS*%
%AMOC8*
5,1,8,0,0,1.08239X$1,22.5*%
G01*
%ADD10C,5.943600*%
%ADD11P,1.759533X8X22.500000*%
%ADD12R,1.092200X0.406400*%
%ADD13R,1.701800X1.270000*%
%ADD14R,1.828800X0.152400*%
%ADD15R,1.701600X1.904600*%
%ADD16C,2.286000*%
%ADD17R,6.301600X5.501600*%
%ADD18R,1.701600X1.101600*%
%ADD19R,1.001600X0.551600*%
%ADD20R,0.551600X1.001600*%
%ADD21P,1.759533X8X202.500000*%
%ADD22C,3.317600*%
%ADD23C,1.751600*%


D10*
X35000Y35000D03*
X765000Y35000D03*
D11*
X161100Y212300D03*
X186500Y212300D03*
X211900Y212300D03*
X237300Y212300D03*
X262700Y212300D03*
X288100Y212300D03*
X161100Y237700D03*
X186500Y237700D03*
X211900Y237700D03*
X237300Y237700D03*
X262700Y237700D03*
X288100Y237700D03*
X313500Y212300D03*
X338900Y212300D03*
X313500Y237700D03*
X338900Y237700D03*
D12*
X523178Y236250D03*
X523178Y229750D03*
X523178Y223250D03*
X523178Y216750D03*
X523178Y210250D03*
X523178Y203750D03*
X523178Y197250D03*
X523178Y190750D03*
X464822Y190750D03*
X464822Y197250D03*
X464822Y203750D03*
X464822Y210250D03*
X464822Y216750D03*
X464822Y223250D03*
X464822Y229750D03*
X464822Y236250D03*
X523178Y184250D03*
X523178Y177750D03*
X464822Y184250D03*
X464822Y177750D03*
X523178Y171250D03*
X523178Y164750D03*
X523178Y158250D03*
X523178Y151750D03*
X464822Y151750D03*
X464822Y158250D03*
X464822Y164750D03*
X464822Y171250D03*
D13*
X415000Y286380D03*
X415000Y301620D03*
D14*
X415000Y294000D03*
D13*
X450000Y286380D03*
X450000Y301620D03*
D14*
X450000Y294000D03*
D13*
X485000Y286380D03*
X485000Y301620D03*
D14*
X485000Y294000D03*
D13*
X520000Y286380D03*
X520000Y301620D03*
D14*
X520000Y294000D03*
D13*
X555000Y286380D03*
X555000Y301620D03*
D14*
X555000Y294000D03*
D13*
X590000Y286380D03*
X590000Y301620D03*
D14*
X590000Y294000D03*
D15*
X489220Y252000D03*
X460780Y252000D03*
X395780Y198000D03*
X424220Y198000D03*
D16*
X760000Y265000D03*
X760000Y300000D03*
D17*
X702000Y281000D03*
D18*
X629000Y258200D03*
X629000Y303800D03*
D19*
X673500Y142000D03*
X656500Y142000D03*
X673500Y151000D03*
X673500Y159000D03*
X673500Y168000D03*
X656500Y168000D03*
X656500Y151000D03*
X656500Y159000D03*
X673500Y192000D03*
X656500Y192000D03*
X673500Y201000D03*
X673500Y209000D03*
X673500Y218000D03*
X656500Y218000D03*
X656500Y201000D03*
X656500Y209000D03*
X116500Y198000D03*
X133500Y198000D03*
X116500Y189000D03*
X116500Y181000D03*
X116500Y172000D03*
X133500Y172000D03*
X133500Y189000D03*
X133500Y181000D03*
D20*
X588000Y250500D03*
X588000Y233500D03*
X579000Y250500D03*
X571000Y250500D03*
X562000Y250500D03*
X562000Y233500D03*
X579000Y233500D03*
X571000Y233500D03*
X423000Y247500D03*
X423000Y230500D03*
X414000Y247500D03*
X406000Y247500D03*
X397000Y247500D03*
X397000Y230500D03*
X414000Y230500D03*
X406000Y230500D03*
D11*
X734400Y224500D03*
X734400Y199100D03*
X734400Y173700D03*
X734400Y148300D03*
X734400Y122900D03*
X734400Y97500D03*
D21*
X64600Y96500D03*
X64600Y121900D03*
X64600Y147300D03*
X64600Y172700D03*
X64600Y198100D03*
X64600Y223500D03*
D11*
X40000Y223500D03*
X40000Y198100D03*
X40000Y172700D03*
X40000Y147300D03*
X40000Y121900D03*
X40000Y96500D03*
X14600Y223500D03*
X14600Y198100D03*
X14600Y172700D03*
X14600Y147300D03*
X14600Y121900D03*
X14600Y96500D03*
D21*
X759600Y97500D03*
X759600Y122900D03*
X759600Y148300D03*
X759600Y173700D03*
X759600Y199100D03*
X759600Y224500D03*
X785000Y97500D03*
X785000Y122900D03*
X785000Y148300D03*
X785000Y173700D03*
X785000Y199100D03*
X785000Y224500D03*
D22*
X375000Y50000D03*
X285000Y50000D03*
D23*
X330000Y120000D03*
X355000Y120000D03*
X305000Y120000D03*
D22*
X225000Y50000D03*
X135000Y50000D03*
D23*
X180000Y120000D03*
X205000Y120000D03*
X155000Y120000D03*
D22*
X525000Y50000D03*
X435000Y50000D03*
D23*
X480000Y120000D03*
X505000Y120000D03*
X455000Y120000D03*
D22*
X675000Y50000D03*
X585000Y50000D03*
D23*
X630000Y120000D03*
X655000Y120000D03*
X605000Y120000D03*
D15*
X35780Y290000D03*
X64220Y290000D03*
M02*
