G04 EAGLE Gerber RS-274X export*
G75*
%MOMM*%
%FSLAX34Y34*%
%LPD*%
%INSoldermask Top*%
%IPPOS*%
%AMOC8*
5,1,8,0,0,1.08239X$1,22.5*%
G01*
%ADD10C,5.943600*%
%ADD11P,1.759533X8X22.500000*%
%ADD12C,2.286000*%
%ADD13R,2.651600X2.801600*%
%ADD14P,1.759533X8X202.500000*%
%ADD15C,3.317600*%
%ADD16C,1.751600*%
%ADD17R,1.701600X1.904600*%


D10*
X35000Y35000D03*
X765000Y35000D03*
D11*
X161100Y212300D03*
X186500Y212300D03*
X211900Y212300D03*
X237300Y212300D03*
X262700Y212300D03*
X288100Y212300D03*
X161100Y237700D03*
X186500Y237700D03*
X211900Y237700D03*
X237300Y237700D03*
X262700Y237700D03*
X288100Y237700D03*
X313500Y212300D03*
X338900Y212300D03*
X313500Y237700D03*
X338900Y237700D03*
D12*
X760000Y265000D03*
X760000Y300000D03*
D13*
X625250Y281000D03*
X688750Y281000D03*
D11*
X734400Y224500D03*
X734400Y199100D03*
X734400Y173700D03*
X734400Y148300D03*
X734400Y122900D03*
X734400Y97500D03*
D14*
X64600Y96500D03*
X64600Y121900D03*
X64600Y147300D03*
X64600Y172700D03*
X64600Y198100D03*
X64600Y223500D03*
D11*
X40000Y223500D03*
X40000Y198100D03*
X40000Y172700D03*
X40000Y147300D03*
X40000Y121900D03*
X40000Y96500D03*
X14600Y223500D03*
X14600Y198100D03*
X14600Y172700D03*
X14600Y147300D03*
X14600Y121900D03*
X14600Y96500D03*
D14*
X759600Y97500D03*
X759600Y122900D03*
X759600Y148300D03*
X759600Y173700D03*
X759600Y199100D03*
X759600Y224500D03*
X785000Y97500D03*
X785000Y122900D03*
X785000Y148300D03*
X785000Y173700D03*
X785000Y199100D03*
X785000Y224500D03*
D15*
X375000Y50000D03*
X285000Y50000D03*
D16*
X330000Y120000D03*
X355000Y120000D03*
X305000Y120000D03*
D15*
X225000Y50000D03*
X135000Y50000D03*
D16*
X180000Y120000D03*
X205000Y120000D03*
X155000Y120000D03*
D15*
X525000Y50000D03*
X435000Y50000D03*
D16*
X480000Y120000D03*
X505000Y120000D03*
X455000Y120000D03*
D15*
X675000Y50000D03*
X585000Y50000D03*
D16*
X630000Y120000D03*
X655000Y120000D03*
X605000Y120000D03*
D17*
X64220Y290000D03*
X35780Y290000D03*
D13*
X625250Y227000D03*
X688750Y227000D03*
M02*
